<?xml version="1.0" encoding="utf-8"?>
<!-- Generator: Adobe Illustrator 16.0.0, SVG Export Plug-In . SVG Version: 6.00 Build 0)  -->
<!DOCTYPE svg PUBLIC "-//W3C//DTD SVG 1.1//EN" "http://www.w3.org/Graphics/SVG/1.1/DTD/svg11.dtd">
<svg version="1.1" id="Layer_1" xmlns="http://www.w3.org/2000/svg" xmlns:xlink="http://www.w3.org/1999/xlink" x="0px" y="0px"
	 width="200px" height="80px" viewBox="0 0 200 80" enable-background="new 0 0 200 80" xml:space="preserve">
<polygon fill="#FFFFFF" points="89.922,55.588 89.922,37.46 95.01,37.46 95.01,44.257 110.677,44.257 110.677,37.46 115.765,37.46 
	115.765,55.588 110.677,55.588 110.677,48.788 95.01,48.788 95.01,55.588 "/>
<path fill="#FFFFFF" d="M12.57,41.992h16.225V37.46H12.02c-5.006,0-9.065,4.058-9.065,9.064c0,5.008,4.059,9.064,9.065,9.064v-0.001
	h16.775v-4.53H12.57c-2.5,0-4.533-2.031-4.533-4.533C8.038,44.024,10.07,41.992,12.57,41.992"/>
<path fill="#FFFFFF" d="M70.378,41.992h16.227V37.46H69.828c-5.006,0-9.065,4.058-9.065,9.064c0,5.008,4.059,9.064,9.065,9.064
	v-0.001h16.778v-4.53H70.378c-2.499,0-4.531-2.031-4.531-4.533C65.847,44.024,67.88,41.992,70.378,41.992"/>
<path fill="#FFFFFF" d="M125.633,46.524c0,1.251,1.013,2.265,2.264,2.265h16.224v-4.532h-16.224
	C126.646,44.257,125.633,45.271,125.633,46.524"/>
<path fill="#FFFFFF" d="M127.345,37.46c-5.005,0-9.063,4.058-9.063,9.064c0,5.008,4.059,9.064,9.063,9.064v-0.001h16.775v-4.53
	h-16.224c-2.501,0-4.534-2.031-4.534-4.533c0-2.5,2.033-4.532,4.534-4.532h16.224V37.46H127.345z"/>
<path fill="#FFFFFF" d="M52.838,37.46v13.597H41.701v-0.001c-2.503,0-4.532-2.031-4.532-4.532v-0.004v-9.06h-5.087v9.06v0.004
	c0,5.004,4.061,9.063,9.067,9.063h16.776V37.46H52.838z"/>
<path fill="#FFFFFF" d="M173.27,46.524c0-5.005-4.063-9.064-9.066-9.064h-16.779v18.127h5.09V41.992h11.137
	c2.502,0,4.533,2.032,4.533,4.532v0.004v9.06h5.086v-9.06V46.524z"/>
<path fill="#E46B1F" d="M184.788,23.623c-5.984,0-10.845,4.857-10.845,10.847c0,5.993,4.86,10.852,10.845,10.852
	c5.997,0,10.854-4.858,10.854-10.852C195.643,28.479,190.785,23.623,184.788,23.623 M191.762,34.12L191.762,34.12v0.004
	c-1.459,0.471-4.128-0.496-4.694,1.229c-0.559,1.727,2.174,2.511,3.076,3.753c0.546,0.751,0.381,1.808-0.376,2.354
	c-0.751,0.55-1.809,0.381-2.353-0.372c-0.903-1.242-0.806-4.082-2.627-4.082c-1.811,0-1.717,2.84-2.617,4.082
	c-0.547,0.753-1.599,0.922-2.359,0.372c-0.747-0.546-0.915-1.603-0.369-2.354c0.905-1.242,3.632-2.027,3.073-3.753
	c-0.56-1.726-3.232-0.758-4.69-1.229c-0.889-0.288-1.372-1.242-1.085-2.13c0.29-0.887,1.237-1.369,2.126-1.08
	c1.457,0.474,3.05,2.829,4.521,1.762c1.471-1.064-0.281-3.31-0.281-4.844c0-0.93,0.759-1.687,1.682-1.687
	c0.938,0,1.691,0.757,1.691,1.687c0,1.535-1.751,3.78-0.28,4.844c1.467,1.067,3.061-1.288,4.523-1.762
	c0.887-0.289,1.834,0.193,2.126,1.082C193.134,32.883,192.648,33.836,191.762,34.12"/>
</svg>
