<?xml version="1.0" encoding="utf-8"?>
<!-- Generator: Adobe Illustrator 16.0.0, SVG Export Plug-In . SVG Version: 6.00 Build 0)  -->
<!DOCTYPE svg PUBLIC "-//W3C//DTD SVG 1.1//EN" "http://www.w3.org/Graphics/SVG/1.1/DTD/svg11.dtd">
<svg version="1.1" id="Layer_1" xmlns="http://www.w3.org/2000/svg" xmlns:xlink="http://www.w3.org/1999/xlink" x="0px" y="0px"
	 width="372.96px" height="372.96px" viewBox="0 0 372.96 372.96" enable-background="new 0 0 372.96 372.96" xml:space="preserve">
<path fill="#6C6C6C" d="M186.48,0C83.49,0,0,83.49,0,186.48s83.49,186.48,186.48,186.48c102.989,0,186.479-83.49,186.479-186.48
	C372.828,83.545,289.415,0.132,186.48,0 M323.84,194.479h32.8c-4.19,87.75-74.407,157.933-162.159,162.08v-32.8c0-4.418-3.582-8-8-8
	c-4.418,0-8,3.582-8,8v32.8c-87.721-4.188-157.892-74.358-162.08-162.08h32.8c4.418,0,8-3.581,8-8c0-4.418-3.582-8-8-8H16.4
	C20.588,90.759,90.759,20.588,178.48,16.4v32.8c0,4.418,3.582,8,8,8c4.418,0,8-3.582,8-8V16.4
	c87.721,4.188,157.892,74.359,162.079,162.08h-32.8c-4.418,0-8,3.582-8,8c0,4.418,3.582,8,8,8H323.84z"/>
<path fill="#6C6C6C" d="M194.48,183.2v-80.72c0-4.418-3.582-8-8-8c-4.418,0-8,3.582-8,8v84c0.009,2.099,0.842,4.11,2.32,5.6
	l78.641,80c3.093,3.159,8.16,3.213,11.319,0.12s3.213-8.161,0.12-11.32L194.48,183.2z"/>
</svg>
