<?xml version="1.0" encoding="utf-8"?>
<!-- Generator: Adobe Illustrator 19.0.0, SVG Export Plug-In . SVG Version: 6.00 Build 0)  -->
<svg version="1.1" id="Layer_1" xmlns="http://www.w3.org/2000/svg" xmlns:xlink="http://www.w3.org/1999/xlink" x="0px" y="0px"
	 viewBox="0 0 512 443.5" style="enable-background:new 0 0 512 443.5;" xml:space="preserve">
<style type="text/css">
	.st0{fill:#B4D7DC;}
	.st1{fill:#748488;}
	.st2{fill:#BA6746;}
	.st3{fill:#55696E;}
	.st4{fill:#FFDA52;}
	.st5{fill:#E28C71;}
	.st6{fill:#FFC305;}
	.st7{fill:#5F6E9B;}
	.st8{fill:#414B82;}
	.st9{fill:#64AFFF;}
	.st10{fill:#FFB69E;}
	.st11{fill:#4699F2;}
</style>
<g id="surface1">
	<path class="st0" d="M327.2,149.7c-1-2.6-4.2-3.5-6.5-1.8l-27.7,20.3l-32,0.4c-3.1,0-5.1,3.2-3.8,6l26.6,58.5
		c0.7,1.5,2.2,2.5,3.9,2.5h32.6l29.5-21.6c1.6-1.2,2.2-3.2,1.4-5L327.2,149.7z"/>
	<path class="st1" d="M92.1,308.1c-9.1,0-17.5-5.9-20.3-15c-3.4-11.2,2.9-23,14.1-26.4l92.6-28.2c11.2-3.4,23,2.9,26.4,14.1
		c3.4,11.2-2.9,23-14.1,26.4l-92.6,28.2C96.2,307.8,94.1,308.1,92.1,308.1z"/>
	<path class="st2" d="M24.6,434.6C17,433.1,12,425.7,13.5,418L32,323.6c1.5-7.7,8.9-12.6,16.6-11.1c7.7,1.5,12.6,8.9,11.1,16.6
		l-18.5,94.4C39.7,431.1,32.3,436.1,24.6,434.6z"/>
	<path class="st2" d="M104.7,423.4L86.2,329c-1.5-7.7,3.5-15.1,11.1-16.6c7.7-1.5,15.1,3.5,16.6,11.1l18.5,94.4
		c1.5,7.7-3.5,15.1-11.1,16.6C113.6,436.1,106.2,431.1,104.7,423.4z"/>
	<path class="st3" d="M151,420.8l-34.7-97.3l-61.2-19.6c-11.1-3.6-17.3-15.5-13.7-26.6c3.6-11.1,15.5-17.3,26.6-13.7l71.2,22.8
		c6.3,2,11.3,6.8,13.5,13.1l38.2,107.1c3.9,11-1.8,23.1-12.8,27.1C167.1,437.5,154.9,431.8,151,420.8z"/>
	<path class="st4" d="M118.9,311.3l-56.4,8.6c-6.2,0.9-12.6-1-17.3-5.2c-4.7-4.2-7.2-10.4-6.9-16.7l6-121.9
		c0.7-14.3,13.5-25.1,27.8-23.2l41.6,5.4c13.5,1.7,23,14.1,21.3,27.6L118.9,311.3z"/>
	<path class="st2" d="M141.1,101.7c0,20.2-16.3,36.5-36.5,36.5c-20.2,0-36.5-16.3-36.5-36.5c0-20.1,16.3-36.5,36.5-36.5
		C124.7,65.3,141.1,81.6,141.1,101.7z"/>
	<path class="st5" d="M107.2,339.1H14.1C6.3,339.1,0,332.8,0,325c0-7.8,6.3-14.1,14.1-14.1h93.1c7.8,0,14.1,6.3,14.1,14.1
		C121.4,332.8,115,339.1,107.2,339.1z"/>
	<path class="st1" d="M120.9,349.8c-5.1,0-10.2-1.8-14.3-5.5c-8.6-7.9-9.2-21.3-1.3-29.9l63.8-69.8c7.9-8.6,21.3-9.2,29.9-1.4
		c8.6,7.9,9.2,21.3,1.4,29.9l-63.8,69.8C132.4,347.5,126.6,349.8,120.9,349.8z"/>
	<path class="st2" d="M119.8,253.7l-48.3-64.4c-5.9-7.8-4.3-18.9,3.5-24.7c7.8-5.8,18.9-4.3,24.7,3.5l42.6,56.8l56.5-3.2
		c9.7-0.6,18.1,6.9,18.6,16.6c0.6,9.7-6.9,18.1-16.6,18.6l-65.9,3.8C129,261.1,123.3,258.4,119.8,253.7z"/>
	<path class="st6" d="M128.2,206.1l-28.4-37.9c-5.9-7.8-16.9-9.4-24.7-3.5c-7.8,5.8-9.4,16.9-3.5,24.7l29.4,39.2L128.2,206.1z"/>
	<path class="st7" d="M419.9,308.1c9.1,0,17.5-5.9,20.3-15c3.4-11.2-2.9-23-14.1-26.4l-92.6-28.2c-11.2-3.4-23,2.9-26.4,14.1
		c-3.4,11.2,2.9,23,14.1,26.4l92.6,28.2C415.8,307.8,417.9,308.1,419.9,308.1z"/>
	<path class="st2" d="M487.4,434.6c7.7-1.5,12.6-8.9,11.1-16.6L480,323.6c-1.5-7.7-8.9-12.6-16.6-11.1c-7.7,1.5-12.6,8.9-11.1,16.6
		l18.5,94.4C472.3,431.1,479.7,436.1,487.4,434.6z"/>
	<path class="st2" d="M407.3,423.4l18.5-94.4c1.5-7.7-3.5-15.1-11.1-16.6c-7.7-1.5-15.1,3.5-16.6,11.1L379.6,418
		c-1.5,7.7,3.5,15.1,11.1,16.6C398.4,436.1,405.8,431.1,407.3,423.4z"/>
	<path class="st8" d="M361,420.8l34.7-97.3l61.2-19.6c11.1-3.6,17.3-15.5,13.7-26.6c-3.6-11.1-15.5-17.3-26.6-13.7l-71.2,22.8
		c-6.3,2-11.3,6.8-13.5,13.1l-38.2,107.1c-3.9,11,1.8,23.1,12.8,27.1C344.9,437.5,357.1,431.8,361,420.8z"/>
	<path class="st9" d="M393.1,311.3l56.4,8.6c6.2,0.9,12.6-1,17.3-5.2c4.7-4.2,7.2-10.4,6.9-16.7l-6-121.9
		c-0.7-14.3-13.5-25.1-27.8-23.2l-41.6,5.4c-13.5,1.7-23,14.1-21.3,27.6L393.1,311.3z"/>
	<path class="st10" d="M443.9,101.7c0,20.2-16.3,36.5-36.5,36.5c-20.1,0-36.5-16.3-36.5-36.5c0-20.1,16.3-36.5,36.5-36.5
		C427.6,65.3,443.9,81.6,443.9,101.7z"/>
	<path class="st5" d="M404.8,339.1h93.1c7.8,0,14.1-6.3,14.1-14.1c0-7.8-6.3-14.1-14.1-14.1h-93.1c-7.8,0-14.1,6.3-14.1,14.1
		C390.6,332.8,397,339.1,404.8,339.1z"/>
	<path class="st7" d="M391.1,349.8c5.1,0,10.2-1.8,14.3-5.5c8.6-7.9,9.2-21.3,1.3-29.9l-63.8-69.8c-7.9-8.6-21.3-9.2-29.9-1.4
		c-8.6,7.9-9.2,21.3-1.4,29.9l63.8,69.8C379.6,347.5,385.4,349.8,391.1,349.8z"/>
	<path class="st10" d="M392.2,253.7l48.3-64.4c5.9-7.8,4.3-18.9-3.5-24.7c-7.8-5.8-18.9-4.3-24.7,3.5L369.6,225l-56.5-3.2
		c-9.7-0.6-18.1,6.9-18.6,16.6c-0.6,9.7,6.9,18.1,16.6,18.6l65.9,3.8C383,261.1,388.7,258.4,392.2,253.7z"/>
	<path class="st11" d="M383.8,206.1l28.4-37.9c5.9-7.8,16.9-9.4,24.7-3.5c7.8,5.8,9.4,16.9,3.5,24.7l-29.4,39.2L383.8,206.1z"/>
	<path class="st0" d="M247.1,0c-49.5,0-89.6,24.9-89.6,55.6c0,12.6,6.8,24.2,18.2,33.6l-10.7,17c-2.1,3.3,1.1,7.5,4.8,6.3l30.8-9.3
		c13.5,5.1,29.4,8,46.4,8c49.5,0,89.6-24.9,89.6-55.6C336.7,24.9,296.6,0,247.1,0z"/>
</g>
</svg>
