<?xml version="1.0" encoding="utf-8"?>
<!-- Generator: Adobe Illustrator 19.0.0, SVG Export Plug-In . SVG Version: 6.00 Build 0)  -->
<svg version="1.1" id="Capa_1" xmlns="http://www.w3.org/2000/svg" xmlns:xlink="http://www.w3.org/1999/xlink" x="0px" y="0px"
	 viewBox="0 0 512 512" style="enable-background:new 0 0 512 512;" xml:space="preserve">
<style type="text/css">
	.st0{fill:#FFFFFF;}
</style>
<g>
	<g>
		<path class="st0" d="M501,9.1H122.4c-6.1,0-11,4.9-11,11v218.6H11c-6.1,0-11,4.9-11,11v186.4c0,36.8,29.9,66.7,66.7,66.7
			c0.9,0,378.6,0,378.6,0c36.8,0,66.7-29.9,66.7-66.7V20.1C512,14.1,507.1,9.1,501,9.1z M22,436.2V260.8h89.4v175.4
			c0,24.6-20,44.7-44.7,44.7C42,480.9,22,460.8,22,436.2z M490,436.2c0,24.6-20,44.7-44.7,44.7H116.1c10.7-11.8,17.2-27.5,17.2-44.7
			V31.1H490V436.2L490,436.2z"/>
		<path class="st0" d="M296.2,136.2h141c6.1,0,11-4.9,11-11c0-6.1-4.9-11-11-11h-141c-6.1,0-11,4.9-11,11
			C285.2,131.2,290.2,136.2,296.2,136.2z"/>
		<path class="st0" d="M296.2,257h141c6.1,0,11-4.9,11-11c0-6.1-4.9-11-11-11h-141c-6.1,0-11,4.9-11,11
			C285.2,252.1,290.2,257,296.2,257z"/>
		<path class="st0" d="M296.2,377.8h141c6.1,0,11-4.9,11-11s-4.9-11-11-11h-141c-6.1,0-11,4.9-11,11
			C285.2,372.9,290.2,377.8,296.2,377.8z"/>
		<path class="st0" d="M194.8,148.5c2.1,2.2,5,3.4,8,3.4c0,0,0.1,0,0.1,0c3.1,0,6-1.3,8-3.6l60.4-66.2c4.1-4.5,3.8-11.4-0.7-15.5
			c-4.5-4.1-11.4-3.8-15.5,0.7l-52.4,57.4l-16.3-17.3c-4.2-4.4-11.1-4.6-15.5-0.4c-4.4,4.2-4.6,11.1-0.4,15.5L194.8,148.5z"/>
		<path class="st0" d="M255,193.5l-52.4,57.4l-16.3-17.3c-4.2-4.4-11.1-4.6-15.5-0.4c-4.4,4.2-4.6,11.1-0.4,15.5l24.5,25.9
			c2.1,2.2,5,3.4,8,3.4c0,0,0.1,0,0.1,0c3.1,0,6-1.3,8-3.6l60.4-66.2c4.1-4.5,3.8-11.4-0.7-15.5C266.1,188.7,259.1,189,255,193.5z"
			/>
		<path class="st0" d="M255,319.5L202.6,377l-16.3-17.3c-4.2-4.4-11.1-4.6-15.5-0.4c-4.4,4.2-4.6,11.1-0.4,15.5l24.5,25.9
			c2.1,2.2,5,3.4,8,3.4c0,0,0.1,0,0.1,0c3.1,0,6-1.3,8-3.6l60.4-66.2c4.1-4.5,3.8-11.4-0.7-15.5C266.1,314.7,259.1,315.1,255,319.5z
			"/>
	</g>
</g>
</svg>
