<?xml version="1.0" encoding="utf-8"?>
<!-- Generator: Adobe Illustrator 19.0.0, SVG Export Plug-In . SVG Version: 6.00 Build 0)  -->
<svg version="1.1" id="Layer_1" xmlns="http://www.w3.org/2000/svg" xmlns:xlink="http://www.w3.org/1999/xlink" x="0px" y="0px"
	 viewBox="0 0 512 512" style="enable-background:new 0 0 512 512;" xml:space="preserve">
<style type="text/css">
	.st0{fill:#FFFFFF;}
</style>
<path class="st0" d="M472.2,214.2c-3.7,0-7.2,0.5-10.6,1.4l-23.3-40.3c7.5-7.2,12.1-17.3,12.1-28.5c0-11.1-4.6-21.1-11.9-28.3
	l8.3-14.4c2.8-4.8,1.1-10.9-3.6-13.7c-4.8-2.8-10.9-1.1-13.7,3.7l-8.3,14.4c-3.4-0.9-6.9-1.4-10.5-1.4c-18.5,0-34,12.7-38.5,29.8
	h-46.6c-4.4-17.1-20-29.8-38.5-29.8c-3.7,0-7.2,0.5-10.6,1.4l-23.4-40.5c7.3-7.2,11.9-17.2,11.9-28.3c0-21.9-17.8-39.8-39.8-39.8
	c-18.5,0-34,12.7-38.5,29.8h-46.8C135.6,12.7,120.1,0,101.6,0C79.7,0,61.8,17.8,61.8,39.8c0,11.1,4.5,21.1,11.9,28.3l-23.4,40.5
	c-3.4-0.9-6.9-1.4-10.6-1.4C17.8,107.1,0,125,0,146.9s17.8,39.8,39.8,39.8c3.7,0,7.2-0.5,10.6-1.4l23.4,40.5
	c-7.3,7.2-11.9,17.2-11.9,28.3c0,11.1,4.5,21.1,11.9,28.3l-23.4,40.5c-3.4-0.9-6.9-1.4-10.6-1.4C17.8,321.4,0,339.2,0,361.1
	c0,21.9,17.8,39.8,39.8,39.8c3.7,0,7.2-0.5,10.6-1.4l23.4,40.5c-7.3,7.2-11.9,17.3-11.9,28.3c0,21.9,17.8,39.8,39.8,39.8
	c18.5,0,34-12.7,38.5-29.8h46.8c4.4,17.1,20,29.8,38.5,29.8c21.9,0,39.8-17.8,39.8-39.8c0-11.1-4.6-21.1-11.9-28.3l23.4-40.5
	c3.4,0.9,6.9,1.4,10.6,1.4c18.5,0,34-12.7,38.5-29.8h46.6c4.4,17.1,20,29.8,38.5,29.8c3.6,0,7-0.5,10.3-1.4l8.1,13.9
	c1.9,3.2,5.2,5,8.7,5c1.7,0,3.4-0.4,5-1.3c4.8-2.8,6.4-8.9,3.7-13.7l-8-13.8c7.4-7.2,12-17.3,12-28.5c0-11.2-4.6-21.3-12.1-28.5
	l23.3-40.3c3.4,0.9,6.9,1.4,10.6,1.4c21.9,0,39.8-17.8,39.8-39.8S494.2,214.2,472.2,214.2z M410.7,127.1c10.9,0,19.8,8.9,19.8,19.8
	s-8.9,19.8-19.8,19.8s-19.8-8.9-19.8-19.8S399.9,127.1,410.7,127.1z M306.9,146.9c0,10.9-8.9,19.8-19.8,19.8
	c-10.9,0-19.8-8.9-19.8-19.8s8.9-19.8,19.8-19.8C298,127.1,306.9,136,306.9,146.9z M225.3,20c10.9,0,19.8,8.9,19.8,19.8
	c0,10.9-8.9,19.8-19.8,19.8c-10.9,0-19.8-8.9-19.8-19.8C205.6,28.9,214.4,20,225.3,20z M101.6,20c10.9,0,19.8,8.9,19.8,19.8
	c0,10.9-8.9,19.8-19.8,19.8c-10.9,0-19.8-8.9-19.8-19.8C81.8,28.9,90.7,20,101.6,20z M20,146.9c0-10.9,8.9-19.8,19.8-19.8
	c10.9,0,19.8,8.9,19.8,19.8s-8.9,19.8-19.8,19.8C28.9,166.6,20,157.8,20,146.9z M67.6,175.2c7.3-7.2,11.9-17.2,11.9-28.3
	c0-11.1-4.5-21.1-11.9-28.3L91,78.1c3.4,0.9,6.9,1.4,10.6,1.4c18.5,0,34-12.7,38.5-29.8h46.8c4.4,17.1,20,29.8,38.5,29.8
	c3.6,0,7.2-0.5,10.5-1.4l23.4,40.5c-7.3,7.2-11.9,17.2-11.9,28.3c0,11.1,4.6,21.1,11.9,28.3l-23.4,40.5c-3.4-0.9-6.9-1.4-10.5-1.4
	c-18.5,0-34,12.7-38.5,29.8h-46.8c-4.4-17.1-20-29.8-38.5-29.8c-3.7,0-7.2,0.5-10.6,1.4L67.6,175.2z M245.1,254
	c0,10.9-8.9,19.8-19.8,19.8c-10.9,0-19.8-8.9-19.8-19.8c0-10.9,8.9-19.8,19.8-19.8C236.2,234.2,245.1,243.1,245.1,254z M81.8,254
	c0-10.9,8.9-19.8,19.8-19.8c10.9,0,19.8,8.9,19.8,19.8c0,10.9-8.9,19.8-19.8,19.8C90.7,273.8,81.8,264.9,81.8,254z M20,361.1
	c0-10.9,8.9-19.8,19.8-19.8c10.9,0,19.8,8.9,19.8,19.8s-8.9,19.8-19.8,19.8C28.9,380.9,20,372,20,361.1z M101.6,488
	c-10.9,0-19.8-8.9-19.8-19.8c0-10.9,8.9-19.8,19.8-19.8s19.8,8.9,19.8,19.8C121.3,479.1,112.5,488,101.6,488z M225.3,488
	c-10.9,0-19.8-8.9-19.8-19.8c0-10.9,8.9-19.8,19.8-19.8c10.9,0,19.8,8.9,19.8,19.8C245.1,479.1,236.2,488,225.3,488z M235.9,429.9
	c-3.4-0.9-6.9-1.4-10.5-1.4c-18.5,0-34,12.7-38.5,29.8H140c-4.4-17.1-20-29.8-38.5-29.8c-3.6,0-7.2,0.5-10.5,1.4l-23.4-40.5
	c7.3-7.2,11.9-17.2,11.9-28.3c0-11.1-4.5-21.1-11.9-28.3L91,292.3c3.4,0.9,6.9,1.4,10.6,1.4c18.5,0,34-12.7,38.5-29.8h46.8
	c4.4,17.1,20,29.8,38.5,29.8c3.6,0,7.2-0.5,10.5-1.4l23.4,40.5c-7.3,7.2-11.9,17.2-11.9,28.3c0,11.1,4.6,21.1,11.9,28.3L235.9,429.9
	z M287.1,380.9c-10.9,0-19.8-8.9-19.8-19.8c0-7.3,4-13.7,9.9-17.1c0,0,0,0,0,0c0,0,0,0,0,0c2.9-1.7,6.2-2.6,9.8-2.6
	c10.9,0,19.8,8.9,19.8,19.8S298,380.9,287.1,380.9z M391,361.1c0-10.9,8.9-19.8,19.8-19.8s19.8,8.9,19.8,19.8c0,7-3.7,13.1-9.2,16.6
	c-0.3,0.1-0.7,0.3-1,0.5c-0.3,0.2-0.5,0.3-0.8,0.5c-2.7,1.3-5.6,2.1-8.8,2.1C399.9,380.9,391,372,391,361.1z M421,322.7
	c-3.3-0.9-6.7-1.4-10.3-1.4c-18.5,0-34,12.7-38.5,29.8h-46.6c-4.4-17.1-20-29.8-38.5-29.8c-3.7,0-7.2,0.5-10.5,1.4l-23.4-40.5
	c7.3-7.2,11.9-17.2,11.9-28.3s-4.6-21.1-11.9-28.3l23.4-40.5c3.4,0.9,6.9,1.4,10.5,1.4c18.5,0,34-12.7,38.5-29.8h46.6
	c4.4,17.1,20,29.8,38.5,29.8c3.6,0,7-0.5,10.3-1.4l23.3,40.4c-7.3,7.2-11.9,17.2-11.9,28.3c0,11.1,4.5,21.1,11.9,28.3L421,322.7z
	 M472.2,273.8c-10.9,0-19.8-8.9-19.8-19.8c0-10.9,8.9-19.8,19.8-19.8c10.9,0,19.8,8.9,19.8,19.8C492,264.9,483.1,273.8,472.2,273.8z
	"/>
<path class="st0" d="M455.4,79.5c2.6,0,5.2-1.1,7.1-2.9c1.9-1.9,2.9-4.4,2.9-7.1c0-2.6-1.1-5.2-2.9-7.1c-1.9-1.9-4.4-2.9-7.1-2.9
	c-2.6,0-5.2,1.1-7.1,2.9c-1.9,1.9-2.9,4.4-2.9,7.1c0,2.6,1.1,5.2,2.9,7.1C450.2,78.4,452.8,79.5,455.4,79.5z"/>
<path class="st0" d="M455.2,428.5c-2.6,0-5.2,1.1-7.1,2.9c-1.9,1.9-2.9,4.4-2.9,7.1c0,2.6,1.1,5.2,2.9,7.1c1.9,1.9,4.4,2.9,7.1,2.9
	c2.6,0,5.2-1.1,7.1-2.9c1.9-1.9,2.9-4.4,2.9-7.1c0-2.6-1.1-5.2-2.9-7.1C460.4,429.6,457.8,428.5,455.2,428.5z"/>
</svg>
