<?xml version="1.0" encoding="utf-8"?>
<!-- Generator: Adobe Illustrator 19.0.0, SVG Export Plug-In . SVG Version: 6.00 Build 0)  -->
<svg version="1.1" id="Layer_1" xmlns="http://www.w3.org/2000/svg" xmlns:xlink="http://www.w3.org/1999/xlink" x="0px" y="0px"
	 viewBox="0 0 512 318.5" style="enable-background:new 0 0 512 318.5;" xml:space="preserve">
<style type="text/css">
	.st0{fill:#FFFFFF;}
</style>
<path class="st0" d="M503.6,292.6c-9.4,0.2-18.6-2.3-26.5-7.4c-21.3-12.6-47.9-12.6-69.2,0c-16.3,9.8-36.6,9.8-52.9,0
	c-21.3-12.6-47.9-12.6-69.2,0c-16.3,9.8-36.6,9.8-52.9,0c-10.4-6.4-22.4-9.7-34.6-9.5c-12.2-0.3-24.2,3-34.6,9.5
	c-7.9,5.1-17.1,7.6-26.4,7.4c-9.4,0.2-18.6-2.3-26.4-7.4c-10.4-6.4-22.4-9.7-34.6-9.5c-12.2-0.3-24.2,3-34.6,9.5
	c-7.9,5.1-17.1,7.6-26.4,7.4c-4.6,0-8.4,3.8-8.4,8.4c0,4.7,3.8,8.4,8.4,8.4c12.2,0.3,24.2-3,34.6-9.5c7.9-5,17.1-7.6,26.4-7.4
	c9.4-0.2,18.6,2.3,26.4,7.4c10.4,6.4,22.4,9.7,34.6,9.5c12.2,0.3,24.2-3,34.6-9.5c7.9-5,17.1-7.6,26.4-7.4
	c9.4-0.2,18.6,2.3,26.4,7.4c21.3,12.6,47.8,12.6,69.2,0c16.3-9.8,36.6-9.8,52.9,0c21.3,12.6,47.8,12.6,69.2,0
	c16.3-9.8,36.7-9.8,53,0c10.4,6.4,22.4,9.7,34.6,9.5c4.6,0,8.4-3.8,8.4-8.4C512,296.4,508.2,292.6,503.6,292.6z"/>
<path class="st0" d="M6.9,267.4c0,4.7,3.8,8.4,8.4,8.4c12.2,0.3,24.2-3,34.5-9.5c7.9-5,17.1-7.6,26.5-7.4c9.4-0.2,18.6,2.4,26.6,7.5
	c10.3,6.4,22.3,9.6,34.4,9.4c12.2,0.3,24.3-3,34.7-9.5c7.9-5.1,17-7.6,26.4-7.4c9.4-0.2,18.7,2.4,26.6,7.5
	c21.3,12.5,47.8,12.5,69-0.1c7.9-5.1,17.1-7.6,26.4-7.4c9.4-0.2,18.7,2.4,26.6,7.5c21.3,12.6,47.8,12.5,69-0.1
	c7.9-5,17.1-7.6,26.5-7.4c1.8,0,3.5,0.1,5.2,0.2c7.5,0.6,14.8,3.1,21.2,7.2c10.4,6.4,22.4,9.7,34.6,9.5c4.6,0,8.4-3.8,8.4-8.4
	c0-4.6-3.8-8.4-8.4-8.4c-9.4,0.3-18.6-2.3-26.5-7.4c-5.1-3-10.5-5.4-16.1-7.1l50.1-99.7c1.3-2.6,1.2-5.7-0.4-8.2
	c-1.5-2.5-4.2-4-7.2-4h-42.1V14.8c0-4.6-3.8-8.4-8.4-8.4H150c-4.6,0-8.4,3.8-8.4,8.4v143.1h-16.8V31.7c0-4.6-3.8-8.4-8.4-8.4H49
	c-4.2,0-7.7,3-8.3,7.1L24.9,132.7h-9.6c-4.6,0-8.4,3.8-8.4,8.4v75.8c0,1.5,0.4,3,1.2,4.3l21.5,35.9c-4.7,1.3-9.5,2-14.3,1.9
	C10.6,259,6.9,262.7,6.9,267.4z M402.5,132.7c-1.8,0-3.6,0.6-5.1,1.7l-31.4,23.6h-5.6v-33.7h84.2v8.4H402.5z M259.4,157.9v-33.7
	h84.2v33.7H259.4z M158.4,73.8h84.2v33.7h-84.2V73.8z M444.6,107.4h-84.2V73.8h84.2V107.4z M343.6,107.4h-84.2V73.8h84.2V107.4z
	 M444.6,56.9h-84.2V23.2h84.2V56.9z M343.6,56.9h-84.2V23.2h84.2V56.9z M158.4,23.2h84.2v33.7h-84.2V23.2z M158.4,124.3h84.2v33.7
	h-84.2V124.3z M56.2,40.1h51.7v106L97,135.2c-1.6-1.6-3.7-2.5-6-2.5H41.9L56.2,40.1z M23.7,149.5h63.9l22.8,22.8
	c1.6,1.6,3.7,2.5,6,2.5h252.6c1.8,0,3.6-0.6,5.1-1.7l31.4-23.6h84.6l-46.6,92.6c-0.3,0-0.5,0-0.8,0c-12.2-0.2-24.2,3-34.6,9.5
	c-16.3,9.9-36.8,9.8-53-0.1c-21.3-12.6-47.8-12.5-69,0.1c-16.3,9.9-36.8,9.8-53-0.1c-10.3-6.4-22.3-9.6-34.5-9.4
	c-12.2-0.3-24.2,3-34.5,9.5c-7.9,5-17.1,7.6-26.5,7.4c-9.4,0.2-18.6-2.4-26.5-7.4c-10.3-6.4-22.3-9.6-34.4-9.4c-2.1,0-4,0.1-5.8,0.2
	c-0.6,0-1.2,0.1-1.8,0.2c-1.2,0.1-2.3,0.2-3.4,0.4c-0.6,0.1-1.3,0.2-1.9,0.3c-1,0.2-1.9,0.3-2.8,0.6c-0.6,0.1-1.2,0.3-1.8,0.4
	c-0.8,0.2-1.7,0.5-2.5,0.7c-0.5,0.2-1,0.3-1.5,0.5c-0.8,0.3-1.6,0.6-2.4,0.9c-0.4,0.2-0.8,0.3-1.2,0.5c-0.9,0.4-1.8,0.8-2.7,1.2
	l-0.6,0.3c-1.1,0.5-2.1,1-3.1,1.6l-21.2-35.3V149.5z"/>
<path class="st0" d="M82.6,48.5h-8.4c-4.6,0-8.4,3.8-8.4,8.4c0,4.7,3.8,8.4,8.4,8.4h8.4c4.6,0,8.4-3.8,8.4-8.4
	C91,52.3,87.3,48.5,82.6,48.5z"/>
<path class="st0" d="M82.6,208.5H91c4.6,0,8.4-3.8,8.4-8.4c0-4.6-3.8-8.4-8.4-8.4h-8.4c-4.6,0-8.4,3.8-8.4,8.4
	C74.2,204.7,78,208.5,82.6,208.5z"/>
<path class="st0" d="M124.7,208.5h8.4c4.6,0,8.4-3.8,8.4-8.4c0-4.6-3.8-8.4-8.4-8.4h-8.4c-4.6,0-8.4,3.8-8.4,8.4
	C116.3,204.7,120.1,208.5,124.7,208.5z"/>
<path class="st0" d="M166.8,208.5h8.4c4.6,0,8.4-3.8,8.4-8.4c0-4.6-3.8-8.4-8.4-8.4h-8.4c-4.6,0-8.4,3.8-8.4,8.4
	C158.4,204.7,162.2,208.5,166.8,208.5z"/>
<path class="st0" d="M208.9,208.5h8.4c4.6,0,8.4-3.8,8.4-8.4c0-4.6-3.8-8.4-8.4-8.4h-8.4c-4.6,0-8.4,3.8-8.4,8.4
	C200.5,204.7,204.3,208.5,208.9,208.5z"/>
<path class="st0" d="M251,208.5h8.4c4.6,0,8.4-3.8,8.4-8.4c0-4.6-3.8-8.4-8.4-8.4H251c-4.6,0-8.4,3.8-8.4,8.4
	C242.6,204.7,246.4,208.5,251,208.5z"/>
<path class="st0" d="M293.1,208.5h8.4c4.6,0,8.4-3.8,8.4-8.4c0-4.6-3.8-8.4-8.4-8.4h-8.4c-4.6,0-8.4,3.8-8.4,8.4
	C284.7,204.7,288.5,208.5,293.1,208.5z"/>
<path class="st0" d="M335.2,208.5h8.4c4.6,0,8.4-3.8,8.4-8.4c0-4.6-3.8-8.4-8.4-8.4h-8.4c-4.6,0-8.4,3.8-8.4,8.4
	C326.8,204.7,330.5,208.5,335.2,208.5z"/>
<path class="st0" d="M377.3,208.5h8.4c4.6,0,8.4-3.8,8.4-8.4c0-4.6-3.8-8.4-8.4-8.4h-8.4c-4.6,0-8.4,3.8-8.4,8.4
	C368.9,204.7,372.6,208.5,377.3,208.5z"/>
<path class="st0" d="M419.4,208.5h8.4c4.6,0,8.4-3.8,8.4-8.4c0-4.6-3.8-8.4-8.4-8.4h-8.4c-4.6,0-8.4,3.8-8.4,8.4
	C411,204.7,414.7,208.5,419.4,208.5z"/>
</svg>
