<?xml version="1.0" encoding="utf-8"?>
<!-- Generator: Adobe Illustrator 19.0.0, SVG Export Plug-In . SVG Version: 6.00 Build 0)  -->
<svg version="1.1" id="Layer_1" xmlns="http://www.w3.org/2000/svg" xmlns:xlink="http://www.w3.org/1999/xlink" x="0px" y="0px"
	 viewBox="192.5 192.5 110 110" style="enable-background:new 192.5 192.5 110 110;" xml:space="preserve">
<style type="text/css">
	.st0{fill:#FFFFFF;}
	.st1{fill:#244A83;}
</style>
<circle class="st0" cx="247.5" cy="247.5" r="55"/>
<g>
	<g>
		<g>
			<path class="st1" d="M247.7,275.5l-22-12.1l0.2-26l20.9-12l22.7,11.8v26.3L247.7,275.5z M227.9,262l19.8,10.9l19.5-10.8v-23.7
				l-20.4-10.7L228,238.6L227.9,262z"/>
		</g>
		<g>
			<path class="st1" d="M223.9,263.9l23.2-40.4l23.8,39.9L223.9,263.9z M247.2,227.8l-19.5,33.9l39.4-0.5L247.2,227.8z"/>
		</g>
		<g>
			<polygon class="st1" points="227.2,263.3 226.1,261.5 246,249.7 246.1,225.7 248.3,225.7 248.2,250.9 			"/>
		</g>
		<g>
			
				<rect x="245.6" y="255" transform="matrix(0.8796 0.4757 -0.4757 0.8796 152.8383 -91.7935)" class="st1" width="24.3" height="2.2"/>
		</g>
		<g>
			
				<rect x="224.1" y="242.7" transform="matrix(0.8539 0.5205 -0.5205 0.8539 161.4729 -87.4695)" class="st1" width="24.8" height="2.2"/>
		</g>
		<g>
			
				<rect x="256.4" y="231.5" transform="matrix(0.4896 0.872 -0.872 0.4896 344.1768 -99.9286)" class="st1" width="2.2" height="25"/>
		</g>
		<g>
			<rect x="246" y="250.3" class="st1" width="2.2" height="23.1"/>
		</g>
	</g>
	<g>
		<circle class="st0" cx="247.1" cy="226.2" r="3.6"/>
		<path class="st1" d="M247.1,230.7c-2.5,0-4.5-2-4.5-4.5c0-2.5,2-4.5,4.5-4.5c2.5,0,4.5,2,4.5,4.5
			C251.6,228.7,249.6,230.7,247.1,230.7z M247.1,223.4c-1.5,0-2.8,1.3-2.8,2.8c0,1.5,1.3,2.8,2.8,2.8c1.5,0,2.8-1.3,2.8-2.8
			C249.9,224.7,248.6,223.4,247.1,223.4z"/>
	</g>
	<g>
		<circle class="st0" cx="247.1" cy="273.9" r="3.6"/>
		<path class="st1" d="M247.1,278.4c-2.5,0-4.5-2-4.5-4.5c0-2.5,2-4.5,4.5-4.5c2.5,0,4.5,2,4.5,4.5
			C251.6,276.4,249.6,278.4,247.1,278.4z M247.1,271.1c-1.5,0-2.8,1.3-2.8,2.8c0,1.5,1.3,2.8,2.8,2.8c1.5,0,2.8-1.3,2.8-2.8
			C249.9,272.4,248.6,271.1,247.1,271.1z"/>
	</g>
	<g>
		<circle class="st0" cx="226.5" cy="262.8" r="3.6"/>
		<path class="st1" d="M226.5,267.2c-2.5,0-4.5-2-4.5-4.5c0-2.5,2-4.5,4.5-4.5c2.5,0,4.5,2,4.5,4.5C231,265.2,229,267.2,226.5,267.2
			z M226.5,260c-1.5,0-2.8,1.3-2.8,2.8c0,1.5,1.3,2.8,2.8,2.8c1.5,0,2.8-1.3,2.8-2.8C229.3,261.2,228,260,226.5,260z"/>
	</g>
	<g>
		<circle class="st0" cx="226.4" cy="237.9" r="3.6"/>
		<path class="st1" d="M226.4,242.3c-2.5,0-4.5-2-4.5-4.5c0-2.5,2-4.5,4.5-4.5s4.5,2,4.5,4.5C230.9,240.3,228.9,242.3,226.4,242.3z
			 M226.4,235.1c-1.5,0-2.8,1.3-2.8,2.8c0,1.5,1.3,2.8,2.8,2.8s2.8-1.3,2.8-2.8C229.2,236.3,228,235.1,226.4,235.1z"/>
	</g>
	<g>
		<circle class="st0" cx="268.4" cy="237.9" r="3.6"/>
		<path class="st1" d="M268.4,242.3c-2.5,0-4.5-2-4.5-4.5c0-2.5,2-4.5,4.5-4.5c2.5,0,4.5,2,4.5,4.5
			C272.8,240.3,270.8,242.3,268.4,242.3z M268.4,235.1c-1.5,0-2.8,1.3-2.8,2.8c0,1.5,1.3,2.8,2.8,2.8c1.5,0,2.8-1.3,2.8-2.8
			C271.2,236.3,269.9,235.1,268.4,235.1z"/>
	</g>
	<g>
		<circle class="st0" cx="268.6" cy="262.4" r="3.6"/>
		<path class="st1" d="M268.6,266.9c-2.5,0-4.5-2-4.5-4.5c0-2.5,2-4.5,4.5-4.5c2.5,0,4.5,2,4.5,4.5C273,264.9,271,266.9,268.6,266.9
			z M268.6,259.6c-1.5,0-2.8,1.3-2.8,2.8c0,1.5,1.3,2.8,2.8,2.8c1.5,0,2.8-1.3,2.8-2.8C271.4,260.9,270.1,259.6,268.6,259.6z"/>
	</g>
	<g>
		<circle class="st0" cx="247.1" cy="250.3" r="3.6"/>
		<path class="st1" d="M247.1,255c-2.6,0-4.7-2.1-4.7-4.7c0-2.6,2.1-4.7,4.7-4.7c2.6,0,4.7,2.1,4.7,4.7
			C251.8,252.9,249.7,255,247.1,255z M247.1,247.7c-1.4,0-2.5,1.1-2.5,2.5c0,1.4,1.1,2.5,2.5,2.5c1.4,0,2.5-1.1,2.5-2.5
			C249.6,248.9,248.5,247.7,247.1,247.7z"/>
	</g>
</g>
</svg>
