<?xml version="1.0" encoding="utf-8"?>
<!-- Generator: Adobe Illustrator 19.0.0, SVG Export Plug-In . SVG Version: 6.00 Build 0)  -->
<svg version="1.1" id="Layer_1" xmlns="http://www.w3.org/2000/svg" xmlns:xlink="http://www.w3.org/1999/xlink" x="0px" y="0px"
	 viewBox="192.5 192.5 110 110" style="enable-background:new 192.5 192.5 110 110;" xml:space="preserve">
<style type="text/css">
	.st0{fill:#FFFFFF;}
	.st1{fill:#244A83;}
</style>
<circle class="st0" cx="247.5" cy="247.5" r="55"/>
<g>
	<g id="XMLID_71_">
		<path class="st1" d="M246.6,258c-0.5-0.7-1.1-1.4-1.7-2.1c-3.2-3.4-6.4-4.3-7.3-3.4c-0.2,0.2-0.3,0.5-0.4,1
			c-0.1,1.4,1,3.8,3.3,6.3c1.6,1.7,3.5,3,5.1,3.5c0.5,0.2,0.8,0.7,0.6,1.2c-0.3,0.7-1.1,0.6-1.2,0.6c-1.9-0.6-4-2.1-5.9-4
			c-2.4-2.6-3.9-5.5-3.8-7.7c0-1,0.4-1.7,1-2.3c1.3-1.2,3.6-0.9,6.1,0.4c0.3-1.8,0.8-3.4,1.4-4.6c0,0,0,0,0-0.1
			c-0.4-1-0.6-2.2-0.6-3.3c0-2.4,0.8-4.5,2.2-6c0.4-0.4,0.9-0.4,1.3,0c0.4,0.4,0.4,0.9,0,1.3c-1.1,1.1-1.7,2.9-1.7,4.7
			c0,1.8,0.6,3.5,1.6,4.6c0.3,0.4,0.3,1-0.1,1.3c-0.4,0.3-1,0.3-1.3-0.1c-0.1-0.1-0.2-0.3-0.3-0.4c-0.4,1.1-0.7,2.4-0.9,3.8
			c0.7,0.6,1.5,1.2,2.2,2c0.7,0.8,1.4,1.5,1.9,2.4c0.3,0.4,0.2,1-0.3,1.3C247.4,258.6,246.8,258.5,246.6,258z M236.6,236.2
			c-0.3-1.4-0.1-2.7,0.6-3.8c1.3-2,4.1-2.7,6.9-1.8c-0.1-0.6-0.1-1.1-0.1-1.7c0-3.2,1.4-6.1,3.4-7.2c0.3-0.1,0.6-0.1,0.9,0
			c2.1,1.1,3.4,3.9,3.4,7.2c0,0.6,0,1.2-0.1,1.7c2.8-0.9,5.6-0.2,6.9,1.8c0.7,1.1,0.9,2.4,0.6,3.8c-0.1,0.5-0.6,0.8-1.1,0.7
			c-1.1-0.2-2.5,0-3.8,0.6c-0.1,0.1-0.3,0.1-0.4,0.1c-0.3,0-0.7-0.2-0.8-0.5c-0.2-0.5,0-1,0.4-1.2c1.3-0.6,2.7-0.9,3.9-0.9
			c0-0.5-0.1-1.1-0.4-1.6c-1-1.5-3.5-1.8-5.9-0.5c0,0,0,0,0,0c-0.6,1.4-1.5,2.6-2.7,3.2c-0.3,0.1-0.6,0.1-0.9,0
			c-1.1-0.6-2.1-1.7-2.7-3.2c0,0,0,0,0,0c-2.4-1.2-4.9-1-5.9,0.5c-0.3,0.5-0.4,1.1-0.4,1.6c1.3,0,2.6,0.3,3.9,0.9
			c0.5,0.2,0.7,0.8,0.4,1.2c-0.2,0.5-0.8,0.7-1.2,0.4c-1.3-0.6-2.6-0.8-3.8-0.6C237.2,237,236.7,236.7,236.6,236.2z M245.9,228.9
			c0,2.2,0.8,4.3,2,5.2c1.2-0.9,2-3,2-5.2c0-2.2-0.8-4.3-2-5.2C246.7,224.6,245.9,226.6,245.9,228.9z M252.6,262.1
			c0.7-2,1.1-4.5,1.1-6.9c0-3.4-0.6-6.2-1.8-8.4c0.4-1,0.5-2.1,0.5-3.2c0-2.4-0.8-4.5-2.2-6c-0.4-0.4-0.9-0.4-1.3,0
			c-0.4,0.4-0.4,0.9,0,1.3c1.1,1.1,1.7,2.9,1.7,4.7c0,1.8-0.6,3.5-1.6,4.6c-0.3,0.4-0.3,1,0.1,1.3c0.4,0.3,1,0.3,1.3-0.1
			c0.1-0.2,0.3-0.3,0.4-0.5c0.7,1.8,1,3.9,1,6.3c0,3.3-0.9,6.7-2.1,8.4c-0.2,0.3-0.2,0.8,0,1.1c0.3,0.5,0.9,0.4,1,0.3
			c1.9-0.6,4-2.1,5.9-4c2.4-2.6,3.9-5.5,3.8-7.7c0-1-0.4-1.7-1-2.3c-0.4-0.3-1-0.3-1.3,0.1s-0.3,1,0.1,1.3c0.2,0.2,0.3,0.5,0.4,1
			c0.1,1.4-1,3.8-3.3,6.3C254.5,260.7,253.6,261.5,252.6,262.1z M270.4,250.2c-0.3-0.6-0.7-1.1-1.1-1.5c-0.3-0.4-0.9-0.4-1.3-0.1
			c-0.4,0.3-0.4,0.9-0.1,1.3c0.3,0.4,0.6,0.8,0.9,1.3c1.4,2.3,1.3,4.1,0.9,4.3c-0.1,0.1-0.3,0-0.3,0c-0.7-0.2-1.9-1.1-2.9-2.8
			c-0.7-1.1-1.1-2.4-1.1-3.4c0-0.5-0.4-0.9-1-0.9c-0.5,0-0.9,0.5-0.9,1c0,1.3,0.6,2.8,1.4,4.2c1.1,1.9,2.7,3.3,4.1,3.7
			c0.2,0.1,0.4,0.1,0.6,0.1c0.4,0,0.8-0.1,1.1-0.3c0.8-0.5,1.2-1.6,1.1-3C271.6,252.8,271.1,251.4,270.4,250.2z M267.4,261.5
			c-1.4-0.6-3.2-1.1-5.6-1.5c-0.5-0.1-1,0.3-1.1,0.8c-0.1,0.5,0.3,1,0.8,1.1c5.1,0.9,6.5,2,6.7,2.3c-0.1,0.3-1.3,1.3-5.8,2.2
			c-3.9,0.7-9,1.2-14.5,1.2c-5.4,0-10.6-0.4-14.5-1.2c-4.5-0.9-5.7-1.9-5.8-2.2c0.1-0.3,1.5-1.4,6.7-2.3c0.5-0.1,0.8-0.6,0.8-1.1
			c-0.1-0.5-0.6-0.8-1.1-0.8c-2.4,0.4-4.3,0.9-5.6,1.5c-0.6,0.3-2.6,1.1-2.6,2.7c0,1.7,2.3,3,7,3.9c4.1,0.8,9.5,1.3,15.2,1.3
			c5.7,0,11.1-0.4,15.2-1.3c4.7-0.9,7-2.2,7-3.9C270,262.6,268.1,261.8,267.4,261.5z M223.5,243.4c-0.4-0.6-0.5-1.2-0.3-1.8
			c0.3-1,1.2-1.7,2.6-1.9c1.2-0.2,2.6-0.2,4.1,0.1c0.4,0.1,0.9,0.2,1.3,0.4c0.2-0.4,0.4-0.7,0.7-1c0.5-0.4,1.2-0.6,2-0.4
			c1.6,0.2,3.6,1.8,5.2,3.9c1.2,1.6,1.9,3.4,2.1,4.9c0.1,0.5-0.3,1-0.8,1c-0.5,0.1-1-0.3-1-0.8c-0.1-1.2-0.8-2.7-1.8-4
			c-1.4-2-3-3-3.9-3.2c-0.3,0-0.4,0-0.6,0.1c-0.6,0.5-0.3,2.9,1.5,5.4c0.4,0.5,0.8,1,1.3,1.5c0.4,0.4,0.4,1,0,1.3
			c-0.2,0.2-0.4,0.3-0.7,0.3c-0.2,0-0.5-0.1-0.7-0.3c-0.5-0.5-1-1.1-1.5-1.7c-0.2-0.3-0.4-0.6-0.6-1c-1.2,0.2-2.6,0.2-4.1-0.1
			C226.1,245.7,224.3,244.6,223.5,243.4z M225.1,242.5c0.4,0.6,1.6,1.5,3.6,1.9c1,0.2,2,0.3,2.8,0.2c-0.3-0.9-0.6-1.7-0.6-2.4
			c-0.5-0.2-0.9-0.3-1.4-0.4c-0.8-0.2-1.4-0.2-2-0.2c-1.4,0-2.3,0.4-2.4,0.7C225,242.2,225.1,242.4,225.1,242.5z M271.9,243.9
			c-0.7,1.2-2.5,2.3-4.7,2.8c-1.5,0.3-2.9,0.4-4.1,0.1c-0.2,0.3-0.4,0.6-0.6,1c-0.5,0.6-0.9,1.2-1.5,1.7c-0.2,0.2-0.4,0.3-0.7,0.3
			c-0.2,0-0.5-0.1-0.7-0.3c-0.4-0.4-0.4-1,0-1.3c0.4-0.4,0.9-0.9,1.3-1.5c1.8-2.6,2.1-5,1.5-5.4c-0.1-0.1-0.3-0.1-0.6-0.1
			c-0.9,0.1-2.5,1.2-3.9,3.2c-1,1.4-1.6,2.8-1.8,4c-0.1,0.5-0.5,0.9-1,0.8c-0.5-0.1-0.9-0.5-0.8-1c0.2-1.5,1-3.3,2.1-4.9
			c1.6-2.2,3.5-3.7,5.2-3.9c0.8-0.1,1.4,0,2,0.4c0.3,0.2,0.6,0.6,0.7,1c0.4-0.1,0.8-0.3,1.3-0.4c1.4-0.3,2.9-0.4,4.1-0.1
			c1.4,0.3,2.3,1,2.6,1.9C272.3,242.7,272.2,243.3,271.9,243.9z M270.4,242.6c-0.1-0.4-1.8-1.1-4.4-0.5c-0.5,0.1-1,0.3-1.4,0.4
			c-0.1,0.7-0.3,1.6-0.6,2.4c0.8,0.1,1.8,0,2.8-0.2c1.9-0.4,3.2-1.3,3.6-1.9C270.3,242.9,270.4,242.7,270.4,242.6z M226.5,256.8
			c1.4-0.3,2.9-1.7,4.1-3.7c0.8-1.4,1.4-3,1.4-4.2c0-0.5-0.4-0.9-0.9-1c-0.5,0-0.9,0.4-1,0.9c0,1-0.5,2.2-1.1,3.4
			c-1,1.7-2.2,2.6-2.9,2.8c-0.1,0-0.3,0.1-0.3,0c-0.3-0.2-0.5-2,0.9-4.3c0.3-0.5,0.6-0.9,0.9-1.3c0.3-0.4,0.3-1-0.1-1.3
			c-0.4-0.3-1-0.3-1.3,0.1c-0.4,0.5-0.8,1-1.1,1.5c-0.8,1.3-1.2,2.6-1.4,3.8c-0.2,1.4,0.2,2.5,1.1,3c0.3,0.2,0.7,0.3,1.1,0.3
			C226.1,256.9,226.3,256.9,226.5,256.8z M248.6,242c0-0.4-0.3-0.7-0.7-0.7c-0.4,0-0.7,0.3-0.7,0.7v3.1c0,0.4,0.3,0.7,0.7,0.7
			c0.4,0,0.7-0.3,0.7-0.7V242z M248.6,253v-1.9c0-0.4-0.3-0.7-0.7-0.7c-0.4,0-0.7,0.3-0.7,0.7v1.9c0,0.4,0.3,0.7,0.7,0.7
			C248.3,253.7,248.6,253.3,248.6,253z M240.5,255.9c-0.3,0.3-0.3,0.7,0,1l3.5,3.5c0.1,0.1,0.3,0.2,0.5,0.2c0.2,0,0.4-0.1,0.5-0.2
			c0.3-0.3,0.3-0.7,0-1l-3.5-3.5C241.2,255.6,240.8,255.6,240.5,255.9z"/>
		<path class="st1" d="M247.9,269.6c-5.7,0-11.2-0.4-15.2-1.3c-2.4-0.5-4.1-1-5.3-1.7c-1.2-0.7-1.9-1.5-1.9-2.5
			c0-1.7,2.1-2.6,2.7-2.9c1.4-0.6,3.3-1.1,5.7-1.5c0.3-0.1,0.6,0,0.9,0.2c0.3,0.2,0.4,0.5,0.5,0.8c0.1,0.3,0,0.6-0.2,0.9
			c-0.2,0.3-0.5,0.4-0.8,0.5c-4.5,0.8-6,1.7-6.4,2c0.3,0.3,1.4,1.1,5.5,1.9c3.9,0.7,9,1.2,14.4,1.2c5.4,0,10.5-0.4,14.4-1.2
			c4.1-0.8,5.3-1.6,5.5-1.9c-0.3-0.3-1.9-1.3-6.4-2c-0.3-0.1-0.6-0.2-0.8-0.5c-0.2-0.3-0.3-0.6-0.2-0.9c0.1-0.6,0.7-1.1,1.4-1
			c2.4,0.4,4.3,0.9,5.7,1.5h0l-0.1,0.2l0.1-0.2c0.7,0.3,2.7,1.2,2.7,2.9c0,0.9-0.6,1.8-1.9,2.5c-1.2,0.7-2.9,1.2-5.3,1.7
			C259,269.2,253.6,269.6,247.9,269.6z M234.1,260.3c0,0-0.1,0-0.1,0c-2.4,0.4-4.2,0.9-5.6,1.5c-0.6,0.3-2.4,1-2.4,2.4
			c0,1.5,2.3,2.8,6.8,3.7c4,0.8,9.4,1.3,15.1,1.3c5.7,0,11.1-0.4,15.1-1.3c4.5-0.9,6.8-2.1,6.8-3.7c0-1.4-1.8-2.2-2.4-2.4l0.1-0.2
			l-0.1,0.2c-1.3-0.6-3.2-1.1-5.6-1.5c-0.4-0.1-0.7,0.2-0.8,0.5c0,0.2,0,0.4,0.1,0.5c0.1,0.1,0.3,0.2,0.4,0.3c5.1,0.9,6.7,2,6.9,2.5
			l0,0.1l0,0.1c-0.1,0.5-1.6,1.5-6,2.3c-3.9,0.7-9.1,1.2-14.5,1.2c-5.4,0-10.6-0.4-14.5-1.2c-4.4-0.8-5.9-1.9-6-2.3l0-0.1l0-0.1
			c0.2-0.5,1.8-1.6,6.9-2.5c0.2,0,0.3-0.1,0.4-0.3c0.1-0.1,0.1-0.3,0.1-0.5c0-0.2-0.1-0.3-0.3-0.4
			C234.4,260.3,234.2,260.3,234.1,260.3z M250.5,265.4c-0.3,0-0.7-0.1-1-0.5c-0.3-0.4-0.3-1,0-1.4c1.2-1.7,2.1-5,2.1-8.3
			c0-2.2-0.3-4.2-0.8-5.8c0,0-0.1,0.1-0.1,0.1c-0.4,0.5-1.2,0.5-1.7,0.1c-0.2-0.2-0.4-0.5-0.4-0.8c0-0.3,0.1-0.6,0.3-0.9
			c0.9-1.1,1.5-2.7,1.5-4.4c0-1.8-0.6-3.5-1.6-4.5c-0.5-0.5-0.4-1.2,0-1.7c0.5-0.5,1.2-0.4,1.7,0c1.4,1.5,2.3,3.8,2.3,6.2
			c0,1.1-0.2,2.2-0.5,3.2c1.2,2.3,1.8,5.1,1.8,8.5c0,2.2-0.3,4.3-0.9,6.2c0.7-0.5,1.4-1.1,2-1.8c2.3-2.4,3.3-4.8,3.2-6.1
			c0-0.4-0.1-0.6-0.3-0.8c-0.5-0.4-0.5-1.2-0.1-1.7c0.2-0.2,0.5-0.4,0.8-0.4c0.3,0,0.6,0.1,0.9,0.3c0.7,0.6,1,1.4,1.1,2.5
			c0.1,2.2-1.4,5.3-3.9,7.9c-1.9,2-4,3.4-6,4.1C250.8,265.3,250.7,265.4,250.5,265.4z M251,248.3l0.2,0.4c0.7,1.8,1,3.9,1,6.4
			c0,3.4-0.9,6.8-2.2,8.6c-0.2,0.2-0.2,0.6,0,0.8l0,0c0.2,0.4,0.7,0.2,0.7,0.2c1.9-0.6,4-2,5.8-3.9c2.4-2.5,3.8-5.4,3.8-7.5
			c0-0.9-0.3-1.6-0.9-2.1c-0.1-0.1-0.3-0.2-0.5-0.2c-0.2,0-0.3,0.1-0.5,0.2c-0.2,0.3-0.2,0.7,0.1,0.9c0.3,0.3,0.4,0.6,0.5,1.2
			c0.1,1.4-1,4-3.4,6.5c-0.9,0.9-1.8,1.7-2.8,2.3l-0.7,0.4l0.3-0.7c0.7-2,1.1-4.4,1.1-6.8c0-3.3-0.6-6.1-1.8-8.3l-0.1-0.1l0-0.1
			c0.4-1,0.5-2.1,0.5-3.2c0-2.3-0.8-4.4-2.1-5.8c-0.3-0.3-0.7-0.3-0.9,0c-0.3,0.3-0.3,0.7,0,0.9c1.1,1.2,1.8,3,1.8,4.9
			c0,1.9-0.6,3.6-1.6,4.8c-0.1,0.1-0.2,0.3-0.2,0.5c0,0.2,0.1,0.3,0.2,0.5c0.3,0.2,0.7,0.2,0.9-0.1c0.1-0.1,0.2-0.3,0.4-0.5
			L251,248.3z M245.2,265.3c-0.1,0-0.2,0-0.3,0c-1.9-0.6-4.1-2.1-6-4.1c-2.5-2.6-4-5.6-3.9-7.9c0-1,0.4-1.9,1.1-2.5
			c1.3-1.2,3.5-1.1,6,0.2c0.3-1.6,0.8-3.1,1.4-4.3c-0.4-1-0.5-2.2-0.5-3.3c0-2.4,0.8-4.7,2.3-6.2c0.5-0.5,1.2-0.5,1.7,0
			c0.5,0.5,0.5,1.2,0,1.7c-1,1.1-1.6,2.8-1.6,4.5c0,1.7,0.5,3.3,1.5,4.4c0.4,0.5,0.4,1.2-0.1,1.7c-0.2,0.2-0.5,0.3-0.9,0.3
			c-0.3,0-0.6-0.2-0.8-0.4c0,0,0,0,0-0.1c-0.3,0.9-0.5,2-0.7,3.1c0.7,0.6,1.4,1.2,2.1,1.9c0.7,0.8,1.4,1.6,1.9,2.4
			c0.4,0.5,0.2,1.3-0.3,1.7c-0.3,0.2-0.6,0.2-0.9,0.2c-0.3-0.1-0.6-0.2-0.8-0.5l0,0c-0.5-0.7-1-1.4-1.7-2.1c-3.3-3.4-6.3-4.1-7-3.4
			c-0.2,0.2-0.3,0.4-0.3,0.8c-0.1,1.3,0.9,3.7,3.2,6.1c1.6,1.7,3.4,2.9,5,3.4c0.3,0.1,0.6,0.3,0.7,0.6c0.1,0.3,0.2,0.6,0.1,0.9l0,0
			C246.1,265.2,245.5,265.3,245.2,265.3z M245.1,264.8c0,0,0.6,0.1,0.9-0.4c0.1-0.2,0-0.3,0-0.5c-0.1-0.2-0.2-0.3-0.4-0.3
			c-1.7-0.5-3.6-1.8-5.2-3.6c-2.4-2.5-3.4-5.1-3.4-6.5c0-0.5,0.2-0.9,0.5-1.2c1.1-1,4.6,0.2,7.7,3.5c0.7,0.7,1.2,1.4,1.7,2.1h0
			c0.1,0.1,0.3,0.2,0.4,0.3c0.2,0,0.4,0,0.5-0.1c0.1-0.1,0.2-0.3,0.3-0.4c0-0.2,0-0.4-0.1-0.5c-0.5-0.8-1.2-1.6-1.9-2.3
			c-0.7-0.7-1.4-1.4-2.1-1.9l-0.1-0.1l0-0.1c0.2-1.4,0.5-2.7,0.9-3.8l0.2-0.5l0.3,0.4c0.1,0.1,0.2,0.3,0.3,0.4
			c0.1,0.1,0.3,0.2,0.5,0.2c0.2,0,0.4,0,0.5-0.2c0.3-0.2,0.3-0.7,0.1-0.9c-1-1.2-1.6-2.9-1.6-4.8c0-1.9,0.7-3.8,1.8-4.9
			c0.3-0.3,0.2-0.7,0-0.9c-0.3-0.3-0.7-0.2-0.9,0c-1.4,1.4-2.1,3.5-2.1,5.8c0,1.1,0.2,2.2,0.6,3.2l0,0.1L244,247c0,0,0,0,0,0
			c-0.6,1.3-1.1,2.8-1.4,4.6l-0.1,0.4l-0.3-0.2c-2.4-1.4-4.6-1.5-5.7-0.5c-0.6,0.5-0.9,1.2-0.9,2.1c-0.1,2.1,1.4,5,3.8,7.5
			C241.1,262.8,243.2,264.2,245.1,264.8z M244.5,260.9c-0.3,0-0.5-0.1-0.7-0.3l-3.5-3.5c-0.2-0.2-0.3-0.4-0.3-0.7
			c0-0.3,0.1-0.5,0.3-0.7h0c0.4-0.4,1-0.4,1.4,0l3.5,3.5c0.2,0.2,0.3,0.4,0.3,0.7c0,0.3-0.1,0.5-0.3,0.7
			C245,260.8,244.8,260.9,244.5,260.9z M240.7,256.1c-0.1,0.1-0.1,0.2-0.1,0.3c0,0.1,0,0.2,0.1,0.3l3.5,3.5c0.1,0.1,0.2,0.1,0.3,0.1
			c0.1,0,0.2,0,0.3-0.1c0.1-0.1,0.1-0.2,0.1-0.3c0-0.1,0-0.2-0.1-0.3l-3.5-3.5C241.1,255.9,240.9,255.9,240.7,256.1L240.7,256.1z
			 M269.5,257.6c-0.2,0-0.5,0-0.7-0.1c-1.4-0.3-3.1-1.8-4.2-3.8c-0.9-1.5-1.4-3.1-1.4-4.4c0-0.7,0.5-1.2,1.1-1.2
			c0.3,0,0.6,0.1,0.9,0.3c0.2,0.2,0.4,0.5,0.4,0.8c0,0.9,0.4,2.1,1.1,3.2c1,1.7,2.2,2.5,2.7,2.7c0.1,0,0.1,0,0.1,0
			c0.1-0.2,0.3-1.7-1-4c-0.3-0.5-0.6-0.9-0.9-1.3c-0.2-0.2-0.3-0.6-0.3-0.9c0-0.3,0.2-0.6,0.4-0.8c0.2-0.2,0.6-0.3,0.9-0.3
			c0.3,0,0.6,0.2,0.8,0.4c0.4,0.5,0.8,1,1.1,1.6c0.8,1.3,1.3,2.7,1.4,3.9c0.2,1.5-0.2,2.7-1.2,3.3
			C270.4,257.5,270,257.6,269.5,257.6z M264.4,248.7C264.3,248.7,264.3,248.7,264.4,248.7c-0.4,0-0.7,0.3-0.7,0.7
			c0,1.2,0.5,2.7,1.4,4.1c1.1,1.9,2.6,3.2,3.9,3.5c0.2,0,0.4,0.1,0.6,0.1c0.4,0,0.7-0.1,1-0.3c0.8-0.5,1.1-1.5,0.9-2.8
			c-0.1-1.1-0.6-2.5-1.3-3.7l0,0c-0.3-0.5-0.7-1-1.1-1.5c-0.1-0.1-0.3-0.2-0.5-0.2c-0.2,0-0.4,0-0.5,0.2c-0.1,0.1-0.2,0.3-0.2,0.5
			c0,0.2,0,0.4,0.2,0.5c0.3,0.4,0.7,0.8,0.9,1.3c1.4,2.3,1.4,4.3,0.8,4.7c-0.1,0.1-0.3,0.1-0.5,0c-0.8-0.2-2-1.2-3.1-2.9
			c-0.7-1.2-1.1-2.5-1.2-3.5c0-0.2-0.1-0.3-0.2-0.5C264.7,248.7,264.5,248.7,264.4,248.7z M225.9,257.2c-0.5,0-0.9-0.1-1.3-0.4
			c-0.9-0.6-1.3-1.8-1.2-3.3c0.1-1.2,0.6-2.6,1.4-3.9c0.3-0.6,0.7-1.1,1.1-1.6c0.4-0.5,1.2-0.6,1.7-0.1c0.5,0.4,0.6,1.2,0.1,1.7
			c-0.3,0.4-0.6,0.8-0.9,1.3c-1.3,2.2-1.2,3.7-1,4c0,0,0.1,0,0.1,0c0.5-0.1,1.7-0.9,2.7-2.7c0.7-1.1,1.1-2.3,1.1-3.2
			c0-0.7,0.6-1.2,1.2-1.1c0.7,0,1.2,0.6,1.1,1.2c0,1.3-0.6,2.9-1.4,4.4c-1.2,2-2.8,3.4-4.2,3.8h0
			C226.3,257.1,226.1,257.2,225.9,257.2z M226.9,248.1c-0.2,0-0.4,0.1-0.5,0.2c-0.4,0.5-0.7,1-1.1,1.5c-0.7,1.2-1.2,2.6-1.3,3.7
			c-0.1,1.3,0.2,2.3,0.9,2.8c0.3,0.2,0.6,0.3,1,0.3c0.2,0,0.4,0,0.6-0.1h0c1.3-0.3,2.8-1.7,3.9-3.5c0.8-1.4,1.3-2.9,1.4-4.1
			c0-0.4-0.3-0.7-0.6-0.7c-0.4,0-0.7,0.3-0.7,0.6c0,1-0.5,2.3-1.2,3.5c-1,1.8-2.3,2.7-3.1,2.9c-0.2,0.1-0.4,0-0.5,0
			c-0.6-0.4-0.5-2.4,0.8-4.7c0.3-0.5,0.6-0.9,0.9-1.3c0.2-0.3,0.2-0.7-0.1-0.9C227.2,248.2,227,248.1,226.9,248.1z M247.9,253.9
			c-0.5,0-1-0.4-1-1v-1.9c0-0.5,0.4-1,1-1s1,0.4,1,1v1.9C248.8,253.5,248.4,253.9,247.9,253.9z M247.9,250.7c-0.2,0-0.4,0.2-0.4,0.4
			v1.9c0,0.2,0.2,0.4,0.4,0.4c0.2,0,0.4-0.2,0.4-0.4v-1.9C248.3,250.9,248.1,250.7,247.9,250.7z M260.3,250c-0.3,0-0.6-0.1-0.8-0.4
			c-0.2-0.2-0.3-0.5-0.3-0.8c0-0.3,0.1-0.6,0.4-0.8c0.4-0.4,0.8-0.9,1.2-1.5c1.9-2.6,2-4.8,1.6-5.1c0,0-0.1-0.1-0.4,0
			c-0.9,0.1-2.4,1.1-3.8,3.1c-1,1.3-1.6,2.8-1.7,3.9c0,0.3-0.2,0.6-0.4,0.8c-0.3,0.2-0.6,0.3-0.9,0.2c-0.7-0.1-1.1-0.7-1-1.3
			c0.2-1.5,1-3.4,2.2-5c1.6-2.2,3.6-3.8,5.4-4c0.8-0.1,1.6,0,2.2,0.5c0.3,0.2,0.5,0.5,0.7,0.8c0.4-0.1,0.7-0.2,1.1-0.3
			c1.5-0.3,3-0.4,4.2-0.1c1.5,0.3,2.5,1.1,2.8,2.1c0.2,0.6,0,1.3-0.3,2v0c-0.8,1.3-2.6,2.4-4.9,2.9c-1.4,0.3-2.8,0.4-4,0.2
			c-0.2,0.3-0.4,0.6-0.6,0.8c-0.5,0.6-1,1.2-1.5,1.8C260.9,249.9,260.6,250,260.3,250z M262,240.9c0.2,0,0.4,0.1,0.5,0.2
			c0.8,0.6,0.4,3.2-1.5,5.8c-0.4,0.6-0.8,1.1-1.3,1.5c-0.1,0.1-0.2,0.3-0.2,0.5c0,0.2,0.1,0.3,0.2,0.5c0.1,0.1,0.3,0.2,0.5,0.2
			c0.2,0,0.3-0.1,0.5-0.2c0.5-0.5,1-1.1,1.4-1.7c0.2-0.3,0.4-0.6,0.6-1l0.1-0.2l0.2,0c1.1,0.2,2.6,0.2,4-0.1
			c2.1-0.5,3.9-1.5,4.6-2.6v0c0.3-0.5,0.4-1.1,0.3-1.6c-0.2-0.9-1.1-1.5-2.4-1.8c-1.1-0.2-2.5-0.2-3.9,0.1c-0.4,0.1-0.9,0.2-1.3,0.4
			l-0.2,0.1l-0.1-0.2c-0.2-0.3-0.4-0.6-0.7-0.8c-0.5-0.4-1.1-0.5-1.8-0.4c-1.6,0.2-3.5,1.7-5,3.8c-1.1,1.6-1.9,3.3-2.1,4.8
			c0,0.4,0.2,0.7,0.6,0.7c0.2,0,0.4,0,0.5-0.1c0.1-0.1,0.2-0.3,0.3-0.4c0.2-1.2,0.8-2.8,1.8-4.2c1.5-2.1,3.1-3.1,4.1-3.3
			C261.9,240.9,262,240.9,262,240.9z M235.1,249.6c-0.3,0-0.6-0.1-0.8-0.3c-0.5-0.5-1-1.1-1.5-1.8c-0.2-0.3-0.4-0.6-0.6-0.8
			c-1.2,0.2-2.6,0.2-4-0.2c-2.3-0.5-4.1-1.6-4.9-2.9l0,0c-0.4-0.6-0.5-1.3-0.3-2c0.3-1.1,1.3-1.8,2.8-2.1c1.2-0.2,2.7-0.2,4.2,0.1
			c0.4,0.1,0.7,0.2,1.1,0.3c0.2-0.3,0.4-0.6,0.7-0.8c0.6-0.4,1.3-0.6,2.2-0.5c1.7,0.3,3.8,1.8,5.4,4c1.2,1.7,2,3.5,2.2,5
			c0.1,0.7-0.4,1.2-1,1.3c-0.7,0.1-1.2-0.4-1.3-1c-0.1-1.2-0.8-2.6-1.7-3.9c-1.4-1.9-2.9-2.9-3.8-3.1c-0.2,0-0.3,0-0.4,0
			c-0.4,0.3-0.3,2.4,1.6,5.1c0.4,0.5,0.8,1,1.2,1.5c0.2,0.2,0.4,0.5,0.4,0.8c0,0.3-0.1,0.6-0.3,0.8
			C235.8,249.4,235.5,249.6,235.1,249.6z M232.5,246l0.1,0.2c0.2,0.3,0.4,0.6,0.6,1c0.4,0.6,0.9,1.2,1.4,1.7
			c0.1,0.1,0.3,0.2,0.5,0.2c0.2,0,0.3-0.1,0.5-0.2c0.1-0.1,0.2-0.3,0.2-0.5c0-0.2-0.1-0.3-0.2-0.5c-0.5-0.5-0.9-1-1.3-1.5
			c-1.8-2.6-2.3-5.2-1.5-5.8c0.2-0.1,0.4-0.2,0.8-0.1c1,0.2,2.7,1.2,4.1,3.3c1,1.4,1.7,2.9,1.8,4.2c0,0.4,0.4,0.6,0.7,0.6
			c0.4,0,0.6-0.4,0.6-0.7c-0.2-1.5-0.9-3.2-2.1-4.8c-1.5-2.1-3.4-3.6-5-3.8c-0.7-0.1-1.3,0-1.8,0.4c-0.3,0.2-0.5,0.5-0.7,0.8
			l-0.1,0.2l-0.2-0.1c-0.4-0.1-0.8-0.3-1.3-0.4c-1.4-0.3-2.8-0.4-3.9-0.1c-1.3,0.3-2.1,0.9-2.4,1.8c-0.1,0.5,0,1,0.3,1.6
			c0.7,1.1,2.4,2.2,4.6,2.6c1.4,0.3,2.8,0.4,4,0.1L232.5,246z M247.9,246.1c-0.5,0-1-0.4-1-1V242c0-0.5,0.4-1,1-1s1,0.4,1,1v3.1
			C248.8,245.7,248.4,246.1,247.9,246.1z M247.9,241.6c-0.2,0-0.4,0.2-0.4,0.4v3.1c0,0.2,0.2,0.4,0.4,0.4c0.2,0,0.4-0.2,0.4-0.4V242
			C248.3,241.8,248.1,241.6,247.9,241.6z M264.7,245.4c-0.3,0-0.5,0-0.8,0l-0.3,0l0.1-0.3c0.3-0.8,0.5-1.6,0.6-2.4l0-0.2l0.2-0.1
			c0.5-0.2,1-0.3,1.5-0.5c2.6-0.6,4.5,0,4.7,0.6l0,0c0,0.1,0,0.3-0.1,0.5c-0.4,0.7-1.7,1.6-3.7,2
			C266.1,245.3,265.3,245.4,264.7,245.4z M264.3,244.8c0.7,0,1.6,0,2.4-0.2c2-0.4,3.1-1.3,3.4-1.8c0-0.1,0.1-0.1,0.1-0.1
			c-0.2-0.2-1.6-0.8-4.1-0.3c-0.4,0.1-0.9,0.2-1.3,0.4C264.7,243.4,264.5,244.1,264.3,244.8z M230.8,244.9c-0.7,0-1.4-0.1-2.1-0.2
			c-2-0.5-3.3-1.3-3.7-2l0,0c-0.1-0.2-0.2-0.4-0.1-0.5c0.1-0.5,1.3-0.9,2.6-0.9c0.7,0,1.4,0.1,2.1,0.3c0.5,0.1,1,0.3,1.5,0.5
			l0.2,0.1l0,0.2c0.1,0.7,0.3,1.5,0.6,2.4l0.1,0.3l-0.3,0C231.3,244.9,231,244.9,230.8,244.9z M225.4,242.3c0.3,0.5,1.4,1.3,3.4,1.8
			c0.8,0.2,1.7,0.3,2.4,0.2c-0.3-0.7-0.4-1.4-0.5-2c-0.4-0.2-0.8-0.3-1.3-0.4c-0.7-0.2-1.4-0.2-2-0.2c-1.3,0-2,0.4-2.1,0.5
			C225.3,242.2,225.3,242.3,225.4,242.3L225.4,242.3z M241.9,237.9c-0.2,0-0.4,0-0.5-0.1c-1.2-0.6-2.5-0.8-3.6-0.6
			c-0.6,0.1-1.3-0.3-1.4-0.9l0,0c-0.3-1.5-0.1-2.9,0.7-4c0.7-1,1.7-1.7,3-2.1c1.2-0.3,2.4-0.3,3.8,0.1c-0.1-0.4-0.1-0.9-0.1-1.4
			c0-3.3,1.4-6.3,3.6-7.4c0.3-0.2,0.8-0.2,1.1,0c2.1,1.1,3.6,4.1,3.6,7.4c0,0.5,0,0.9-0.1,1.4c2.9-0.8,5.5,0,6.8,2
			c0.7,1.1,1,2.5,0.7,4c-0.1,0.6-0.8,1.1-1.4,0.9c-1.1-0.2-2.4,0-3.6,0.6c-0.2,0.1-0.3,0.1-0.5,0.1c-0.5,0-0.9-0.3-1.1-0.7
			c-0.3-0.6,0-1.3,0.6-1.6c1.2-0.6,2.5-0.9,3.8-0.9c0-0.4-0.2-0.8-0.4-1.2c-0.9-1.4-3.2-1.6-5.5-0.5c-0.6,1.5-1.6,2.6-2.7,3.2
			c-0.3,0.2-0.8,0.2-1.1,0c-1.1-0.6-2.1-1.7-2.7-3.2c-2.3-1.1-4.6-0.9-5.5,0.5c-0.2,0.3-0.4,0.7-0.4,1.2c1.2,0,2.5,0.3,3.8,0.9
			c0.3,0.1,0.5,0.4,0.6,0.7c0.1,0.3,0.1,0.6,0,0.9c-0.1,0.3-0.4,0.5-0.7,0.6C242.2,237.9,242,237.9,241.9,237.9z M238.6,236.6
			c1,0,2,0.3,3,0.7c0.2,0.1,0.3,0.1,0.5,0c0.2-0.1,0.3-0.2,0.4-0.3c0.1-0.2,0.1-0.3,0-0.5c-0.1-0.2-0.2-0.3-0.3-0.4
			c-1.3-0.6-2.6-0.9-3.8-0.9l-0.3,0l0-0.3c0-0.7,0.2-1.2,0.5-1.7c1.1-1.7,3.7-1.9,6.3-0.6l0.1,0.1l0,0.1c0.6,1.4,1.5,2.5,2.5,3
			c0.2,0.1,0.4,0.1,0.6,0c1-0.5,2-1.6,2.5-3l0-0.1l0.1-0.1c2.6-1.3,5.2-1,6.3,0.6c0.3,0.5,0.5,1.1,0.5,1.7l0,0.3l-0.3,0
			c-1.2,0-2.5,0.3-3.8,0.9c-0.3,0.2-0.5,0.6-0.3,0.9c0.1,0.2,0.3,0.4,0.6,0.4c0.1,0,0.2,0,0.3-0.1c1.3-0.6,2.7-0.9,3.9-0.7
			c0.4,0.1,0.7-0.2,0.8-0.5c0.3-1.4,0.1-2.6-0.6-3.6c-1.2-1.9-3.8-2.5-6.6-1.7l-0.4,0.1l0.1-0.4c0.1-0.5,0.1-1.1,0.1-1.7
			c0-3.1-1.3-5.9-3.3-6.9c-0.2-0.1-0.4-0.1-0.6,0c-2,1-3.3,3.8-3.3,6.9c0,0.6,0,1.1,0.1,1.7l0.1,0.4l-0.4-0.1
			c-2.8-0.9-5.4-0.2-6.6,1.7c-0.7,1-0.9,2.3-0.6,3.6l0,0c0.1,0.4,0.4,0.6,0.8,0.5C238,236.6,238.3,236.6,238.6,236.6z M247.9,234.4
			l-0.2-0.1c-1.3-1-2.1-3.1-2.1-5.4c0-2.3,0.8-4.4,2.1-5.4l0.2-0.1l0.2,0.1c1.3,1,2.1,3.1,2.1,5.4c0,2.3-0.8,4.4-2.1,5.4
			L247.9,234.4z M247.9,224c-1,0.9-1.7,2.9-1.7,4.9c0,2,0.7,3.9,1.7,4.9c1-0.9,1.7-2.9,1.7-4.9C249.6,226.9,248.9,224.9,247.9,224z"
			/>
	</g>
</g>
</svg>
