<?xml version="1.0" encoding="utf-8"?>
<!-- Generator: Adobe Illustrator 19.0.0, SVG Export Plug-In . SVG Version: 6.00 Build 0)  -->
<svg version="1.1" id="Layer_1" xmlns="http://www.w3.org/2000/svg" xmlns:xlink="http://www.w3.org/1999/xlink" x="0px" y="0px"
	 viewBox="192.5 192.5 110 110" style="enable-background:new 192.5 192.5 110 110;" xml:space="preserve">
<style type="text/css">
	.st0{fill:#FFFFFF;}
	.st1{fill:#244A83;}
</style>
<circle class="st0" cx="247.5" cy="247.5" r="55"/>
<path class="st1" d="M274,254.9L274,254.9l-6.5-14.7c1.4-0.7,2.3-2.1,2.3-3.8c0-2.4-1.9-4.3-4.3-4.3h-9.8l-1.5-3
	c-0.1-0.3-0.4-0.5-0.8-0.5h-1.2l-4-6.5c-0.3-0.5-1.1-0.5-1.5,0l-4,6.5h-1.2c-0.3,0-0.6,0.2-0.8,0.5l-1.5,3h-9.8
	c-2.4,0-4.3,1.9-4.3,4.3c0,1.7,1,3.1,2.3,3.8l-6.5,14.7l0,0c-0.1,0.2-0.1,0.4,0,0.6l1.7,5.1c0.1,0.4,0.4,0.6,0.8,0.6h12
	c0.4,0,0.7-0.2,0.8-0.6l1.7-5.1c0.1-0.2,0.1-0.4,0-0.6l0,0l-6.5-14.7c1.1-0.6,2-1.7,2.2-2.9h9.5v2.6c0,0.2,0.1,0.4,0.3,0.6l1.5,1.5
	v21.1h-3.4c-0.3,0-0.6,0.2-0.8,0.5l-1.7,3.4c-0.1,0.3-0.1,0.6,0,0.8c0.2,0.3,0.4,0.4,0.7,0.4h0.9v1.7h-11.1c-0.3,0-0.6,0.2-0.8,0.5
	l-1.7,3.4c-0.1,0.3-0.1,0.6,0,0.8c0.2,0.3,0.4,0.4,0.7,0.4h39.4c0.3,0,0.6-0.2,0.7-0.4c0.2-0.3,0.2-0.6,0-0.8l-1.7-3.4
	c-0.1-0.3-0.4-0.5-0.8-0.5h-11.1v-1.7h0.9c0.3,0,0.6-0.2,0.7-0.4c0.2-0.3,0.2-0.6,0-0.8l-1.7-3.4c-0.1-0.3-0.4-0.5-0.8-0.5h-3.4
	v-21.1l1.5-1.5c0.2-0.2,0.3-0.4,0.3-0.6v-2.6h9.5c0.3,1.3,1.1,2.4,2.2,2.9l-6.5,14.7l0,0c-0.1,0.2-0.1,0.4,0,0.6l1.7,5.1
	c0.1,0.4,0.4,0.6,0.8,0.6h12c0.4,0,0.7-0.2,0.8-0.6l1.7-5.1C274.1,255.3,274.1,255.1,274,254.9z M264.6,254.3h-5.5l5.5-12.5V254.3z
	 M266.3,241.9l5.5,12.5h-5.5V241.9z M247.5,224.3l2.7,4.4h-5.5L247.5,224.3z M242,230.4H253l0.9,1.7h-12.6L242,230.4z M228.7,254.3
	h-5.5l5.5-12.5V254.3z M230.4,241.9l5.5,12.5h-5.5V241.9z M234.9,259.5h-10.8l-1.1-3.4h13L234.9,259.5z M265.8,273.2h-36.6l0.9-1.7
	H265L265.8,273.2z M252.6,269.8h-10.3v-1.7h10.3V269.8z M253.8,266.3h-12.6l0.9-1.7H253L253.8,266.3z M250.1,239.4l-1.5,1.5
	c-0.2,0.2-0.3,0.4-0.3,0.6v21.4h-1.7v-21.4c0-0.2-0.1-0.4-0.3-0.6l-1.5-1.5v-2.2h5.1V239.4z M262.1,235.5h-29.1
	c-0.5,0-0.9,0.4-0.9,0.9c0,1.4-1.2,2.6-2.6,2.6c-1.4,0-2.6-1.2-2.6-2.6c0-1.4,1.2-2.6,2.6-2.6h36c1.4,0,2.6,1.2,2.6,2.6
	c0,1.4-1.2,2.6-2.6,2.6c-1.4,0-2.6-1.2-2.6-2.6C262.9,235.9,262.5,235.5,262.1,235.5z M270.9,259.5h-10.8l-1.1-3.4h13L270.9,259.5z"
	/>
</svg>
