<?xml version="1.0" encoding="utf-8"?>
<!-- Generator: Adobe Illustrator 19.0.0, SVG Export Plug-In . SVG Version: 6.00 Build 0)  -->
<svg version="1.1" id="Layer_1" xmlns="http://www.w3.org/2000/svg" xmlns:xlink="http://www.w3.org/1999/xlink" x="0px" y="0px"
	 viewBox="192.5 192.5 110 110" style="enable-background:new 192.5 192.5 110 110;" xml:space="preserve">
<style type="text/css">
	.st0{fill:#FFFFFF;}
	.st1{fill:#244A83;}
</style>
<circle class="st0" cx="247.5" cy="247.5" r="55"/>
<g>
	<g>
		<path class="st1" d="M265.3,239.4v-4h0.9c1.2,0,2.4-0.5,3.3-1.4c0.9-0.9,1.4-2,1.4-3.3c0-0.5-0.4-0.9-0.9-0.9h-5.6
			c-0.5,0-0.9,0.4-0.9,0.9v3.7v4.4c-2.7-0.6-6.1-1.1-9.7-1.4c-1.8-0.1-3.6-0.2-5.4-0.2v-3.7h0.9c1.2,0,2.4-0.5,3.3-1.4
			c0.9-0.9,1.4-2,1.4-3.3c0-0.5-0.4-0.9-0.9-0.9h-5.6c-0.5,0-0.9,0.4-0.9,0.9v3.7v4.6c-1.8,0-3.7,0.1-5.4,0.2
			c-3.6,0.3-6.9,0.7-9.7,1.4v-3.5h0.9c1.2,0,2.4-0.5,3.3-1.4c0.9-0.9,1.4-2,1.4-3.3c0-0.5-0.4-0.9-0.9-0.9h-5.6
			c-0.5,0-0.9,0.4-0.9,0.9v3.7v4.9c-3.9,1.2-5.8,2.6-5.8,4.4v5.6v5.6v5.6c0,1.4,1.3,2.6,3.7,3.7c4,1.6,10,2.4,14.4,2.7
			c1.8,0.1,3.7,0.2,5.6,0.2c1.9,0,3.8-0.1,5.6-0.2c4.3-0.3,10.4-1,14.4-2.7c2.5-1,3.7-2.3,3.7-3.7v-5.6v-5.6v-5.6
			C271.2,242,269.2,240.6,265.3,239.4z M265.3,231.7h3.6c-0.1,0.4-0.4,0.7-0.7,1c-0.5,0.5-1.2,0.8-2,0.8h-0.9V231.7z M248.4,229.9
			h3.6c-0.1,0.4-0.4,0.7-0.7,1c-0.5,0.5-1.2,0.8-2,0.8h-0.9V229.9z M231.4,231.7h3.6c-0.1,0.4-0.4,0.7-0.7,1c-0.5,0.5-1.2,0.8-2,0.8
			h-0.9V231.7z M254.2,239.4c3.1,0.2,5.9,0.6,8.2,1.2l-4.1,2.9c-1.9-0.3-4.1-0.5-6.5-0.6L254.2,239.4z M247.4,239.2
			c1.6,0,3.1,0,4.7,0.1l-2.4,3.6c-1.5,0-3,0-4.5,0l-2.4-3.6C244.3,239.2,245.9,239.2,247.4,239.2z M240.6,239.4l2.4,3.5
			c-2.4,0.1-4.6,0.3-6.5,0.6l-4.1-2.9C234.8,240.1,237.6,239.7,240.6,239.4z M230,241.2l3.9,2.8c-0.9,0.2-1.6,0.4-2.2,0.6
			c-0.8,0.3-1.9,0.8-2.1,1.7c-3.1-1-4.1-2-4.1-2.5C225.6,243.3,226.5,242.2,230,241.2z M235.1,264.2c-6.9-1.1-9.6-2.9-9.6-3.7v-2.9
			c0.5,0.3,1.2,0.7,1.9,1c1.9,0.8,4.5,1.4,7.6,1.9V264.2z M235.1,258.6c-2.8-0.5-5.2-1.1-6.9-1.8c-1.9-0.8-2.6-1.5-2.6-1.9V252
			c0.5,0.3,1.2,0.7,1.9,1c1.9,0.8,4.5,1.4,7.7,1.9V258.6z M235.1,253.1c-6.9-1.1-9.6-2.9-9.6-3.7v-2.9c1.4,0.9,3.5,1.7,6.4,2.3
			c1,0.2,2.1,0.4,3.2,0.6V253.1z M240.9,264.9c-1.4-0.1-2.7-0.2-4-0.4v-3.7c1.3,0.2,2.6,0.3,4,0.4V264.9z M241,259.3
			c-1.4-0.1-2.8-0.2-4.1-0.4v-3.7c1.9,0.2,4,0.4,6.1,0.5c0,0-0.1,0.1-0.1,0.1C241.9,256.8,241.3,258,241,259.3z M237,253.3v-3.7
			c3,0.4,6.2,0.6,9.6,0.6v3.7C243.2,254,239.9,253.7,237,253.3z M252.1,265c-1.2,0.1-2.5,0.1-3.7,0.1v-2.8c0-0.5-0.4-0.9-0.9-0.9
			c-0.5,0-0.9,0.4-0.9,0.9v2.8c-1.2,0-2.5-0.1-3.7-0.1v-4.5c0,0,0-0.1,0-0.1c0.1-2.5,2.1-4.5,4.6-4.5c1.2,0,2.4,0.5,3.3,1.4
			c0.8,0.8,1.3,2,1.4,3.1c0,0,0,0.1,0,0.1L252.1,265L252.1,265z M257.9,264.5c-1.3,0.2-2.6,0.3-4,0.4v-3.7c1.4-0.1,2.7-0.2,4-0.4
			V264.5z M257.9,258.9c-1.3,0.2-2.7,0.3-4.1,0.4c-0.2-1.3-0.9-2.5-1.8-3.4c-0.1-0.1-0.1-0.1-0.2-0.2c2.1-0.1,4.1-0.3,6.1-0.5
			L257.9,258.9L257.9,258.9z M257.9,253.3c-3,0.4-6.2,0.6-9.6,0.6v-3.7c3.3,0,6.6-0.2,9.6-0.6V253.3z M247.4,248.4
			c-3.9,0-7.8-0.3-11.3-0.8c-1.3-0.2-2.4-0.4-3.5-0.6c-0.1,0-0.1-0.1-0.2-0.1c-0.4-0.1-0.6-0.3-0.8-0.4c2.5-1.3,10.2-1.8,13-1.8
			c1.8,0,3.7,0,5.5,0c3.1,0.1,6,0.3,8.3,0.7c3,0.4,4.2,0.9,4.7,1.2c-0.2,0.1-0.6,0.3-1.1,0.5c-1.1,0.2-2.2,0.4-3.4,0.6
			C255.3,248.2,251.4,248.4,247.4,248.4z M269.3,260.5c0,0.9-2.6,2.6-9.6,3.7v-3.7c3.1-0.5,5.7-1.2,7.6-1.9c0.8-0.3,1.4-0.6,1.9-1
			V260.5z M269.3,254.9c0,0.4-0.7,1.1-2.6,1.9c-1.7,0.7-4.1,1.3-6.9,1.8V255c3.1-0.5,5.7-1.2,7.7-1.9c0.7-0.3,1.4-0.6,1.9-1V254.9z
			 M269.3,249.4c0,0.9-2.6,2.6-9.6,3.7v-3.7c2.8-0.4,7.2-1.3,9.6-2.9V249.4z M265.3,246.3c-0.2-0.9-1.3-1.4-2.2-1.7
			c-0.6-0.2-1.3-0.4-2.1-0.6l3.9-2.8c3.5,1.1,4.5,2.1,4.5,2.6C269.3,244.3,268.4,245.3,265.3,246.3z"/>
	</g>
</g>
</svg>
