<?xml version="1.0" encoding="utf-8"?>
<!-- Generator: Adobe Illustrator 19.0.0, SVG Export Plug-In . SVG Version: 6.00 Build 0)  -->
<svg version="1.1" id="Layer_1" xmlns="http://www.w3.org/2000/svg" xmlns:xlink="http://www.w3.org/1999/xlink" x="0px" y="0px"
	 viewBox="192.5 192.5 110 110" style="enable-background:new 192.5 192.5 110 110;" xml:space="preserve">
<style type="text/css">
	.st0{fill:#FFFFFF;}
	.st1{fill:#244A83;}
</style>
<circle class="st0" cx="247.5" cy="247.5" r="55"/>
<g>
	<g>
		<path class="st1" d="M244.6,259.1c-0.4,0-0.8,0.4-0.8,0.8c0,0.4,0.4,0.8,0.8,0.8c0.4,0,0.8-0.4,0.8-0.8
			C245.4,259.5,245.1,259.1,244.6,259.1z"/>
	</g>
</g>
<g>
	<g>
		<path class="st1" d="M262.7,238.4h-1.6h-2.9v-2c0-0.7-0.3-1.4-0.8-2c-0.5-0.5-1.2-0.8-2-0.8c-0.5,0-0.9,0.1-1.3,0.3
			c-0.4-1.1-1.4-1.9-2.7-1.9c-0.8,0-1.5,0.3-2,0.8c0,0,0,0,0,0c-0.5-0.5-1.2-0.8-2-0.8c-0.8,0-1.5,0.3-2,0.8c-0.5-0.5-1.2-0.8-2-0.8
			c-1.5,0-2.8,1.3-2.8,2.8v3.6h-9.3c0,0,0,0,0,0c0,0-0.1,0-0.1,0c0,0,0,0,0,0c0,0,0,0-0.1,0c0,0,0,0,0,0c0,0,0,0-0.1,0c0,0,0,0,0,0
			c0,0,0,0-0.1,0c0,0,0,0,0,0l0,0c0,0,0,0,0,0l-6.4,3.2c-0.3,0.1-0.4,0.4-0.4,0.7c0,0.3,0.2,0.6,0.4,0.7l6.4,3.2c0,0,0,0,0,0l0,0
			c0,0,0,0,0,0c0,0,0,0,0.1,0c0,0,0,0,0,0c0,0,0,0,0.1,0c0,0,0,0,0,0c0,0,0,0,0.1,0c0,0,0,0,0,0c0,0,0.1,0,0.1,0h5.6
			c0.3,0.7,0.7,1.4,1.3,2l2.8,2.8c0.8,0.8,1.2,1.8,1.2,2.8v2h-0.8c-0.4,0-0.8,0.4-0.8,0.8v11.2c0,0.4,0.4,0.8,0.8,0.8h16
			c0.4,0,0.8-0.4,0.8-0.8v-11.2c0-0.4-0.4-0.8-0.8-0.8h-0.8v-2.2c0-1,0.2-2,0.6-2.9c0.6-1.4,1-2.6,1-3.8v-0.7h2.9h1.6
			c1.3,0,2.4-1.1,2.4-2.4v-3.2C265.1,239.5,264,238.4,262.7,238.4z M254.2,236.4c0-0.7,0.5-1.2,1.2-1.2c0.3,0,0.6,0.1,0.8,0.4
			c0.2,0.2,0.4,0.5,0.4,0.8v4c0,0.7-0.5,1.2-1.2,1.2c-0.7,0-1.2-0.5-1.2-1.2V236.4z M250.2,239.2v-4.4c0-0.7,0.5-1.2,1.2-1.2
			c0.7,0,1.2,0.5,1.2,1.2v1.6v4c0,0.7-0.5,1.2-1.2,1.2c-0.7,0-1.2-0.5-1.2-1.2V239.2z M246.2,234.8c0-0.7,0.5-1.2,1.2-1.2
			c0.3,0,0.6,0.1,0.8,0.4c0.2,0.2,0.4,0.5,0.4,0.8v3.6h-2.4V234.8z M242.3,234.8c0-0.7,0.5-1.2,1.2-1.2c0.7,0,1.2,0.5,1.2,1.2v3.6
			h-2.4V234.8z M231.2,244.6l-4.4-2.2l4.4-2.2C232.2,241.5,232.2,243.3,231.2,244.6z M236.7,244v0.4c0,0.1,0,0.3,0,0.4H233
			c0.8-1.5,0.8-3.3,0-4.8h5.4c-0.2,0.2-0.4,0.4-0.6,0.6C237.1,241.6,236.7,242.8,236.7,244z M256.6,267.1h-14.4v-9.6h0.8h12.8h0.8
			V267.1z M256.6,247c0,1-0.3,2-0.8,3.1c-0.5,1.1-0.8,2.3-0.8,3.6v2.2h-11.2v-2c0-1.5-0.6-2.9-1.6-3.9l-2.8-2.8
			c-0.5-0.5-0.9-1.1-1-1.8c-0.1-0.3-0.1-0.7-0.1-1V244c0-0.9,0.3-1.7,0.8-2.4c0.6-0.8,1.5-1.4,2.5-1.5c0.2,0,0.4-0.1,0.7-0.1h3.2
			h3.1c-0.1,0.5-0.4,1-0.8,1.5c-0.6,0.6-1.4,0.9-2.3,0.9h-2.4c-0.4,0-0.8,0.3-0.8,0.7c0,0.4,0.2,0.8,0.7,0.9c1.3,0.2,2.5,1,3.2,2.1
			c0,0,0,0,0,0c0.6,0.8,0.9,1.8,0.9,2.8l0,1.5c0,0.4,0.4,0.8,0.8,0.8c0,0,0,0,0,0c0.4,0,0.8-0.4,0.8-0.8l0-1.5
			c0-0.9-0.2-1.7-0.5-2.5h8.5V247z M260.3,244.8h-13.1c-0.3-0.3-0.5-0.6-0.8-0.9c0.9-0.2,1.8-0.6,2.5-1.3c0.1-0.1,0.3-0.3,0.4-0.5
			c0.5,0.6,1.3,1.1,2.2,1.1c0.8,0,1.5-0.3,2-0.8c0.5,0.5,1.2,0.8,2,0.8c1.5,0,2.8-1.3,2.8-2.8V240h2.1V244.8z M263.5,244
			c0,0.4-0.4,0.8-0.8,0.8h-0.8V240h0.8c0.4,0,0.8,0.4,0.8,0.8V244z"/>
	</g>
</g>
<g>
	<g>
		<path class="st1" d="M254.2,259.1h-6.4c-0.4,0-0.8,0.4-0.8,0.8c0,0.4,0.4,0.8,0.8,0.8h6.4c0.4,0,0.8-0.4,0.8-0.8
			C255,259.5,254.7,259.1,254.2,259.1z"/>
	</g>
</g>
</svg>
