<?xml version="1.0" encoding="utf-8"?>
<!-- Generator: Adobe Illustrator 19.0.0, SVG Export Plug-In . SVG Version: 6.00 Build 0)  -->
<svg version="1.1" id="Capa_1" xmlns="http://www.w3.org/2000/svg" xmlns:xlink="http://www.w3.org/1999/xlink" x="0px" y="0px"
	 viewBox="0 0 512 512" style="enable-background:new 0 0 512 512;" xml:space="preserve">
<style type="text/css">
	.st0{fill:#FFFFFF;}
</style>
<g>
	<path class="st0" d="M479.5,297c-5.7-3.2-13-2.5-20,1.9L330.7,380c-3.6,2.3-4.7,7-2.4,10.6c2.3,3.6,7,4.7,10.6,2.4l128.7-81.1
		c2.7-1.7,4.2-1.6,4.4-1.5c0.2,0.1,1.1,1.3,1.1,4.5c0,8.6-6.4,20.2-13.7,24.8l-124.8,78.6c-6.6,4.2-12.7,5.3-16.6,3.2
		c-3.9-2.2-6.2-7.9-6.2-15.8c0-19.9,14.2-45.6,31-56.2l142.1-89.5c2.2-1.4,3.6-3.9,3.6-6.5c0-2.6-1.4-5.1-3.6-6.5l-273-171.9
		c-2.5-1.6-5.7-1.6-8.2,0L59.9,165.8c-20.4,12.9-36.4,41.9-36.4,66v4.1c0,24.1,16,53.1,36.4,66l213.9,134.7
		c3.6,2.3,8.3,1.2,10.6-2.4c2.3-3.6,1.2-8.3-2.4-10.6L68.1,288.9c-15.9-10-29.3-34.3-29.3-53v-4.1c0-18.8,13.4-43,29.3-53l139.7-88
		l258.6,162.9l-131.8,83c-21.4,13.5-38.2,43.9-38.2,69.1c0,13.8,5,24.2,14.1,29.2c3.7,2,7.7,3,12,3c6.4,0,13.3-2.2,20.3-6.6
		l124.8-78.6c11.7-7.4,20.9-24,20.9-37.8C488.5,306.7,485.2,300.2,479.5,297z"/>
	<path class="st0" d="M384.9,261.3c2.5,0,5-1.3,6.5-3.6c2.3-3.6,1.2-8.3-2.4-10.6L211.9,135.6c-3.6-2.3-8.3-1.2-10.6,2.4
		c-2.3,3.6-1.2,8.3,2.4,10.6l177.1,111.5C382.1,260.9,383.5,261.3,384.9,261.3z"/>
	<path class="st0" d="M354.3,281.6c2.6,0,5-1.3,6.5-3.6c2.2-3.6,1.2-8.3-2.4-10.6l-74.8-46.9c-3.6-2.3-8.3-1.2-10.6,2.4
		c-2.2,3.6-1.2,8.3,2.4,10.6l74.8,46.9C351.5,281.3,352.9,281.6,354.3,281.6z"/>
	<path class="st0" d="M252.3,240.7c-3.6-2.2-8.3-1.1-10.6,2.4c-2.2,3.6-1.1,8.3,2.4,10.6l75.4,47.1c1.3,0.8,2.7,1.2,4.1,1.2
		c2.6,0,5.1-1.3,6.5-3.6c2.2-3.6,1.1-8.3-2.4-10.6L252.3,240.7z"/>
	<path class="st0" d="M171.9,155.7l-63.7,40.1c-2.2,1.4-3.6,3.9-3.6,6.5c0,2.6,1.4,5.1,3.6,6.5l76,47.2c1.2,0.8,2.6,1.2,4,1.2
		c1.4,0,2.9-0.4,4.2-1.2l16.9-10.9c3.6-2.3,4.6-7,2.3-10.6c-2.3-3.6-7-4.6-10.6-2.3l-12.8,8.3l-61.4-38.2l49.3-31l60.5,38l-7.1,4.6
		c-3.6,2.3-4.6,7-2.3,10.6c2.3,3.6,7,4.6,10.6,2.3l17.2-11.1c2.2-1.4,3.5-3.9,3.5-6.5c0-2.6-1.4-5-3.6-6.4l-74.8-46.9
		C177.6,154.1,174.4,154.1,171.9,155.7z"/>
	<path class="st0" d="M299.5,318.7c2.2-3.6,1.1-8.3-2.5-10.6l-76-47.2c-3.6-2.2-8.3-1.1-10.6,2.5c-2.2,3.6-1.1,8.3,2.5,10.6l76,47.2
		c1.3,0.8,2.7,1.2,4,1.2C295.6,322.3,298.1,321,299.5,318.7z"/>
	<path class="st0" d="M78.2,220.6c-2.2,3.6-1.1,8.3,2.5,10.6l187.5,116.6c1.3,0.8,2.7,1.2,4,1.2c2.6,0,5.1-1.3,6.5-3.6
		c2.2-3.6,1.1-8.3-2.5-10.6L88.8,218.1C85.2,215.9,80.4,217,78.2,220.6z"/>
</g>
</svg>
