<?xml version="1.0" encoding="utf-8"?>
<!-- Generator: Adobe Illustrator 19.0.0, SVG Export Plug-In . SVG Version: 6.00 Build 0)  -->
<svg version="1.1" id="레이어_1" xmlns="http://www.w3.org/2000/svg" xmlns:xlink="http://www.w3.org/1999/xlink" x="0px"
	 y="0px" viewBox="90 -17 190 41" style="enable-background:new 90 -17 190 41;" xml:space="preserve">
<style type="text/css">
	.st0{fill:#868686;}
</style>
<g id="XMLID_35_">
	<g id="XMLID_61_">
		<path id="XMLID_92_" class="st0" d="M141.8,16.5v-1c-0.3-0.2-0.7-0.4-1-0.5c-0.4-0.1-0.7-0.2-1.1-0.2c-1,0-1.8,0.3-2.4,0.9
			c-0.6,0.6-0.9,1.4-0.9,2.5c0,0.7,0.2,1.4,0.5,1.9c0.3,0.6,0.7,1,1.3,1.3s1.2,0.5,1.8,0.5c0.5,0,1-0.1,1.5-0.2
			c0.4-0.1,0.7-0.3,1.1-0.5l0.1,0.1c-0.1,0.2-0.2,0.3-0.2,0.5c-0.4,0.2-0.9,0.4-1.3,0.5c-0.4,0.1-0.9,0.2-1.3,0.2
			c-0.9,0-1.7-0.2-2.4-0.5c-0.7-0.4-1.2-0.8-1.6-1.5c-0.4-0.6-0.6-1.3-0.6-2.1s0.2-1.5,0.6-2.1s0.9-1.1,1.6-1.5
			c0.7-0.3,1.5-0.5,2.5-0.5c0.5,0,1.1,0.1,1.9,0.3c0.4,0.1,0.6,0.1,0.9,0.2c-0.2,0.4-0.3,1-0.3,1.7
			C142.5,16.5,141.8,16.5,141.8,16.5z"/>
		<path id="XMLID_90_" class="st0" d="M145.3,22c0.4,0,0.7,0,1.1,0c0.7,0,1.3,0,1.7-0.1c0.3,0,0.6-0.1,0.9-0.2l0.3-1.3h0.4
			c-0.1,0.7-0.2,1.4-0.2,2c-0.3,0.1-0.8,0.1-1.4,0.1h-2.7c-0.4,0-0.9,0-1.7,0.1v-0.3c0.3-0.1,0.5-0.3,0.5-0.4
			c0.1-0.1,0.1-0.7,0.1-1.8V17c0-1.1,0-1.7-0.1-1.9c-0.1-0.1-0.2-0.2-0.5-0.2h-0.6v-0.4c0.9,0,1.5,0,1.8,0c0.4,0,0.9,0,1.6,0v0.4
			h-0.7c-0.2,0-0.3,0.1-0.4,0.2c-0.1,0.1-0.1,0.6-0.1,1.4v3.6v1.6L145.3,22z"/>
		<path id="XMLID_88_" class="st0" d="M150,14.9v-0.4c0.8,0,1.3,0,1.7,0c0.4,0,0.9,0,1.6,0v0.4h-0.4c-0.4,0-0.6,0.1-0.6,0.2
			c-0.1,0.1-0.1,0.7-0.1,1.8v2.2c0,0.8,0,1.4,0.1,1.7c0.1,0.3,0.3,0.6,0.7,0.8s0.9,0.3,1.5,0.3s1.2-0.1,1.6-0.3
			c0.3-0.2,0.5-0.4,0.7-0.8c0.1-0.3,0.2-1,0.2-1.9v-2.1c0-1,0-1.5-0.1-1.7c-0.1-0.1-0.3-0.2-0.7-0.2h-0.3v-0.4c0.8,0,1.3,0,1.5,0
			c0.3,0,0.8,0,1.3,0v0.4h-0.4c-0.3,0-0.5,0.1-0.6,0.2c-0.1,0.2-0.1,0.7-0.1,1.7v2.1c0,1,0,1.6-0.1,1.9c-0.1,0.3-0.3,0.6-0.5,0.9
			c-0.3,0.3-0.6,0.5-1,0.6c-0.4,0.2-0.9,0.2-1.5,0.2s-1.1-0.1-1.5-0.2c-0.4-0.1-0.8-0.3-1-0.5s-0.4-0.5-0.5-0.8s-0.1-0.8-0.1-1.5
			v-1.1v-1.7c0-1.1,0-1.6-0.1-1.8c-0.1-0.1-0.3-0.2-0.6-0.2H150V14.9z"/>
		<path id="XMLID_84_" class="st0" d="M163.1,18c0.8,0.1,1.4,0.2,1.7,0.6c0.4,0.3,0.5,0.8,0.5,1.3c0,0.7-0.3,1.3-0.9,1.9
			c-0.6,0.5-1.4,0.8-2.3,0.8h-0.4c-0.4,0-0.7,0-1,0c-0.2,0-0.4,0-0.7,0h-0.5v-0.3c0.2-0.1,0.4-0.2,0.4-0.3s0.1-0.2,0.1-0.3
			c0-0.4,0-1,0-1.5v-3.5c0-0.9,0-1.5-0.1-1.6s-0.3-0.2-0.6-0.2h-0.4v-0.4h0.5h0.5c0.3,0,0.5,0,0.6,0c0.2,0,0.7,0,1.4,0h0.8
			c0.6,0,1.1,0.1,1.4,0.3c0.4,0.3,0.6,0.7,0.6,1.2c0,0.4-0.1,0.8-0.4,1.1C164.2,17.5,163.8,17.8,163.1,18z M161.2,17.8
			c0.2,0,0.4,0,0.5,0c0.7,0,1.3-0.1,1.6-0.4c0.3-0.3,0.5-0.6,0.5-1.1c0-0.4-0.1-0.8-0.4-1s-0.7-0.3-1.3-0.3c-0.3,0-0.5,0-0.9,0.1
			c0,0.5,0,1.1,0,2.1C161.2,17.2,161.2,17.8,161.2,17.8z M161.2,22c0.3,0.1,0.6,0.1,0.9,0.1c0.7,0,1.2-0.2,1.5-0.5
			c0.4-0.4,0.5-0.8,0.5-1.4c0-0.4-0.1-0.7-0.2-1c-0.2-0.3-0.4-0.5-0.7-0.6c-0.3-0.1-0.8-0.2-1.4-0.2c-0.2,0-0.4,0-0.6,0v2v0.7
			c0,0.3,0,0.5,0,0.6C161.2,21.7,161.2,21.8,161.2,22z"/>
		<path id="XMLID_80_" class="st0" d="M173.6,18.4l0.3-0.5c0.4,0,0.7,0,0.9,0h0.7c0.7,0,1.3,0,1.7,0c-0.1,0.3-0.1,0.6-0.1,0.8
			c-0.4-0.1-0.9-0.1-1.6-0.1c0,0.2,0.1,0.4,0.1,0.5c0,0.3-0.1,0.6-0.2,0.9c-0.1,0.3-0.4,0.7-0.7,1c0.4,0.3,0.7,0.5,1.1,0.6
			c0.3,0.1,0.7,0.2,0.9,0.2c0.1,0,0.4-0.1,0.6-0.3l0.1,0.3c-0.5,0.3-0.8,0.6-1,0.8c-0.1,0-0.3,0.1-0.5,0.1c-0.6,0-1.2-0.3-2-0.9
			c-0.4,0.4-0.8,0.6-1.2,0.7c-0.4,0.1-0.7,0.2-1.2,0.2c-0.7,0-1.3-0.2-1.7-0.7c-0.4-0.4-0.7-1-0.7-1.6c0-0.5,0.2-1,0.5-1.5
			c0.2-0.3,0.6-0.6,1.3-1c-0.2-0.6-0.3-1.1-0.3-1.4c0-0.3,0-0.6,0.1-0.8s0.2-0.3,0.3-0.5c0.4-0.4,0.7-0.6,0.8-0.7
			c0.2-0.1,0.4-0.1,0.6-0.1c0.3,0,0.6,0.1,0.7,0.3c0.2,0.2,0.3,0.5,0.3,0.8c0,0.8-0.5,1.5-1.6,2.3c0.6,1.1,1.4,2.1,2.3,2.9
			c0.2-0.3,0.4-0.5,0.4-0.7c0.1-0.2,0.1-0.4,0.1-0.7s0-0.5-0.1-0.7c0-0.1-0.1-0.1-0.2-0.2C174.4,18.5,174.1,18.5,173.6,18.4
			L173.6,18.4z M173.6,21.4c-0.9-0.8-1.7-1.9-2.4-3.1c-0.4,0.3-0.6,0.5-0.8,0.8c-0.1,0.3-0.2,0.5-0.2,0.9c0,0.5,0.2,1,0.5,1.4
			c0.4,0.4,0.8,0.6,1.4,0.6C172.6,22,173.1,21.8,173.6,21.4z M171.8,17.4c0.7-0.6,1-1.1,1-1.6c0-0.2-0.1-0.4-0.2-0.6
			c-0.1-0.1-0.3-0.2-0.4-0.2c-0.2,0-0.4,0.1-0.5,0.2c-0.1,0.2-0.2,0.4-0.2,0.8S171.6,16.8,171.8,17.4z"/>
		<path id="XMLID_78_" class="st0" d="M185.9,14.9c-0.1,0.4-0.2,0.9-0.2,1.6h-0.4V16c0-0.3,0-0.5-0.1-0.6c-0.1-0.1-0.3-0.2-0.6-0.3
			c-0.3-0.1-0.7-0.2-1-0.2c-0.6,0-1.1,0.2-1.4,0.5c-0.3,0.3-0.5,0.7-0.5,1.2c0,0.3,0.1,0.6,0.2,0.8c0.1,0.2,0.3,0.4,0.6,0.5
			c0.2,0.1,0.7,0.2,1.5,0.3s1.3,0.2,1.6,0.3c0.3,0.1,0.5,0.3,0.7,0.6c0.2,0.3,0.2,0.6,0.2,1c0,0.8-0.3,1.4-0.9,1.9s-1.5,0.8-2.5,0.8
			c-0.4,0-0.7,0-1.1-0.1c-0.4-0.1-0.7-0.2-1.1-0.3c0.1-0.4,0.1-1,0.1-1.7h0.4V21c0,0.4,0,0.6,0.1,0.7c0,0.1,0.1,0.2,0.3,0.3
			c0.2,0.1,0.5,0.3,0.7,0.3c0.3,0.1,0.6,0.1,0.9,0.1c0.7,0,1.3-0.2,1.6-0.5c0.4-0.3,0.6-0.8,0.6-1.3c0-0.3-0.1-0.6-0.2-0.8
			s-0.3-0.4-0.6-0.5c-0.4-0.3-0.8-0.3-1.5-0.4c-0.8-0.1-1.4-0.2-1.7-0.3c-0.3-0.1-0.5-0.3-0.7-0.6s-0.3-0.7-0.3-1.1
			c0-0.7,0.3-1.3,0.8-1.8s1.3-0.7,2.2-0.7c0.4,0,0.7,0,1.1,0.1C185.1,14.6,185.5,14.7,185.9,14.9z"/>
		<path id="XMLID_76_" class="st0" d="M189,15.1c0,0.5,0,1.1,0,1.7V20c0,1.1,0,1.8,0.1,1.9c0.1,0.1,0.3,0.2,0.7,0.2h0.4v0.4
			c-0.7,0-1.2,0-1.6,0c-0.3,0-0.9,0-1.8,0v-0.4h0.5c0.2,0,0.4,0,0.5-0.1c0.1-0.1,0.1-0.2,0.1-0.4s0-0.7,0.1-1.6v-3v-1.2
			c0-0.5-0.1-0.8-0.2-0.9c-0.1-0.1-0.3-0.2-0.7-0.2h-0.3v-0.4c0.5,0,1.1,0,1.8,0c0.4,0,0.9,0,1.4,0c0.3,0,0.6,0,0.8,0
			c0.9,0,1.6,0.2,2,0.5s0.6,0.8,0.6,1.3c0,0.4-0.1,0.8-0.4,1.2c-0.2,0.4-0.6,0.7-1,0.9s-0.9,0.3-1.4,0.3c-0.2,0-0.5,0-0.8-0.1
			l-0.1-0.4c0.3,0.1,0.6,0.1,0.8,0.1c0.5,0,0.9-0.2,1.2-0.5s0.5-0.7,0.5-1.3c0-0.5-0.2-0.9-0.5-1.2s-0.8-0.4-1.4-0.4
			C189.9,14.9,189.5,15,189,15.1z"/>
		<path id="XMLID_73_" class="st0" d="M199.4,19.8h-3.2l-0.4,0.9c-0.3,0.6-0.4,1-0.4,1.1s0,0.1,0.1,0.2c0,0,0.2,0.1,0.4,0.1l0.5,0.1
			v0.4c-0.4,0-0.8,0-1.2,0c-0.5,0-1,0-1.4,0v-0.4h0.2c0.3,0,0.4,0,0.5-0.1c0.1,0,0.2-0.2,0.2-0.3c0.3-0.5,0.5-1.1,0.8-1.7l1.5-3.5
			c0.4-0.9,0.7-1.6,0.8-2h0.4l2.8,6.6c0.2,0.4,0.3,0.7,0.4,0.8s0.1,0.2,0.2,0.2s0.3,0.1,0.6,0.1v0.4c-0.5,0-1,0-1.4,0s-1,0-1.6,0
			v-0.4h0.6c0.2,0,0.3,0,0.4-0.1c0.1,0,0.1-0.1,0.1-0.2c0-0.1-0.1-0.2-0.2-0.5L199.4,19.8z M196.3,19.4h2.8l-1.4-3.4L196.3,19.4z"/>
		<path id="XMLID_71_" class="st0" d="M210.7,14.9c-0.1,0.4-0.2,0.9-0.2,1.6h-0.4V16c0-0.3,0-0.5-0.1-0.6s-0.3-0.2-0.6-0.3
			c-0.3-0.1-0.7-0.2-1-0.2c-0.6,0-1.1,0.2-1.4,0.5s-0.5,0.7-0.5,1.2c0,0.3,0.1,0.6,0.2,0.8s0.3,0.4,0.6,0.5c0.2,0.1,0.7,0.2,1.5,0.3
			c0.8,0.1,1.3,0.2,1.6,0.3c0.3,0.1,0.5,0.3,0.7,0.6s0.2,0.6,0.2,1c0,0.8-0.3,1.4-0.9,1.9c-0.6,0.5-1.5,0.8-2.5,0.8
			c-0.4,0-0.7,0-1.1-0.1s-0.7-0.2-1.1-0.3c0.1-0.4,0.1-1,0.1-1.7h0.4V21c0,0.4,0,0.6,0.1,0.7c0,0.1,0.1,0.2,0.3,0.3s0.5,0.3,0.7,0.3
			c0.3,0.1,0.6,0.1,0.9,0.1c0.7,0,1.3-0.2,1.6-0.5c0.4-0.3,0.6-0.8,0.6-1.3c0-0.3-0.1-0.6-0.2-0.8c-0.1-0.2-0.3-0.4-0.5-0.5
			c-0.2-0.1-0.7-0.2-1.3-0.2c-0.8-0.1-1.4-0.2-1.7-0.3c-0.3-0.1-0.5-0.3-0.7-0.6c-0.2-0.3-0.3-0.7-0.3-1.1c0-0.7,0.3-1.3,0.8-1.8
			s1.3-0.7,2.2-0.7c0.4,0,0.7,0,1.1,0.1C209.9,14.6,210.3,14.7,210.7,14.9z"/>
		<path id="XMLID_69_" class="st0" d="M213.9,18.7v1.4v0.8c0,0.5,0,0.9,0,1.1c0.5,0,1.1,0.1,1.8,0.1c0.4,0,0.8,0,1.1-0.1
			c0.2,0,0.4-0.1,0.6-0.1c0.1-0.3,0.2-0.7,0.3-1.2h0.4c-0.1,0.8-0.2,1.4-0.2,1.6v0.3c-0.4,0-0.9,0.1-1.3,0.1h-0.9c-1,0-1.7,0-2.1,0
			s-1,0-1.7,0v-0.4h0.2c0.3,0,0.5,0,0.6-0.1c0.1-0.1,0.1-0.2,0.2-0.4c0-0.2,0-0.8,0-1.6V17c0-0.5,0-0.9,0-1.2s-0.1-0.5-0.1-0.6
			s-0.1-0.1-0.1-0.1s-0.2-0.1-0.5-0.1h-0.4v-0.4h0.6h0.6c0.3,0,0.6,0,0.8,0h2.2h1c0.3,0,0.7,0,1.1,0c-0.1,0.4-0.2,1-0.2,1.7h-0.4
			c0-0.4,0-0.8-0.1-1c-0.4-0.2-1-0.2-1.6-0.2c-0.5,0-1,0-1.6,0.1c0,0.4,0,0.7,0,1.1v0.9v1.1c0.4,0,0.7,0,1,0c0.9,0,1.4,0,1.5-0.1
			s0.2-0.3,0.2-0.6v-0.4h0.4c0,0.6,0,1,0,1.4s0,0.8,0,1.3h-0.4v-0.3c0-0.4-0.1-0.6-0.2-0.7c-0.1-0.1-0.6-0.1-1.5-0.1
			C214.6,18.7,214.2,18.7,213.9,18.7z"/>
		<path id="XMLID_66_" class="st0" d="M218.6,18.5c0-1.2,0.4-2.2,1.2-3s1.9-1.1,3.2-1.1s2.3,0.3,3.1,1c0.7,0.7,1.1,1.6,1.1,2.8
			s-0.4,2.3-1.3,3.1c-0.9,0.8-1.9,1.3-3.2,1.3c-0.8,0-1.5-0.2-2.1-0.5s-1.1-0.8-1.4-1.4C218.8,20.1,218.6,19.3,218.6,18.5z
			 M219.8,18.1c0,0.8,0.1,1.6,0.4,2.2c0.3,0.6,0.7,1.1,1.2,1.4c0.5,0.3,1,0.5,1.7,0.5c0.6,0,1.1-0.1,1.5-0.4c0.4-0.3,0.8-0.7,1-1.2
			s0.4-1.2,0.4-1.9c0-0.8-0.1-1.5-0.4-2c-0.3-0.6-0.7-1-1.1-1.3c-0.5-0.3-1-0.4-1.7-0.4c-0.6,0-1.1,0.1-1.6,0.4
			c-0.4,0.3-0.8,0.6-1,1.1C219.9,16.9,219.8,17.4,219.8,18.1z"/>
		<path id="XMLID_64_" class="st0" d="M227.6,14.9v-0.4c0.8,0,1.3,0,1.7,0s0.9,0,1.6,0v0.4h-0.4c-0.4,0-0.6,0.1-0.6,0.2
			c-0.1,0.1-0.1,0.7-0.1,1.8v2.2c0,0.8,0,1.4,0.1,1.7s0.3,0.6,0.7,0.8s0.9,0.3,1.5,0.3s1.2-0.1,1.6-0.3c0.3-0.2,0.5-0.4,0.7-0.8
			c0.1-0.3,0.2-1,0.2-1.9v-2.1c0-1,0-1.5-0.1-1.7c-0.1-0.1-0.3-0.2-0.7-0.2h-0.3v-0.4c0.8,0,1.3,0,1.5,0c0.3,0,0.8,0,1.3,0v0.4h-0.4
			c-0.3,0-0.5,0.1-0.6,0.2c-0.1,0.2-0.1,0.7-0.1,1.7v2.1c0,1,0,1.6-0.1,1.9c-0.1,0.3-0.3,0.6-0.5,0.9c-0.3,0.3-0.6,0.5-1,0.6
			c-0.4,0.2-0.9,0.2-1.5,0.2s-1.1-0.1-1.5-0.2c-0.4-0.1-0.8-0.3-1-0.5s-0.4-0.5-0.5-0.8s-0.1-0.8-0.1-1.5v-1.1v-1.7
			c0-1.1,0-1.6-0.1-1.8c-0.1-0.1-0.3-0.2-0.6-0.2h-0.7V14.9z"/>
		<path id="XMLID_62_" class="st0" d="M238.9,22c0.4,0,0.7,0,1.1,0c0.7,0,1.3,0,1.7-0.1c0.3,0,0.6-0.1,0.9-0.2l0.3-1.3h0.4
			c-0.1,0.7-0.2,1.4-0.2,2c-0.3,0.1-0.8,0.1-1.4,0.1H239c-0.4,0-0.9,0-1.7,0.1v-0.3c0.3-0.1,0.5-0.3,0.5-0.4
			c0.1-0.1,0.1-0.7,0.1-1.8V17c0-1.1,0-1.7-0.1-1.9c-0.1-0.1-0.2-0.2-0.5-0.2h-0.6v-0.4c0.9,0,1.5,0,1.8,0c0.4,0,0.9,0,1.6,0v0.4
			h-0.7c-0.2,0-0.3,0.1-0.4,0.2c-0.1,0.1-0.1,0.6-0.1,1.4v3.6v1.6L238.9,22z"/>
	</g>
	<g id="XMLID_36_">
		<path id="XMLID_57_" class="st0" d="M111.7-8.3c1.7,0.1,2.9,0.5,3.6,1.2c0.7,0.7,1.1,1.6,1.1,2.7c0,1.5-0.6,2.8-1.9,3.8
			c-1.2,1.1-2.8,1.6-4.7,1.6H109c-0.8,0-1.4-0.1-2-0.1c-0.4,0-0.9,0-1.4,0h-1V0.4c0.5-0.2,0.8-0.4,0.9-0.5s0.1-0.3,0.2-0.6
			c0.1-0.9,0.1-2,0.1-3.1V-11c0-1.9-0.1-3-0.2-3.3c-0.2-0.3-0.6-0.5-1.2-0.5h-0.8v-0.7h1h1.1c0.6,0,1,0,1.3,0c0.5,0,1.5,0,2.9-0.1
			h1.7c1.3,0,2.3,0.2,3,0.7c0.8,0.6,1.2,1.4,1.2,2.5c0,0.9-0.3,1.7-0.9,2.3C114.2-9.3,113.2-8.8,111.7-8.3z M107.9-8.6
			c0.4,0,0.7,0,1.1,0c1.5,0,2.6-0.3,3.3-0.8c0.7-0.5,1-1.3,1-2.4c0-0.9-0.3-1.6-0.8-2.1c-0.6-0.5-1.4-0.7-2.7-0.7
			c-0.5,0-1.1,0.1-1.8,0.2c-0.1,0.9-0.1,2.4-0.1,4.3V-8.6z M107.9-0.1c0.7,0.1,1.3,0.2,1.8,0.2c1.4,0,2.4-0.4,3.2-1.1
			c0.8-0.7,1.1-1.7,1.1-3c0-0.8-0.2-1.5-0.5-2.1c-0.3-0.5-0.8-0.9-1.4-1.2s-1.6-0.4-2.9-0.4c-0.4,0-0.8,0-1.3,0v4.1v1.5
			c0,0.5,0,0.9,0,1.2C107.9-0.6,107.9-0.4,107.9-0.1z"/>
		<path id="XMLID_54_" class="st0" d="M129.5-4.5h-6.7L122-2.7c-0.5,1.2-0.8,2-0.8,2.3c0,0.2,0,0.3,0.1,0.4c0.1,0.1,0.3,0.1,0.7,0.2
			l1.1,0.1V1c-0.6,0-1.4,0-2.4,0c-1.1,0-2.1,0-2.9,0.1V0.4h0.3c0.5,0,0.9-0.1,1.1-0.2c0.2-0.1,0.3-0.3,0.5-0.7
			c0.6-1.1,1.1-2.3,1.7-3.6l3.2-7.2c0.9-1.9,1.4-3.3,1.7-4.2h0.8L133-1.9c0.4,0.9,0.7,1.5,0.8,1.7c0.1,0.2,0.3,0.3,0.5,0.4
			s0.6,0.1,1.2,0.2V1c-1-0.1-2-0.1-2.9-0.1c-0.9,0-2,0-3.4,0.1V0.3l1.2-0.1c0.4,0,0.7-0.1,0.7-0.1c0.1-0.1,0.2-0.2,0.2-0.3
			c0-0.1-0.1-0.5-0.3-1.1L129.5-4.5z M123.2-5.5h5.9l-2.9-7L123.2-5.5z"/>
		<path id="XMLID_52_" class="st0" d="M139.7-12.9v8c0,1.8,0,3.1,0.1,3.8c0.1,0.6,0.1,0.9,0.3,1c0.1,0.1,0.5,0.2,1.1,0.3l0.7,0.1V1
			c-0.8,0-1.6,0-2.3,0c-0.5,0-1.6,0-3.3,0.1V0.4h0.8c0.5,0,0.8-0.1,1-0.2c0.2-0.1,0.3-0.4,0.3-0.8c0.1-0.9,0.1-2,0.1-3.5V-10
			c0-1.1,0-2.2,0-3.2c0-0.5-0.1-0.8-0.2-0.9c-0.1-0.2-0.3-0.3-0.5-0.4c-0.2-0.1-0.5-0.2-0.8-0.2h-0.7v-0.8c1,0.1,1.7,0.1,2.3,0.1
			c0.6,0,1.2,0,1.8-0.1c0.8,0.9,1.5,1.8,2.2,2.7c0.7,0.9,1.4,1.8,2.1,2.7l4,4.9c1.4,1.7,2.5,3,3.1,3.6V-9c0-3.1-0.1-4.8-0.2-5.1
			c-0.1-0.3-0.6-0.5-1.3-0.6l-0.9-0.1v-0.7c1.2,0.1,2.2,0.1,2.9,0.1s1.6,0,2.8-0.1v0.7h-0.9c-0.7,0-1.1,0.2-1.2,0.7
			c-0.1,0.3-0.1,2-0.1,5.1v5.2c0,1.4,0.1,3.1,0.2,5.1c-1.1-0.2-1.7-0.3-1.8-0.4c-0.2-0.1-0.3-0.2-0.5-0.4c-0.9-1-1.8-2-2.7-3.2
			L139.7-12.9z"/>
		<path id="XMLID_50_" class="st0" d="M164.2-7.1c0.5-0.7,1.2-2,2.2-3.7l2.7-4.6h1.8v0.3c-0.9,1.1-2.1,2.7-3.5,4.8s-2.2,3.6-2.5,4.3
			c-0.1,0.3-0.1,0.9-0.1,2c0,1.4,0,2.5,0.1,3.3c0,0.4,0.1,0.7,0.2,0.8c0.1,0.1,0.5,0.2,1.2,0.2l0.9,0.1V1c-1.3,0-2.3,0-3.1,0h-3.7
			V0.3h1c0.7,0,1.1-0.1,1.2-0.4c0.1-0.3,0.2-1.5,0.2-3.7c0-0.6,0-1.3-0.1-2.1c-1-1.8-1.9-3.4-2.8-4.8c-0.8-1.3-1.6-2.3-2.1-2.9
			c-0.3-0.3-0.6-0.6-0.8-0.7c-0.2-0.1-0.6-0.2-1.2-0.2v-0.6c0.3-0.1,0.9-0.2,1.9-0.4l0.9-0.2c0.4,0.1,0.6,0.3,0.9,0.5
			c0.4,0.4,1,1.2,1.8,2.5C161.8-11.7,162.8-9.8,164.2-7.1z"/>
		<path id="XMLID_47_" class="st0" d="M183.7-4.5H177l-0.8,1.9c-0.5,1.2-0.8,2-0.8,2.3c0,0.2,0,0.3,0.1,0.4c0.1,0.1,0.3,0.1,0.7,0.2
			l1.1,0.1V1c-0.7,0-1.5,0-2.4,0c-1.1,0-2.1,0-2.9,0.1V0.4h0.3c0.5,0,0.9-0.1,1.1-0.2c0.2-0.1,0.3-0.3,0.5-0.7
			c0.5-1.1,1.1-2.3,1.7-3.6l3.2-7.2c0.9-1.9,1.4-3.3,1.7-4.2h0.8l5.9,13.7c0.4,0.9,0.7,1.5,0.8,1.7s0.3,0.3,0.5,0.4s0.6,0.1,1.2,0.2
			V1c-1-0.1-2-0.1-2.9-0.1c-0.9,0-2,0-3.4,0.1V0.3l1.2-0.1c0.4,0,0.7-0.1,0.7-0.1c0.1-0.1,0.2-0.2,0.2-0.3c0-0.1-0.1-0.5-0.3-1.1
			L183.7-4.5z M177.4-5.5h5.9l-2.9-7L177.4-5.5z"/>
		<path id="XMLID_45_" class="st0" d="M193.8-12.9v8c0,1.8,0,3.1,0.1,3.8c0.1,0.6,0.1,0.9,0.3,1c0.1,0.1,0.5,0.2,1.1,0.3l0.7,0.1V1
			c-0.8-0.1-1.6-0.1-2.3-0.1c-0.5,0-1.6,0-3.3,0.1V0.3h0.8c0.5,0,0.8-0.1,1-0.2s0.3-0.4,0.3-0.8c0.1-0.9,0.1-2,0.1-3.5V-10
			c0-1.1,0-2.2,0-3.2c0-0.5-0.1-0.8-0.2-0.9c-0.1-0.2-0.3-0.3-0.5-0.4c-0.2-0.1-0.5-0.2-0.8-0.2h-0.7v-0.8c1,0.1,1.7,0.1,2.3,0.1
			c0.6,0,1.2,0,1.8-0.1c0.8,0.9,1.5,1.8,2.2,2.7c0.7,0.9,1.4,1.8,2.1,2.7l4,4.9c1.4,1.7,2.5,3,3.1,3.6V-9c0-3.1-0.1-4.8-0.2-5.1
			c-0.1-0.3-0.6-0.5-1.3-0.6l-0.9-0.1v-0.7c1.2,0.1,2.2,0.1,2.9,0.1c0.7,0,1.6,0,2.8-0.1v0.7h-0.9c-0.7,0-1.1,0.2-1.2,0.7
			C207-13.7,207-12,207-9v5.2c0,1.4,0.1,3.1,0.2,5.1c-1.1-0.2-1.7-0.3-1.8-0.4c-0.2-0.1-0.3-0.2-0.5-0.4c-0.9-1-1.8-2-2.7-3.2
			L193.8-12.9z"/>
		<path id="XMLID_43_" class="st0" d="M224.2-14.4c-0.1,1.2-0.1,2.4-0.1,3.7v6.6c0,2.5,0.1,3.8,0.2,4.1c0.1,0.3,0.6,0.4,1.3,0.4h0.9
			V1c-1.4-0.1-2.5-0.1-3.5-0.1s-2.1,0-3.5,0.1V0.3h1c0.5,0,0.8-0.1,1-0.2s0.3-0.4,0.3-0.8c0.1-0.9,0.1-2.1,0.1-3.5v-6.6
			c0-1.3,0-2.5-0.1-3.6h-1.2c-1.9,0-3,0-3.2,0.1s-0.3,0.4-0.4,1l-0.2,1.6h-0.7v-1.4c0-0.6,0-1.4-0.1-2.4c4.2,0.1,6.6,0.1,7.4,0.1
			l6.4-0.1c-0.1,1.3-0.2,2.6-0.3,3.8h-0.7l-0.1-1.5c0-0.5-0.1-0.8-0.2-0.9c-0.1-0.1-0.3-0.2-0.6-0.2c-0.9-0.1-1.8-0.1-2.9-0.1
			C225-14.4,224.2-14.4,224.2-14.4z"/>
		<path id="XMLID_41_" class="st0" d="M239.4-7.3c0.8,1.1,1.7,2.4,2.8,3.8l2.2,2.9c0.4,0.5,0.7,0.8,0.8,0.8c0.1,0.1,0.3,0.1,0.4,0.1
			h0.3V1c-0.6-0.1-1.2-0.1-1.7-0.1c-0.4,0-0.9,0-1.4,0.1l-4.1-5.6c-0.8-1-1.6-2-2.5-3l0.1-0.4c0.4,0,0.8,0.1,1,0.1
			c1.3,0,2.3-0.3,3-1s1.1-1.6,1.1-2.7c0-1-0.3-1.8-0.9-2.3c-0.6-0.6-1.5-0.8-2.7-0.8c-0.8,0-1.6,0.2-2.5,0.5
			c-0.1,1.2-0.1,2.5-0.1,3.9v5.6c0,2.7,0.1,4.2,0.2,4.5c0.1,0.3,0.6,0.4,1.3,0.4h0.9V1c-1.3-0.1-2.3-0.1-3.2-0.1
			c-0.7,0-1.9,0-3.6,0.1V0.3h0.9c0.7,0,1.1-0.1,1.2-0.4c0.1-0.3,0.2-1.8,0.2-4.6v-5.6c0-2.4-0.1-3.7-0.2-4c-0.1-0.3-0.6-0.4-1.4-0.4
			h-0.6v-0.8c1.4,0.1,2.5,0.1,3.3,0.1c0.5,0,1.2,0,2.2-0.1c1.1,0,1.9-0.1,2.4-0.1c1.3,0,2.4,0.1,3,0.4c0.7,0.3,1.2,0.7,1.6,1.2
			c0.4,0.5,0.5,1.2,0.5,1.9c0,1.1-0.4,2.1-1.2,2.9C242.1-8.2,240.9-7.7,239.4-7.3z"/>
		<path id="XMLID_39_" class="st0" d="M251.4-6.9V-4v1.6c0,1,0,1.8,0,2.2c1.1,0.1,2.3,0.1,3.6,0.1c0.9,0,1.6,0,2.2-0.1
			c0.4,0,0.8-0.1,1.2-0.3c0.2-0.7,0.4-1.5,0.6-2.6h0.8c-0.2,1.7-0.3,2.8-0.3,3.4v0.5c-0.9,0.1-1.8,0.1-2.6,0.1h-1.8
			c-2-0.1-3.5-0.1-4.4-0.1s-2.1,0-3.6,0.1V0.2h0.4c0.7,0,1.1-0.1,1.3-0.2s0.3-0.4,0.3-0.9c0.1-0.5,0.1-1.6,0.1-3.2v-6.3
			c0-1,0-1.9-0.1-2.6s-0.1-1.1-0.2-1.2c-0.1-0.1-0.1-0.2-0.2-0.3c-0.1-0.1-0.4-0.1-1-0.2l-0.9-0.1v-0.7h1.3h1.2c0.7,0,1.2,0,1.6,0
			l4.5-0.1h2.1c0.7,0,1.4,0,2.2,0.1c-0.3,0.9-0.5,2.1-0.5,3.6h-0.8c0-0.9,0-1.6-0.1-2.1c-0.9-0.3-2-0.5-3.4-0.5
			c-1.1,0-2.2,0-3.3,0.1c0,0.7,0,1.5,0,2.2v1.8V-8c0.8,0.1,1.4,0.1,2,0.1c1.8,0,2.9-0.1,3.1-0.2c0.2-0.1,0.4-0.5,0.4-1.2v-0.8h0.8
			c-0.1,1.2-0.1,2.1-0.1,2.8s0,1.6,0.1,2.6H257v-0.7c0-0.7-0.1-1.2-0.4-1.4C256.3-7,255.3-7,253.5-7C252.8-6.9,252.1-6.9,251.4-6.9z
			"/>
		<path id="XMLID_37_" class="st0" d="M266-6.9V-4v1.6c0,1,0,1.8,0,2.2c1.1,0.1,2.3,0.1,3.6,0.1c0.9,0,1.6,0,2.2-0.1
			c0.4,0,0.8-0.1,1.2-0.3c0.2-0.7,0.4-1.5,0.6-2.6h0.8c-0.2,1.7-0.3,2.8-0.3,3.4v0.5c-0.9,0.1-1.8,0.1-2.6,0.1h-1.8
			c-2-0.1-3.5-0.1-4.4-0.1c-0.9,0-2.1,0-3.6,0.1V0.2h0.4c0.7,0,1.1-0.1,1.3-0.2s0.3-0.4,0.3-0.9c0.1-0.5,0.1-1.6,0.1-3.2v-6.3
			c0-1,0-1.9-0.1-2.6c-0.1-0.7-0.1-1.1-0.2-1.2c-0.1-0.1-0.1-0.2-0.3-0.3c-0.1-0.1-0.4-0.1-1-0.2l-0.9-0.1v-0.7h1.3h1.2
			c0.7,0,1.2,0,1.6,0l4.5-0.1h2.1c0.7,0,1.4,0,2.2,0.1c-0.3,0.9-0.5,2.1-0.5,3.6h-0.8c0-0.9,0-1.6-0.1-2.1c-0.9-0.3-2-0.5-3.4-0.5
			c-1.1,0-2.2,0-3.3,0.1c0,0.7,0,1.5,0,2.2v1.8V-8c0.8,0.1,1.4,0.1,2,0.1c1.8,0,2.9-0.1,3.1-0.2c0.2-0.1,0.4-0.5,0.4-1.2v-0.8h0.8
			c-0.1,1.2-0.1,2.1-0.1,2.8s0,1.6,0.1,2.6h-0.8v-0.7c0-0.7-0.1-1.2-0.4-1.4S269.9-7,268.1-7C267.3-6.9,266.7-6.9,266-6.9z"/>
	</g>
</g>
</svg>
