<?xml version="1.0" encoding="utf-8"?>
<!-- Generator: Adobe Illustrator 19.0.0, SVG Export Plug-In . SVG Version: 6.00 Build 0)  -->
<svg version="1.1" id="레이어_1" xmlns="http://www.w3.org/2000/svg" xmlns:xlink="http://www.w3.org/1999/xlink" x="0px"
	 y="0px" viewBox="0 0 190 41" style="enable-background:new 0 0 190 41;" xml:space="preserve">
<g id="XMLID_35_">
	<g id="XMLID_61_">
		<path id="XMLID_92_" d="M51.8,33.5l0-1c-0.3-0.2-0.7-0.4-1-0.5c-0.4-0.1-0.7-0.2-1.1-0.2c-1,0-1.8,0.3-2.4,0.9
			c-0.6,0.6-0.9,1.4-0.9,2.5c0,0.7,0.2,1.4,0.5,1.9c0.3,0.6,0.7,1,1.3,1.3c0.6,0.3,1.2,0.5,1.8,0.5c0.5,0,1-0.1,1.5-0.2
			c0.4-0.1,0.7-0.3,1.1-0.5l0.1,0.1c-0.1,0.2-0.2,0.3-0.2,0.5c-0.4,0.2-0.9,0.4-1.3,0.5c-0.4,0.1-0.9,0.2-1.3,0.2
			c-0.9,0-1.7-0.2-2.4-0.5c-0.7-0.4-1.2-0.8-1.6-1.5c-0.4-0.6-0.6-1.3-0.6-2.1s0.2-1.5,0.6-2.1c0.4-0.6,0.9-1.1,1.6-1.5
			c0.7-0.3,1.5-0.5,2.5-0.5c0.5,0,1.1,0.1,1.9,0.3c0.4,0.1,0.6,0.1,0.9,0.2c-0.2,0.4-0.3,1-0.3,1.7H51.8z"/>
		<path id="XMLID_90_" d="M55.3,39c0.4,0,0.7,0,1.1,0c0.7,0,1.3,0,1.7-0.1c0.3,0,0.6-0.1,0.9-0.2l0.3-1.3h0.4
			c-0.1,0.7-0.2,1.4-0.2,2c-0.3,0.1-0.8,0.1-1.4,0.1l-2.7,0c-0.4,0-0.9,0-1.7,0.1v-0.3c0.3-0.1,0.5-0.3,0.5-0.4
			c0.1-0.1,0.1-0.7,0.1-1.8v-3.1c0-1.1,0-1.7-0.1-1.9c-0.1-0.1-0.2-0.2-0.5-0.2h-0.6v-0.4c0.9,0,1.5,0,1.8,0c0.4,0,0.9,0,1.6,0v0.4
			h-0.7c-0.2,0-0.3,0.1-0.4,0.2c-0.1,0.1-0.1,0.6-0.1,1.4v3.6l0,1.6L55.3,39z"/>
		<path id="XMLID_88_" d="M60,31.9v-0.4c0.8,0,1.3,0,1.7,0c0.4,0,0.9,0,1.6,0v0.4h-0.4c-0.4,0-0.6,0.1-0.6,0.2
			c-0.1,0.1-0.1,0.7-0.1,1.8v2.2c0,0.8,0,1.4,0.1,1.7c0.1,0.3,0.3,0.6,0.7,0.8c0.4,0.2,0.9,0.3,1.5,0.3c0.6,0,1.2-0.1,1.6-0.3
			c0.3-0.2,0.5-0.4,0.7-0.8c0.1-0.3,0.2-1,0.2-1.9v-2.1c0-1,0-1.5-0.1-1.7c-0.1-0.1-0.3-0.2-0.7-0.2h-0.3v-0.4c0.8,0,1.3,0,1.5,0
			c0.3,0,0.8,0,1.3,0v0.4h-0.4c-0.3,0-0.5,0.1-0.6,0.2c-0.1,0.2-0.1,0.7-0.1,1.7v2.1c0,1,0,1.6-0.1,1.9c-0.1,0.3-0.3,0.6-0.5,0.9
			c-0.3,0.3-0.6,0.5-1,0.6c-0.4,0.2-0.9,0.2-1.5,0.2c-0.6,0-1.1-0.1-1.5-0.2c-0.4-0.1-0.8-0.3-1-0.5c-0.2-0.2-0.4-0.5-0.5-0.8
			c-0.1-0.3-0.1-0.8-0.1-1.5l0-1.1v-1.7c0-1.1,0-1.6-0.1-1.8c-0.1-0.1-0.3-0.2-0.6-0.2H60z"/>
		<path id="XMLID_84_" d="M73.1,35c0.8,0.1,1.4,0.2,1.7,0.6c0.4,0.3,0.5,0.8,0.5,1.3c0,0.7-0.3,1.3-0.9,1.9
			c-0.6,0.5-1.4,0.8-2.3,0.8l-0.4,0c-0.4,0-0.7,0-1,0c-0.2,0-0.4,0-0.7,0l-0.5,0v-0.3c0.2-0.1,0.4-0.2,0.4-0.3
			c0-0.1,0.1-0.2,0.1-0.3c0-0.4,0-1,0-1.5v-3.5c0-0.9,0-1.5-0.1-1.6c-0.1-0.1-0.3-0.2-0.6-0.2h-0.4v-0.4h0.5l0.5,0
			c0.3,0,0.5,0,0.6,0c0.2,0,0.7,0,1.4,0l0.8,0c0.6,0,1.1,0.1,1.4,0.3c0.4,0.3,0.6,0.7,0.6,1.2c0,0.4-0.1,0.8-0.4,1.1
			C74.2,34.5,73.8,34.8,73.1,35z M71.2,34.8c0.2,0,0.4,0,0.5,0c0.7,0,1.3-0.1,1.6-0.4c0.3-0.3,0.5-0.6,0.5-1.1c0-0.4-0.1-0.8-0.4-1
			c-0.3-0.2-0.7-0.3-1.3-0.3c-0.3,0-0.5,0-0.9,0.1c0,0.5,0,1.1,0,2.1V34.8z M71.2,39c0.3,0.1,0.6,0.1,0.9,0.1c0.7,0,1.2-0.2,1.5-0.5
			c0.4-0.4,0.5-0.8,0.5-1.4c0-0.4-0.1-0.7-0.2-1c-0.2-0.3-0.4-0.5-0.7-0.6c-0.3-0.1-0.8-0.2-1.4-0.2c-0.2,0-0.4,0-0.6,0v2l0,0.7
			c0,0.3,0,0.5,0,0.6C71.2,38.7,71.2,38.8,71.2,39z"/>
		<path id="XMLID_80_" d="M83.6,35.4l0.3-0.5c0.4,0,0.7,0,0.9,0l0.7,0c0.7,0,1.3,0,1.7,0c-0.1,0.3-0.1,0.6-0.1,0.8
			c-0.4-0.1-0.9-0.1-1.6-0.1c0,0.2,0.1,0.4,0.1,0.5c0,0.3-0.1,0.6-0.2,0.9c-0.1,0.3-0.4,0.7-0.7,1c0.4,0.3,0.7,0.5,1.1,0.6
			c0.3,0.1,0.7,0.2,0.9,0.2c0.1,0,0.4-0.1,0.6-0.3l0.1,0.3c-0.5,0.3-0.8,0.6-1,0.8c-0.1,0-0.3,0.1-0.5,0.1c-0.6,0-1.2-0.3-2-0.9
			c-0.4,0.4-0.8,0.6-1.2,0.7c-0.4,0.1-0.7,0.2-1.2,0.2c-0.7,0-1.3-0.2-1.7-0.7c-0.4-0.4-0.7-1-0.7-1.6c0-0.5,0.2-1,0.5-1.5
			c0.2-0.3,0.6-0.6,1.3-1c-0.2-0.6-0.3-1.1-0.3-1.4c0-0.3,0-0.6,0.1-0.8c0.1-0.2,0.2-0.3,0.3-0.5c0.4-0.4,0.7-0.6,0.8-0.7
			c0.2-0.1,0.4-0.1,0.6-0.1c0.3,0,0.6,0.1,0.7,0.3c0.2,0.2,0.3,0.5,0.3,0.8c0,0.8-0.5,1.5-1.6,2.3c0.6,1.1,1.4,2.1,2.3,2.9
			c0.2-0.3,0.4-0.5,0.4-0.7c0.1-0.2,0.1-0.4,0.1-0.7c0-0.3,0-0.5-0.1-0.7c0-0.1-0.1-0.1-0.2-0.2C84.4,35.5,84.1,35.5,83.6,35.4
			L83.6,35.4z M83.6,38.4c-0.9-0.8-1.7-1.9-2.4-3.1c-0.4,0.3-0.6,0.5-0.8,0.8c-0.1,0.3-0.2,0.5-0.2,0.9c0,0.5,0.2,1,0.5,1.4
			c0.4,0.4,0.8,0.6,1.4,0.6C82.6,39,83.1,38.8,83.6,38.4z M81.8,34.4c0.7-0.6,1-1.1,1-1.6c0-0.2-0.1-0.4-0.2-0.6
			c-0.1-0.1-0.3-0.2-0.4-0.2c-0.2,0-0.4,0.1-0.5,0.2c-0.1,0.2-0.2,0.4-0.2,0.8C81.5,33.4,81.6,33.8,81.8,34.4z"/>
		<path id="XMLID_78_" d="M95.9,31.9c-0.1,0.4-0.2,0.9-0.2,1.6h-0.4V33c0-0.3,0-0.5-0.1-0.6s-0.3-0.2-0.6-0.3
			c-0.3-0.1-0.7-0.2-1-0.2c-0.6,0-1.1,0.2-1.4,0.5c-0.3,0.3-0.5,0.7-0.5,1.2c0,0.3,0.1,0.6,0.2,0.8c0.1,0.2,0.3,0.4,0.6,0.5
			c0.2,0.1,0.7,0.2,1.5,0.3c0.8,0.1,1.3,0.2,1.6,0.3c0.3,0.1,0.5,0.3,0.7,0.6c0.2,0.3,0.2,0.6,0.2,1c0,0.8-0.3,1.4-0.9,1.9
			c-0.6,0.5-1.5,0.8-2.5,0.8c-0.4,0-0.7,0-1.1-0.1c-0.4-0.1-0.7-0.2-1.1-0.3c0.1-0.4,0.1-1,0.1-1.7h0.4v0.3c0,0.4,0,0.6,0.1,0.7
			c0,0.1,0.1,0.2,0.3,0.3c0.2,0.1,0.5,0.3,0.7,0.3c0.3,0.1,0.6,0.1,0.9,0.1c0.7,0,1.3-0.2,1.6-0.5c0.4-0.3,0.6-0.8,0.6-1.3
			c0-0.3-0.1-0.6-0.2-0.8c-0.1-0.2-0.3-0.4-0.6-0.5C94.4,36,94,36,93.3,35.9c-0.8-0.1-1.4-0.2-1.7-0.3c-0.3-0.1-0.5-0.3-0.7-0.6
			c-0.2-0.3-0.3-0.7-0.3-1.1c0-0.7,0.3-1.3,0.8-1.8c0.5-0.5,1.3-0.7,2.2-0.7c0.4,0,0.7,0,1.1,0.1C95.1,31.6,95.5,31.7,95.9,31.9z"/>
		<path id="XMLID_76_" d="M99,32.1c0,0.5,0,1.1,0,1.7v3.2c0,1.1,0,1.8,0.1,1.9c0.1,0.1,0.3,0.2,0.7,0.2h0.4v0.4c-0.7,0-1.2,0-1.6,0
			c-0.3,0-0.9,0-1.8,0v-0.4h0.5c0.2,0,0.4,0,0.5-0.1c0.1-0.1,0.1-0.2,0.1-0.4c0-0.2,0-0.7,0.1-1.6v-3l0-1.2c0-0.5-0.1-0.8-0.2-0.9
			c-0.1-0.1-0.3-0.2-0.7-0.2h-0.3v-0.4c0.5,0,1.1,0,1.8,0c0.4,0,0.9,0,1.4,0c0.3,0,0.6,0,0.8,0c0.9,0,1.6,0.2,2,0.5
			c0.4,0.3,0.6,0.8,0.6,1.3c0,0.4-0.1,0.8-0.4,1.2c-0.2,0.4-0.6,0.7-1,0.9c-0.4,0.2-0.9,0.3-1.4,0.3c-0.2,0-0.5,0-0.8-0.1l-0.1-0.4
			c0.3,0.1,0.6,0.1,0.8,0.1c0.5,0,0.9-0.2,1.2-0.5c0.3-0.3,0.5-0.7,0.5-1.3c0-0.5-0.2-0.9-0.5-1.2c-0.3-0.3-0.8-0.4-1.4-0.4
			C99.9,31.9,99.5,32,99,32.1z"/>
		<path id="XMLID_73_" d="M109.4,36.8h-3.2l-0.4,0.9c-0.3,0.6-0.4,1-0.4,1.1c0,0.1,0,0.1,0.1,0.2c0,0,0.2,0.1,0.4,0.1l0.5,0.1v0.4
			c-0.4,0-0.8,0-1.2,0c-0.5,0-1,0-1.4,0v-0.4l0.2,0c0.3,0,0.4,0,0.5-0.1c0.1,0,0.2-0.2,0.2-0.3c0.3-0.5,0.5-1.1,0.8-1.7l1.5-3.5
			c0.4-0.9,0.7-1.6,0.8-2h0.4l2.8,6.6c0.2,0.4,0.3,0.7,0.4,0.8c0.1,0.1,0.1,0.2,0.2,0.2c0.1,0,0.3,0.1,0.6,0.1v0.4c-0.5,0-1,0-1.4,0
			c-0.4,0-1,0-1.6,0v-0.4l0.6,0c0.2,0,0.3,0,0.4-0.1c0.1,0,0.1-0.1,0.1-0.2c0-0.1-0.1-0.2-0.2-0.5L109.4,36.8z M106.3,36.4h2.8
			l-1.4-3.4L106.3,36.4z"/>
		<path id="XMLID_71_" d="M120.7,31.9c-0.1,0.4-0.2,0.9-0.2,1.6h-0.4V33c0-0.3,0-0.5-0.1-0.6c-0.1-0.1-0.3-0.2-0.6-0.3
			c-0.3-0.1-0.7-0.2-1-0.2c-0.6,0-1.1,0.2-1.4,0.5c-0.3,0.3-0.5,0.7-0.5,1.2c0,0.3,0.1,0.6,0.2,0.8c0.1,0.2,0.3,0.4,0.6,0.5
			c0.2,0.1,0.7,0.2,1.5,0.3c0.8,0.1,1.3,0.2,1.6,0.3c0.3,0.1,0.5,0.3,0.7,0.6c0.2,0.3,0.2,0.6,0.2,1c0,0.8-0.3,1.4-0.9,1.9
			c-0.6,0.5-1.5,0.8-2.5,0.8c-0.4,0-0.7,0-1.1-0.1c-0.4-0.1-0.7-0.2-1.1-0.3c0.1-0.4,0.1-1,0.1-1.7h0.4v0.3c0,0.4,0,0.6,0.1,0.7
			c0,0.1,0.1,0.2,0.3,0.3c0.2,0.1,0.5,0.3,0.7,0.3c0.3,0.1,0.6,0.1,0.9,0.1c0.7,0,1.3-0.2,1.6-0.5c0.4-0.3,0.6-0.8,0.6-1.3
			c0-0.3-0.1-0.6-0.2-0.8c-0.1-0.2-0.3-0.4-0.5-0.5c-0.2-0.1-0.7-0.2-1.3-0.2c-0.8-0.1-1.4-0.2-1.7-0.3c-0.3-0.1-0.5-0.3-0.7-0.6
			c-0.2-0.3-0.3-0.7-0.3-1.1c0-0.7,0.3-1.3,0.8-1.8c0.5-0.5,1.3-0.7,2.2-0.7c0.4,0,0.7,0,1.1,0.1C119.9,31.6,120.3,31.7,120.7,31.9z
			"/>
		<path id="XMLID_69_" d="M123.9,35.7v1.4l0,0.8c0,0.5,0,0.9,0,1.1c0.5,0,1.1,0.1,1.8,0.1c0.4,0,0.8,0,1.1-0.1
			c0.2,0,0.4-0.1,0.6-0.1c0.1-0.3,0.2-0.7,0.3-1.2h0.4c-0.1,0.8-0.2,1.4-0.2,1.6l0,0.3c-0.4,0-0.9,0.1-1.3,0.1l-0.9,0
			c-1,0-1.7,0-2.1,0c-0.4,0-1,0-1.7,0v-0.4h0.2c0.3,0,0.5,0,0.6-0.1c0.1-0.1,0.1-0.2,0.2-0.4c0-0.2,0-0.8,0-1.6V34
			c0-0.5,0-0.9,0-1.2c0-0.3-0.1-0.5-0.1-0.6c0-0.1-0.1-0.1-0.1-0.1s-0.2-0.1-0.5-0.1l-0.4,0v-0.4h0.6l0.6,0c0.3,0,0.6,0,0.8,0l2.2,0
			l1,0c0.3,0,0.7,0,1.1,0c-0.1,0.4-0.2,1-0.2,1.7h-0.4c0-0.4,0-0.8-0.1-1c-0.4-0.2-1-0.2-1.6-0.2c-0.5,0-1,0-1.6,0.1
			c0,0.4,0,0.7,0,1.1l0,0.9v1.1c0.4,0,0.7,0,1,0c0.9,0,1.4,0,1.5-0.1c0.1-0.1,0.2-0.3,0.2-0.6v-0.4h0.4c0,0.6,0,1,0,1.4
			c0,0.4,0,0.8,0,1.3h-0.4v-0.3c0-0.4-0.1-0.6-0.2-0.7c-0.1-0.1-0.6-0.1-1.5-0.1C124.6,35.7,124.2,35.7,123.9,35.7z"/>
		<path id="XMLID_66_" d="M128.6,35.5c0-1.2,0.4-2.2,1.2-3c0.8-0.8,1.9-1.1,3.2-1.1c1.3,0,2.3,0.3,3.1,1c0.7,0.7,1.1,1.6,1.1,2.8
			c0,1.2-0.4,2.3-1.3,3.1c-0.9,0.8-1.9,1.3-3.2,1.3c-0.8,0-1.5-0.2-2.1-0.5c-0.6-0.3-1.1-0.8-1.4-1.4
			C128.8,37.1,128.6,36.3,128.6,35.5z M129.8,35.1c0,0.8,0.1,1.6,0.4,2.2c0.3,0.6,0.7,1.1,1.2,1.4c0.5,0.3,1,0.5,1.7,0.5
			c0.6,0,1.1-0.1,1.5-0.4c0.4-0.3,0.8-0.7,1-1.2c0.2-0.5,0.4-1.2,0.4-1.9c0-0.8-0.1-1.5-0.4-2c-0.3-0.6-0.7-1-1.1-1.3
			c-0.5-0.3-1-0.4-1.7-0.4c-0.6,0-1.1,0.1-1.6,0.4c-0.4,0.3-0.8,0.6-1,1.1C129.9,33.9,129.8,34.4,129.8,35.1z"/>
		<path id="XMLID_64_" d="M137.6,31.9v-0.4c0.8,0,1.3,0,1.7,0c0.4,0,0.9,0,1.6,0v0.4h-0.4c-0.4,0-0.6,0.1-0.6,0.2
			c-0.1,0.1-0.1,0.7-0.1,1.8v2.2c0,0.8,0,1.4,0.1,1.7c0.1,0.3,0.3,0.6,0.7,0.8c0.4,0.2,0.9,0.3,1.5,0.3c0.6,0,1.2-0.1,1.6-0.3
			c0.3-0.2,0.5-0.4,0.7-0.8c0.1-0.3,0.2-1,0.2-1.9v-2.1c0-1,0-1.5-0.1-1.7c-0.1-0.1-0.3-0.2-0.7-0.2h-0.3v-0.4c0.8,0,1.3,0,1.5,0
			c0.3,0,0.8,0,1.3,0v0.4h-0.4c-0.3,0-0.5,0.1-0.6,0.2c-0.1,0.2-0.1,0.7-0.1,1.7v2.1c0,1,0,1.6-0.1,1.9c-0.1,0.3-0.3,0.6-0.5,0.9
			c-0.3,0.3-0.6,0.5-1,0.6c-0.4,0.2-0.9,0.2-1.5,0.2c-0.6,0-1.1-0.1-1.5-0.2c-0.4-0.1-0.8-0.3-1-0.5c-0.2-0.2-0.4-0.5-0.5-0.8
			c-0.1-0.3-0.1-0.8-0.1-1.5l0-1.1v-1.7c0-1.1,0-1.6-0.1-1.8c-0.1-0.1-0.3-0.2-0.6-0.2H137.6z"/>
		<path id="XMLID_62_" d="M148.9,39c0.4,0,0.7,0,1.1,0c0.7,0,1.3,0,1.7-0.1c0.3,0,0.6-0.1,0.9-0.2l0.3-1.3h0.4
			c-0.1,0.7-0.2,1.4-0.2,2c-0.3,0.1-0.8,0.1-1.4,0.1l-2.7,0c-0.4,0-0.9,0-1.7,0.1v-0.3c0.3-0.1,0.5-0.3,0.5-0.4
			c0.1-0.1,0.1-0.7,0.1-1.8v-3.1c0-1.1,0-1.7-0.1-1.9c-0.1-0.1-0.2-0.2-0.5-0.2h-0.6v-0.4c0.9,0,1.5,0,1.8,0c0.4,0,0.9,0,1.6,0v0.4
			h-0.7c-0.2,0-0.3,0.1-0.4,0.2c-0.1,0.1-0.1,0.6-0.1,1.4v3.6l0,1.6L148.9,39z"/>
	</g>
	<g id="XMLID_36_">
		<path id="XMLID_57_" d="M21.7,8.7c1.7,0.1,2.9,0.5,3.6,1.2c0.7,0.7,1.1,1.6,1.1,2.7c0,1.5-0.6,2.8-1.9,3.8
			c-1.2,1.1-2.8,1.6-4.7,1.6L19,18c-0.8,0-1.4-0.1-2-0.1c-0.4,0-0.9,0-1.4,0l-1,0v-0.5c0.5-0.2,0.8-0.4,0.9-0.5
			c0.1-0.1,0.1-0.3,0.2-0.6c0.1-0.9,0.1-2,0.1-3.1V6c0-1.9-0.1-3-0.2-3.3c-0.2-0.3-0.6-0.5-1.2-0.5h-0.8V1.5h1l1.1,0
			c0.6,0,1,0,1.3,0c0.5,0,1.5,0,2.9-0.1l1.7,0c1.3,0,2.3,0.2,3,0.7c0.8,0.6,1.2,1.4,1.2,2.5c0,0.9-0.3,1.7-0.9,2.3
			C24.2,7.7,23.2,8.2,21.7,8.7z M17.9,8.4c0.4,0,0.7,0,1.1,0c1.5,0,2.6-0.3,3.3-0.8c0.7-0.5,1-1.3,1-2.4c0-0.9-0.3-1.6-0.8-2.1
			c-0.6-0.5-1.4-0.7-2.7-0.7c-0.5,0-1.1,0.1-1.8,0.2c-0.1,0.9-0.1,2.4-0.1,4.3V8.4z M17.9,16.9c0.7,0.1,1.3,0.2,1.8,0.2
			c1.4,0,2.4-0.4,3.2-1.1c0.8-0.7,1.1-1.7,1.1-3c0-0.8-0.2-1.5-0.5-2.1c-0.3-0.5-0.8-0.9-1.4-1.2c-0.6-0.3-1.6-0.4-2.9-0.4
			c-0.4,0-0.8,0-1.3,0v4.1l0,1.5c0,0.5,0,0.9,0,1.2C17.9,16.4,17.9,16.6,17.9,16.9z"/>
		<path id="XMLID_54_" d="M39.5,12.5h-6.7L32,14.3c-0.5,1.2-0.8,2-0.8,2.3c0,0.2,0,0.3,0.1,0.4c0.1,0.1,0.3,0.1,0.7,0.2l1.1,0.1V18
			C32.5,18,31.7,18,30.7,18c-1.1,0-2.1,0-2.9,0.1v-0.7l0.3,0c0.5,0,0.9-0.1,1.1-0.2c0.2-0.1,0.3-0.3,0.5-0.7
			c0.6-1.1,1.1-2.3,1.7-3.6l3.2-7.2c0.9-1.9,1.4-3.3,1.7-4.2h0.8L43,15.1c0.4,0.9,0.7,1.5,0.8,1.7c0.1,0.2,0.3,0.3,0.5,0.4
			c0.2,0.1,0.6,0.1,1.2,0.2V18c-1-0.1-2-0.1-2.9-0.1c-0.9,0-2,0-3.4,0.1v-0.7l1.2-0.1c0.4,0,0.7-0.1,0.7-0.1
			c0.1-0.1,0.2-0.2,0.2-0.3c0-0.1-0.1-0.5-0.3-1.1L39.5,12.5z M33.2,11.5h5.9l-2.9-7L33.2,11.5z"/>
		<path id="XMLID_52_" d="M49.7,4.1v8c0,1.8,0,3.1,0.1,3.8c0.1,0.6,0.1,0.9,0.3,1c0.1,0.1,0.5,0.2,1.1,0.3l0.7,0.1V18
			C51.1,18,50.3,18,49.6,18c-0.5,0-1.6,0-3.3,0.1v-0.7h0.8c0.5,0,0.8-0.1,1-0.2c0.2-0.1,0.3-0.4,0.3-0.8c0.1-0.9,0.1-2,0.1-3.5V7
			c0-1.1,0-2.2,0-3.2c0-0.5-0.1-0.8-0.2-0.9c-0.1-0.2-0.3-0.3-0.5-0.4c-0.2-0.1-0.5-0.2-0.8-0.2h-0.7V1.5c1,0.1,1.7,0.1,2.3,0.1
			c0.6,0,1.2,0,1.8-0.1c0.8,0.9,1.5,1.8,2.2,2.7C53.3,5.1,54,6,54.7,6.9l4,4.9c1.4,1.7,2.5,3,3.1,3.6V8c0-3.1-0.1-4.8-0.2-5.1
			c-0.1-0.3-0.6-0.5-1.3-0.6l-0.9-0.1V1.5c1.2,0.1,2.2,0.1,2.9,0.1c0.7,0,1.6,0,2.8-0.1v0.7h-0.9c-0.7,0-1.1,0.2-1.2,0.7
			c-0.1,0.3-0.1,2-0.1,5.1v5.2c0,1.4,0.1,3.1,0.2,5.1c-1.1-0.2-1.7-0.3-1.8-0.4c-0.2-0.1-0.3-0.2-0.5-0.4c-0.9-1-1.8-2-2.7-3.2
			L49.7,4.1z"/>
		<path id="XMLID_50_" d="M74.2,9.9c0.5-0.7,1.2-2,2.2-3.7l2.7-4.6h1.8v0.3c-0.9,1.1-2.1,2.7-3.5,4.8c-1.4,2.1-2.2,3.6-2.5,4.3
			c-0.1,0.3-0.1,0.9-0.1,2c0,1.4,0,2.5,0.1,3.3c0,0.4,0.1,0.7,0.2,0.8c0.1,0.1,0.5,0.2,1.2,0.2l0.9,0.1V18C75.9,18,74.9,18,74.1,18
			L70.4,18v-0.7h1c0.7,0,1.1-0.1,1.2-0.4c0.1-0.3,0.2-1.5,0.2-3.7c0-0.6,0-1.3-0.1-2.1c-1-1.8-1.9-3.4-2.8-4.8
			c-0.8-1.3-1.6-2.3-2.1-2.9c-0.3-0.3-0.6-0.6-0.8-0.7c-0.2-0.1-0.6-0.2-1.2-0.2V1.9c0.3-0.1,0.9-0.2,1.9-0.4l0.9-0.2
			c0.4,0.1,0.6,0.3,0.9,0.5c0.4,0.4,1,1.2,1.8,2.5C71.8,5.3,72.8,7.2,74.2,9.9z"/>
		<path id="XMLID_47_" d="M93.7,12.5h-6.7l-0.8,1.9c-0.5,1.2-0.8,2-0.8,2.3c0,0.2,0,0.3,0.1,0.4c0.1,0.1,0.3,0.1,0.7,0.2l1.1,0.1V18
			C86.6,18,85.8,18,84.9,18c-1.1,0-2.1,0-2.9,0.1v-0.7l0.3,0c0.5,0,0.9-0.1,1.1-0.2c0.2-0.1,0.3-0.3,0.5-0.7
			c0.5-1.1,1.1-2.3,1.7-3.6l3.2-7.2c0.9-1.9,1.4-3.3,1.7-4.2h0.8l5.9,13.7c0.4,0.9,0.7,1.5,0.8,1.7s0.3,0.3,0.5,0.4
			c0.2,0.1,0.6,0.1,1.2,0.2V18c-1-0.1-2-0.1-2.9-0.1c-0.9,0-2,0-3.4,0.1v-0.7l1.2-0.1c0.4,0,0.7-0.1,0.7-0.1
			c0.1-0.1,0.2-0.2,0.2-0.3c0-0.1-0.1-0.5-0.3-1.1L93.7,12.5z M87.4,11.5h5.9l-2.9-7L87.4,11.5z"/>
		<path id="XMLID_45_" d="M103.8,4.1v8c0,1.8,0,3.1,0.1,3.8c0.1,0.6,0.1,0.9,0.3,1c0.1,0.1,0.5,0.2,1.1,0.3l0.7,0.1V18
			c-0.8-0.1-1.6-0.1-2.3-0.1c-0.5,0-1.6,0-3.3,0.1v-0.7h0.8c0.5,0,0.8-0.1,1-0.2c0.2-0.1,0.3-0.4,0.3-0.8c0.1-0.9,0.1-2,0.1-3.5V7
			c0-1.1,0-2.2,0-3.2c0-0.5-0.1-0.8-0.2-0.9c-0.1-0.2-0.3-0.3-0.5-0.4c-0.2-0.1-0.5-0.2-0.8-0.2h-0.7V1.5c1,0.1,1.7,0.1,2.3,0.1
			c0.6,0,1.2,0,1.8-0.1c0.8,0.9,1.5,1.8,2.2,2.7c0.7,0.9,1.4,1.8,2.1,2.7l4,4.9c1.4,1.7,2.5,3,3.1,3.6V8c0-3.1-0.1-4.8-0.2-5.1
			c-0.1-0.3-0.6-0.5-1.3-0.6l-0.9-0.1V1.5c1.2,0.1,2.2,0.1,2.9,0.1c0.7,0,1.6,0,2.8-0.1v0.7h-0.9c-0.7,0-1.1,0.2-1.2,0.7
			C117,3.3,117,5,117,8v5.2c0,1.4,0.1,3.1,0.2,5.1c-1.1-0.2-1.7-0.3-1.8-0.4c-0.2-0.1-0.3-0.2-0.5-0.4c-0.9-1-1.8-2-2.7-3.2
			L103.8,4.1z"/>
		<path id="XMLID_43_" d="M134.2,2.6c-0.1,1.2-0.1,2.4-0.1,3.7v6.6c0,2.5,0.1,3.8,0.2,4.1c0.1,0.3,0.6,0.4,1.3,0.4h0.9V18
			c-1.4-0.1-2.5-0.1-3.5-0.1c-1,0-2.1,0-3.5,0.1v-0.7h1c0.5,0,0.8-0.1,1-0.2c0.2-0.1,0.3-0.4,0.3-0.8c0.1-0.9,0.1-2.1,0.1-3.5V6.2
			c0-1.3,0-2.5-0.1-3.6h-1.2c-1.9,0-3,0-3.2,0.1c-0.2,0.1-0.3,0.4-0.4,1l-0.2,1.6h-0.7l0-1.4c0-0.6,0-1.4-0.1-2.4
			c4.2,0.1,6.6,0.1,7.4,0.1l6.4-0.1c-0.1,1.3-0.2,2.6-0.3,3.8h-0.7l-0.1-1.5c0-0.5-0.1-0.8-0.2-0.9c-0.1-0.1-0.3-0.2-0.6-0.2
			c-0.9-0.1-1.8-0.1-2.9-0.1H134.2z"/>
		<path id="XMLID_41_" d="M149.4,9.7c0.8,1.1,1.7,2.4,2.8,3.8l2.2,2.9c0.4,0.5,0.7,0.8,0.8,0.8c0.1,0.1,0.3,0.1,0.4,0.1h0.3V18
			c-0.6-0.1-1.2-0.1-1.7-0.1c-0.4,0-0.9,0-1.4,0.1l-4.1-5.6c-0.8-1-1.6-2-2.5-3l0.1-0.4c0.4,0,0.8,0.1,1,0.1c1.3,0,2.3-0.3,3-1
			c0.7-0.7,1.1-1.6,1.1-2.7c0-1-0.3-1.8-0.9-2.3c-0.6-0.6-1.5-0.8-2.7-0.8c-0.8,0-1.6,0.2-2.5,0.5c-0.1,1.2-0.1,2.5-0.1,3.9v5.6
			c0,2.7,0.1,4.2,0.2,4.5c0.1,0.3,0.6,0.4,1.3,0.4h0.9V18c-1.3-0.1-2.3-0.1-3.2-0.1c-0.7,0-1.9,0-3.6,0.1v-0.7h0.9
			c0.7,0,1.1-0.1,1.2-0.4c0.1-0.3,0.2-1.8,0.2-4.6V6.7c0-2.4-0.1-3.7-0.2-4c-0.1-0.3-0.6-0.4-1.4-0.4h-0.6V1.5
			c1.4,0.1,2.5,0.1,3.3,0.1c0.5,0,1.2,0,2.2-0.1c1.1,0,1.9-0.1,2.4-0.1c1.3,0,2.4,0.1,3,0.4c0.7,0.3,1.2,0.7,1.6,1.2
			c0.4,0.5,0.5,1.2,0.5,1.9c0,1.1-0.4,2.1-1.2,2.9C152.1,8.8,150.9,9.3,149.4,9.7z"/>
		<path id="XMLID_39_" d="M161.4,10.1V13l0,1.6c0,1,0,1.8,0,2.2c1.1,0.1,2.3,0.1,3.6,0.1c0.9,0,1.6,0,2.2-0.1c0.4,0,0.8-0.1,1.2-0.3
			c0.2-0.7,0.4-1.5,0.6-2.6h0.8c-0.2,1.7-0.3,2.8-0.3,3.4l0,0.5c-0.9,0.1-1.8,0.1-2.6,0.1l-1.8,0c-2-0.1-3.5-0.1-4.4-0.1
			c-0.9,0-2.1,0-3.6,0.1v-0.7h0.4c0.7,0,1.1-0.1,1.3-0.2c0.2-0.1,0.3-0.4,0.3-0.9c0.1-0.5,0.1-1.6,0.1-3.2V6.6c0-1,0-1.9-0.1-2.6
			c-0.1-0.7-0.1-1.1-0.2-1.2c-0.1-0.1-0.1-0.2-0.2-0.3c-0.1-0.1-0.4-0.1-1-0.2l-0.9-0.1V1.5h1.3l1.2,0c0.7,0,1.2,0,1.6,0l4.5-0.1
			l2.1,0c0.7,0,1.4,0,2.2,0.1c-0.3,0.9-0.5,2.1-0.5,3.6h-0.8c0-0.9,0-1.6-0.1-2.1c-0.9-0.3-2-0.5-3.4-0.5c-1.1,0-2.2,0-3.3,0.1
			c0,0.7,0,1.5,0,2.2l0,1.8V9c0.8,0.1,1.4,0.1,2,0.1c1.8,0,2.9-0.1,3.1-0.2c0.2-0.1,0.4-0.5,0.4-1.2V6.9h0.8
			c-0.1,1.2-0.1,2.1-0.1,2.8c0,0.7,0,1.6,0.1,2.6H167v-0.7c0-0.7-0.1-1.2-0.4-1.4c-0.3-0.2-1.3-0.2-3.1-0.2
			C162.8,10.1,162.1,10.1,161.4,10.1z"/>
		<path id="XMLID_37_" d="M176,10.1V13l0,1.6c0,1,0,1.8,0,2.2c1.1,0.1,2.3,0.1,3.6,0.1c0.9,0,1.6,0,2.2-0.1c0.4,0,0.8-0.1,1.2-0.3
			c0.2-0.7,0.4-1.5,0.6-2.6h0.8c-0.2,1.7-0.3,2.8-0.3,3.4l0,0.5c-0.9,0.1-1.8,0.1-2.6,0.1l-1.8,0c-2-0.1-3.5-0.1-4.4-0.1
			c-0.9,0-2.1,0-3.6,0.1v-0.7h0.4c0.7,0,1.1-0.1,1.3-0.2c0.2-0.1,0.3-0.4,0.3-0.9c0.1-0.5,0.1-1.6,0.1-3.2V6.6c0-1,0-1.9-0.1-2.6
			c-0.1-0.7-0.1-1.1-0.2-1.2c-0.1-0.1-0.1-0.2-0.3-0.3c-0.1-0.1-0.4-0.1-1-0.2l-0.9-0.1V1.5h1.3l1.2,0c0.7,0,1.2,0,1.6,0l4.5-0.1
			l2.1,0c0.7,0,1.4,0,2.2,0.1c-0.3,0.9-0.5,2.1-0.5,3.6h-0.8c0-0.9,0-1.6-0.1-2.1c-0.9-0.3-2-0.5-3.4-0.5c-1.1,0-2.2,0-3.3,0.1
			c0,0.7,0,1.5,0,2.2l0,1.8V9c0.8,0.1,1.4,0.1,2,0.1c1.8,0,2.9-0.1,3.1-0.2c0.2-0.1,0.4-0.5,0.4-1.2V6.9h0.8
			c-0.1,1.2-0.1,2.1-0.1,2.8c0,0.7,0,1.6,0.1,2.6h-0.8v-0.7c0-0.7-0.1-1.2-0.4-1.4c-0.3-0.2-1.3-0.2-3.1-0.2
			C177.3,10.1,176.7,10.1,176,10.1z"/>
	</g>
</g>
</svg>
