<?xml version="1.0" encoding="utf-8"?>
<!-- Generator: Adobe Illustrator 16.0.0, SVG Export Plug-In . SVG Version: 6.00 Build 0)  -->
<!DOCTYPE svg PUBLIC "-//W3C//DTD SVG 1.1//EN" "http://www.w3.org/Graphics/SVG/1.1/DTD/svg11.dtd">
<svg version="1.1" id="Layer_1" xmlns="http://www.w3.org/2000/svg" xmlns:xlink="http://www.w3.org/1999/xlink" x="0px" y="0px"
	 width="511.887px" height="512.002px" viewBox="0 0 511.887 512.002" enable-background="new 0 0 511.887 512.002"
	 xml:space="preserve">
<path fill="#6F6F6F" d="M468.515,82.688c-25.504-28.661-60.853-44.444-99.54-44.444c-43.182,0-80.613,20.418-108.248,59.046
	c-2.073,2.896-4.01,5.792-5.828,8.659c-1.814-2.868-3.754-5.763-5.825-8.659c-27.637-38.627-65.069-59.046-108.251-59.046
	c-38.687,0-74.039,15.783-99.539,44.442c-24.2,27.198-37.529,63.558-37.529,102.382c0,42.19,16.373,81.123,51.52,122.524
	c30.667,36.12,74.656,73.248,125.594,116.24c18.822,15.889,38.288,32.316,58.97,50.242c4.321,3.742,9.69,5.617,15.06,5.617
	c5.367,0,10.736-1.875,15.057-5.617c20.681-17.922,40.144-34.35,58.967-50.236c32.713-27.611,60.964-51.457,85.48-74.586
	c47.598-44.909,91.64-95.882,91.64-164.184C506.042,146.245,492.716,109.886,468.515,82.688 M382.845,315.807
	c-23.59,22.257-51.393,45.72-83.584,72.892c-14.322,12.085-29.009,24.482-44.363,37.648c-15.358-13.164-30.05-25.564-44.371-37.654
	C110.261,304.065,49.738,252.984,49.738,185.07c-0.003-57.489,39.153-100.84,91.08-100.84c27.743,0,51.337,13.06,70.125,38.815
	c15.42,21.136,21.751,43.048,21.794,43.195c2.759,9.96,11.823,16.856,22.159,16.856c10.332,0,19.397-6.896,22.158-16.856
	c0.225-0.82,23.504-82.01,91.92-82.01c51.926,0,91.084,43.353,91.084,100.84C460.059,226.724,438.409,263.38,382.845,315.807"/>
</svg>
