<?xml version="1.0" encoding="utf-8"?>
<!-- Generator: Adobe Illustrator 16.0.0, SVG Export Plug-In . SVG Version: 6.00 Build 0)  -->
<!DOCTYPE svg PUBLIC "-//W3C//DTD SVG 1.1//EN" "http://www.w3.org/Graphics/SVG/1.1/DTD/svg11.dtd">
<svg version="1.1" id="Layer_1" xmlns="http://www.w3.org/2000/svg" xmlns:xlink="http://www.w3.org/1999/xlink" x="0px" y="0px"
	 width="30px" height="30px" viewBox="0 0 30 30" enable-background="new 0 0 30 30" xml:space="preserve">
<g>
	<g>
		<g>
			<path fill="#FFFFFF" d="M23.292,9.011H15c-0.318,0-0.577,0.257-0.577,0.576c0,0.317,0.259,0.576,0.577,0.576h8.292
				c0.318,0,0.576-0.259,0.576-0.576C23.868,9.268,23.61,9.011,23.292,9.011z"/>
		</g>
	</g>
	<g>
		<g>
			<path fill="#FFFFFF" d="M21.277,11.944c-0.107-0.107-0.256-0.169-0.407-0.169s-0.3,0.062-0.407,0.169
				c-0.107,0.107-0.169,0.255-0.169,0.407c0,0.152,0.062,0.3,0.169,0.407c0.107,0.107,0.256,0.169,0.407,0.169
				s0.3-0.062,0.407-0.169c0.107-0.107,0.169-0.255,0.169-0.407C21.446,12.199,21.385,12.051,21.277,11.944z"/>
		</g>
	</g>
	<g>
		<g>
			<path fill="#FFFFFF" d="M15.406,2.903c-0.106-0.107-0.255-0.169-0.407-0.169s-0.3,0.062-0.407,0.169
				c-0.107,0.107-0.169,0.255-0.169,0.407c0,0.151,0.062,0.299,0.169,0.407s0.256,0.169,0.407,0.169s0.3-0.062,0.407-0.169
				c0.108-0.107,0.168-0.255,0.168-0.407C15.574,3.158,15.514,3.01,15.406,2.903z"/>
		</g>
	</g>
	<g>
		<g>
			<path fill="#FFFFFF" d="M18.447,11.775H15c-0.318,0-0.577,0.257-0.577,0.576c0,0.317,0.259,0.576,0.577,0.576h3.447
				c0.318,0,0.576-0.259,0.576-0.576C19.023,12.032,18.766,11.775,18.447,11.775z"/>
		</g>
	</g>
	<g>
		<g>
			<path fill="#FFFFFF" d="M23.292,15.23H15c-0.318,0-0.577,0.258-0.577,0.575s0.259,0.576,0.577,0.576h8.292
				c0.318,0,0.576-0.259,0.576-0.576S23.61,15.23,23.292,15.23z"/>
		</g>
	</g>
	<g>
		<g>
			<path fill="#FFFFFF" d="M21.277,18.163c-0.107-0.107-0.256-0.169-0.407-0.169s-0.3,0.062-0.407,0.169s-0.169,0.255-0.169,0.407
				c0,0.151,0.062,0.3,0.169,0.406c0.107,0.108,0.256,0.17,0.407,0.17s0.3-0.062,0.407-0.17c0.107-0.106,0.169-0.255,0.169-0.406
				C21.446,18.418,21.385,18.271,21.277,18.163z"/>
		</g>
	</g>
	<g>
		<g>
			<path fill="#FFFFFF" d="M18.447,17.994H15c-0.318,0-0.577,0.258-0.577,0.576c0,0.317,0.259,0.576,0.577,0.576h3.447
				c0.318,0,0.576-0.259,0.576-0.576C19.023,18.252,18.766,17.994,18.447,17.994z"/>
		</g>
	</g>
	<g>
		<g>
			<path fill="#FFFFFF" d="M23.292,21.449H15c-0.318,0-0.577,0.258-0.577,0.576s0.259,0.575,0.577,0.575h8.292
				c0.318,0,0.576-0.257,0.576-0.575S23.61,21.449,23.292,21.449z"/>
		</g>
	</g>
	<g>
		<g>
			<path fill="#FFFFFF" d="M21.277,24.383c-0.107-0.107-0.256-0.169-0.407-0.169s-0.3,0.062-0.407,0.169s-0.169,0.255-0.169,0.406
				c0,0.152,0.062,0.301,0.169,0.408c0.107,0.106,0.256,0.168,0.407,0.168s0.3-0.062,0.407-0.168
				c0.107-0.107,0.169-0.256,0.169-0.408C21.446,24.638,21.385,24.49,21.277,24.383z"/>
		</g>
	</g>
	<g>
		<g>
			<path fill="#FFFFFF" d="M18.447,24.214H15c-0.318,0-0.577,0.258-0.577,0.575c0,0.318,0.259,0.576,0.577,0.576h3.447
				c0.318,0,0.576-0.258,0.576-0.576C19.023,24.472,18.766,24.214,18.447,24.214z"/>
		</g>
	</g>
	<g>
		<g>
			<path fill="#FFFFFF" d="M24.399,2.503h-4.397c-0.637-0.606-1.495-0.979-2.44-0.979h-0.505C16.671,0.761,15.879,0.258,15,0.258
				c-0.879,0-1.67,0.503-2.057,1.267h-0.506c-0.946,0-1.805,0.373-2.44,0.979H5.6c-1.549,0-2.808,1.26-2.808,2.808v21.622
				c0,1.549,1.259,2.809,2.808,2.809h18.8c1.549,0,2.809-1.26,2.809-2.809V5.312C27.208,3.763,25.948,2.503,24.399,2.503z
				 M12.438,2.676h0.897c0.259,0,0.485-0.173,0.555-0.422c0.137-0.498,0.594-0.845,1.11-0.845c0.516,0,0.971,0.347,1.109,0.845
				c0.068,0.249,0.296,0.422,0.555,0.422h0.897c1.25,0,2.277,0.965,2.381,2.188h-9.887C10.158,3.641,11.187,2.676,12.438,2.676z
				 M26.056,26.935c0,0.913-0.741,1.655-1.656,1.655H5.6c-0.914,0-1.656-0.742-1.656-1.655V5.312c0-0.914,0.742-1.656,1.656-1.656
				h3.59c-0.188,0.433-0.294,0.91-0.294,1.411V5.44c0,0.318,0.259,0.576,0.577,0.576h11.055c0.318,0,0.576-0.258,0.576-0.576V5.066
				c0-0.501-0.105-0.978-0.293-1.411h3.59c0.915,0,1.656,0.743,1.656,1.656V26.935z"/>
		</g>
	</g>
	<g>
		<g>
			<path fill="#FFFFFF" d="M11.337,8.873c-0.225-0.226-0.589-0.226-0.814,0l-2.463,2.461l-0.759-0.759
				c-0.225-0.225-0.589-0.225-0.814,0c-0.225,0.226-0.225,0.59,0,0.815l1.166,1.166c0.113,0.113,0.26,0.168,0.407,0.168
				c0.148,0,0.295-0.056,0.407-0.168l2.87-2.87C11.563,9.462,11.563,9.098,11.337,8.873z"/>
		</g>
	</g>
	<g>
		<g>
			<path fill="#FFFFFF" d="M9.932,21.449H7.168c-0.318,0-0.576,0.258-0.576,0.576v2.764c0,0.318,0.258,0.576,0.576,0.576h2.764
				c0.317,0,0.576-0.258,0.576-0.576v-2.764C10.508,21.707,10.249,21.449,9.932,21.449z M9.356,24.214H7.744v-1.613h1.613V24.214z"
				/>
		</g>
	</g>
	<g>
		<g>
			<path fill="#FFFFFF" d="M9.932,15.23H7.168c-0.318,0-0.576,0.258-0.576,0.575v2.765c0,0.317,0.258,0.576,0.576,0.576h2.764
				c0.317,0,0.576-0.259,0.576-0.576v-2.765C10.508,15.488,10.249,15.23,9.932,15.23z M9.356,17.994H7.744v-1.612h1.613V17.994z"/>
		</g>
	</g>
</g>
</svg>
