<?xml version="1.0" encoding="utf-8"?>
<!-- Generator: Adobe Illustrator 19.0.0, SVG Export Plug-In . SVG Version: 6.00 Build 0)  -->
<svg version="1.1" id="레이어_1" xmlns="http://www.w3.org/2000/svg" xmlns:xlink="http://www.w3.org/1999/xlink" x="0px"
	 y="0px" viewBox="0 0 30 30" style="enable-background:new 0 0 30 30;" xml:space="preserve">
<style type="text/css">
	.st0{fill:#30343A;}
	.st1{fill:#CDCDCD;}
</style>
<circle id="XMLID_1_" class="st0" cx="15" cy="15" r="15"/>
<g>
	<g>
		<path class="st1" d="M20.8,8.2h-2.1V7.7c0-0.3-0.2-0.5-0.5-0.5s-0.5,0.2-0.5,0.5v0.5h-5.2V7.7c0-0.3-0.2-0.5-0.5-0.5
			c-0.3,0-0.5,0.2-0.5,0.5v0.5H9.2c-1.5,0-2.6,1.2-2.6,2.6v9.4c0,1.5,1.2,2.6,2.6,2.6h11.5c1.5,0,2.6-1.2,2.6-2.6v-9.4
			C23.4,9.4,22.2,8.2,20.8,8.2L20.8,8.2z M7.7,10.8c0-0.8,0.7-1.6,1.6-1.6h2.1v0.5c0,0.3,0.2,0.5,0.5,0.5c0.3,0,0.5-0.2,0.5-0.5V9.2
			h5.2v0.5c0,0.3,0.2,0.5,0.5,0.5s0.5-0.2,0.5-0.5V9.2h2.1c0.8,0,1.6,0.7,1.6,1.6v1.6H7.7L7.7,10.8L7.7,10.8z M22.3,20.2
			c0,0.8-0.7,1.6-1.6,1.6H9.2c-0.8,0-1.6-0.7-1.6-1.6v-6.8h14.6V20.2z"/>
		<path id="XMLID_9_" class="st1" d="M10.3,20.2c0.3,0,0.5-0.1,0.7-0.3c0.2-0.2,0.3-0.5,0.3-0.7s-0.1-0.5-0.3-0.7
			c-0.4-0.4-1-0.4-1.5,0c-0.2,0.2-0.3,0.4-0.3,0.7c0,0.2,0.1,0.5,0.3,0.7S10,20.2,10.3,20.2z"/>
		<path id="XMLID_8_" class="st1" d="M10.3,17.1c0.3,0,0.5-0.1,0.7-0.3c0.2-0.2,0.3-0.5,0.3-0.7c0-0.2-0.1-0.5-0.3-0.7
			c-0.4-0.4-1-0.4-1.5,0c-0.2,0.2-0.3,0.4-0.3,0.7c0,0.3,0.1,0.5,0.3,0.7S10,17.1,10.3,17.1z"/>
		<path id="XMLID_7_" class="st1" d="M13.4,20.2c0.3,0,0.5-0.1,0.7-0.3s0.3-0.5,0.3-0.7s-0.1-0.5-0.3-0.7c-0.4-0.4-1-0.4-1.5,0
			c-0.2,0.2-0.3,0.5-0.3,0.7s0.1,0.5,0.3,0.7C12.9,20.1,13.1,20.2,13.4,20.2z"/>
		<path id="XMLID_6_" class="st1" d="M13.4,17.1c0.3,0,0.5-0.1,0.7-0.3s0.3-0.5,0.3-0.7c0-0.2-0.1-0.5-0.3-0.7c-0.4-0.4-1-0.4-1.5,0
			c-0.2,0.2-0.3,0.5-0.3,0.7c0,0.2,0.1,0.5,0.3,0.7C12.9,17,13.1,17.1,13.4,17.1z"/>
		<path id="XMLID_5_" class="st1" d="M16.6,20.2c0.3,0,0.5-0.1,0.7-0.3s0.3-0.4,0.3-0.7c0-0.3-0.1-0.5-0.3-0.7c-0.4-0.4-1-0.4-1.5,0
			c-0.2,0.2-0.3,0.5-0.3,0.7s0.1,0.5,0.3,0.7C16,20.1,16.3,20.2,16.6,20.2z"/>
		<path id="XMLID_4_" class="st1" d="M16.6,17.1c0.3,0,0.5-0.1,0.7-0.3s0.3-0.4,0.3-0.7c0-0.2-0.1-0.5-0.3-0.7c-0.4-0.4-1-0.4-1.5,0
			c-0.2,0.2-0.3,0.5-0.3,0.7c0,0.2,0.1,0.5,0.3,0.7C16,17,16.3,17.1,16.6,17.1z"/>
		<path id="XMLID_3_" class="st1" d="M19.7,20.2c0.3,0,0.5-0.1,0.7-0.3s0.3-0.5,0.3-0.7s-0.1-0.5-0.3-0.7c-0.4-0.4-1-0.4-1.5,0
			c-0.2,0.2-0.3,0.4-0.3,0.7c0,0.2,0.1,0.5,0.3,0.7S19.4,20.2,19.7,20.2z"/>
		<path id="XMLID_2_" class="st1" d="M19.7,17.1c0.3,0,0.5-0.1,0.7-0.3s0.3-0.4,0.3-0.7c0-0.2-0.1-0.5-0.3-0.7c-0.4-0.4-1-0.4-1.5,0
			c-0.2,0.2-0.3,0.5-0.3,0.7c0,0.2,0.1,0.5,0.3,0.7S19.4,17.1,19.7,17.1z"/>
	</g>
</g>
</svg>
