<?xml version="1.0" encoding="utf-8"?>
<!-- Generator: Adobe Illustrator 19.0.0, SVG Export Plug-In . SVG Version: 6.00 Build 0)  -->
<svg version="1.1" id="레이어_1" xmlns="http://www.w3.org/2000/svg" xmlns:xlink="http://www.w3.org/1999/xlink" x="0px"
	 y="0px" viewBox="0 0 108 36" style="enable-background:new 0 0 108 36;" xml:space="preserve">
<style type="text/css">
	.st0{fill:#003668;}
	.st1{fill:#E5002D;}
	.st2{fill:#595757;}
</style>
<path id="XMLID_16_" class="st0" d="M24.7,17.8c-2.7-1.8-6.1-1.1-7.9,1.7c-1.5,2.3-3.8,2.6-4.6,2.6c-2.9,0-4.8-2-5.4-4.1h0
	c0,0,0,0,0-0.1c0,0,0,0,0-0.1c-0.2-0.9-0.3-1.3-0.3-2.2c0-5,5.1-10.5,12.5-10.5c7.5,0,11.9,5.7,13,8.9c0-0.1,0-0.1-0.1-0.2
	c-2.1-6.2-8.1-10.7-15-10.7C8,3.1,0.9,10.2,0.9,19c0,7.8,5.7,14.5,13.5,14.5c6.2,0,10.5-3.5,12.4-8.3C27.8,22.6,27.1,19.5,24.7,17.8
	z"/>
<path id="XMLID_15_" class="st1" d="M32,14.3c-0.9-3.1-5.3-9.2-13.1-9.2c-7.4,0-12.5,5.5-12.5,10.5c0,0.9,0.1,1.3,0.3,2.2
	c-0.1-0.4-0.1-0.8-0.1-1.1c0-5.2,5.2-8.8,10.5-8.8c7.2,0,13.1,5.9,13.1,13.1c0,5.7-3.3,10.6-8,12.9v0c6.1-2.2,10.5-8.1,10.5-14.9
	C32.7,17.4,32.4,15.9,32,14.3z"/>
<path id="XMLID_18_" class="st2" d="M51.6,13h-8.4v2.7h8.4V13L51.6,13z M41.3,17.4v-6.1h12.3v6.1H41.3L41.3,17.4z M54.7,19v1.7h-6.2
	v2.5h-2v-2.5h-6.4V19H54.7L54.7,19z M43.3,22h-2v4.7h12.5V25H43.3V22L43.3,22z M61.6,12.7V11h2.1v1.7h3.7v1.7h-9.6v-1.7H61.6
	L61.6,12.7z M64.6,18.2c0-0.5-0.2-1-0.6-1.3c-0.4-0.4-0.8-0.6-1.4-0.6c-0.5,0-1,0.2-1.4,0.6c-0.4,0.4-0.6,0.8-0.6,1.3s0.2,1,0.6,1.3
	c0.4,0.4,0.8,0.6,1.4,0.6c0.5,0,1-0.2,1.4-0.6C64.4,19.2,64.6,18.8,64.6,18.2L64.6,18.2z M66.5,18.2c0,0.5-0.1,0.9-0.3,1.4
	c-0.2,0.4-0.5,0.8-0.8,1.1c-0.5,0.5-1.1,0.8-1.8,0.9v2h4.2v1.7H57.5v-1.7h4.2v-2c-0.7-0.2-1.3-0.5-1.8-0.9c-0.4-0.3-0.6-0.7-0.8-1.1
	c-0.2-0.4-0.3-0.9-0.3-1.4s0.1-0.9,0.3-1.4c0.2-0.4,0.5-0.8,0.8-1.1c0.4-0.3,0.8-0.6,1.2-0.8c0.5-0.2,1-0.3,1.5-0.3s1,0.1,1.5,0.3
	c0.5,0.2,0.9,0.4,1.2,0.8c0.4,0.3,0.6,0.7,0.8,1.1C66.4,17.3,66.5,17.7,66.5,18.2L66.5,18.2z M71,27h-2V11.1h2v6.7h2v1.9h-2V27
	L71,27z M75.2,13.8v-1.7H83v1.7h-3.2l3.6,10.6L81.6,25l-2.5-7.6l-2.5,7.8l-1.8-0.5l3.6-10.7H75.2L75.2,13.8z M87.7,11.1h1.9V27h-1.9
	v-7.5h-1.8v7.4H84V11.1h1.8v6.6h1.8V11.1L87.7,11.1z M92.8,14.1v-1.7h3.7v-1.6h2.1v1.6h3.5v1.7h-3.8l4,4l-1.3,1.2l-3.4-3.6l-3.4,3.8
	l-1.3-1.3l4-4.3H92.8L92.8,14.1z M104.9,20h2v-8.9h-2v3.6h-2.8v1.7h2.8V20L104.9,20z M105.5,23.6c0,0.5-0.1,1-0.3,1.5
	c-0.2,0.5-0.5,0.9-0.9,1.2c-0.4,0.4-0.8,0.6-1.3,0.8c-0.5,0.2-1,0.3-1.6,0.3c-0.6,0-1.1-0.1-1.6-0.3c-0.5-0.2-1-0.5-1.3-0.8
	c-0.4-0.4-0.7-0.8-0.9-1.2c-0.2-0.5-0.3-1-0.3-1.5c0-0.5,0.1-1,0.3-1.5c0.2-0.5,0.5-0.9,0.9-1.2c0.4-0.4,0.8-0.6,1.3-0.8
	c0.5-0.2,1-0.3,1.6-0.3c0.6,0,1.1,0.1,1.6,0.3c0.5,0.2,0.9,0.5,1.3,0.8c0.4,0.4,0.7,0.8,0.9,1.2C105.4,22.6,105.5,23.1,105.5,23.6
	L105.5,23.6z M103.6,23.6c0-0.6-0.2-1.1-0.7-1.5c-0.4-0.4-1-0.6-1.6-0.6c-0.6,0-1.1,0.2-1.5,0.6c-0.4,0.4-0.6,0.9-0.6,1.5
	c0,0.6,0.2,1.1,0.6,1.5c0.4,0.4,0.9,0.6,1.5,0.6c0.6,0,1.1-0.2,1.6-0.6C103.4,24.7,103.6,24.2,103.6,23.6z"/>
</svg>
