<?xml version="1.0" encoding="utf-8"?>
<!-- Generator: Adobe Illustrator 19.0.0, SVG Export Plug-In . SVG Version: 6.00 Build 0)  -->
<svg version="1.1" id="레이어_1" xmlns="http://www.w3.org/2000/svg" xmlns:xlink="http://www.w3.org/1999/xlink" x="0px"
	 y="0px" viewBox="0 0 30 30" style="enable-background:new 0 0 30 30;" xml:space="preserve">
<style type="text/css">
	.st0{fill:#30343A;}
	.st1{fill:#CDCDCD;}
</style>
<circle id="XMLID_1_" class="st0" cx="15" cy="15" r="15"/>
<circle id="XMLID_61_" class="st0" cx="-18.1" cy="15" r="15"/>
<g id="XMLID_40_">
	<g id="XMLID_41_">
		<path id="XMLID_50_" class="st1" d="M-12.4,8.2h-2.1V7.7c0-0.3-0.2-0.5-0.5-0.5s-0.5,0.2-0.5,0.5v0.5h-5.2V7.7
			c0-0.3-0.2-0.5-0.5-0.5c-0.3,0-0.5,0.2-0.5,0.5v0.5h-2.1c-1.5,0-2.6,1.2-2.6,2.6v9.4c0,1.5,1.2,2.6,2.6,2.6h11.5
			c1.5,0,2.6-1.2,2.6-2.6v-9.4C-9.8,9.4-10.9,8.2-12.4,8.2L-12.4,8.2z M-25.5,10.8c0-0.8,0.7-1.6,1.6-1.6h2.1v0.5
			c0,0.3,0.2,0.5,0.5,0.5c0.3,0,0.5-0.2,0.5-0.5V9.2h5.2v0.5c0,0.3,0.2,0.5,0.5,0.5c0.3,0,0.5-0.2,0.5-0.5V9.2h2.1
			c0.8,0,1.6,0.7,1.6,1.6v1.6h-14.6V10.8L-25.5,10.8z M-10.8,20.2c0,0.8-0.7,1.6-1.6,1.6h-11.5c-0.8,0-1.6-0.7-1.6-1.6v-6.8h14.6
			V20.2z"/>
		<path id="XMLID_49_" class="st1" d="M-22.8,20.2c0.3,0,0.5-0.1,0.7-0.3s0.3-0.5,0.3-0.7s-0.1-0.5-0.3-0.7c-0.4-0.4-1-0.4-1.5,0
			c-0.2,0.2-0.3,0.4-0.3,0.7c0,0.2,0.1,0.5,0.3,0.7S-23.2,20.2-22.8,20.2z"/>
		<path id="XMLID_48_" class="st1" d="M-22.8,17.1c0.3,0,0.5-0.1,0.7-0.3s0.3-0.5,0.3-0.7c0-0.2-0.1-0.5-0.3-0.7
			c-0.4-0.4-1-0.4-1.5,0c-0.2,0.2-0.3,0.4-0.3,0.7c0,0.3,0.1,0.5,0.3,0.7S-23.2,17.1-22.8,17.1z"/>
		<path id="XMLID_47_" class="st1" d="M-19.7,20.2c0.3,0,0.5-0.1,0.7-0.3s0.3-0.5,0.3-0.7s-0.1-0.5-0.3-0.7c-0.4-0.4-1-0.4-1.5,0
			c-0.2,0.2-0.3,0.5-0.3,0.7s0.1,0.5,0.3,0.7S-20,20.2-19.7,20.2z"/>
		<path id="XMLID_46_" class="st1" d="M-19.7,17.1c0.3,0,0.5-0.1,0.7-0.3s0.3-0.5,0.3-0.7c0-0.2-0.1-0.5-0.3-0.7
			c-0.4-0.4-1-0.4-1.5,0c-0.2,0.2-0.3,0.5-0.3,0.7c0,0.2,0.1,0.5,0.3,0.7S-20,17.1-19.7,17.1z"/>
		<path id="XMLID_45_" class="st1" d="M-16.6,20.2c0.3,0,0.5-0.1,0.7-0.3s0.3-0.4,0.3-0.7c0-0.3-0.1-0.5-0.3-0.7
			c-0.4-0.4-1-0.4-1.5,0c-0.2,0.2-0.3,0.5-0.3,0.7s0.1,0.5,0.3,0.7S-16.9,20.2-16.6,20.2z"/>
		<path id="XMLID_44_" class="st1" d="M-16.6,17.1c0.3,0,0.5-0.1,0.7-0.3s0.3-0.4,0.3-0.7c0-0.2-0.1-0.5-0.3-0.7
			c-0.4-0.4-1-0.4-1.5,0c-0.2,0.2-0.3,0.5-0.3,0.7c0,0.2,0.1,0.5,0.3,0.7S-16.9,17.1-16.6,17.1z"/>
		<path id="XMLID_43_" class="st1" d="M-13.4,20.2c0.3,0,0.5-0.1,0.7-0.3c0.2-0.2,0.3-0.5,0.3-0.7s-0.1-0.5-0.3-0.7
			c-0.4-0.4-1-0.4-1.5,0c-0.2,0.2-0.3,0.4-0.3,0.7c0,0.2,0.1,0.5,0.3,0.7S-13.7,20.2-13.4,20.2z"/>
		<path id="XMLID_42_" class="st1" d="M-13.4,17.1c0.3,0,0.5-0.1,0.7-0.3c0.2-0.2,0.3-0.4,0.3-0.7c0-0.2-0.1-0.5-0.3-0.7
			c-0.4-0.4-1-0.4-1.5,0c-0.2,0.2-0.3,0.5-0.3,0.7c0,0.2,0.1,0.5,0.3,0.7S-13.7,17.1-13.4,17.1z"/>
	</g>
</g>
<g id="XMLID_36_">
	<g id="XMLID_80_">
		<g id="XMLID_81_">
			
				<rect id="XMLID_34_" x="16.3" y="9.6" transform="matrix(-0.9653 0.2611 -0.2611 -0.9653 35.1456 15.4901)" class="st1" width="0.4" height="1"/>
		</g>
	</g>
	<g id="XMLID_77_">
		<g id="XMLID_78_">
			
				<rect id="XMLID_33_" x="18.6" y="11.8" transform="matrix(-0.2611 0.9653 -0.9653 -0.2611 35.8098 -2.3679)" class="st1" width="0.4" height="1.5"/>
		</g>
	</g>
	<g id="XMLID_74_">
		<g id="XMLID_75_">
			
				<rect id="XMLID_32_" x="14.8" y="11.1" transform="matrix(-0.9653 0.2611 -0.2611 -0.9653 32.6561 19.4476)" class="st1" width="0.4" height="1.5"/>
		</g>
	</g>
	<g id="XMLID_71_">
		<g id="XMLID_72_">
			
				<rect id="XMLID_31_" x="13.3" y="13.5" transform="matrix(-0.9653 0.2611 -0.2611 -0.9653 30.2973 23.7189)" class="st1" width="0.4" height="0.7"/>
		</g>
	</g>
	<g id="XMLID_68_">
		<g id="XMLID_69_">
			
				<rect id="XMLID_30_" x="17.5" y="14" transform="matrix(-0.2611 0.9653 -0.9653 -0.2611 36.0894 0.8292)" class="st1" width="0.4" height="0.5"/>
		</g>
	</g>
	<g id="XMLID_65_">
		<g id="XMLID_66_">
			
				<rect id="XMLID_29_" x="10.9" y="14.8" transform="matrix(-0.9653 0.2611 -0.2611 -0.9653 25.994 27.603)" class="st1" width="0.4" height="1.5"/>
		</g>
	</g>
	<g id="XMLID_62_">
		<g id="XMLID_63_">
			
				<rect id="XMLID_28_" x="13.6" y="17.6" transform="matrix(-0.2611 0.9653 -0.9653 -0.2611 34.7138 9.1518)" class="st1" width="0.4" height="0.5"/>
		</g>
	</g>
	<g id="XMLID_59_">
		<g id="XMLID_60_">
			
				<rect id="XMLID_27_" x="15.4" y="14.9" transform="matrix(-0.2611 0.9653 -0.9653 -0.2611 34.8792 4.6368)" class="st1" width="0.4" height="1.5"/>
		</g>
	</g>
	<g id="XMLID_56_">
		<g id="XMLID_57_">
			<path id="XMLID_26_" class="st1" d="M20.6,10.4c0,0.2-0.1,0.4-0.2,0.7l0.4,0.2c0.1-0.3,0.2-0.5,0.2-0.8L20.6,10.4z"/>
		</g>
	</g>
	<g id="XMLID_51_">
		<g id="XMLID_52_">
			<g id="XMLID_53_">
				<path id="XMLID_25_" class="st1" d="M17.9,8.3L18,8.7c0.4-0.1,0.7-0.2,1-0.2V8.1C18.7,8.1,18.3,8.1,17.9,8.3z"/>
				<polygon id="XMLID_24_" class="st1" points="19.1,8.1 19.1,8.1 19.1,8.1 				"/>
			</g>
		</g>
	</g>
	<g id="XMLID_37_">
		<g id="XMLID_38_">
			<path id="XMLID_39_" class="st1" d="M21.3,7.8c-0.6-0.6-1.6-0.9-2.6-0.8c-0.6,0.1-1.3,0.3-1.9,0.7l0,0l0,0
				c-0.3,0.2-0.6,0.5-0.9,0.7l-6,6l0.6,3.9l-0.5,0.5l-0.6-2.1l-0.4,0.1l0.6,2.4l-0.4,0.4l-0.3-1.3l-0.4,0.1l0.4,1.5L7,21.8l0.3,0.3
				L9,20.4l1.6,0.4l0.1-0.4L9.4,20l0.4-0.4l2.4,0.6l0.1-0.4l-2.1-0.6l0.6-0.6l3.9,0.6l6-6c0.3-0.3,0.5-0.6,0.7-0.9l0,0l0,0
				c0.4-0.6,0.6-1.2,0.7-1.9C22.2,9.4,22,8.5,21.3,7.8z M18.8,7.5c0.8-0.1,1.5,0.1,2.1,0.5L18,10.8L17.3,8
				C17.8,7.7,18.3,7.5,18.8,7.5z M16.2,8.8c0.2-0.2,0.5-0.4,0.7-0.6l0.8,2.9l-1.2,1.2l-0.8-3L16.2,8.8z M15.3,9.7l0.8,3l-1.2,1.2
				l-0.8-3L15.3,9.7z M13.7,11.3l0.8,3L12.8,16L12,13L13.7,11.3z M10.4,14.6l1.2-1.2l0.8,3L10.8,18L10.4,14.6z M14.5,18.8l-3.4-0.5
				l1.6-1.6l3,0.8L14.5,18.8z M16.1,17.2l-3-0.8l1.7-1.7l3,0.8L16.1,17.2z M18.2,15.1l-3-0.8l1.2-1.2l3,0.8L18.2,15.1z M20.3,13
				l-0.5,0.5l-3-0.8l1.2-1.2l2.9,0.8C20.7,12.5,20.5,12.7,20.3,13z M21.2,11.8l-2.8-0.8l2.8-2.8C21.9,9.2,21.8,10.6,21.2,11.8z"/>
		</g>
	</g>
</g>
</svg>
