<?xml version="1.0" encoding="utf-8"?>
<!-- Generator: Adobe Illustrator 19.0.0, SVG Export Plug-In . SVG Version: 6.00 Build 0)  -->
<svg version="1.1" id="레이어_1" xmlns="http://www.w3.org/2000/svg" xmlns:xlink="http://www.w3.org/1999/xlink" x="0px"
	 y="0px" viewBox="0 0 24 24" style="enable-background:new 0 0 24 24;" xml:space="preserve">
<style type="text/css">
	.st0{fill:#040000;}
</style>
<g id="XMLID_4_">
	<path id="XMLID_5_" class="st0" d="M23.5,22.1l-5.7-5.7c1.4-1.7,2.3-3.9,2.3-6.3c0-5.5-4.5-10-10-10c-5.5,0-10,4.5-10,10
		s4.5,10,10,10c2.4,0,4.6-0.8,6.3-2.3l5.7,5.7c0.4,0.4,1,0.4,1.4,0C23.9,23.1,23.9,22.5,23.5,22.1z M10.1,18.1c-4.4,0-8-3.6-8-8
		s3.6-8,8-8c4.4,0,8,3.6,8,8S14.5,18.1,10.1,18.1z"/>
</g>
</svg>
