<?xml version="1.0" encoding="utf-8"?>
<!-- Generator: Adobe Illustrator 19.0.0, SVG Export Plug-In . SVG Version: 6.00 Build 0)  -->
<svg version="1.1" id="Capa_1" xmlns="http://www.w3.org/2000/svg" xmlns:xlink="http://www.w3.org/1999/xlink" x="0px" y="0px"
	 viewBox="0 0 595.3 841.9" style="enable-background:new 0 0 595.3 841.9;" xml:space="preserve">
<style type="text/css">
	.st0{fill:#4E4E4E;}
</style>
<g>
	<g>
		<g>
			<circle class="st0" cx="448.8" cy="367.5" r="23.3"/>
			<path class="st0" d="M502.3,169.8H472v-23.3c0-12.8-10.4-23.3-23.3-23.3c-12.8,0-23.3,10.4-23.3,23.3v23.3H319.7v-23.3
				c0-12.8-10.4-23.3-23.3-23.3c-12.8,0-23.3,10.4-23.3,23.3v23.3H168.6v-23.3c0-12.8-10.4-23.3-23.3-23.3s-23.3,10.4-23.3,23.3
				v23.3H93c-51.3,0-93,41.7-93,93v362.7c0,51.3,41.7,93,93,93h177.9c12.8,0,23.3-10.4,23.3-23.3s-10.4-23.3-23.3-23.3H93
				c-25.6,0-46.5-20.9-46.5-46.5V262.8c0-25.6,20.9-46.5,46.5-46.5h29.1v23.3c0,12.8,10.4,23.3,23.3,23.3s23.3-10.4,23.3-23.3v-23.3
				h104.6v23.3c0,12.8,10.4,23.3,23.3,23.3c12.8,0,23.3-10.4,23.3-23.3v-23.3h105.8v23.3c0,12.8,10.4,23.3,23.3,23.3
				c12.8,0,23.3-10.4,23.3-23.3v-23.3h30.2c25.6,0,46.5,20.9,46.5,46.5v132.5c0,12.8,10.4,23.3,23.3,23.3
				c12.8,0,23.3-10.4,23.3-23.3V262.8C595.3,211.5,553.6,169.8,502.3,169.8z"/>
			<path class="st0" d="M454.6,437.2c-77.6,0-140.7,63.1-140.7,140.7S377,718.6,454.6,718.6s140.7-63.1,140.7-140.7
				S532.2,437.2,454.6,437.2z M454.6,672.1c-51.9,0-94.2-42.2-94.2-94.2c0-51.9,42.2-94.2,94.2-94.2c51.9,0,94.2,42.2,94.2,94.2
				C548.8,629.8,506.5,672.1,454.6,672.1z"/>
			<path class="st0" d="M488.3,554.7h-10.5v-24.4c0-12.8-10.4-23.3-23.3-23.3c-12.8,0-23.3,10.4-23.3,23.3v47.7
				c0,12.8,10.4,23.3,23.3,23.3h33.7c12.8,0,23.3-10.4,23.3-23.3C511.6,565.1,501.2,554.7,488.3,554.7z"/>
			<circle class="st0" cx="347.6" cy="367.5" r="23.3"/>
			<circle class="st0" cx="246.5" cy="468.6" r="23.3"/>
			<circle class="st0" cx="145.3" cy="367.5" r="23.3"/>
			<circle class="st0" cx="145.3" cy="468.6" r="23.3"/>
			<circle class="st0" cx="145.3" cy="569.8" r="23.3"/>
			<circle class="st0" cx="246.5" cy="569.8" r="23.3"/>
			<circle class="st0" cx="246.5" cy="367.5" r="23.3"/>
		</g>
	</g>
</g>
</svg>
