<?xml version="1.0" encoding="utf-8"?>
<!-- Generator: Adobe Illustrator 19.0.0, SVG Export Plug-In . SVG Version: 6.00 Build 0)  -->
<svg version="1.1" id="Capa_1" xmlns="http://www.w3.org/2000/svg" xmlns:xlink="http://www.w3.org/1999/xlink" x="0px" y="0px"
	 viewBox="0 0 595.3 841.9" style="enable-background:new 0 0 595.3 841.9;" xml:space="preserve">
<style type="text/css">
	.st0{fill:#9F8674;}
</style>
<g>
	<path class="st0" d="M297.6,123.3C133.3,123.3,0,256.6,0,420.9s133.3,297.7,297.6,297.7s297.7-133.3,297.7-297.7
		S462,123.3,297.6,123.3z M359.6,584.6c-15.3,6-27.5,10.6-36.7,13.8c-9.1,3.2-19.7,4.8-31.8,4.8c-18.5,0-33-4.5-43.3-13.6
		c-10.3-9-15.4-20.5-15.4-34.4c0-5.4,0.4-11,1.1-16.6c0.8-5.6,2-12,3.7-19.1l19.2-67.7c1.7-6.5,3.1-12.7,4.3-18.4
		c1.2-5.8,1.7-11.1,1.7-15.9c0-8.6-1.8-14.7-5.3-18.1c-3.6-3.4-10.4-5.1-20.5-5.1c-4.9,0-10,0.7-15.2,2.3c-5.2,1.6-9.7,3-13.3,4.4
		l5.1-20.9c12.5-5.1,24.6-9.5,36-13.1c11.5-3.7,22.3-5.5,32.5-5.5c18.4,0,32.6,4.5,42.6,13.4c10,8.9,15,20.5,15,34.7
		c0,2.9-0.4,8.1-1,15.5c-0.7,7.4-2,14.2-3.8,20.4l-19.1,67.5c-1.6,5.4-2.9,11.6-4.2,18.5c-1.2,6.9-1.8,12.2-1.8,15.8
		c0,9,2,15.1,6,18.3c4,3.3,11,4.9,20.8,4.9c4.7,0,9.9-0.8,15.8-2.4c5.8-1.6,10.1-3,12.8-4.3L359.6,584.6z M356.2,310.5
		c-8.9,8.3-19.6,12.4-32.1,12.4c-12.5,0-23.3-4.1-32.3-12.4c-8.9-8.3-13.4-18.3-13.4-30.1c0-11.7,4.5-21.8,13.4-30.1
		c9-8.4,19.8-12.5,32.3-12.5c12.5,0,23.3,4.2,32.1,12.5c8.9,8.3,13.4,18.4,13.4,30.1C369.6,292.2,365.1,302.2,356.2,310.5z"/>
</g>
</svg>
