<?xml version="1.0" encoding="utf-8"?>
<!-- Generator: Adobe Illustrator 16.0.0, SVG Export Plug-In . SVG Version: 6.00 Build 0)  -->
<!DOCTYPE svg PUBLIC "-//W3C//DTD SVG 1.1//EN" "http://www.w3.org/Graphics/SVG/1.1/DTD/svg11.dtd">
<svg version="1.1" id="Layer_1" xmlns="http://www.w3.org/2000/svg" xmlns:xlink="http://www.w3.org/1999/xlink" x="0px" y="0px"
	 width="595.281px" height="412.976px" viewBox="0 0 595.281 412.976" enable-background="new 0 0 595.281 412.976"
	 xml:space="preserve">
<g>
	<g>
		<path fill="#303030" d="M571.212,182.421H24.067C10.813,182.421,0,193.233,0,206.487c0,13.255,10.813,24.067,24.067,24.067
			h547.146c13.256,0,24.068-10.813,24.068-24.067C595.281,193.233,584.468,182.421,571.212,182.421z"/>
	</g>
</g>
<g>
	<g>
		<path fill="#303030" d="M571.212,0H24.067C10.813,0,0,10.812,0,24.066c0,13.255,10.813,24.067,24.067,24.067h547.146
			c13.256,0,24.068-10.813,24.068-24.067C595.281,10.812,584.468,0,571.212,0z"/>
	</g>
</g>
<g>
	<g>
		<path fill="#303030" d="M571.212,364.842H24.067C10.813,364.842,0,375.654,0,388.908c0,13.255,10.813,24.067,24.067,24.067
			h547.146c13.256,0,24.068-10.813,24.068-24.067C595.281,375.654,584.468,364.842,571.212,364.842z"/>
	</g>
</g>
</svg>
