<?xml version="1.0" encoding="utf-8"?>
<!-- Generator: Adobe Illustrator 19.0.0, SVG Export Plug-In . SVG Version: 6.00 Build 0)  -->
<svg version="1.1" id="Capa_1" xmlns="http://www.w3.org/2000/svg" xmlns:xlink="http://www.w3.org/1999/xlink" x="0px" y="0px"
	 viewBox="0 0 430.1 430.1" style="enable-background:new 0 0 430.1 430.1;" xml:space="preserve">
<style type="text/css">
	.st0{fill:#FFFFFF;}
</style>
<g>
	<path id="Facebook_Places" class="st0" d="M353,109.5c-1.5-5.6-4.5-11.6-6.8-16.8C319.3,28,260.6,4.9,213.1,4.9
		c-63.5,0-133.5,42.6-142.8,130.4v17.9c0,0.7,0.3,7.5,0.6,10.8c5.2,41.8,38.3,86.3,62.9,128.2c26.5,44.8,54.1,88.9,81.3,133
		c16.8-28.8,33.6-57.9,50-85.9c4.5-8.2,9.7-16.4,14.2-24.3c3-5.2,8.7-10.5,11.3-15.3c26.5-48.6,69.2-97.5,69.2-145.7v-19.8
		C359.9,128.9,353.4,110.6,353,109.5z M214.3,199.6c-18.7,0-39.1-9.3-49.2-35.1c-1.5-4.1-1.4-12.3-1.4-13.1v-11.6
		c0-32.9,27.9-47.8,52.2-47.8c29.9,0,53,23.9,53,53.8C268.9,175.6,244.2,199.6,214.3,199.6z"/>
</g>
</svg>
