<?xml version="1.0" encoding="utf-8"?>
<!-- Generator: Adobe Illustrator 16.0.0, SVG Export Plug-In . SVG Version: 6.00 Build 0)  -->
<!DOCTYPE svg PUBLIC "-//W3C//DTD SVG 1.1//EN" "http://www.w3.org/Graphics/SVG/1.1/DTD/svg11.dtd">
<svg version="1.1" id="Layer_1" xmlns="http://www.w3.org/2000/svg" xmlns:xlink="http://www.w3.org/1999/xlink" x="0px" y="0px"
	 width="38.351px" height="54.757px" viewBox="0 0 38.351 54.757" enable-background="new 0 0 38.351 54.757" xml:space="preserve">
<path fill="#A5938C" d="M19.177,54.757L34.518,32.6c5.755-7.671,4.923-20.28-1.78-26.982C29.115,1.995,24.299,0,19.177,0
	c-5.122,0-9.938,1.995-13.56,5.617c-6.703,6.702-7.535,19.311-1.804,26.952L19.177,54.757z M19.354,12c3.86,0,7,3.141,7,7
	c0,3.859-3.14,7-7,7c-3.859,0-7-3.141-7-7C12.354,15.141,15.494,12,19.354,12"/>
</svg>
