<?xml version="1.0" encoding="utf-8"?>
<!-- Generator: Adobe Illustrator 16.0.0, SVG Export Plug-In . SVG Version: 6.00 Build 0)  -->
<!DOCTYPE svg PUBLIC "-//W3C//DTD SVG 1.1//EN" "http://www.w3.org/Graphics/SVG/1.1/DTD/svg11.dtd">
<svg version="1.1" id="Layer_1" xmlns="http://www.w3.org/2000/svg" xmlns:xlink="http://www.w3.org/1999/xlink" x="0px" y="0px"
	 width="38.351px" height="54.757px" viewBox="0 0 38.351 54.757" enable-background="new 0 0 38.351 54.757" xml:space="preserve">
<path fill="#6C6C6C" d="M19.354,12c-3.859,0-7,3.141-7,7c0,3.859,3.141,7,7,7c3.859,0,7-3.141,7-7
	C26.354,15.141,23.214,12,19.354,12 M19.354,24c-2.757,0-5-2.243-5-5c0-2.757,2.243-5,5-5c2.757,0,5,2.243,5,5
	C24.354,21.757,22.111,24,19.354,24"/>
<path fill="#6C6C6C" d="M32.737,5.617C29.115,1.995,24.3,0,19.178,0c-5.123,0-9.938,1.995-13.56,5.617
	c-6.703,6.702-7.536,19.312-1.804,26.952l15.364,22.188L34.519,32.6C40.273,24.929,39.44,12.319,32.737,5.617 M32.896,31.431
	L19.178,51.243L5.437,31.399C0.237,24.468,0.982,13.08,7.033,7.031C10.276,3.787,14.589,2,19.178,2c4.588,0,8.9,1.787,12.146,5.031
	C37.373,13.08,38.118,24.468,32.896,31.431"/>
</svg>
