<?xml version="1.0" encoding="utf-8"?>
<!-- Generator: Adobe Illustrator 16.0.0, SVG Export Plug-In . SVG Version: 6.00 Build 0)  -->
<!DOCTYPE svg PUBLIC "-//W3C//DTD SVG 1.1//EN" "http://www.w3.org/Graphics/SVG/1.1/DTD/svg11.dtd">
<svg version="1.1" id="Capa_1" xmlns="http://www.w3.org/2000/svg" xmlns:xlink="http://www.w3.org/1999/xlink" x="0px" y="0px"
	 width="512px" height="512px" viewBox="0 0 512 512" enable-background="new 0 0 512 512" xml:space="preserve">
<g>
	<g>
		<path fill="#FFFFFF" d="M19.321,130.415H492.68c10.665,0,19.32-8.655,19.32-19.32s-8.655-19.321-19.32-19.321H19.321
			C8.656,91.773,0,100.429,0,111.094S8.656,130.415,19.321,130.415z"/>
		<path fill="#FFFFFF" d="M19.321,275.321H492.68c10.665,0,19.32-8.656,19.32-19.321s-8.655-19.32-19.32-19.32H19.321
			C8.656,236.679,0,245.335,0,256S8.656,275.321,19.321,275.321z"/>
		<path fill="#FFFFFF" d="M19.321,420.226H492.68c10.665,0,19.32-8.655,19.32-19.32s-8.655-19.321-19.32-19.321H19.321
			C8.656,381.585,0,390.241,0,400.906S8.656,420.226,19.321,420.226z"/>
	</g>
</g>
</svg>
