<?xml version="1.0" encoding="utf-8"?>
<!-- Generator: Adobe Illustrator 16.0.0, SVG Export Plug-In . SVG Version: 6.00 Build 0)  -->
<!DOCTYPE svg PUBLIC "-//W3C//DTD SVG 1.1//EN" "http://www.w3.org/Graphics/SVG/1.1/DTD/svg11.dtd">
<svg version="1.1" id="Capa_1" xmlns="http://www.w3.org/2000/svg" xmlns:xlink="http://www.w3.org/1999/xlink" x="0px" y="0px"
	 width="34.75px" height="34px" viewBox="32.5 0 34.75 34" enable-background="new 32.5 0 34.75 34" xml:space="preserve">
<g>
	<path fill="#B0B0B0" d="M65.416,11.506c-1.468-4.117-4.45-7.417-8.401-9.291c-3.933-1.865-8.41-2.091-12.51-0.63
		c-4.118,1.468-7.418,4.452-9.292,8.402c-1.874,3.949-2.097,8.393-0.629,12.51c0.2,0.564,0.854,0.878,1.425,0.677
		c0.578-0.208,0.882-0.847,0.676-1.425c-1.269-3.558-1.075-7.395,0.543-10.806c1.618-3.412,4.468-5.989,8.025-7.257
		c3.542-1.264,7.409-1.068,10.807,0.543c3.411,1.618,5.987,4.468,7.257,8.026c1.268,3.557,1.075,7.395-0.545,10.806
		c-1.618,3.412-4.468,5.989-8.024,7.257c-3.945,1.405-8.401,0.967-11.998-1.18c-0.509-0.307-1.225-0.122-1.529,0.386
		c-0.314,0.527-0.142,1.213,0.386,1.529c2.542,1.518,5.443,2.319,8.387,2.319c1.875,0,3.725-0.32,5.502-0.954
		c4.119-1.469,7.419-4.452,9.293-8.401C66.661,20.066,66.884,15.624,65.416,11.506z"/>
	<path fill="#B0B0B0" d="M57.586,17.002c0-0.615-0.5-1.115-1.114-1.115H40.355c-0.615,0-1.115,0.5-1.115,1.115
		s0.5,1.115,1.115,1.115h16.116C57.086,18.117,57.586,17.617,57.586,17.002z"/>
	<path fill="#B0B0B0" d="M51.629,23.44c-0.433,0.436-0.433,1.142,0.001,1.575c0.211,0.211,0.491,0.327,0.789,0.327
		s0.577-0.116,0.788-0.327l7.226-7.225c0.211-0.211,0.327-0.491,0.327-0.789c0-0.298-0.116-0.579-0.327-0.789l-7.226-7.225
		c-0.419-0.421-1.153-0.422-1.577,0c-0.434,0.434-0.434,1.141,0,1.576l6.438,6.437L51.629,23.44z"/>
</g>
</svg>
