<?xml version="1.0" encoding="utf-8"?>
<!-- Generator: Adobe Illustrator 16.0.0, SVG Export Plug-In . SVG Version: 6.00 Build 0)  -->
<!DOCTYPE svg PUBLIC "-//W3C//DTD SVG 1.1//EN" "http://www.w3.org/Graphics/SVG/1.1/DTD/svg11.dtd">
<svg version="1.1" id="Capa_1" xmlns="http://www.w3.org/2000/svg" xmlns:xlink="http://www.w3.org/1999/xlink" x="0px" y="0px"
	 width="33.75px" height="34px" viewBox="0 0 33.75 34" enable-background="new 0 0 33.75 34" xml:space="preserve">
<g>
	<g>
		<path d="M24.212,22.13c2.146-2.323,3.483-5.434,3.483-8.859c0-7.186-5.848-13.053-13.05-13.053
			c-7.208,0-13.053,5.867-13.053,13.053c0,7.183,5.845,13.049,13.053,13.049c2.932,0,5.627-0.965,7.814-2.598l7.705,7.705
			c0.235,0.237,0.528,0.354,0.825,0.354c0.294,0,0.61-0.116,0.827-0.354c0.455-0.453,0.455-1.201,0-1.673L24.212,22.13z
			 M3.958,13.271c0-5.886,4.781-10.689,10.688-10.689c5.888,0,10.688,4.782,10.688,10.689c0,5.901-4.787,10.689-10.688,10.689
			C8.738,23.96,3.958,19.157,3.958,13.271z"/>
	</g>
</g>
</svg>
