<?xml version="1.0" encoding="utf-8"?>
<!-- Generator: Adobe Illustrator 16.0.0, SVG Export Plug-In . SVG Version: 6.00 Build 0)  -->
<!DOCTYPE svg PUBLIC "-//W3C//DTD SVG 1.1//EN" "http://www.w3.org/Graphics/SVG/1.1/DTD/svg11.dtd">
<svg version="1.1" id="Layer_1" xmlns="http://www.w3.org/2000/svg" xmlns:xlink="http://www.w3.org/1999/xlink" x="0px" y="0px"
	 width="30px" height="30px" viewBox="0 0 30 30" enable-background="new 0 0 30 30" xml:space="preserve">
<g>
	<g>
		<path fill="#FFFFFF" d="M28.812,25.921l-6.46-6.462V5.104c0-0.964-0.782-1.747-1.747-1.747h-11.7C8.635,2.03,7.46,1.03,6.053,1.03
			c-1.408,0-2.583,1-2.853,2.328H3.143c-0.965,0-1.747,0.782-1.747,1.747v22.12c0,0.964,0.782,1.746,1.747,1.746h17.462
			c0.965,0,1.747-0.782,1.747-1.746v-2.715l3.936,3.937c0.334,0.336,0.79,0.524,1.263,0.524c0.475,0,0.928-0.188,1.264-0.524
			C29.511,27.748,29.51,26.618,28.812,25.921z M6.053,2.194c0.76,0,1.406,0.486,1.646,1.164H4.406
			C4.646,2.68,5.292,2.194,6.053,2.194z M21.187,27.224c0,0.32-0.261,0.582-0.582,0.582H3.143c-0.322,0-0.583-0.262-0.583-0.582
			V5.104c0-0.321,0.261-0.582,0.583-0.582h4.656v6.403c0,0.321-0.26,0.582-0.582,0.582c-0.321,0-0.582-0.26-0.582-0.582V5.687H5.47
			v5.239c0,0.964,0.782,1.746,1.747,1.746c0.965,0,1.746-0.782,1.746-1.746V4.522h11.642c0.321,0,0.582,0.261,0.582,0.582v13.191
			l-1.746-1.747V6.268c0-0.321-0.261-0.582-0.582-0.582h-8.731V6.85h8.149v8.661l-3.232-1.612c-0.164-0.082-0.357-0.082-0.521,0
			c-0.031,0.016-0.06,0.034-0.087,0.054l-0.001-0.001l-1.652,1.237l-0.931-3.259c-0.027-0.095-0.079-0.183-0.149-0.252
			c-0.227-0.228-0.596-0.228-0.823,0l-1.576,1.575H4.888c-0.321,0-0.582,0.261-0.582,0.583V26.06c0,0.321,0.261,0.581,0.582,0.581
			h13.97c0.321,0,0.582-0.26,0.582-0.581v-4.461l1.746,1.746V27.224z M16.646,16.84l-0.562-1.122l1.122,0.562L16.646,16.84z
			 M18.276,20.436v5.041H5.47V14.417h4.075c0.154,0,0.302-0.061,0.411-0.169l1.048-1.048l0.892,3.122
			c0.02,0.069,0.052,0.135,0.094,0.191c0.193,0.256,0.559,0.309,0.815,0.115l1.769-1.326l1.391,2.781h0.002
			c0.026,0.054,0.063,0.104,0.107,0.148L18.276,20.436z M17.31,17.822l0.879-0.879l7.689,7.688l-0.88,0.88L17.31,17.822z
			 M27.989,27.623c-0.243,0.243-0.636,0.243-0.878,0l-1.29-1.288l0.88-0.88l1.288,1.29C28.232,26.987,28.232,27.38,27.989,27.623z"
			/>
	</g>
</g>
</svg>
