<?xml version="1.0" encoding="utf-8"?>
<!-- Generator: Adobe Illustrator 16.0.0, SVG Export Plug-In . SVG Version: 6.00 Build 0)  -->
<!DOCTYPE svg PUBLIC "-//W3C//DTD SVG 1.1//EN" "http://www.w3.org/Graphics/SVG/1.1/DTD/svg11.dtd">
<svg version="1.1" id="Layer_1" xmlns="http://www.w3.org/2000/svg" xmlns:xlink="http://www.w3.org/1999/xlink" x="0px" y="0px"
	 width="30px" height="30px" viewBox="0 0 30 30" enable-background="new 0 0 30 30" xml:space="preserve">
<g>
	<path fill="#FFFFFF" d="M15,13c1.93,0,3.5-1.57,3.5-3.5S16.93,6,15,6c-1.93,0-3.5,1.57-3.5,3.5S13.07,13,15,13z M15,7
		c1.379,0,2.5,1.122,2.5,2.5S16.379,12,15,12c-1.378,0-2.5-1.122-2.5-2.5S13.622,7,15,7z"/>
	<path fill="#FFFFFF" d="M14.912,27.379l7.67-11.079c2.877-3.835,2.461-10.14-0.891-13.491C19.881,0.998,17.473,0,14.912,0
		s-4.969,0.998-6.78,2.809C4.78,6.16,4.364,12.464,7.229,16.284L14.912,27.379z M8.838,3.516C10.461,1.894,12.618,1,14.912,1
		c2.293,0,4.451,0.894,6.073,2.516c3.025,3.024,3.397,8.718,0.787,12.199l-6.86,9.906L8.041,15.7
		C5.441,12.234,5.814,6.54,8.838,3.516z"/>
	<path fill="#FFFFFF" d="M21.059,21.504c-0.275-0.034-0.523,0.163-0.555,0.438c-0.032,0.274,0.164,0.523,0.438,0.555
		C26.199,23.115,29,24.783,29,25.75C29,27.107,23.674,29,15,29S1,27.107,1,25.75c0-0.967,2.8-2.635,8.059-3.254
		c0.274-0.031,0.47-0.28,0.438-0.555c-0.033-0.274-0.281-0.473-0.555-0.438C3.677,22.123,0,23.869,0,25.75C0,27.862,5.152,30,15,30
		s15-2.138,15-4.25C30,23.869,26.323,22.123,21.059,21.504z"/>
</g>
</svg>
