<?xml version="1.0" encoding="utf-8"?>
<!-- Generator: Adobe Illustrator 16.0.0, SVG Export Plug-In . SVG Version: 6.00 Build 0)  -->
<!DOCTYPE svg PUBLIC "-//W3C//DTD SVG 1.1//EN" "http://www.w3.org/Graphics/SVG/1.1/DTD/svg11.dtd">
<svg version="1.1" id="Layer_1" xmlns="http://www.w3.org/2000/svg" xmlns:xlink="http://www.w3.org/1999/xlink" x="0px" y="0px"
	 width="30px" height="30px" viewBox="0 0 30 30" enable-background="new 0 0 30 30" xml:space="preserve">
<g>
	<g>
		<g>
			<path fill="#FFFFFF" d="M12.37,18.807l-1.071-0.355c-0.352-0.119-0.59-0.447-0.59-0.818c0-0.537,0.436-0.971,0.972-0.971
				c0.536,0,0.972,0.434,0.972,0.971h0.97c-0.003-0.883-0.602-1.653-1.457-1.873v-1.041h-0.971v1.041
				c-0.855,0.22-1.454,0.99-1.457,1.873c0,0.789,0.504,1.49,1.253,1.738l1.07,0.359c0.352,0.115,0.59,0.445,0.59,0.816
				c0,0.537-0.436,0.971-0.972,0.971c-0.537,0-0.972-0.434-0.972-0.971h-0.97c0.003,0.883,0.602,1.652,1.457,1.873v1.041h0.971
				V22.42c0.855-0.221,1.454-0.99,1.457-1.873C13.624,19.758,13.118,19.057,12.37,18.807z"/>
		</g>
	</g>
	<g>
		<g>
			<path fill="#FFFFFF" d="M29.162,11.32h-9.815c-1.027-1.265-2.317-2.291-3.781-3.005V6.221l1.748-1.312
				c0.123-0.092,0.194-0.236,0.194-0.388v-3.4c0-0.267-0.218-0.485-0.485-0.485H15.08c-0.129,0-0.252,0.051-0.344,0.143
				l-0.627,0.628l-0.627-0.628c-0.092-0.091-0.215-0.143-0.344-0.143h-2.914c-0.129,0-0.252,0.051-0.343,0.143L9.252,1.407
				L8.625,0.779C8.534,0.688,8.41,0.636,8.281,0.636H6.339c-0.269,0-0.485,0.218-0.485,0.485v3.4c0,0.152,0.072,0.296,0.194,0.388
				l1.749,1.312V8.32C4.119,10.1,0.511,14.878,0.511,21.006c0,5.572,4.071,8.768,11.169,8.768c1.153,0.004,2.302-0.098,3.436-0.305
				c0.074,0.184,0.251,0.305,0.45,0.305h13.596c0.27,0,0.486-0.217,0.486-0.484V11.805C29.648,11.538,29.432,11.32,29.162,11.32z
				 M6.824,4.278V1.607H8.08l0.829,0.829c0.189,0.19,0.497,0.19,0.687,0l0.829-0.829h2.512l0.829,0.829
				c0.19,0.19,0.498,0.19,0.687,0l0.829-0.829h1.256v2.671l-1.619,1.214H8.443L6.824,4.278z M14.594,6.464V7.92H8.768V6.464H14.594z
				 M15.08,23.205c-2.272,1.881-5.64,1.564-7.521-0.707c-1.882-2.273-1.565-5.641,0.707-7.522c1.977-1.637,4.838-1.637,6.814,0
				V23.205L15.08,23.205z M15.08,11.805v1.97c-2.936-1.882-6.84-1.029-8.722,1.907c-1.883,2.935-1.029,6.839,1.905,8.722
				c2.077,1.332,4.74,1.332,6.817,0v4.084c-1.121,0.215-2.259,0.318-3.399,0.314c-3.066,0-10.199-0.76-10.199-7.797
				c0-4.646,2.785-10.427,7.447-12.114h5.507c1.374,0.521,2.608,1.352,3.609,2.428h-2.479C15.297,11.32,15.08,11.538,15.08,11.805z
				 M28.678,28.803H16.051V16.176h12.627V28.803z M28.678,15.205H16.051v-2.915h12.627V15.205z"/>
		</g>
	</g>
	<g>
		<g>
			<path fill="#FFFFFF" d="M19.45,17.146h-1.942c-0.268,0-0.485,0.219-0.485,0.486v1.941c0,0.27,0.218,0.486,0.485,0.486h1.942
				c0.268,0,0.485-0.217,0.485-0.486v-1.941C19.936,17.365,19.718,17.146,19.45,17.146z M18.966,19.09h-0.972v-0.971h0.972V19.09z"
				/>
		</g>
	</g>
	<g>
		<g>
			<path fill="#FFFFFF" d="M23.336,17.146h-1.942c-0.27,0-0.486,0.219-0.486,0.486v1.941c0,0.27,0.217,0.486,0.486,0.486h1.942
				c0.268,0,0.484-0.217,0.484-0.486v-1.941C23.82,17.365,23.604,17.146,23.336,17.146z M22.85,19.09h-0.971v-0.971h0.971V19.09z"/>
		</g>
	</g>
	<g>
		<g>
			<path fill="#FFFFFF" d="M27.222,17.146h-1.943c-0.269,0-0.485,0.219-0.485,0.486v1.941c0,0.27,0.217,0.486,0.485,0.486h1.943
				c0.267,0,0.485-0.217,0.485-0.486v-1.941C27.707,17.365,27.488,17.146,27.222,17.146z M26.734,19.09h-0.971v-0.971h0.971V19.09z"
				/>
		</g>
	</g>
	<g>
		<g>
			<path fill="#FFFFFF" d="M19.45,21.031h-1.942c-0.268,0-0.485,0.219-0.485,0.486v1.943c0,0.268,0.218,0.484,0.485,0.484h1.942
				c0.268,0,0.485-0.217,0.485-0.484v-1.943C19.936,21.25,19.718,21.031,19.45,21.031z M18.966,22.975h-0.972v-0.971h0.972V22.975z"
				/>
		</g>
	</g>
	<g>
		<g>
			<path fill="#FFFFFF" d="M23.336,21.031h-1.942c-0.27,0-0.486,0.219-0.486,0.486v1.943c0,0.268,0.217,0.484,0.486,0.484h1.942
				c0.268,0,0.484-0.217,0.484-0.484v-1.943C23.82,21.25,23.604,21.031,23.336,21.031z M22.85,22.975h-0.971v-0.971h0.971V22.975z"
				/>
		</g>
	</g>
	<g>
		<g>
			<path fill="#FFFFFF" d="M19.45,24.918h-1.942c-0.268,0-0.485,0.217-0.485,0.484v1.943c0,0.268,0.218,0.486,0.485,0.486h1.942
				c0.268,0,0.485-0.219,0.485-0.486v-1.943C19.936,25.135,19.718,24.918,19.45,24.918z M18.966,26.859h-0.972v-0.971h0.972V26.859z
				"/>
		</g>
	</g>
	<g>
		<g>
			<path fill="#FFFFFF" d="M23.336,24.918h-1.942c-0.27,0-0.486,0.217-0.486,0.484v1.943c0,0.268,0.217,0.486,0.486,0.486h1.942
				c0.268,0,0.484-0.219,0.484-0.486v-1.943C23.82,25.135,23.604,24.918,23.336,24.918z M22.85,26.859h-0.971v-0.971h0.971V26.859z"
				/>
		</g>
	</g>
	<g>
		<g>
			<path fill="#FFFFFF" d="M27.222,21.031h-1.943c-0.269,0-0.485,0.219-0.485,0.486v5.828c0,0.268,0.217,0.486,0.485,0.486h1.943
				c0.267,0,0.485-0.219,0.485-0.486v-5.828C27.707,21.25,27.488,21.031,27.222,21.031z M26.734,26.859h-0.971v-4.855h0.971V26.859z
				"/>
		</g>
	</g>
	<g>
		<g>
			<rect x="26.734" y="13.262" fill="#FFFFFF" width="0.973" height="0.972"/>
		</g>
	</g>
	<g>
		<g>
			<rect x="24.793" y="13.262" fill="#FFFFFF" width="0.971" height="0.972"/>
		</g>
	</g>
	<g>
		<g>
			<rect x="22.85" y="13.262" fill="#FFFFFF" width="0.971" height="0.972"/>
		</g>
	</g>
</g>
</svg>
