<?xml version="1.0" encoding="utf-8"?>
<!-- Generator: Adobe Illustrator 16.0.0, SVG Export Plug-In . SVG Version: 6.00 Build 0)  -->
<!DOCTYPE svg PUBLIC "-//W3C//DTD SVG 1.1//EN" "http://www.w3.org/Graphics/SVG/1.1/DTD/svg11.dtd">
<svg version="1.1" id="Layer_1" xmlns="http://www.w3.org/2000/svg" xmlns:xlink="http://www.w3.org/1999/xlink" x="0px" y="0px"
	 width="30px" height="30px" viewBox="0 0 30 30" enable-background="new 0 0 30 30" xml:space="preserve">
<g>
	<g>
		<g>
			<path fill="#FFFFFF" d="M25.338,10.342C25.337,10.342,25.337,10.342,25.338,10.342H0.923c-0.23,0-0.418,0.186-0.418,0.417
				c0,0.001,0,0.001,0,0.001v11.719c0,0.229,0.187,0.418,0.417,0.418h0h16.601c0.232,0,0.419-0.189,0.419-0.418
				c0-0.231-0.187-0.418-0.419-0.418H1.342V11.178h23.576v1.047c0,0.23,0.188,0.418,0.418,0.418h0.001
				c0.231,0,0.417-0.187,0.419-0.417c0,0,0,0,0-0.001V10.76C25.756,10.529,25.569,10.342,25.338,10.342z"/>
		</g>
	</g>
	<g>
		<g>
			<path fill="#FFFFFF" d="M22.5,8.398L2.969,4.004C2.86,3.979,2.747,3.999,2.653,4.058C2.559,4.119,2.492,4.212,2.468,4.321
				L1.492,8.716c-0.051,0.226,0.092,0.449,0.318,0.5c0.226,0.05,0.449-0.092,0.5-0.318l0.885-3.985l19.12,4.302
				c0.032,0.007,0.062,0.01,0.094,0.01c0.23,0,0.417-0.188,0.417-0.418C22.825,8.61,22.69,8.441,22.5,8.398z"/>
		</g>
	</g>
	<g>
		<g>
			<path fill="#FFFFFF" d="M20.128,5.977L8.409,1.095C8.206,1.009,7.971,1.097,7.872,1.294L6.896,3.248
				c-0.11,0.204-0.034,0.458,0.17,0.569c0.204,0.11,0.458,0.034,0.569-0.17C7.639,3.638,7.643,3.63,7.646,3.622v0.001L8.447,2.02
				l11.356,4.731c0.215,0.089,0.46-0.012,0.55-0.225C20.441,6.312,20.342,6.066,20.128,5.977z"/>
		</g>
	</g>
	<g>
		<g>
			<path fill="#FFFFFF" d="M20.424,12.294h-3.876c-0.23,0-0.419,0.187-0.419,0.418s0.188,0.418,0.419,0.418h3.876
				c0.23,0,0.418-0.187,0.418-0.418S20.654,12.294,20.424,12.294z"/>
		</g>
	</g>
	<g>
		<g>
			<path fill="#FFFFFF" d="M12.643,12.322c-2.373,0-4.297,1.924-4.297,4.296c0.001,2.373,1.924,4.295,4.297,4.297
				c2.373,0,4.297-1.924,4.297-4.297C16.939,14.246,15.015,12.322,12.643,12.322z M12.643,20.135c-1.942,0-3.516-1.575-3.516-3.517
				c0.002-1.94,1.575-3.513,3.516-3.515c1.941,0,3.515,1.574,3.515,3.515C16.157,18.56,14.583,20.135,12.643,20.135z"/>
		</g>
	</g>
	<g>
		<g>
			<path fill="#FFFFFF" d="M24.36,13.688c-2.589,0-5.371,0.611-5.371,1.953V27.36c0,1.342,2.782,1.952,5.371,1.952
				c2.587,0,5.371-0.61,5.371-1.952V15.642C29.731,14.3,26.947,13.688,24.36,13.688z M28.755,27.353
				c-0.075,0.271-1.538,0.985-4.395,0.985c-2.857,0-4.322-0.714-4.395-0.978v-0.767c1.038,0.521,2.756,0.767,4.395,0.767
				c1.638,0,3.354-0.247,4.395-0.769V27.353z M28.755,25.399c-0.075,0.271-1.538,0.984-4.395,0.984
				c-2.857,0-4.322-0.713-4.395-0.977v-0.769c1.038,0.524,2.756,0.769,4.395,0.769c1.638,0,3.354-0.244,4.395-0.769V25.399z
				 M28.755,23.447c-0.075,0.271-1.538,0.983-4.395,0.983c-2.857,0-4.322-0.712-4.395-0.977v-0.768
				c1.038,0.523,2.756,0.768,4.395,0.768c1.638,0,3.354-0.246,4.395-0.768V23.447z M28.755,21.494
				c-0.075,0.271-1.538,0.984-4.395,0.984c-2.857,0-4.322-0.713-4.395-0.979v-0.767c1.038,0.522,2.756,0.767,4.395,0.767
				c1.638,0,3.354-0.244,4.395-0.767V21.494z M28.755,19.542c-0.075,0.27-1.538,0.983-4.395,0.983c-2.857,0-4.322-0.714-4.395-0.978
				v-0.767c1.038,0.52,2.756,0.767,4.395,0.767c1.638,0,3.354-0.247,4.395-0.769V19.542z M28.755,17.589
				c-0.075,0.27-1.538,0.984-4.395,0.984c-2.857,0-4.322-0.715-4.395-0.979v-0.769c1.038,0.522,2.756,0.769,4.395,0.769
				c1.638,0,3.354-0.246,4.395-0.769V17.589z M24.36,16.618c-2.853,0-4.316-0.71-4.395-0.967v-0.002
				c0.078-0.272,1.542-0.983,4.395-0.983c2.831,0,4.296,0.7,4.395,0.976C28.656,15.918,27.191,16.618,24.36,16.618z"/>
		</g>
	</g>
	<g>
		<g>
			<path fill="#FFFFFF" d="M8.736,20.105H5.045l-1.75-1.912v-3.175l1.933-1.887h3.508c0.231,0,0.419-0.187,0.419-0.418
				s-0.188-0.418-0.419-0.418H5.057c-0.109,0-0.214,0.042-0.292,0.118L2.584,14.54c-0.082,0.095-0.126,0.216-0.126,0.342v3.472
				c0,0.104,0.039,0.206,0.11,0.283l1.983,2.17c0.079,0.087,0.191,0.135,0.309,0.135h3.875c0.231,0,0.419-0.187,0.419-0.418
				C9.155,20.293,8.967,20.105,8.736,20.105z"/>
		</g>
	</g>
	<g>
		<g>
			<path fill="#FFFFFF" d="M12.886,16.131h-0.488c-0.152,0-0.245-0.086-0.245-0.122c0-0.038,0.093-0.123,0.245-0.123h1.221
				c0.269,0,0.488-0.219,0.488-0.488c0-0.27-0.219-0.488-0.488-0.488H13.13c0-0.27-0.219-0.488-0.488-0.488
				c-0.27,0-0.489,0.218-0.489,0.488v0.022c-0.542,0.076-0.951,0.527-0.976,1.074c0.035,0.64,0.58,1.133,1.22,1.1h0.488
				c0.151,0,0.244,0.087,0.244,0.123c0,0.039-0.093,0.122-0.244,0.122h-1.22c-0.27,0-0.488,0.219-0.488,0.488
				c0,0.271,0.218,0.489,0.488,0.489h0.487c0,0.268,0.219,0.487,0.489,0.487c0.269,0,0.488-0.22,0.488-0.487v-0.022
				c0.542-0.075,0.952-0.528,0.976-1.075C14.072,16.592,13.527,16.1,12.886,16.131z"/>
		</g>
	</g>
</g>
</svg>
