<?xml version="1.0" encoding="utf-8"?>
<!-- Generator: Adobe Illustrator 16.0.0, SVG Export Plug-In . SVG Version: 6.00 Build 0)  -->
<!DOCTYPE svg PUBLIC "-//W3C//DTD SVG 1.1//EN" "http://www.w3.org/Graphics/SVG/1.1/DTD/svg11.dtd">
<svg version="1.1" id="Layer_1" xmlns="http://www.w3.org/2000/svg" xmlns:xlink="http://www.w3.org/1999/xlink" x="0px" y="0px"
	 width="100px" height="34px" viewBox="0 0 100 34" enable-background="new 0 0 100 34" xml:space="preserve">
<g>
	<g>
		<path fill="#EFA884" d="M13.575,17.338c-0.475-4.333,4.067-7.811,10.146-7.763c6.079,0.044,11.398,3.597,11.876,7.933
			c0.476,4.336-4.064,7.8-10.149,7.76C19.367,25.227,14.053,21.675,13.575,17.338 M36.727,18.682
			c-0.554-5.369-6.669-9.775-13.669-9.833c-6.997-0.059-12.235,4.254-11.671,9.629c0.543,5.377,6.665,9.774,13.66,9.836
			C32.047,28.376,37.275,24.063,36.727,18.682"/>
		<path fill="#EC7B4B" d="M26.163,28.428c-3.448,3.599-8.982,3.896-12.358,0.657c-3.383-3.232-3.325-8.771,0.129-12.368
			c3.444-3.609,8.981-3.903,12.357-0.669C29.667,19.281,29.612,24.819,26.163,28.428 M13.391,16.599
			c-4.01,4.184-4.07,10.632-0.147,14.39c3.92,3.754,10.354,3.406,14.365-0.777c4.002-4.178,4.072-10.623,0.147-14.387
			C23.829,12.069,17.398,12.412,13.391,16.599"/>
		<path fill="#E95831" d="M13.754,3.121c7.17-2.691,14.262,0.032,15.835,6.073c1.574,6.039-2.958,13.108-10.129,15.796
			c-7.17,2.699-14.259-0.034-15.834-6.066C2.048,12.885,6.581,5.808,13.754,3.121 M7.097,5.427
			c-7.44,5.891-9.333,14.424-4.23,19.059c5.106,4.636,15.271,3.633,22.709-2.262C33.013,16.33,34.908,7.797,29.8,3.159
			C24.7-1.479,14.531-0.465,7.097,5.427"/>
	</g>
	<polygon points="98.252,10.215 98.252,11.963 96.395,11.963 96.395,13.254 98.252,13.254 98.252,14.05 96.395,14.05 96.395,15.35 
		98.252,15.35 98.252,17.351 100.185,17.351 100.185,10.215 	"/>
	<path d="M94.813,10.35c0,0-6.454,0-6.572,0c0,0.076,0,4.424,0,4.424c-0.005,0.224,0.147,2.183,2.485,2.183c0,0,4.987,0,5.103,0
		c0-0.082,0-5.698,0-5.698C95.837,11.039,95.828,10.35,94.813,10.35 M90.083,11.717h3.899v3.874h-3.106l0,0
		c-0.646,0-0.793-0.549-0.793-0.833V11.717z"/>
	<path d="M81.24,17.426c-2.282,0-4.134,1.549-4.134,3.459s1.852,3.464,4.134,3.464c2.286,0,4.141-1.554,4.141-3.464
		S83.526,17.426,81.24,17.426 M81.237,22.983c-1.268,0-2.287-0.886-2.287-2.106c0-1.227,1.02-2.113,2.287-2.113
		c1.265,0,2.289,0.887,2.289,2.113C83.526,22.098,82.502,22.983,81.237,22.983z"/>
	<polygon points="83.819,10.215 83.819,12.873 82.893,12.873 82.893,10.215 81.341,10.215 81.341,17.209 82.893,17.209 
		82.893,14.287 83.819,14.287 83.819,17.209 85.381,17.209 85.381,10.215 	"/>
	<path d="M77.737,13.377c-0.057-0.164-0.132-0.34-0.149-0.534c-0.13-0.927,0-2.5,0-2.5h-1.945c0,0,0.103,1.75-0.01,2.418
		c-0.037,0.217-0.096,0.422-0.157,0.616c-0.305,0.945-1.361,2.394-2.806,2.464v1.356c2.482-0.023,3.744-1.854,3.936-2.277
		c0.192,0.422,1.452,2.265,3.937,2.289v-1.368C79.096,15.771,78.043,14.322,77.737,13.377z"/>
	<path d="M96.048,17.426c-2.286,0-4.137,1.549-4.137,3.459s1.851,3.464,4.137,3.464c2.282,0,4.137-1.554,4.137-3.464
		S98.33,17.426,96.048,17.426 M96.045,22.983c-1.268,0-2.297-0.886-2.297-2.106c0-1.227,1.029-2.113,2.297-2.113
		c1.259,0,2.285,0.887,2.285,2.113C98.33,22.098,97.304,22.983,96.045,22.983z"/>
	<g>
		<path d="M56.322,14.886c0-0.112,0-1.365,0-1.479c-0.116,0-1.971,0-1.971,0v-3.192c-0.115,0-1.817,0-1.931,0c0,0.135,0,9.3,0,9.424
			c0.113,0,1.815,0,1.931,0c0-0.124,0-4.753,0-4.753H56.322z"/>
		<path d="M54.352,22.374c-0.124,0-7.25,0-7.25,0c-0.415,0-0.704-0.136-0.921-0.392c-0.283-0.313-0.318-0.72-0.314-1.217v-1.411
			h-1.934v2.168c-0.002,0.58,0.142,2.312,2.6,2.326c0,0,7.695,0,7.819,0V22.374z"/>
		<rect x="44.015" y="9.593" width="4.407" height="1.25"/>
		<path d="M46.263,12.926c-2.175,0-3.668,1.262-3.668,2.816c0,1.364,1.488,2.812,3.668,2.812c2.221,0,3.664-1.485,3.664-2.812
			C49.927,14.188,48.503,12.926,46.263,12.926 M46.248,17.351c-1.018,0-1.825-0.746-1.822-1.662c0.003-0.921,0.819-1.566,1.84-1.566
			c1.015,0,1.833,0.661,1.83,1.576C48.093,16.619,47.263,17.356,46.248,17.351z"/>
		<path d="M50.557,11.286h-8.578c0,0.076,0,1.208,0,1.208h8.578C50.557,12.494,50.557,11.388,50.557,11.286z"/>
	</g>
	<g>
		<path fill-rule="evenodd" clip-rule="evenodd" d="M71.562,14.933H69.59v-4.776h-1.942v8.51c0,0.923-0.408,1.522-0.792,1.794
			c-0.698,0.476-2.142,0.476-2.142,0.476h-2.206v-2.324h-1.925v2.324h-3.48v1.502h7.688c0.046,0,2.112,0,2.808-0.801
			c0.026-0.024,0.05-0.05,0.07-0.074v2.753h1.922v-7.831h1.972V14.933z"/>
		<g>
			<rect x="59.219" y="9.522" width="4.414" height="1.271"/>
		</g>
		<g>
			<rect x="57.176" y="11.271" width="8.617" height="1.25"/>
		</g>
		<path fill-rule="evenodd" clip-rule="evenodd" d="M61.475,12.984h-0.023v1.25h0.023c1.009,0,1.825,0.674,1.825,1.625
			c0,0.974-0.816,1.725-1.849,1.751v1.252h0.023c2.207,0,3.676-1.578,3.676-2.954C65.15,14.287,63.704,12.984,61.475,12.984
			 M61.451,12.984c-2.163,0-3.65,1.302-3.65,2.925c0,1.429,1.487,2.954,3.65,2.954v-1.252c-1.009-0.026-1.849-0.801-1.825-1.751
			c0-0.951,0.816-1.625,1.825-1.625V12.984z"/>
	</g>
</g>
</svg>
