<?xml version="1.0" encoding="utf-8"?>
<!-- Generator: Adobe Illustrator 16.0.0, SVG Export Plug-In . SVG Version: 6.00 Build 0)  -->
<!DOCTYPE svg PUBLIC "-//W3C//DTD SVG 1.1//EN" "http://www.w3.org/Graphics/SVG/1.1/DTD/svg11.dtd">
<svg version="1.1" id="Layer_1" xmlns="http://www.w3.org/2000/svg" xmlns:xlink="http://www.w3.org/1999/xlink" x="0px" y="0px"
	 width="30px" height="30px" viewBox="0 0 30 30" enable-background="new 0 0 30 30" xml:space="preserve">
<g>
	<path fill="#FFFFFF" d="M15,13.455c1.933,0,3.506-1.573,3.506-3.506c0-1.934-1.573-3.506-3.506-3.506
		c-1.933,0-3.506,1.573-3.506,3.506C11.494,11.882,13.067,13.455,15,13.455z M15,7.945c1.105,0,2.005,0.899,2.005,2.004
		c0,1.105-0.899,2.004-2.005,2.004s-2.005-0.899-2.005-2.004C12.995,8.844,13.895,7.945,15,7.945z"/>
	<path fill="#FFFFFF" d="M14.918,26.882l7.279-10.513c2.723-3.631,2.328-9.599-0.845-12.771c-1.719-1.718-4.003-2.665-6.435-2.665
		c-2.429,0-4.714,0.947-6.432,2.665c-3.173,3.173-3.573,9.135-0.862,12.748L14.918,26.882z M14.918,2.434
		c2.028,0,3.937,0.79,5.372,2.225c2.684,2.683,3.008,7.741,0.688,10.833l-6.061,8.752l-6.076-8.775
		c-2.307-3.075-1.978-8.127,0.705-10.81C10.982,3.224,12.89,2.434,14.918,2.434z"/>
	<path fill="#FFFFFF" d="M20.6,20.684l-0.092-0.004c-0.378,0-0.699,0.284-0.742,0.662c-0.048,0.411,0.246,0.786,0.658,0.834
		c5.018,0.591,7.143,2.169,7.143,2.697c0,0.916-4.436,2.693-12.566,2.693S2.433,25.789,2.433,24.873
		c0-0.528,2.125-2.106,7.144-2.697c0.411-0.048,0.706-0.423,0.658-0.834c-0.044-0.378-0.364-0.662-0.742-0.662l-0.092,0.004
		c-5.066,0.597-8.469,2.28-8.469,4.189c0,2.471,5.785,4.195,14.068,4.195s14.068-1.725,14.068-4.195
		C29.068,22.964,25.665,21.28,20.6,20.684z"/>
</g>
</svg>
