<?xml version="1.0" encoding="utf-8"?>
<!-- Generator: Adobe Illustrator 16.0.0, SVG Export Plug-In . SVG Version: 6.00 Build 0)  -->
<!DOCTYPE svg PUBLIC "-//W3C//DTD SVG 1.1//EN" "http://www.w3.org/Graphics/SVG/1.1/DTD/svg11.dtd">
<svg version="1.1" id="Layer_1" xmlns="http://www.w3.org/2000/svg" xmlns:xlink="http://www.w3.org/1999/xlink" x="0px" y="0px"
	 width="30px" height="30px" viewBox="0 0 30 30" enable-background="new 0 0 30 30" xml:space="preserve">
<g transform="translate(1 1)">
	<g>
		<g>
			<path fill="#FFFFFF" d="M14.956,19.021h7.677c0.288,0,0.479-0.191,0.479-0.479v-4.318c0-0.288-0.191-0.479-0.479-0.479h-7.677
				c-0.289,0-0.48,0.192-0.48,0.479v4.318C14.476,18.829,14.667,19.021,14.956,19.021z M15.436,14.703h6.717v3.359h-6.717V14.703z"
				/>
			<path fill="#FFFFFF" d="M2,12.783h3.838c0.288,0,0.48-0.192,0.48-0.479s-0.193-0.48-0.48-0.48H2c-0.289,0-0.48,0.192-0.48,0.48
				S1.712,12.783,2,12.783z"/>
			<path fill="#FFFFFF" d="M7.758,12.783h3.838c0.288,0,0.48-0.192,0.48-0.479s-0.192-0.48-0.48-0.48H7.758
				c-0.288,0-0.48,0.192-0.48,0.48S7.47,12.783,7.758,12.783z"/>
			<path fill="#FFFFFF" d="M2,14.703h6.237c0.288,0,0.48-0.192,0.48-0.48c0-0.288-0.192-0.479-0.48-0.479H2
				c-0.289,0-0.48,0.192-0.48,0.479C1.52,14.511,1.712,14.703,2,14.703z"/>
			<path fill="#FFFFFF" d="M11.597,13.743h-1.439c-0.289,0-0.48,0.192-0.48,0.479c0,0.288,0.191,0.48,0.48,0.48h1.439
				c0.288,0,0.479-0.192,0.479-0.48C12.076,13.935,11.884,13.743,11.597,13.743z"/>
			<path fill="#FFFFFF" d="M27.958,7.793c-0.335-0.432-0.768-0.671-1.295-0.72l-1.152-0.139V5.586v-0.96
				c0-1.055-0.863-1.918-1.918-1.918H1.52c-1.055,0-1.919,0.863-1.919,1.918v0.96v3.839V19.98c0,0.867,0.583,1.604,1.375,1.84
				c-0.023,0.971,0.711,1.813,1.696,1.902l22.168,2.495c0.047,0,0.144,0,0.191,0c0.96,0,1.823-0.719,1.919-1.63l1.44-15.402
				C28.438,8.705,28.294,8.177,27.958,7.793z M0.562,6.065h23.99v1.248v1.631H0.562V6.065z M1.52,3.667h22.073
				c0.526,0,0.959,0.431,0.959,0.958v0.48H0.562v-0.48C0.562,4.098,0.993,3.667,1.52,3.667z M0.562,19.98V9.905h23.99V19.98
				c0,0.528-0.433,0.961-0.959,0.961H1.568H1.52C0.993,20.941,0.562,20.509,0.562,19.98z M27.431,8.993l-1.439,15.403
				c-0.048,0.528-0.528,0.912-1.056,0.864l-22.12-2.495C2.336,22.716,2,22.332,1.952,21.899h21.641c1.055,0,1.918-0.863,1.918-1.919
				V9.425V7.841l1.104,0.097c0.24,0,0.48,0.144,0.624,0.336C27.382,8.465,27.479,8.753,27.431,8.993z"/>
		</g>
	</g>
</g>
</svg>
