<?xml version="1.0" encoding="utf-8"?>
<!-- Generator: Adobe Illustrator 16.0.0, SVG Export Plug-In . SVG Version: 6.00 Build 0)  -->
<!DOCTYPE svg PUBLIC "-//W3C//DTD SVG 1.1//EN" "http://www.w3.org/Graphics/SVG/1.1/DTD/svg11.dtd">
<svg version="1.1" id="Layer_1" xmlns="http://www.w3.org/2000/svg" xmlns:xlink="http://www.w3.org/1999/xlink" x="0px" y="0px"
	 width="30px" height="30px" viewBox="0 0 30 30" enable-background="new 0 0 30 30" xml:space="preserve">
<g>
	<g>
		<g>
			<path fill="#FFFFFF" d="M26.656,12.774c0.255-0.378,0.404-0.833,0.404-1.323V11c0-1.307-1.065-2.371-2.372-2.371
				c-0.652,0-1.244,0.265-1.673,0.692c-1.111-3.302-4.236-5.688-7.909-5.688c-3.671,0-6.797,2.386-7.907,5.688
				C6.771,8.894,6.179,8.628,5.526,8.628c-1.307,0-2.372,1.064-2.372,2.371v0.452c0,0.489,0.149,0.945,0.404,1.323
				c-1.641,0.346-2.878,1.805-2.878,3.547v1.136c0,0.311,0.253,0.563,0.563,0.563h2.931c0.311,0,0.563-0.253,0.563-0.563
				c0-0.313-0.252-0.564-0.563-0.564H1.809v-0.571c0-1.377,1.121-2.498,2.499-2.498h2.667c0.216,0.951,0.596,1.841,1.107,2.638
				l-6.43,6.431c-0.823,0.823-0.823,2.164,0,2.986c0.412,0.412,0.952,0.618,1.493,0.618c0.541,0,1.081-0.206,1.493-0.618
				l3.545-3.545c0.22-0.22,0.22-0.577,0-0.797c-0.221-0.22-0.577-0.22-0.797,0l-3.545,3.545c-0.384,0.383-1.008,0.383-1.393,0
				c-0.384-0.385-0.384-1.008,0-1.393l6.312-6.312c1.531,1.795,3.808,2.937,6.347,2.937c3.964,0,7.29-2.778,8.134-6.49h2.667
				c1.377,0,2.499,1.121,2.499,2.498v0.571h-5.298c-0.312,0-0.563,0.252-0.563,0.564c0,0.311,0.252,0.563,0.563,0.563h5.86
				c0.312,0,0.563-0.253,0.563-0.563v-1.136C29.533,14.579,28.297,13.12,26.656,12.774z M6.771,11.452
				c0,0.686-0.558,1.244-1.244,1.244s-1.244-0.559-1.244-1.244V11c0-0.686,0.558-1.244,1.244-1.244S6.771,10.313,6.771,11V11.452z
				 M15.107,19.186c-3.977,0-7.212-3.235-7.212-7.213S11.13,4.76,15.107,4.76s7.214,3.235,7.214,7.212S19.084,19.186,15.107,19.186z
				 M25.933,11.452c0,0.686-0.559,1.244-1.244,1.244c-0.687,0-1.245-0.559-1.245-1.244V11c0-0.686,0.559-1.244,1.245-1.244
				c0.686,0,1.244,0.558,1.244,1.244V11.452z"/>
		</g>
	</g>
	<g>
		<g>
			<path fill="#FFFFFF" d="M15.107,5.887c-3.355,0-6.085,2.73-6.085,6.086c0,1.742,0.735,3.315,1.913,4.426
				c0.02,0.021,0.042,0.042,0.065,0.061c1.083,0.992,2.526,1.6,4.108,1.6c1.583,0,3.025-0.607,4.109-1.6
				c0.023-0.019,0.044-0.039,0.065-0.061c1.177-1.111,1.911-2.684,1.911-4.426C21.192,8.617,18.463,5.887,15.107,5.887z
				 M15.107,16.932c-1.158,0-2.225-0.4-3.07-1.068c0.599-1.132,1.765-1.846,3.07-1.846c1.306,0,2.472,0.713,3.072,1.846
				C17.333,16.531,16.266,16.932,15.107,16.932z M13.92,11.704v-0.438c0-0.654,0.533-1.188,1.187-1.188
				c0.655,0,1.188,0.533,1.188,1.188v0.438c0,0.655-0.533,1.188-1.188,1.188C14.453,12.891,13.92,12.358,13.92,11.704z
				 M19.003,15.039c-0.517-0.824-1.272-1.453-2.156-1.811c0.357-0.407,0.575-0.941,0.575-1.524v-0.438
				c0-1.275-1.038-2.314-2.315-2.314c-1.276,0-2.314,1.039-2.314,2.314v0.438c0,0.583,0.217,1.117,0.575,1.524
				c-0.884,0.358-1.64,0.986-2.156,1.811c-0.667-0.845-1.064-1.91-1.064-3.066c0-2.734,2.225-4.958,4.958-4.958
				c2.735,0,4.959,2.225,4.959,4.958C20.066,13.129,19.668,14.194,19.003,15.039z"/>
		</g>
	</g>
	<g>
		<g>
			<path fill="#FFFFFF" d="M9.69,20.028c-0.105-0.104-0.25-0.164-0.398-0.164s-0.293,0.06-0.399,0.164
				c-0.104,0.105-0.165,0.251-0.165,0.398c0,0.149,0.06,0.294,0.165,0.398c0.105,0.105,0.25,0.166,0.399,0.166
				s0.293-0.061,0.398-0.166c0.104-0.104,0.165-0.249,0.165-0.398C9.855,20.279,9.795,20.134,9.69,20.028z"/>
		</g>
	</g>
</g>
</svg>
