<?xml version="1.0" encoding="utf-8"?>
<!-- Generator: Adobe Illustrator 19.0.0, SVG Export Plug-In . SVG Version: 6.00 Build 0)  -->
<svg version="1.1" id="Layer_1" xmlns="http://www.w3.org/2000/svg" xmlns:xlink="http://www.w3.org/1999/xlink" x="0px" y="0px"
	 viewBox="-370 281.3 100 34" style="enable-background:new -370 281.3 100 34;" xml:space="preserve">
<style type="text/css">
	.st0{fill:#EFA884;}
	.st1{fill:#EC7B4B;}
	.st2{fill:#E95831;}
	.st3{fill:#FFFFFF;}
</style>
<g>
	<g>
		<path class="st0" d="M-356.4,298.6c-0.5-4.3,4.1-7.8,10.1-7.8c6.1,0,11.4,3.6,11.9,7.9c0.5,4.3-4.1,7.8-10.1,7.8
			C-350.6,306.5-355.9,303-356.4,298.6 M-333.3,300c-0.6-5.4-6.7-9.8-13.7-9.8c-7-0.1-12.2,4.3-11.7,9.6c0.5,5.4,6.7,9.8,13.7,9.8
			C-338,309.7-332.7,305.3-333.3,300"/>
		<path class="st1" d="M-343.8,309.7c-3.4,3.6-9,3.9-12.4,0.7c-3.4-3.2-3.3-8.8,0.1-12.4c3.4-3.6,9-3.9,12.4-0.7
			C-340.3,300.6-340.4,306.1-343.8,309.7 M-356.6,297.9c-4,4.2-4.1,10.6-0.1,14.4c3.9,3.8,10.4,3.4,14.4-0.8
			c4-4.2,4.1-10.6,0.1-14.4C-346.2,293.3-352.6,293.7-356.6,297.9"/>
		<path class="st2" d="M-356.2,284.4c7.2-2.7,14.3,0,15.8,6.1c1.6,6-3,13.1-10.1,15.8c-7.2,2.7-14.3,0-15.8-6.1
			C-368,294.2-363.4,287.1-356.2,284.4 M-362.9,286.7c-7.4,5.9-9.3,14.4-4.2,19.1c5.1,4.6,15.3,3.6,22.7-2.3
			c7.4-5.9,9.3-14.4,4.2-19.1C-345.3,279.8-355.5,280.8-362.9,286.7"/>
	</g>
	<polygon class="st3" points="-271.7,291.5 -271.7,293.2 -273.6,293.2 -273.6,294.5 -271.7,294.5 -271.7,295.3 -273.6,295.3 
		-273.6,296.6 -271.7,296.6 -271.7,298.6 -269.8,298.6 -269.8,291.5 	"/>
	<path class="st3" d="M-275.2,291.6c0,0-6.5,0-6.6,0c0,0.1,0,4.4,0,4.4c0,0.2,0.1,2.2,2.5,2.2c0,0,5,0,5.1,0c0-0.1,0-5.7,0-5.7
		C-274.2,292.3-274.2,291.6-275.2,291.6 M-279.9,293h3.9v3.9h-3.1l0,0c-0.6,0-0.8-0.5-0.8-0.8V293z"/>
	<path class="st3" d="M-288.8,298.7c-2.3,0-4.1,1.5-4.1,3.5s1.9,3.5,4.1,3.5c2.3,0,4.1-1.6,4.1-3.5S-286.5,298.7-288.8,298.7
		 M-288.8,304.3c-1.3,0-2.3-0.9-2.3-2.1c0-1.2,1-2.1,2.3-2.1c1.3,0,2.3,0.9,2.3,2.1C-286.5,303.4-287.5,304.3-288.8,304.3z"/>
	<polygon class="st3" points="-286.2,291.5 -286.2,294.2 -287.1,294.2 -287.1,291.5 -288.7,291.5 -288.7,298.5 -287.1,298.5 
		-287.1,295.6 -286.2,295.6 -286.2,298.5 -284.6,298.5 -284.6,291.5 	"/>
	<path class="st3" d="M-292.3,294.7c-0.1-0.2-0.1-0.3-0.1-0.5c-0.1-0.9,0-2.5,0-2.5h-1.9c0,0,0.1,1.8,0,2.4c0,0.2-0.1,0.4-0.2,0.6
		c-0.3,0.9-1.4,2.4-2.8,2.5v1.4c2.5,0,3.7-1.9,3.9-2.3c0.2,0.4,1.5,2.3,3.9,2.3v-1.4C-290.9,297.1-292,295.6-292.3,294.7z"/>
	<path class="st3" d="M-274,298.7c-2.3,0-4.1,1.5-4.1,3.5s1.9,3.5,4.1,3.5c2.3,0,4.1-1.6,4.1-3.5S-271.7,298.7-274,298.7
		 M-274,304.3c-1.3,0-2.3-0.9-2.3-2.1c0-1.2,1-2.1,2.3-2.1c1.3,0,2.3,0.9,2.3,2.1C-271.7,303.4-272.7,304.3-274,304.3z"/>
	<g>
		<path class="st3" d="M-313.7,296.2c0-0.1,0-1.4,0-1.5c-0.1,0-2,0-2,0v-3.2c-0.1,0-1.8,0-1.9,0c0,0.1,0,9.3,0,9.4
			c0.1,0,1.8,0,1.9,0c0-0.1,0-4.8,0-4.8H-313.7z"/>
		<path class="st3" d="M-315.6,303.7c-0.1,0-7.3,0-7.3,0c-0.4,0-0.7-0.1-0.9-0.4c-0.3-0.3-0.3-0.7-0.3-1.2v-1.4h-1.9v2.2
			c0,0.6,0.1,2.3,2.6,2.3c0,0,7.7,0,7.8,0C-315.6,305.1-315.6,303.7-315.6,303.7z"/>
		<rect x="-326" y="290.9" class="st3" width="4.4" height="1.3"/>
		<path class="st3" d="M-323.7,294.2c-2.2,0-3.7,1.3-3.7,2.8c0,1.4,1.5,2.8,3.7,2.8c2.2,0,3.7-1.5,3.7-2.8
			C-320.1,295.5-321.5,294.2-323.7,294.2 M-323.8,298.6c-1,0-1.8-0.7-1.8-1.7c0-0.9,0.8-1.6,1.8-1.6c1,0,1.8,0.7,1.8,1.6
			C-321.9,297.9-322.7,298.6-323.8,298.6z"/>
		<path class="st3" d="M-319.4,292.6h-8.6c0,0.1,0,1.2,0,1.2h8.6C-319.4,293.8-319.4,292.7-319.4,292.6z"/>
	</g>
	<g>
		<path class="st3" d="M-298.4,296.2h-2v-4.8h-1.9v8.5c0,0.9-0.4,1.5-0.8,1.8c-0.7,0.5-2.1,0.5-2.1,0.5h-2.2v-2.3h-1.9v2.3h-3.5v1.5
			h7.7c0,0,2.1,0,2.8-0.8c0,0,0,0,0.1-0.1v2.8h1.9v-7.8h2L-298.4,296.2L-298.4,296.2z"/>
		<g>
			<rect x="-310.8" y="290.8" class="st3" width="4.4" height="1.3"/>
		</g>
		<g>
			<rect x="-312.8" y="292.6" class="st3" width="8.6" height="1.3"/>
		</g>
		<path class="st3" d="M-308.5,294.3L-308.5,294.3l0,1.3h0c1,0,1.8,0.7,1.8,1.6c0,1-0.8,1.7-1.8,1.8v1.3h0c2.2,0,3.7-1.6,3.7-3
			C-304.9,295.6-306.3,294.3-308.5,294.3 M-308.5,294.3c-2.2,0-3.6,1.3-3.6,2.9c0,1.4,1.5,3,3.6,3v-1.3c-1,0-1.8-0.8-1.8-1.8
			c0-1,0.8-1.6,1.8-1.6V294.3z"/>
	</g>
</g>
</svg>
