<?xml version="1.0" encoding="iso-8859-1"?>
<!-- Generator: Adobe Illustrator 19.0.0, SVG Export Plug-In . SVG Version: 6.00 Build 0)  -->
<svg version="1.1" id="Capa_1" xmlns="http://www.w3.org/2000/svg" xmlns:xlink="http://www.w3.org/1999/xlink" x="0px" y="0px"
	 viewBox="0 0 472.612 472.612" style="enable-background:new 0 0 472.612 472.612;" xml:space="preserve">
<g>
	<g>
		<path d="M349.536,0c-26.241,0-47.589,21.349-47.589,47.589v55.838c-7.845-5.697-17.482-9.069-27.897-9.069
			c-20.211,0-37.507,12.669-44.395,30.478c-8.347-7.222-19.213-11.607-31.092-11.607c-20.211,0-37.507,12.669-44.395,30.478
			c-8.347-7.222-19.214-11.607-31.092-11.607c-26.241,0-47.589,21.349-47.589,47.589v37.744v18.872v75.487
			c0,88.676,72.143,160.819,160.819,160.819s160.819-72.143,160.819-160.819v-94.359V47.589C397.125,21.349,375.777,0,349.536,0z
			 M246.152,160.819v-18.872c0-15.383,12.514-27.897,27.897-27.897s27.897,12.514,27.897,27.897v18.872v9.026h-55.794V160.819z
			 M170.666,179.691v-18.872c0-15.383,12.514-27.897,27.897-27.897s27.897,12.514,27.897,27.897v9.026h-18.462
			c-15.835,0-28.717,12.883-28.717,28.718c0,18.222,7.376,34.75,19.293,46.768c-0.004,0-0.007,0-0.011,0
			c-15.383,0-27.897-12.514-27.897-27.897V179.691z M95.179,217.435v-37.744c0-15.383,12.514-27.897,27.897-27.897
			s27.897,12.514,27.897,27.897v37.744v18.872c0,15.382-12.514,27.897-27.897,27.897s-27.897-12.514-27.897-27.897V217.435z
			 M377.433,311.793c0,77.817-63.31,141.127-141.127,141.127S95.179,389.611,95.179,311.793v-36.967
			c7.845,5.697,17.482,9.069,27.897,9.069c20.211,0,37.507-12.669,44.395-30.478c8.347,7.222,19.214,11.607,31.092,11.607
			c7.529,0,14.858-1.777,21.5-5.166c7.905,3.324,16.581,5.166,25.679,5.166h5.153c-26.217,18.943-43.306,49.768-43.306,84.512
			v18.872c0,5.438,4.409,9.846,9.846,9.846s9.846-4.409,9.846-9.846v-18.872c0-46.6,37.912-84.512,84.512-84.512
			c5.438,0,9.846-4.409,9.846-9.846c0-5.438-4.409-9.846-9.846-9.846h-66.051c-7.428,0-14.452-1.748-20.695-4.843
			c-0.567-0.373-1.167-0.685-1.79-0.932c-14.461-7.964-24.283-23.351-24.283-40.994c0-4.977,4.049-9.025,9.025-9.025h141.538
			c15.383,0,27.897,12.514,27.897,27.897V311.793z M377.433,178.914c-7.845-5.697-17.482-9.069-27.897-9.069h-27.897v-9.026v-18.872
			V47.589c0-15.383,12.514-27.897,27.897-27.897s27.897,12.514,27.897,27.897V178.914z"/>
	</g>
</g>
<g>
</g>
<g>
</g>
<g>
</g>
<g>
</g>
<g>
</g>
<g>
</g>
<g>
</g>
<g>
</g>
<g>
</g>
<g>
</g>
<g>
</g>
<g>
</g>
<g>
</g>
<g>
</g>
<g>
</g>
</svg>
