<?xml version="1.0" encoding="utf-8"?>
<!-- Generator: Adobe Illustrator 16.0.0, SVG Export Plug-In . SVG Version: 6.00 Build 0)  -->
<!DOCTYPE svg PUBLIC "-//W3C//DTD SVG 1.1//EN" "http://www.w3.org/Graphics/SVG/1.1/DTD/svg11.dtd">
<svg version="1.1" id="Capa_1" xmlns="http://www.w3.org/2000/svg" xmlns:xlink="http://www.w3.org/1999/xlink" x="0px" y="0px"
	 width="34px" height="34px" viewBox="33 0 34 34" enable-background="new 33 0 34 34" xml:space="preserve">
<g>
	<g>
		<g>
			<path d="M57.123,0H42.876C37.431,0,33,4.431,33,9.876v14.247C33,29.569,37.431,34,42.876,34h14.247
				C62.569,34,67,29.569,67,24.123V9.876C67,4.431,62.569,0,57.123,0z M64.344,24.123c0,3.982-3.238,7.221-7.221,7.221H42.876
				c-3.981,0-7.22-3.238-7.22-7.221V9.876c0-3.981,3.239-7.22,7.22-7.22h14.247c3.982,0,7.221,3.239,7.221,7.22V24.123z"/>
		</g>
	</g>
	<g>
		<g>
			<path d="M50,7.836c-5.053,0-9.164,4.111-9.164,9.164c0,5.053,4.111,9.164,9.164,9.164c5.053,0,9.164-4.111,9.164-9.164
				C59.164,11.947,55.053,7.836,50,7.836z M50,23.508c-3.588,0-6.508-2.92-6.508-6.508c0-3.588,2.919-6.508,6.508-6.508
				c3.588,0,6.508,2.919,6.508,6.508C56.508,20.588,53.588,23.508,50,23.508z"/>
		</g>
	</g>
	<g>
		<g>
			<circle cx="59.297" cy="7.703" r="1.328"/>
		</g>
	</g>
</g>
</svg>
