<?xml version="1.0" encoding="utf-8"?>
<!-- Generator: Adobe Illustrator 16.0.0, SVG Export Plug-In . SVG Version: 6.00 Build 0)  -->
<!DOCTYPE svg PUBLIC "-//W3C//DTD SVG 1.1//EN" "http://www.w3.org/Graphics/SVG/1.1/DTD/svg11.dtd">
<svg version="1.1" id="Layer_1" xmlns="http://www.w3.org/2000/svg" xmlns:xlink="http://www.w3.org/1999/xlink" x="0px" y="0px"
	 width="77.167px" height="64.594px" viewBox="0 0 77.167 64.594" enable-background="new 0 0 77.167 64.594" xml:space="preserve">
<line fill="none" stroke="#F15B22" stroke-width="4" stroke-miterlimit="10" x1="1.717" y1="62.188" x2="69.842" y2="62.188"/>
<rect x="24.03" y="36.313" fill="none" stroke="#F15B22" stroke-width="2" stroke-miterlimit="10" width="23.5" height="14.125"/>
<rect x="27.874" y="25.563" fill="none" stroke="#F15B22" stroke-width="2" stroke-miterlimit="10" width="15.813" height="10.75"/>
<rect x="30.28" y="19.688" fill="none" stroke="#F15B22" stroke-width="2" stroke-miterlimit="10" width="11" height="5.875"/>
<rect x="32.53" y="11.625" fill="none" stroke="#F15B22" stroke-width="2" stroke-miterlimit="10" width="6.5" height="8.063"/>
<line fill="none" stroke="#F15B22" stroke-width="2" stroke-miterlimit="10" x1="35.78" y1="0" x2="35.78" y2="11.313"/>
<g>
	<path fill="#F15B22" d="M31.045,43.531c0,0.949-0.77,1.719-1.719,1.719l0,0c-0.949,0-1.719-0.77-1.719-1.719v-0.313
		c0-0.949,0.77-1.719,1.719-1.719l0,0c0.949,0,1.719,0.77,1.719,1.719V43.531z"/>
	<path fill="#F15B22" d="M37.452,43.531c0,0.949-0.77,1.719-1.719,1.719l0,0c-0.949,0-1.719-0.77-1.719-1.719v-0.313
		c0-0.949,0.77-1.719,1.719-1.719l0,0c0.949,0,1.719,0.77,1.719,1.719V43.531z"/>
	<path fill="#F15B22" d="M43.952,43.531c0,0.949-0.77,1.719-1.719,1.719l0,0c-0.949,0-1.719-0.77-1.719-1.719v-0.313
		c0-0.949,0.77-1.719,1.719-1.719l0,0c0.949,0,1.719,0.77,1.719,1.719V43.531z"/>
</g>
<g>
	<g>
		<line fill="none" stroke="#F15B22" stroke-width="2" stroke-miterlimit="10" x1="30.608" y1="50.438" x2="30.608" y2="62.188"/>
		<line fill="none" stroke="#F15B22" stroke-width="2" stroke-miterlimit="10" x1="40.952" y1="50.438" x2="40.952" y2="62.188"/>
	</g>
</g>
<path fill="none" stroke="#F15B22" stroke-width="2" stroke-linecap="round" stroke-linejoin="round" stroke-miterlimit="10" d="
	M71.304,36.162c-0.671,0-1.303,0.167-1.859,0.457c-0.247-1.437-1.492-2.532-2.999-2.532c-1.563,0-2.836,1.179-3.017,2.692
	c-0.525-0.252-1.113-0.396-1.735-0.396c-2.226,0-4.028,1.803-4.028,4.028c0,2.225,1.803,4.028,4.028,4.028
	c0.798,0,1.54-0.234,2.167-0.635c0.539,0.864,1.49,1.445,2.585,1.445c1.181,0,2.194-0.678,2.701-1.66
	c0.624,0.396,1.363,0.631,2.157,0.631c2.226,0,4.029-1.805,4.029-4.029S73.53,36.162,71.304,36.162z"/>
<path fill="none" stroke="#F15B22" stroke-width="2" stroke-linecap="round" stroke-linejoin="round" stroke-miterlimit="10" d="
	M12.177,7.864c-0.515,0-0.999,0.127-1.426,0.35c-0.19-1.102-1.145-1.942-2.3-1.942c-1.198,0-2.175,0.904-2.313,2.065
	C5.734,8.144,5.284,8.032,4.807,8.032c-1.706,0-3.089,1.383-3.089,3.089s1.383,3.089,3.089,3.089c0.612,0,1.182-0.18,1.662-0.487
	c0.413,0.663,1.144,1.108,1.982,1.108c0.906,0,1.682-0.52,2.071-1.273c0.479,0.305,1.045,0.483,1.655,0.483
	c1.706,0,3.089-1.383,3.089-3.089S13.883,7.864,12.177,7.864z"/>
</svg>
