<?xml version="1.0" encoding="utf-8"?>
<!-- Generator: Adobe Illustrator 16.0.0, SVG Export Plug-In . SVG Version: 6.00 Build 0)  -->
<!DOCTYPE svg PUBLIC "-//W3C//DTD SVG 1.1//EN" "http://www.w3.org/Graphics/SVG/1.1/DTD/svg11.dtd">
<svg version="1.1" id="Layer_1" xmlns="http://www.w3.org/2000/svg" xmlns:xlink="http://www.w3.org/1999/xlink" x="0px" y="0px"
	 width="512px" height="400.395px" viewBox="0 0 512 400.395" enable-background="new 0 0 512 400.395" xml:space="preserve">
<path fill="#6F6F6F" d="M392.691,0.001H119.309C53.523,0.001,0,53.528,0,119.325v259.457c0,8.09,4.461,15.438,11.637,19.168
	c3.148,1.637,6.566,2.445,9.972,2.445c3.907,0,7.797-1.066,11.239-3.172l97.711-49.336h262.132
	C458.477,347.887,512,294.36,512,228.563V119.325C512,53.528,458.477,0.001,392.691,0.001 M482,228.563
	c0,49.254-40.063,89.324-89.309,89.324H128.406c-4,0-7.859,1.09-11.246,3.16L30,365.055v-245.73
	c0-49.254,40.063-89.324,89.309-89.324h273.382c49.245,0,89.309,40.07,89.309,89.324V228.563z"/>
<path fill="#6F6F6F" d="M398.93,69.817H113.071c-8.282,0-15,6.715-15,15s6.718,15,15,15H398.93c8.281,0,15-6.715,15-15
	S407.211,69.817,398.93,69.817"/>
<path fill="#6F6F6F" d="M113.07,159.801h223.387c8.285,0,15-6.719,15-15c0-8.285-6.715-15-15-15H113.07c-8.281,0-15,6.715-15,15
	C98.07,153.083,104.789,159.801,113.07,159.801"/>
<path fill="#6F6F6F" d="M398.93,190.336H113.071c-8.282,0-15,6.719-15,15c0,8.285,6.718,15,15,15H398.93c8.281,0,15-6.715,15-15
	C413.93,197.056,407.211,190.336,398.93,190.336"/>
<path fill="#6F6F6F" d="M398.93,249.977h-91.695c-8.285,0-15,6.715-15,15c0,8.281,6.715,15,15,15h91.695c8.281,0,15-6.719,15-15
	C413.93,256.692,407.211,249.977,398.93,249.977"/>
</svg>
