<?xml version="1.0" encoding="utf-8"?>
<!-- Generator: Adobe Illustrator 16.0.0, SVG Export Plug-In . SVG Version: 6.00 Build 0)  -->
<!DOCTYPE svg PUBLIC "-//W3C//DTD SVG 1.1//EN" "http://www.w3.org/Graphics/SVG/1.1/DTD/svg11.dtd">
<svg version="1.1" id="Layer_1" xmlns="http://www.w3.org/2000/svg" xmlns:xlink="http://www.w3.org/1999/xlink" x="0px" y="0px"
	 width="48.665px" height="47.851px" viewBox="0 0 48.665 47.851" enable-background="new 0 0 48.665 47.851" xml:space="preserve">
<path fill="#6F6F6F" d="M40.332,31.185c-2.377,0-4.515,1-6.033,2.598l-17.737-8.686c0.061-0.406,0.103-0.82,0.103-1.246
	c0-0.414-0.04-0.818-0.098-1.215l17.711-8.589c1.519,1.609,3.666,2.619,6.054,2.619c4.603,0,8.333-3.731,8.333-8.333
	C48.665,3.73,44.935,0,40.332,0c-4.604,0-8.333,3.73-8.333,8.333c0,0.414,0.04,0.817,0.098,1.215l-17.708,8.589
	c-1.519-1.609-3.666-2.619-6.054-2.619C3.73,15.518,0,19.249,0,23.851c0,4.603,3.73,8.333,8.333,8.333c2.377,0,4.515-1,6.033-2.596
	l17.735,8.685c-0.062,0.406-0.104,0.82-0.104,1.245c0,4.604,3.729,8.333,8.333,8.333c4.603,0,8.333-3.729,8.333-8.333
	C48.665,34.916,44.935,31.185,40.332,31.185"/>
</svg>
