<?xml version="1.0" encoding="utf-8"?>
<!-- Generator: Adobe Illustrator 19.0.0, SVG Export Plug-In . SVG Version: 6.00 Build 0)  -->
<svg version="1.1" id="Layer_1" xmlns="http://www.w3.org/2000/svg" xmlns:xlink="http://www.w3.org/1999/xlink" x="0px" y="0px"
	 viewBox="0 0 238 67" style="enable-background:new 0 0 238 67;" xml:space="preserve">
<style type="text/css">
	.st0{fill:#003963;}
	.st1{fill:#EC193A;}
	.st2{fill:#58595B;}
</style>
<g>
	<path class="st0" d="M54,31.5c-4.8-3.3-10.9-1.9-14.2,3c-2.7,4.1-6.8,4.6-8.3,4.6c-5.1,0-8.6-3.6-9.7-7.3h0c0,0,0-0.1,0-0.1
		c0,0,0-0.1,0-0.1c-0.4-1.6-0.5-2.3-0.5-4c0-8.9,9.2-18.9,22.4-18.9c13.5,0,21.2,10.3,23.2,16c0-0.1-0.1-0.2-0.1-0.3
		C63,13.2,52.3,5.2,39.9,5.2c-15.7,0-28.4,12.7-28.4,28.5c0,14,10.1,26.1,24.2,26.1c11.2,0,18.7-6.3,22.2-14.9
		C59.7,40,58.3,34.4,54,31.5z"/>
	<path class="st1" d="M67.1,25.2c-1.7-5.6-9.5-16.6-23.4-16.6c-13.2,0-22.4,9.9-22.4,18.9c0,1.7,0.1,2.4,0.5,4
		c-0.2-0.7-0.3-1.4-0.3-2c0-9.3,9.3-15.7,18.9-15.7c13,0,23.5,10.5,23.5,23.5c0,10.2-5.8,18.9-14.3,23.2v0
		c10.9-4,18.8-14.4,18.8-26.8C68.3,30.7,67.9,28.1,67.1,25.2z"/>
	<g>
		<path class="st2" d="M95.2,38.1v-4.2H83.7v-3.1h26.5v3.1H98.8v4.2h9.3v10.1h-3.6v-6.9h-19v-3.1H95.2z M108.1,19.8v8.6h-3.6V23
			H85.8v-3.1H108.1z"/>
		<path class="st2" d="M130.6,34.8H115V26h11.7v-2.9H115v-3h15.2v8.8h-11.7v2.9h12V34.8z M116.6,36.3h3.5v2.4h15.6v-2.4h3.5v11.2
			h-22.6V36.3z M135.7,41.6h-15.6v2.9h15.6V41.6z M135.7,19.3h3.6v16.1h-3.6V19.3z"/>
		<path class="st2" d="M158.6,32.2l-2.8,1.6l-4.6-8.3l-4.6,8.6l-2.9-1.6l7.5-13.4L158.6,32.2z M166.8,42c0,1-0.2,1.9-0.6,2.7
			c-0.4,0.8-0.9,1.6-1.6,2.2c-0.7,0.6-1.5,1.1-2.4,1.5c-0.9,0.4-1.9,0.6-2.9,0.6c-1,0-2-0.2-2.9-0.6c-0.9-0.4-1.7-0.9-2.4-1.5
			c-0.7-0.6-1.2-1.4-1.6-2.2c-0.4-0.8-0.6-1.7-0.6-2.7c0-1,0.2-1.9,0.6-2.7c0.4-0.8,0.9-1.6,1.6-2.2c0.7-0.6,1.5-1.1,2.4-1.5
			c0.9-0.4,1.9-0.6,2.9-0.6c1,0,2,0.2,2.9,0.6c0.9,0.4,1.7,0.9,2.4,1.5c0.7,0.6,1.2,1.4,1.6,2.2C166.6,40.1,166.8,41,166.8,42z
			 M163.2,42c0-1.1-0.4-2-1.2-2.8c-0.8-0.8-1.7-1.2-2.8-1.2c-1.1,0-2,0.4-2.8,1.2c-0.8,0.8-1.2,1.7-1.2,2.8c0,1.1,0.4,2,1.2,2.8
			c0.8,0.8,1.7,1.1,2.8,1.1c1.1,0,2-0.4,2.8-1.1C162.9,44,163.2,43.1,163.2,42z M166.3,19.3h3.4v15.3h-3.4v-6.4h-3v6H160V19.3h3.4
			v5.6h3V19.3z"/>
		<path class="st2" d="M187.6,44.1h-12.7V21h12.4v3.1h-8.9v6.8h8.8v3.1h-8.8V41h9.3V44.1z M196.8,19.3h3.4v28.9h-3.4V34.2h-3.3v13.7
			h-3.3V19.3h3.3v11.8h3.3V19.3z"/>
		<path class="st2" d="M223.6,36.6H216v4.4h-3.6v-4.4h-8v-3.1h19.2V36.6z M206.4,47.6v-8.2h3.6v5.1h19.8v3.1H206.4z M221.1,25.6
			c0,0.9-0.2,1.8-0.6,2.6c-0.4,0.8-0.9,1.5-1.5,2.1c-0.7,0.6-1.4,1.1-2.3,1.4c-0.9,0.4-1.8,0.5-2.8,0.5c-1,0-1.9-0.2-2.8-0.5
			c-0.9-0.4-1.6-0.8-2.3-1.4c-0.6-0.6-1.2-1.3-1.5-2.1c-0.4-0.8-0.6-1.7-0.6-2.6c0-0.9,0.2-1.8,0.6-2.6c0.4-0.8,0.9-1.5,1.5-2.1
			c0.7-0.6,1.4-1.1,2.3-1.4c0.9-0.4,1.8-0.5,2.8-0.5c1,0,1.9,0.2,2.8,0.5c0.9,0.4,1.6,0.8,2.3,1.4c0.6,0.6,1.2,1.3,1.5,2.1
			C220.9,23.8,221.1,24.7,221.1,25.6z M217.6,25.6c0-1-0.4-1.9-1.1-2.6c-0.7-0.7-1.6-1.1-2.6-1.1c-1,0-1.9,0.4-2.6,1.1
			c-0.7,0.7-1.1,1.6-1.1,2.6c0,1,0.4,1.9,1.1,2.6c0.7,0.7,1.6,1.1,2.6,1.1c1,0,1.9-0.4,2.6-1.1C217.2,27.5,217.6,26.6,217.6,25.6z
			 M225.9,19.3h3.6v22h-3.6V30.6h-4v-3.1h4V19.3z"/>
	</g>
</g>
</svg>
