<?xml version="1.0" encoding="utf-8"?>
<!-- Generator: Adobe Illustrator 19.0.0, SVG Export Plug-In . SVG Version: 6.00 Build 0)  -->
<svg version="1.1" id="Capa_1" xmlns="http://www.w3.org/2000/svg" xmlns:xlink="http://www.w3.org/1999/xlink" x="0px" y="0px"
	 viewBox="0 0 512 512" style="enable-background:new 0 0 512 512;" xml:space="preserve">
<style type="text/css">
	.st0{fill:#FFFFFF;}
</style>
<g>
	<g>
		<g>
			<path class="st0" d="M504.5,456.9H496v-24.6c0-4.1-3.4-7.5-7.5-7.5h-8.5V231.4h8.5c4.1,0,7.5-3.4,7.5-7.5v-17.8
				c5.7-1.9,10.5-6,13.4-11.5c6-11.5,1.4-25.7-10.1-31.7L266.8,42.7c-6.8-3.5-14.9-3.5-21.6,0L12.7,163c-11.5,6-16,20.2-10.1,31.7
				c2.8,5.5,7.6,9.5,13.4,11.5v17.8c0,4.1,3.4,7.5,7.5,7.5h8.5v193.4h-8.5c-4.1,0-7.5,3.4-7.5,7.5v24.6H7.5c-4.1,0-7.5,3.4-7.5,7.5
				c0,4.1,3.4,7.5,7.5,7.5h497c4.1,0,7.5-3.4,7.5-7.5C512,460.3,508.6,456.9,504.5,456.9z M21,192c-2.2-0.7-4-2.2-5-4.2
				c-2.2-4.2-0.5-9.3,3.7-11.5L252.1,56c1.2-0.6,2.6-1,3.9-1c1.3,0,2.7,0.3,3.9,1l232.5,120.2c4.2,2.2,5.8,7.3,3.7,11.5
				c-1.5,2.8-4.4,4.6-7.6,4.6c-1.4,0-2.7-0.3-3.9-1L259.4,75c-2.2-1.1-4.7-1.1-6.9,0L27.4,191.4C25.4,192.5,23.1,192.7,21,192z
				 M31,216.4v-10.3c1.1-0.4,2.2-0.8,3.3-1.4l10.4-5.4h315.5c4.1,0,7.5-3.4,7.5-7.5c0-4.1-3.4-7.5-7.5-7.5H73.7L256,90.1l182.3,94.3
				h-46c-4.1,0-7.5,3.4-7.5,7.5c0,4.1,3.4,7.5,7.5,7.5h75l10.4,5.4c1.1,0.6,2.2,1,3.3,1.4v10.3H31L31,216.4z M464.9,231.4v193.4
				h-17.1V231.4H464.9z M416.3,328.7c-6.1,0-11.7,1.7-16.5,4.7v-69.9l0,0h33.1v69.9C428.1,330.4,422.4,328.7,416.3,328.7z
				 M432.9,360.2v64.6h-33.1v-64.7c0-9.1,7.4-16.5,16.5-16.5C425.4,343.7,432.9,351.1,432.9,360.2
				C432.9,360.2,432.9,360.2,432.9,360.2z M399.8,248.5v-17.1h33.1v17.1H399.8z M384.8,360.2v64.6h-17.1V231.4h17.1V360.2
				C384.8,360.2,384.8,360.2,384.8,360.2C384.8,360.2,384.8,360.2,384.8,360.2z M336.2,328.7c-6.1,0-11.7,1.7-16.5,4.7v-69.9h33.1
				v69.9C347.9,330.4,342.2,328.7,336.2,328.7z M352.7,360.2v64.6h-33.1v-64.7c0-9.1,7.4-16.5,16.5-16.5
				C345.3,343.7,352.7,351.1,352.7,360.2z M319.6,248.5v-17.1h33.1v17.1H319.6z M304.6,256v104.2c0,0,0,0,0,0c0,0,0,0,0,0v64.6
				h-17.1V231.4h17.1V256C304.6,256,304.6,256,304.6,256C304.6,256,304.6,256,304.6,256z M256,328.7c-6.1,0-11.7,1.7-16.5,4.7v-69.9
				h33.1v69.9C267.7,330.4,262.1,328.7,256,328.7z M272.5,360.2v64.6h-33.1v-64.6c0-9.1,7.4-16.5,16.5-16.5S272.5,351.1,272.5,360.2
				C272.5,360.2,272.5,360.2,272.5,360.2z M239.5,248.5v-17.1h33.1v17.1H239.5z M224.5,231.4v193.4h-17.1V231.4H224.5z M175.8,328.7
				c-6.1,0-11.7,1.7-16.5,4.7v-69.9h33.1v69.9C187.6,330.4,181.9,328.7,175.8,328.7z M192.4,360.2v64.6h-33.1v-64.7
				c0-9.1,7.4-16.5,16.5-16.5C185,343.7,192.4,351.1,192.4,360.2z M159.3,248.5v-17.1h33.1v17.1H159.3z M144.3,360.2v64.6h-17.1
				V231.4h17.1V360.2C144.3,360.2,144.3,360.2,144.3,360.2C144.3,360.2,144.3,360.2,144.3,360.2z M79.1,248.5v-17.1h33.1v17.1H79.1z
				 M112.2,263.5v69.9c-4.8-3-10.5-4.7-16.5-4.7c-6.1,0-11.7,1.7-16.5,4.7v-69.9H112.2L112.2,263.5z M64.1,231.4v193.4H47.1V231.4
				H64.1z M481,456.9H31v-17.1h56.6c4.1,0,7.5-3.4,7.5-7.5c0-4.1-3.4-7.5-7.5-7.5h-8.5v-64.6c0-9.1,7.4-16.5,16.5-16.5
				s16.5,7.4,16.5,16.5v72.1c0,0,0,0,0,0c0,4.1,3.4,7.5,7.5,7.5H481V456.9z"/>
		</g>
	</g>
	<g>
		<g>
			<path class="st0" d="M288.1,152.3h-64.1c-4.1,0-7.5,3.4-7.5,7.5c0,4.1,3.4,7.5,7.5,7.5h64.1c4.1,0,7.5-3.4,7.5-7.5
				C295.6,155.7,292.2,152.3,288.1,152.3z"/>
		</g>
	</g>
	<g>
		<g>
			<path class="st0" d="M264,120.2h-16c-4.1,0-7.5,3.4-7.5,7.5c0,4.1,3.4,7.5,7.5,7.5h16c4.1,0,7.5-3.4,7.5-7.5
				C271.5,123.6,268.2,120.2,264,120.2z"/>
		</g>
	</g>
</g>
</svg>
