<?xml version="1.0" encoding="utf-8"?>
<!-- Generator: Adobe Illustrator 19.0.0, SVG Export Plug-In . SVG Version: 6.00 Build 0)  -->
<svg version="1.1" id="Layer_1" xmlns="http://www.w3.org/2000/svg" xmlns:xlink="http://www.w3.org/1999/xlink" x="0px" y="0px"
	 viewBox="192.5 192.5 110 110" style="enable-background:new 192.5 192.5 110 110;" xml:space="preserve">
<style type="text/css">
	.st0{fill:#FFFFFF;}
	.st1{fill:#244A83;}
</style>
<circle class="st0" cx="247.5" cy="247.5" r="55"/>
<g>
	<path class="st1" d="M267.5,236.4c0-2.4-2-4.4-4.4-4.4h-8.8c-2.4,0-4.4,2-4.4,4.4v7.3H247v-7.3c0-2.4-2-4.4-4.4-4.4h-8.8
		c-2.4,0-4.4,2-4.4,4.4v7.3h-5.8v7.3c0,1.9,1.2,3.5,2.9,4.1v1.7c0,1.9,1.2,3.5,2.9,4.1v6.1h2.9v-5.8h11.7v5.8h2.9v-6.1
		c0.5-0.2,1-0.5,1.5-0.9c0.4,0.4,0.9,0.7,1.5,0.9v6.1h2.9v-5.8h11.7v5.8h2.9v-6.1c1.7-0.6,2.9-2.2,2.9-4.1v-1.7
		c1.7-0.6,2.9-2.2,2.9-4.1v-7.3h-5.8V236.4z M252.9,236.4c0-0.8,0.7-1.5,1.5-1.5h8.8c0.8,0,1.5,0.7,1.5,1.5v13.1h-11.7
		C252.9,246.7,252.9,239.2,252.9,236.4z M248.5,252.4c-0.8,0-1.5-0.7-1.5-1.5v-4.4h2.9v4.4C250,251.8,249.3,252.4,248.5,252.4z
		 M232.4,236.4c0-0.8,0.7-1.5,1.5-1.5h8.8c0.8,0,1.5,0.7,1.5,1.5v13.1h-11.7C232.4,246.7,232.4,239.2,232.4,236.4z M226.6,246.6h2.9
		v4.4c0,0.8-0.7,1.5-1.5,1.5c-0.8,0-1.5-0.7-1.5-1.5V246.6z M245.6,258.2H231c-0.8,0-1.5-0.7-1.5-1.5v-1.7c1.2-0.4,2.2-1.4,2.7-2.7
		h12.2c0.4,1.2,1.4,2.2,2.7,2.7v1.7C247,257.6,246.4,258.2,245.6,258.2z M266,258.2h-14.6c-0.8,0-1.5-0.7-1.5-1.5v-1.7
		c1.2-0.4,2.2-1.4,2.7-2.7h12.2c0.4,1.2,1.4,2.2,2.7,2.7v1.7C267.5,257.6,266.8,258.2,266,258.2z M270.4,251c0,0.8-0.7,1.5-1.5,1.5
		c-0.8,0-1.5-0.7-1.5-1.5v-4.4h2.9V251z"/>
	<path class="st0" d="M267.8,267.2h-3.5v-5.8h-11.1v5.8h-3.5v-6.1c-0.4-0.2-0.8-0.4-1.2-0.7c-0.4,0.3-0.7,0.5-1.2,0.7v6.1h-3.5v-5.8
		h-11.1v5.8h-3.5v-6.1c-1.7-0.7-2.9-2.4-2.9-4.3v-1.5c-1.7-0.7-2.9-2.4-2.9-4.3v-7.5h5.8v-7c0-2.6,2.1-4.6,4.6-4.6h8.8
		c2.6,0,4.6,2.1,4.6,4.6v7h2.3v-7c0-2.6,2.1-4.6,4.6-4.6h8.8c2.6,0,4.6,2.1,4.6,4.6v7h5.8v7.5c0,1.9-1.2,3.6-2.9,4.3v1.5
		c0,1.9-1.2,3.6-2.9,4.3V267.2z M264.9,266.6h2.3v-6l0.2-0.1c1.6-0.6,2.7-2.1,2.7-3.8v-1.9l0.2-0.1c1.6-0.6,2.7-2.1,2.7-3.8v-7h-5.8
		v-7.5c0-2.2-1.8-4.1-4.1-4.1h-8.8c-2.2,0-4.1,1.8-4.1,4.1v7.5h-3.5v-7.5c0-2.2-1.8-4.1-4.1-4.1h-8.8c-2.2,0-4.1,1.8-4.1,4.1v7.5
		H224v7c0,1.7,1.1,3.3,2.7,3.8l0.2,0.1v1.9c0,1.7,1.1,3.3,2.7,3.8l0.2,0.1v6h2.3v-5.8h12.3v5.8h2.3v-6l0.2-0.1
		c0.5-0.2,1-0.4,1.4-0.8l0.2-0.2l0.2,0.2c0.4,0.4,0.9,0.6,1.4,0.8l0.2,0.1v6h2.3v-5.8h12.3V266.6z M266,258.5h-14.6
		c-1,0-1.7-0.8-1.7-1.7v-1.9l0.2-0.1c1.1-0.4,2.1-1.3,2.5-2.5l0.1-0.2H265l0.1,0.2c0.4,1.1,1.3,2.1,2.5,2.5l0.2,0.1v1.9
		C267.8,257.7,267,258.5,266,258.5z M250.2,255.3v1.5c0,0.6,0.5,1.2,1.2,1.2H266c0.6,0,1.2-0.5,1.2-1.2v-1.5
		c-1.2-0.5-2.1-1.4-2.6-2.6h-11.8C252.3,253.8,251.4,254.8,250.2,255.3z M245.6,258.5H231c-1,0-1.7-0.8-1.7-1.7v-1.9l0.2-0.1
		c1.1-0.4,2.1-1.3,2.5-2.5l0.1-0.2h12.6l0.1,0.2c0.4,1.1,1.3,2.1,2.5,2.5l0.2,0.1v1.9C247.3,257.7,246.6,258.5,245.6,258.5z
		 M229.8,255.3v1.5c0,0.6,0.5,1.2,1.2,1.2h14.6c0.6,0,1.2-0.5,1.2-1.2v-1.5c-1.2-0.5-2.1-1.4-2.6-2.6h-11.8
		C231.9,253.8,231,254.8,229.8,255.3z M268.9,252.7c-1,0-1.7-0.8-1.7-1.7v-4.6h3.5v4.6C270.7,251.9,269.9,252.7,268.9,252.7z
		 M267.8,246.9v4.1c0,0.6,0.5,1.2,1.2,1.2c0.6,0,1.2-0.5,1.2-1.2v-4.1H267.8z M248.5,252.7c-1,0-1.7-0.8-1.7-1.7v-4.6h3.5v4.6
		C250.2,251.9,249.5,252.7,248.5,252.7z M247.3,246.9v4.1c0,0.6,0.5,1.2,1.2,1.2c0.6,0,1.2-0.5,1.2-1.2v-4.1H247.3z M228.1,252.7
		c-1,0-1.7-0.8-1.7-1.7v-4.6h3.5v4.6C229.8,251.9,229,252.7,228.1,252.7z M226.9,246.9v4.1c0,0.6,0.5,1.2,1.2,1.2
		c0.6,0,1.2-0.5,1.2-1.2v-4.1H226.9z M264.9,249.8h-12.3v-13.4c0-1,0.8-1.7,1.7-1.7h8.8c1,0,1.7,0.8,1.7,1.7V249.8z M253.1,249.2
		h11.1v-12.8c0-0.6-0.5-1.2-1.2-1.2h-8.8c-0.6,0-1.2,0.5-1.2,1.2V249.2z M244.4,249.8h-12.3v-13.4c0-1,0.8-1.7,1.7-1.7h8.8
		c1,0,1.7,0.8,1.7,1.7V249.8z M232.7,249.2h11.1v-12.8c0-0.6-0.5-1.2-1.2-1.2h-8.8c-0.6,0-1.2,0.5-1.2,1.2V249.2z"/>
</g>
</svg>
