<?xml version="1.0" encoding="utf-8"?>
<!-- Generator: Adobe Illustrator 19.0.0, SVG Export Plug-In . SVG Version: 6.00 Build 0)  -->
<svg version="1.1" id="Layer_1" xmlns="http://www.w3.org/2000/svg" xmlns:xlink="http://www.w3.org/1999/xlink" x="0px" y="0px"
	 viewBox="192.5 192.5 110 110" style="enable-background:new 192.5 192.5 110 110;" xml:space="preserve">
<style type="text/css">
	.st0{fill:#FFFFFF;}
	.st1{fill:#244A83;}
</style>
<circle class="st0" cx="247.5" cy="247.5" r="55"/>
<g>
	<g>
		<g>
			<path class="st1" d="M270.1,252.6l-7.2-14.3c-0.2-0.4-0.6-0.6-1-0.5l-26.9,5.4c0,0,0,0-0.1,0c-0.2,0-0.3,0.2-0.5,0.3c0,0,0,0,0,0
				c0,0-0.1,0.1-0.1,0.1c0,0,0,0,0,0s0,0,0,0c0,0,0,0,0,0.1l-7.2,14.3c-0.2,0.4,0,1,0.4,1.2c0.1,0.1,0.3,0.1,0.4,0.1
				c0.3,0,0.6-0.2,0.8-0.5l6.4-12.7l6.4,12.7c0.2,0.4,0.6,0.6,1,0.5l26.9-5.4c0.3-0.1,0.5-0.2,0.6-0.5
				C270.3,253.1,270.3,252.8,270.1,252.6z M242.9,257.3l-6.3-12.7l25.1-5l6.3,12.7L242.9,257.3z"/>
		</g>
	</g>
	<g>
		<g>
			<path class="st1" d="M261.2,243.8c-0.1-0.5-0.6-0.8-1.1-0.7l-17.9,3.6c-0.5,0.1-0.8,0.6-0.7,1.1c0.1,0.4,0.5,0.7,0.9,0.7
				c0.1,0,0.1,0,0.2,0l17.9-3.6C261,244.8,261.3,244.3,261.2,243.8z"/>
		</g>
	</g>
	<g>
		<g>
			<path class="st1" d="M254.1,249.2c-0.1-0.5-0.6-0.8-1.1-0.7l-9,1.8c-0.5,0.1-0.8,0.6-0.7,1.1c0.1,0.4,0.5,0.7,0.9,0.7
				c0.1,0,0.1,0,0.2,0l9-1.8C253.9,250.2,254.2,249.7,254.1,249.2z"/>
		</g>
	</g>
</g>
</svg>
