<?xml version="1.0" encoding="utf-8"?>
<!-- Generator: Adobe Illustrator 16.0.0, SVG Export Plug-In . SVG Version: 6.00 Build 0)  -->
<!DOCTYPE svg PUBLIC "-//W3C//DTD SVG 1.1//EN" "http://www.w3.org/Graphics/SVG/1.1/DTD/svg11.dtd">
<svg version="1.1" id="Capa_1" xmlns="http://www.w3.org/2000/svg" xmlns:xlink="http://www.w3.org/1999/xlink" x="0px" y="0px"
	 width="297px" height="298px" viewBox="29.14 91.445 297 298" enable-background="new 29.14 91.445 297 298" xml:space="preserve">
<path fill-rule="evenodd" clip-rule="evenodd" fill="#CB774D" d="M316.656,236.922c-0.148,78.415-63.878,141.923-143.467,140.441
	c-77.407-1.441-137.536-65.034-137.371-140.355c0.169-77.562,63.027-140.455,140.541-140.274
	C253.753,96.914,316.539,159.651,316.656,236.922z M169.062,208.74c0,0.024,0,0.049,0,0.073c-7.661,0-15.323-0.088-22.982,0.044
	c-2.973,0.052-5.83,0.991-6.113,4.581c-0.279,3.532,2.161,4.919,5.235,5.498c1.308,0.247,2.603,0.573,3.918,0.773
	c8.221,1.25,10.002,3.779,8.595,12.106c-3.327,19.681-5.891,39.529-10.218,58.986c-2.555,11.487,6.869,26.189,20.708,27.039
	c6.292,0.387,12.739,0.779,18.921-0.143c9.861-1.47,18.156-6.385,23.864-14.812c0.913-1.348,0.413-3.652,0.566-5.515
	c-2.013-0.126-4.096-0.628-6.016-0.266c-1.716,0.324-3.2,1.722-4.875,2.438c-10.88,4.656-15.896,0.892-14.598-10.907
	c0.055-0.496,0.127-0.992,0.216-1.482c1.757-9.654,3.598-19.294,5.259-28.964c2.307-13.434,4.79-26.851,6.579-40.356
	c0.903-6.812-1.71-9.028-8.573-9.084C182.719,208.697,175.89,208.74,169.062,208.74z M203.056,177.243
	c0.034-12.022-9.426-21.484-21.498-21.502c-11.719-0.019-21.355,9.484-21.403,21.104c-0.047,11.555,9.689,21.85,20.832,22.026
	C193.079,199.064,203.021,189.319,203.056,177.243z"/>
</svg>
