<?xml version="1.0" encoding="utf-8"?>
<!-- Generator: Adobe Illustrator 19.0.0, SVG Export Plug-In . SVG Version: 6.00 Build 0)  -->
<svg version="1.1" id="레이어_1" xmlns="http://www.w3.org/2000/svg" xmlns:xlink="http://www.w3.org/1999/xlink" x="0px"
	 y="0px" viewBox="0 0 30 30" style="enable-background:new 0 0 30 30;" xml:space="preserve">
<style type="text/css">
	.st0{fill:#30343A;}
	.st1{fill:#CDCDCD;}
</style>
<circle id="XMLID_1_" class="st0" cx="15" cy="15" r="15"/>
<circle id="XMLID_61_" class="st0" cx="-18.1" cy="15" r="15"/>
<g id="XMLID_40_">
	<g id="XMLID_41_">
		<path id="XMLID_50_" class="st1" d="M-12.4,8.2h-2.1V7.7c0-0.3-0.2-0.5-0.5-0.5s-0.5,0.2-0.5,0.5v0.5h-5.2V7.7
			c0-0.3-0.2-0.5-0.5-0.5c-0.3,0-0.5,0.2-0.5,0.5v0.5h-2.1c-1.5,0-2.6,1.2-2.6,2.6v9.4c0,1.5,1.2,2.6,2.6,2.6h11.5
			c1.5,0,2.6-1.2,2.6-2.6v-9.4C-9.8,9.4-10.9,8.2-12.4,8.2L-12.4,8.2z M-25.5,10.8c0-0.8,0.7-1.6,1.6-1.6h2.1v0.5
			c0,0.3,0.2,0.5,0.5,0.5c0.3,0,0.5-0.2,0.5-0.5V9.2h5.2v0.5c0,0.3,0.2,0.5,0.5,0.5c0.3,0,0.5-0.2,0.5-0.5V9.2h2.1
			c0.8,0,1.6,0.7,1.6,1.6v1.6h-14.6V10.8L-25.5,10.8z M-10.8,20.2c0,0.8-0.7,1.6-1.6,1.6h-11.5c-0.8,0-1.6-0.7-1.6-1.6v-6.8h14.6
			V20.2z"/>
		<path id="XMLID_49_" class="st1" d="M-22.8,20.2c0.3,0,0.5-0.1,0.7-0.3s0.3-0.5,0.3-0.7s-0.1-0.5-0.3-0.7c-0.4-0.4-1-0.4-1.5,0
			c-0.2,0.2-0.3,0.4-0.3,0.7c0,0.2,0.1,0.5,0.3,0.7S-23.2,20.2-22.8,20.2z"/>
		<path id="XMLID_48_" class="st1" d="M-22.8,17.1c0.3,0,0.5-0.1,0.7-0.3s0.3-0.5,0.3-0.7c0-0.2-0.1-0.5-0.3-0.7
			c-0.4-0.4-1-0.4-1.5,0c-0.2,0.2-0.3,0.4-0.3,0.7c0,0.3,0.1,0.5,0.3,0.7S-23.2,17.1-22.8,17.1z"/>
		<path id="XMLID_47_" class="st1" d="M-19.7,20.2c0.3,0,0.5-0.1,0.7-0.3s0.3-0.5,0.3-0.7s-0.1-0.5-0.3-0.7c-0.4-0.4-1-0.4-1.5,0
			c-0.2,0.2-0.3,0.5-0.3,0.7s0.1,0.5,0.3,0.7S-20,20.2-19.7,20.2z"/>
		<path id="XMLID_46_" class="st1" d="M-19.7,17.1c0.3,0,0.5-0.1,0.7-0.3s0.3-0.5,0.3-0.7c0-0.2-0.1-0.5-0.3-0.7
			c-0.4-0.4-1-0.4-1.5,0c-0.2,0.2-0.3,0.5-0.3,0.7c0,0.2,0.1,0.5,0.3,0.7S-20,17.1-19.7,17.1z"/>
		<path id="XMLID_45_" class="st1" d="M-16.6,20.2c0.3,0,0.5-0.1,0.7-0.3s0.3-0.4,0.3-0.7c0-0.3-0.1-0.5-0.3-0.7
			c-0.4-0.4-1-0.4-1.5,0c-0.2,0.2-0.3,0.5-0.3,0.7s0.1,0.5,0.3,0.7S-16.9,20.2-16.6,20.2z"/>
		<path id="XMLID_44_" class="st1" d="M-16.6,17.1c0.3,0,0.5-0.1,0.7-0.3s0.3-0.4,0.3-0.7c0-0.2-0.1-0.5-0.3-0.7
			c-0.4-0.4-1-0.4-1.5,0c-0.2,0.2-0.3,0.5-0.3,0.7c0,0.2,0.1,0.5,0.3,0.7S-16.9,17.1-16.6,17.1z"/>
		<path id="XMLID_43_" class="st1" d="M-13.4,20.2c0.3,0,0.5-0.1,0.7-0.3c0.2-0.2,0.3-0.5,0.3-0.7s-0.1-0.5-0.3-0.7
			c-0.4-0.4-1-0.4-1.5,0c-0.2,0.2-0.3,0.4-0.3,0.7c0,0.2,0.1,0.5,0.3,0.7S-13.7,20.2-13.4,20.2z"/>
		<path id="XMLID_42_" class="st1" d="M-13.4,17.1c0.3,0,0.5-0.1,0.7-0.3c0.2-0.2,0.3-0.4,0.3-0.7c0-0.2-0.1-0.5-0.3-0.7
			c-0.4-0.4-1-0.4-1.5,0c-0.2,0.2-0.3,0.5-0.3,0.7c0,0.2,0.1,0.5,0.3,0.7S-13.7,17.1-13.4,17.1z"/>
	</g>
</g>
<g id="XMLID_3_">
	<g id="XMLID_4_">
		<g id="XMLID_5_">
			<path id="XMLID_64_" class="st1" d="M22.9,10.1L22.5,10c-0.1,0-0.2,0-0.3,0c-0.4,0-0.8,0.3-1,0.7L21,11.2v-0.5v0
				c0-0.1,0-0.1-0.1-0.2L17,6.8c0,0-0.1-0.1-0.2-0.1H9.2C9,6.7,8.9,6.8,8.9,6.9v0.7H8c-0.1,0-0.2,0.1-0.2,0.2v14.3
				c0,0.1,0.1,0.2,0.2,0.2h11.6c0.1,0,0.2-0.1,0.2-0.2v-0.7h0.9c0.1,0,0.2-0.1,0.2-0.2V18l0.7-0.9l0-0.1l1.8-5.7
				C23.7,10.8,23.4,10.2,22.9,10.1z M17.1,7.5l3.1,3h-3.1V7.5z M19.4,22H8.3V8.1h0.6v13.1c0,0.1,0.1,0.2,0.2,0.2h10.2L19.4,22
				L19.4,22z M20.5,21L20.5,21H9.4V7.2h7.2v3.6c0,0.1,0.1,0.2,0.2,0.2h3.7v1.8l-1.1,3.5v0.1l0,3c0,0.1,0.1,0.2,0.2,0.2
				c0.1,0,0.2,0,0.3-0.1l0.6-0.9L20.5,21L20.5,21z M19.9,18.7l0-2l1.2,0.4L19.9,18.7z M23,11.2l-1.7,5.5l-1.4-0.5l1.7-5.4
				c0.1-0.3,0.4-0.4,0.6-0.3l0.4,0.1C23,10.6,23.1,10.9,23,11.2z"/>
			<path id="XMLID_11_" class="st1" d="M11,11h3.4c0.1,0,0.2-0.1,0.2-0.2V8.3c0-0.1-0.1-0.2-0.2-0.2H11c-0.1,0-0.2,0.1-0.2,0.2v2.4
				C10.8,10.9,10.9,11,11,11z M11.3,8.6h3v2h-3V8.6z"/>
			<path id="XMLID_10_" class="st1" d="M10.5,13.2h7.3c0.1,0,0.2-0.1,0.2-0.2c0-0.1-0.1-0.2-0.2-0.2h-7.3c-0.1,0-0.2,0.1-0.2,0.2
				C10.3,13.1,10.4,13.2,10.5,13.2z"/>
			<path id="XMLID_9_" class="st1" d="M10.5,15h7.3c0.1,0,0.2-0.1,0.2-0.2s-0.1-0.2-0.2-0.2h-7.3c-0.1,0-0.2,0.1-0.2,0.2
				S10.4,15,10.5,15z"/>
			<path id="XMLID_8_" class="st1" d="M10.5,16.7h7.3c0.1,0,0.2-0.1,0.2-0.2s-0.1-0.2-0.2-0.2h-7.3c-0.1,0-0.2,0.1-0.2,0.2
				S10.4,16.7,10.5,16.7z"/>
			<path id="XMLID_7_" class="st1" d="M18,18.2c0-0.1-0.1-0.2-0.2-0.2h-7.2c-0.1,0-0.2,0.1-0.2,0.2s0.1,0.2,0.2,0.2h7.3
				C17.9,18.5,18,18.3,18,18.2z"/>
			<path id="XMLID_6_" class="st1" d="M18.8,19.7h-3.6c-0.1,0-0.2,0.1-0.2,0.2s0.1,0.2,0.2,0.2h3.6c0.1,0,0.2-0.1,0.2-0.2
				S18.9,19.7,18.8,19.7z"/>
		</g>
	</g>
</g>
</svg>
