<?xml version="1.0" encoding="utf-8"?>
<!-- Generator: Adobe Illustrator 19.0.0, SVG Export Plug-In . SVG Version: 6.00 Build 0)  -->
<svg version="1.1" id="레이어_1" xmlns="http://www.w3.org/2000/svg" xmlns:xlink="http://www.w3.org/1999/xlink" x="0px"
	 y="0px" viewBox="0 0 76 36" style="enable-background:new 0 0 76 36;" xml:space="preserve">
<style type="text/css">
	.st0{fill:#727171;}
	.st1{fill:#E6002D;}
</style>
<g id="XMLID_38_">
	<polygon id="XMLID_36_" class="st0" points="51.1,26.2 51.8,26.2 51.8,27.7 53.1,26.2 54,26.2 52.5,27.8 54,29.7 53.1,29.7 
		51.8,28.1 51.8,28.1 51.8,29.7 51.1,29.7 	"/>
	<polygon id="XMLID_35_" class="st0" points="55.2,26.2 55.2,27.6 56.7,27.6 56.7,26.2 57.2,26.2 57.2,29.7 56.7,29.7 56.7,28 
		55.2,28 55.2,29.7 54.8,29.7 54.8,26.2 	"/>
	<path id="XMLID_80_" class="st0" d="M57.9,28.5c0,0.6,0.4,0.9,0.9,0.9c0.4,0,0.6-0.1,0.7-0.1l0.1,0.3c-0.2,0.1-0.4,0.2-0.9,0.2
		c-0.8,0-1.3-0.5-1.3-1.3c0-0.7,0.5-1.4,1.2-1.4c0.9,0,1.1,0.8,1.1,1.2c0,0.1,0,0.2,0,0.2H57.9z M59.4,28.2c0-0.2-0.1-0.7-0.7-0.7
		c-0.5,0-0.7,0.4-0.8,0.7H59.4z"/>
	<path id="XMLID_32_" class="st0" d="M60.1,28c0-0.3,0-0.6,0-0.8h0.4l0,0.5h0c0.1-0.4,0.4-0.6,0.7-0.6c0,0,0.1,0,0.1,0v0.4
		c0,0-0.1,0-0.2,0c-0.3,0-0.6,0.2-0.6,0.6c0,0.1,0,0.1,0,0.2v1.3h-0.4V28z"/>
	<path id="XMLID_76_" class="st0" d="M61.8,26.7c-0.2,0-0.3-0.1-0.3-0.3c0-0.2,0.1-0.3,0.3-0.3c0.2,0,0.3,0.1,0.3,0.3
		C62.1,26.6,62,26.7,61.8,26.7L61.8,26.7z M61.6,27.2h0.4v2.5h-0.4V27.2z"/>
	<path id="XMLID_29_" class="st0" d="M63.2,26.6v0.6h0.7v0.4h-0.7v1.3c0,0.3,0.1,0.5,0.4,0.5c0.1,0,0.2,0,0.3,0l0,0.4
		c-0.1,0-0.2,0.1-0.4,0.1c-0.2,0-0.4-0.1-0.5-0.2c-0.1-0.1-0.2-0.4-0.2-0.7v-1.3h-0.4v-0.4h0.4v-0.5L63.2,26.6z"/>
	<path id="XMLID_72_" class="st0" d="M66,29.1c0,0.2,0,0.4,0,0.6h-0.4l0-0.3h0c-0.1,0.2-0.4,0.4-0.8,0.4c-0.5,0-0.8-0.4-0.8-0.7
		c0-0.6,0.5-1,1.6-0.9v0c0-0.2,0-0.6-0.6-0.6c-0.2,0-0.5,0.1-0.7,0.2l-0.1-0.3c0.2-0.2,0.5-0.2,0.9-0.2c0.8,0,1,0.6,1,1.1V29.1z
		 M65.6,28.4c-0.6,0-1.1,0.1-1.1,0.6c0,0.3,0.2,0.4,0.4,0.4c0.4,0,0.6-0.2,0.7-0.4c0,0,0-0.1,0-0.1V28.4z"/>
	<path id="XMLID_69_" class="st0" d="M68.7,29.3c0,0.6-0.1,0.9-0.4,1.2c-0.3,0.2-0.6,0.3-0.9,0.3c-0.3,0-0.7-0.1-0.9-0.2l0.1-0.4
		c0.2,0.1,0.5,0.2,0.8,0.2c0.5,0,0.9-0.3,0.9-0.9v-0.3h0c-0.1,0.3-0.4,0.5-0.9,0.5c-0.6,0-1.1-0.5-1.1-1.2c0-0.8,0.6-1.3,1.2-1.3
		c0.5,0,0.7,0.2,0.8,0.5h0l0-0.4h0.4c0,0.2,0,0.4,0,0.7V29.3z M68.3,28.2c0-0.1,0-0.1,0-0.2c-0.1-0.3-0.3-0.5-0.7-0.5
		c-0.5,0-0.8,0.4-0.8,1c0,0.4,0.3,0.9,0.8,0.9c0.3,0,0.6-0.2,0.7-0.5c0-0.1,0-0.2,0-0.2V28.2z"/>
	<path id="XMLID_66_" class="st0" d="M69.4,28.5c0,0.6,0.4,0.9,0.9,0.9c0.4,0,0.6-0.1,0.7-0.1l0.1,0.3c-0.2,0.1-0.4,0.2-0.9,0.2
		c-0.8,0-1.3-0.5-1.3-1.3c0-0.7,0.5-1.4,1.2-1.4c0.9,0,1.1,0.8,1.1,1.2c0,0.1,0,0.2,0,0.2H69.4z M70.9,28.2c0-0.2-0.1-0.7-0.7-0.7
		c-0.5,0-0.7,0.4-0.8,0.7H70.9z"/>
	<path id="XMLID_22_" class="st0" d="M71.7,29.7c-0.1,0-0.2-0.1-0.2-0.2c0-0.1,0.1-0.2,0.2-0.2c0.1,0,0.2,0.1,0.2,0.2
		C71.9,29.6,71.8,29.7,71.7,29.7L71.7,29.7z"/>
	<path id="XMLID_21_" class="st0" d="M72.6,27.5v0.4h0.5v0.2h-0.5v0.9c0,0.2,0.1,0.4,0.2,0.4c0.1,0,0.1,0,0.2,0l0,0.2
		c-0.1,0-0.2,0.1-0.3,0.1c-0.1,0-0.3-0.1-0.3-0.1c-0.1-0.1-0.1-0.3-0.1-0.5v-0.9h-0.3v-0.2h0.3v-0.3L72.6,27.5z"/>
	<path id="XMLID_20_" class="st0" d="M73.6,27.9l0.4,1c0.1,0.2,0.1,0.3,0.2,0.5h0c0-0.1,0.1-0.3,0.2-0.5l0.4-1h0.3l-0.7,1.8h-0.3
		l-0.7-1.8H73.6z"/>
	<rect id="XMLID_19_" x="53.6" y="27.7" class="st0" width="0.7" height="0.4"/>
	<path id="XMLID_42_" class="st0" d="M3.5,20.9H1.7v4.2h10v-1.6H3.5V20.9z M32,18.1c2.2,0,3.9-1.8,3.9-3.9c0-2.2-1.8-3.9-3.9-3.9
		c-2.2,0-3.9,1.8-3.9,3.9C28.1,16.4,29.9,18.1,32,18.1z M32,12c1.2,0,2.2,1,2.2,2.2c0,1.2-1,2.2-2.2,2.2c-1.2,0-2.2-1-2.2-2.2
		C29.8,13,30.8,12,32,12z M73.2,17.8h1.8v-6.7h-1.8v1.4H70v1.6h3.2V17.8z M11.4,11.1H1.9v5.3h9.5V11.1z M9.6,14.8h-6v-2.1h6V14.8z
		 M1.4,19.5h4.6V22h1.8v-2.5h4.2V18H1.4V19.5z M71.1,15.9h-4.2v-4.7h-1.8v6.3h6V15.9z M67.9,23.6v-0.9h7v-3.9h-8.8v1.5h7v0.8h-7v3.9
		H75v-1.5H67.9z M61.7,14.8h-1v-3.7H59v14.1h1.6v-8.8h1v8.8h1.7V11.1h-1.7V14.8z M45,18.1l1.6-0.9l-3.7-6.1h-1.2L38,17.3l1.6,0.9
		l2.7-4.8L45,18.1z M26.3,14.6h-1.8v-3.5h-1.8v12.4h-4.2v-4.5c1.4-0.4,2.4-1.6,2.4-3.1c0-1.2-0.7-2.2-1.7-2.7h2.3v-1.5h-3v-1.1h-1.8
		v1.1h-3v1.5h2.3c-1,0.5-1.7,1.5-1.7,2.7c0,1.5,1,2.7,2.4,3.1v4.5h-3.2v1.6h10.9v-8.9h1.8V14.6z M16.1,15.9c0-0.9,0.7-1.5,1.5-1.5
		c0.9,0,1.5,0.7,1.5,1.5c0,0.9-0.7,1.5-1.5,1.5C16.8,17.5,16.1,16.8,16.1,15.9z M25.9,21.6h2.5v3.6h1.8v-3.6H34v3.6h1.8v-3.6h2.5
		v-1.6H25.9V21.6z M49.2,11.1h-1.8v12.4h-5.6v-3.7h-1.8v5.3h9.1v-8.9h1.8v-1.6h-1.8V11.1z M58.1,13.2v-1.5h-2.3v-1.1h-1.8v1.1h-2.3
		v1.5H54l-2.6,6l1.6,0.7L55,15l1.9,4.9l1.6-0.7l-2.6-6H58.1z"/>
	<path id="XMLID_39_" class="st1" d="M22.7,0.6v9.1h1.8V2.8l22.9,5.3v1.6h1.8V6.9L22.7,0.6z M47.4,28.5l-22.9,4.9v-6.9h-1.8v9.1
		l26.4-6v-3.2h-1.8V28.5z"/>
</g>
</svg>
