<?xml version="1.0" encoding="utf-8"?>
<!-- Generator: Adobe Illustrator 19.0.0, SVG Export Plug-In . SVG Version: 6.00 Build 0)  -->
<svg version="1.1" id="레이어_1" xmlns="http://www.w3.org/2000/svg" xmlns:xlink="http://www.w3.org/1999/xlink" x="0px"
	 y="0px" viewBox="0 0 30 30" style="enable-background:new 0 0 30 30;" xml:space="preserve">
<style type="text/css">
	.st0{fill:#30343A;}
	.st1{fill:#CDCDCD;}
</style>
<circle id="XMLID_1_" class="st0" cx="15" cy="15" r="15"/>
<circle id="XMLID_61_" class="st0" cx="-18.1" cy="15" r="15"/>
<g id="XMLID_40_">
	<g id="XMLID_41_">
		<path id="XMLID_50_" class="st1" d="M-12.4,8.2h-2.1V7.7c0-0.3-0.2-0.5-0.5-0.5s-0.5,0.2-0.5,0.5v0.5h-5.2V7.7
			c0-0.3-0.2-0.5-0.5-0.5c-0.3,0-0.5,0.2-0.5,0.5v0.5h-2.1c-1.5,0-2.6,1.2-2.6,2.6v9.4c0,1.5,1.2,2.6,2.6,2.6h11.5
			c1.5,0,2.6-1.2,2.6-2.6v-9.4C-9.8,9.4-10.9,8.2-12.4,8.2L-12.4,8.2z M-25.5,10.8c0-0.8,0.7-1.6,1.6-1.6h2.1v0.5
			c0,0.3,0.2,0.5,0.5,0.5c0.3,0,0.5-0.2,0.5-0.5V9.2h5.2v0.5c0,0.3,0.2,0.5,0.5,0.5c0.3,0,0.5-0.2,0.5-0.5V9.2h2.1
			c0.8,0,1.6,0.7,1.6,1.6v1.6h-14.6V10.8L-25.5,10.8z M-10.8,20.2c0,0.8-0.7,1.6-1.6,1.6h-11.5c-0.8,0-1.6-0.7-1.6-1.6v-6.8h14.6
			V20.2z"/>
		<path id="XMLID_49_" class="st1" d="M-22.8,20.2c0.3,0,0.5-0.1,0.7-0.3s0.3-0.5,0.3-0.7s-0.1-0.5-0.3-0.7c-0.4-0.4-1-0.4-1.5,0
			c-0.2,0.2-0.3,0.4-0.3,0.7c0,0.2,0.1,0.5,0.3,0.7S-23.2,20.2-22.8,20.2z"/>
		<path id="XMLID_48_" class="st1" d="M-22.8,17.1c0.3,0,0.5-0.1,0.7-0.3s0.3-0.5,0.3-0.7c0-0.2-0.1-0.5-0.3-0.7
			c-0.4-0.4-1-0.4-1.5,0c-0.2,0.2-0.3,0.4-0.3,0.7c0,0.3,0.1,0.5,0.3,0.7S-23.2,17.1-22.8,17.1z"/>
		<path id="XMLID_47_" class="st1" d="M-19.7,20.2c0.3,0,0.5-0.1,0.7-0.3s0.3-0.5,0.3-0.7s-0.1-0.5-0.3-0.7c-0.4-0.4-1-0.4-1.5,0
			c-0.2,0.2-0.3,0.5-0.3,0.7s0.1,0.5,0.3,0.7S-20,20.2-19.7,20.2z"/>
		<path id="XMLID_46_" class="st1" d="M-19.7,17.1c0.3,0,0.5-0.1,0.7-0.3s0.3-0.5,0.3-0.7c0-0.2-0.1-0.5-0.3-0.7
			c-0.4-0.4-1-0.4-1.5,0c-0.2,0.2-0.3,0.5-0.3,0.7c0,0.2,0.1,0.5,0.3,0.7S-20,17.1-19.7,17.1z"/>
		<path id="XMLID_45_" class="st1" d="M-16.6,20.2c0.3,0,0.5-0.1,0.7-0.3s0.3-0.4,0.3-0.7c0-0.3-0.1-0.5-0.3-0.7
			c-0.4-0.4-1-0.4-1.5,0c-0.2,0.2-0.3,0.5-0.3,0.7s0.1,0.5,0.3,0.7S-16.9,20.2-16.6,20.2z"/>
		<path id="XMLID_44_" class="st1" d="M-16.6,17.1c0.3,0,0.5-0.1,0.7-0.3s0.3-0.4,0.3-0.7c0-0.2-0.1-0.5-0.3-0.7
			c-0.4-0.4-1-0.4-1.5,0c-0.2,0.2-0.3,0.5-0.3,0.7c0,0.2,0.1,0.5,0.3,0.7S-16.9,17.1-16.6,17.1z"/>
		<path id="XMLID_43_" class="st1" d="M-13.4,20.2c0.3,0,0.5-0.1,0.7-0.3c0.2-0.2,0.3-0.5,0.3-0.7s-0.1-0.5-0.3-0.7
			c-0.4-0.4-1-0.4-1.5,0c-0.2,0.2-0.3,0.4-0.3,0.7c0,0.2,0.1,0.5,0.3,0.7S-13.7,20.2-13.4,20.2z"/>
		<path id="XMLID_42_" class="st1" d="M-13.4,17.1c0.3,0,0.5-0.1,0.7-0.3c0.2-0.2,0.3-0.4,0.3-0.7c0-0.2-0.1-0.5-0.3-0.7
			c-0.4-0.4-1-0.4-1.5,0c-0.2,0.2-0.3,0.5-0.3,0.7c0,0.2,0.1,0.5,0.3,0.7S-13.7,17.1-13.4,17.1z"/>
	</g>
</g>
<g id="XMLID_26_">
	<path id="XMLID_24_" class="st1" d="M14.4,9.3c-0.2,0-0.4,0.2-0.4,0.4s0.2,0.4,0.4,0.4s0.4-0.2,0.4-0.4S14.6,9.3,14.4,9.3z"/>
	<path id="XMLID_37_" class="st1" d="M22.9,10.7h-1.7l-0.5-2c-0.1-0.5-0.5-0.8-1-0.8h-6c-0.5,0-0.9,0.3-1,0.8l-0.5,2h-1.4v-0.4
		c0-0.6-0.5-1.1-1.1-1.1H8.2c-0.6,0-1.1,0.5-1.1,1.1v0.4H6.7c-0.6,0-1.1,0.5-1.1,1.1v9.3c0,0.6,0.5,1.1,1.1,1.1h16.2
		c0.6,0,1.1-0.5,1.1-1.1v-9.3C24,11.2,23.5,10.7,22.9,10.7z M13.2,8.8c0-0.2,0.2-0.3,0.3-0.3h6c0.2,0,0.3,0.1,0.3,0.3l0.5,1.9h-7.7
		L13.2,8.8z M7.8,10.4C7.8,10.2,8,10,8.2,10h1.4c0.2,0,0.4,0.2,0.4,0.4v0.4H7.8V10.4z M6.4,17.9h1.1c0.2,0,0.4-0.2,0.4-0.4
		s-0.2-0.4-0.4-0.4H6.4v-1.4h1.1c0.2,0,0.4-0.2,0.4-0.4S7.6,15,7.4,15H6.4v-1.4h2.5c0.2,0,0.4,0.2,0.4,0.4v5c0,0.2-0.2,0.4-0.4,0.4
		H6.4V17.9z M23.2,21.1c0,0.2-0.2,0.4-0.4,0.4H6.7c-0.2,0-0.4-0.2-0.4-0.4V20h2.5c0.6,0,1.1-0.5,1.1-1.1v-5c0-0.6-0.5-1.1-1.1-1.1
		H6.4v-1.1c0-0.2,0.2-0.4,0.4-0.4h16.2c0.2,0,0.4,0.2,0.4,0.4V21.1z"/>
	<path id="XMLID_33_" class="st1" d="M16.6,12.1c-2.4,0-4.3,1.9-4.3,4.3s1.9,4.3,4.3,4.3s4.3-1.9,4.3-4.3S19,12.1,16.6,12.1z
		 M16.6,20c-2,0-3.6-1.6-3.6-3.6s1.6-3.6,3.6-3.6s3.6,1.6,3.6,3.6S18.6,20,16.6,20z"/>
	<path id="XMLID_30_" class="st1" d="M16.6,13.6c-1.6,0-2.9,1.3-2.9,2.9s1.3,2.9,2.9,2.9c1.6,0,2.9-1.3,2.9-2.9S18.2,13.6,16.6,13.6
		z M16.6,18.6c-1.2,0-2.1-1-2.1-2.1s1-2.1,2.1-2.1s2.1,1,2.1,2.1S17.8,18.6,16.6,18.6z"/>
	<path id="XMLID_14_" class="st1" d="M16.6,15c-0.8,0-1.4,0.6-1.4,1.4c0,0.2,0.2,0.4,0.4,0.4c0.2,0,0.4-0.2,0.4-0.4
		c0-0.4,0.3-0.7,0.7-0.7c0.2,0,0.4-0.2,0.4-0.4S16.8,15,16.6,15z"/>
	<path id="XMLID_13_" class="st1" d="M18.7,9.3h-2.9c-0.2,0-0.4,0.2-0.4,0.4s0.2,0.4,0.4,0.4h2.9c0.2,0,0.4-0.2,0.4-0.4
		S18.9,9.3,18.7,9.3z"/>
	<path id="XMLID_2_" class="st1" d="M22.2,12.1h-1.6c-0.2,0-0.4,0.2-0.4,0.4s0.2,0.4,0.4,0.4h1.6c0.2,0,0.4-0.2,0.4-0.4
		S22.4,12.1,22.2,12.1z"/>
</g>
</svg>
