<?xml version="1.0" encoding="utf-8"?>
<!-- Generator: Adobe Illustrator 19.0.0, SVG Export Plug-In . SVG Version: 6.00 Build 0)  -->
<svg version="1.1" id="레이어_1" xmlns="http://www.w3.org/2000/svg" xmlns:xlink="http://www.w3.org/1999/xlink" x="0px"
	 y="0px" viewBox="0 0 26 26" style="enable-background:new 0 0 26 26;" xml:space="preserve">
<style type="text/css">
	.st0{fill:#4A4A4A;}
</style>
<g id="XMLID_7_">
	<g id="XMLID_8_">
		<path id="XMLID_11_" class="st0" d="M14.9,3.8c-1.7,0-3.4,0.5-4.9,1.3C8.7,5.9,7.6,7,6.8,8.2H3.1c-1.5,0-2.7,1.2-2.7,2.7v4.9
			c0,1.5,1.2,2.7,2.7,2.7h3.7c0.8,1.3,1.9,2.4,3.2,3.1c1.5,0.9,3.1,1.3,4.9,1.3c0.4,0,0.7-0.3,0.7-0.7V4.5
			C15.6,4.1,15.3,3.8,14.9,3.8z M6.5,17.1H3.1c-0.7,0-1.3-0.6-1.3-1.3v-4.9c0-0.7,0.6-1.3,1.3-1.3h3.4C6.5,9.6,6.5,17.1,6.5,17.1z
			 M14.2,21.5c-2.6-0.2-5-1.7-6.3-3.9V9.1c1.4-2.2,3.7-3.7,6.3-3.9V21.5z"/>
		<path id="XMLID_2_" class="st0" d="M18.3,8c-0.3-0.2-0.7-0.1-1,0.2c-0.2,0.3-0.1,0.7,0.2,1c1.4,1,2.2,2.5,2.2,4.2
			s-0.8,3.3-2.2,4.2c-0.3,0.2-0.4,0.6-0.2,1c0.1,0.2,0.3,0.3,0.6,0.3c0.1,0,0.3,0,0.4-0.1c1.7-1.2,2.8-3.2,2.8-5.3S20,9.2,18.3,8z"
			/>
		<path id="XMLID_1_" class="st0" d="M20.9,5.2C20.6,5,20.2,5,20,5.3c-0.2,0.3-0.1,0.7,0.2,1c2.3,1.6,3.7,4.3,3.7,7.1
			s-1.4,5.5-3.7,7.1c-0.3,0.2-0.4,0.6-0.2,1c0.1,0.2,0.3,0.3,0.6,0.3c0.1,0,0.3,0,0.4-0.1c2.7-1.9,4.3-4.9,4.3-8.2S23.6,7,20.9,5.2z
			"/>
	</g>
</g>
</svg>
