<?xml version="1.0" encoding="utf-8"?>
<!-- Generator: Adobe Illustrator 19.0.0, SVG Export Plug-In . SVG Version: 6.00 Build 0)  -->
<svg version="1.1" id="레이어_1" xmlns="http://www.w3.org/2000/svg" xmlns:xlink="http://www.w3.org/1999/xlink" x="0px"
	 y="0px" viewBox="0 0 84 40" style="enable-background:new 0 0 84 40;" xml:space="preserve">
<style type="text/css">
	.st0{fill:#EDAF41;}
	.st1{fill:#FFFFFF;}
	.st2{fill:#E36675;}
	.st3{fill:#28AD92;}
	.st4{fill:#70A6CF;}
	.st5{fill:#D7D5D6;}
</style>
<g id="XMLID_44_">
	<g id="XMLID_16_">
		<path id="XMLID_15_" class="st0" d="M25.6,9.6c0,3.1-2.5,5.6-5.6,5.6c-3.1,0-5.6-2.5-5.6-5.6C14.4,6.5,16.9,4,20,4
			C23.1,4,25.6,6.5,25.6,9.6"/>
		<path id="XMLID_33_" class="st1" d="M18.5,8.2h2.9V7.4h-2.9V8.2z M22.3,9.1h-4.6V6.6h4.6V9.1z M22.7,9.6v0.8h-2.2v0.8h-0.8v-0.8
			h-1.1v1.3h3.8v0.9h-4.8v-2.1h-0.4V9.6H22.7z"/>
		<path id="XMLID_11_" class="st2" d="M38.9,9.6c0,3.1-2.5,5.6-5.6,5.6c-3.1,0-5.6-2.5-5.6-5.6c0-3.1,2.5-5.6,5.6-5.6
			C36.3,4,38.9,6.5,38.9,9.6"/>
		<path id="XMLID_28_" class="st1" d="M31.5,9.7c0,0.2,0.1,0.3,0.2,0.4c0.1,0.1,0.3,0.2,0.5,0.2c0.2,0,0.3-0.1,0.5-0.2
			c0.1-0.1,0.2-0.2,0.2-0.4V9.4c0-0.2-0.1-0.3-0.2-0.4c-0.1-0.1-0.3-0.2-0.5-0.2c-0.2,0-0.3,0.1-0.5,0.2c-0.1,0.1-0.2,0.2-0.2,0.4
			V9.7z M31.7,6.9V6.5h0.9v0.5h1.2v0.8h-3.4V6.9H31.7z M36.1,9.6h-0.7v3.1h-5.1v-0.9h1.4V11c-0.2,0-0.3-0.1-0.4-0.2
			c-0.1-0.1-0.2-0.2-0.3-0.3c-0.1-0.1-0.2-0.2-0.2-0.3c-0.1-0.1-0.1-0.3-0.1-0.4V9.3c0-0.2,0-0.3,0.1-0.5c0.1-0.1,0.2-0.3,0.3-0.4
			c0.1-0.1,0.3-0.2,0.5-0.3c0.2-0.1,0.4-0.1,0.6-0.1s0.4,0,0.6,0.1c0.2,0.1,0.3,0.2,0.5,0.3c0.1,0.1,0.2,0.2,0.3,0.4
			c0.1,0.1,0.1,0.3,0.1,0.5v0.6c0,0.1,0,0.3-0.1,0.4c-0.1,0.1-0.1,0.2-0.2,0.3c-0.1,0.1-0.2,0.2-0.3,0.3c-0.1,0.1-0.3,0.1-0.4,0.2
			v0.8h1.9V6.7h0.9v2.1h0.7V9.6z"/>
		<path id="XMLID_7_" class="st3" d="M52.1,9.6c0,3.1-2.5,5.6-5.6,5.6c-3.1,0-5.6-2.5-5.6-5.6c0-3.1,2.5-5.6,5.6-5.6
			C49.6,4,52.1,6.5,52.1,9.6"/>
		<path id="XMLID_23_" class="st1" d="M44.9,8c0,0.2,0,0.3,0.1,0.4c0.1,0.1,0.2,0.2,0.4,0.2h2.1c0.2,0,0.3-0.1,0.4-0.2
			C48,8.3,48,8.2,48,8c0-0.2,0-0.3-0.1-0.4c-0.1-0.1-0.2-0.2-0.4-0.2h-2.1c-0.2,0-0.3,0.1-0.4,0.2C44.9,7.7,44.9,7.9,44.9,8 M44,7.8
			c0-0.2,0-0.3,0.1-0.5c0.1-0.2,0.2-0.3,0.3-0.4c0.1-0.1,0.3-0.2,0.4-0.3c0.2-0.1,0.3-0.1,0.5-0.1h2.4c0.2,0,0.3,0,0.5,0.1
			c0.2,0.1,0.3,0.2,0.4,0.3c0.1,0.1,0.2,0.2,0.3,0.4c0.1,0.2,0.1,0.3,0.1,0.5v0.4c0,0.2,0,0.3-0.1,0.5c-0.1,0.2-0.2,0.3-0.3,0.4
			c-0.1,0.1-0.3,0.2-0.4,0.3c-0.2,0.1-0.3,0.1-0.5,0.1h-2.4c-0.2,0-0.3,0-0.5-0.1c-0.2-0.1-0.3-0.2-0.4-0.3
			c-0.1-0.1-0.2-0.2-0.3-0.4C44,8.5,44,8.4,44,8.2V7.8z M49.2,10.3v0.8H48v1.5h-0.9v-1.5h-1.3v1.5h-0.9v-1.5h-1.2v-0.8H49.2z"/>
		<path id="XMLID_3_" class="st4" d="M65.3,9.6c0,3.1-2.5,5.6-5.6,5.6c-3.1,0-5.6-2.5-5.6-5.6c0-3.1,2.5-5.6,5.6-5.6
			C62.8,4,65.3,6.5,65.3,9.6"/>
		<path id="XMLID_19_" class="st1" d="M62.6,8.6h-0.7v4h-4.7v-2h0.9v1.1H61V6.6h0.9v1.2h0.7V8.6z M59.1,6.6l1.3,3.1h-1l-0.8-1.8
			l-0.8,1.8h-1L58,6.6H59.1z"/>
	</g>
	<g id="XMLID_43_">
		<g id="XMLID_42_">
			<path id="XMLID_38_" class="st5" d="M11.1,21c-0.1,0-0.2,0-0.4,0.1c-0.1,0-0.2,0.1-0.4,0.1c-0.1,0.1-0.2,0.1-0.2,0.1
				c-0.1,0-0.1,0.1-0.2,0.1c-0.1,0-0.1,0.1-0.2,0.1c0,0-0.1,0-0.1,0.1c-0.2,0-0.4,0.2-0.5,0.4c-0.2,0.2-0.3,0.5-0.4,0.8
				c-0.1,0.2-0.1,0.3-0.2,0.5c-0.1,0.1-0.1,0.3-0.1,0.4c0,0.2,0.1,0.3,0.1,0.5c0,0.1,0.1,0.3,0.1,0.4c0,0.1,0.1,0.2,0.1,0.3
				c0,0.1,0.1,0.2,0.1,0.3c0,0.2,0.1,0.3,0.1,0.4c0,0.1,0.1,0.1,0.1,0.1l0.2,0.1c0,0,0,0,0,0c0,0,0,0,0,0.1c0,0,0,0.1,0,0.1
				c0,0,0,0.1,0.1,0.1c0,0.1,0,0.1,0.1,0.1c0,0,0.1,0,0.2,0l0.2,0.2c0,0,0,0,0,0c0,0,0,0,0.1,0c0,0,0.1,0,0.1,0c0,0,0.1,0,0.1,0
				c0.1,0,0.1,0.1,0.1,0.1c0,0,0.1,0,0.1,0c0.2,0.1,0.3,0.1,0.5,0.2c0.2,0.1,0.4,0.1,0.5,0.1c0,0,0.1,0,0.1,0c0,0,0.1,0,0.2-0.1
				c0.1-0.1,0.2-0.1,0.3-0.1c0.1,0,0.2,0,0.2,0c0.2,0,0.5-0.1,0.7-0.2c0.2-0.1,0.5-0.3,0.8-0.6c0.2-0.3,0.4-0.5,0.6-0.8
				c0.1-0.3,0.2-0.5,0.2-0.7c0-0.4-0.1-0.8-0.2-1.1c-0.1-0.3-0.3-0.7-0.4-1c-0.2-0.3-0.5-0.6-0.8-0.8c-0.3-0.2-0.6-0.3-1-0.3
				c-0.1,0-0.1,0-0.2,0c-0.1,0-0.2,0-0.3-0.1c-0.1,0-0.2-0.1-0.2-0.1C11.2,21.1,11.1,21,11.1,21 M16.3,24.5c0,0.6-0.1,1.2-0.4,1.7
				c-0.3,0.5-0.6,1-1.1,1.4c-0.5,0.4-1,0.7-1.6,0.9c-0.6,0.2-1.1,0.3-1.8,0.3c-0.1,0-0.2,0-0.3,0c-0.1,0-0.2,0-0.3-0.1
				c-0.1,0-0.1,0-0.2,0c-0.1,0-0.1,0-0.2,0c0,0-0.1,0-0.1,0c0,0-0.1,0-0.1,0c-0.1,0-0.2-0.1-0.3-0.2c-0.1-0.1-0.3-0.1-0.5-0.2
				c-0.2-0.1-0.4-0.1-0.5-0.2C8.8,28,8.6,28,8.6,27.9c-0.2-0.2-0.5-0.4-0.7-0.6c-0.2-0.2-0.4-0.5-0.6-0.8c-0.2-0.3-0.4-0.6-0.5-0.9
				c-0.1-0.3-0.2-0.6-0.2-0.8c0-0.3,0-0.6,0.1-1c0-0.4,0.1-0.8,0.3-1.2c0.1-0.4,0.2-0.8,0.4-1.1c0.2-0.3,0.3-0.5,0.5-0.6l0.4-0.3
				c0-0.2,0.1-0.3,0.3-0.5c0.2-0.1,0.4-0.3,0.6-0.4c0.2-0.1,0.5-0.2,0.7-0.3c0.2-0.1,0.4-0.1,0.6-0.1c0,0,0.1,0,0.1,0
				c0.1,0,0.1,0,0.2,0c0.1,0,0.1,0,0.2,0c0.1,0,0.2,0,0.3,0c0.2,0,0.3,0,0.4,0h0.2h0.2c0.1,0,0.1,0,0.2,0l0.1,0c0,0,0.1,0.1,0.1,0.1
				c0,0,0.1,0,0.1,0c0,0,0.1,0,0.1,0.1c0.1,0,0.1,0,0.2,0c0.1,0,0.2,0,0.2,0c0.1,0,0.1,0,0.2,0.1c0,0,0.1,0.1,0.2,0.1
				c0.1,0,0.2,0.1,0.4,0.1c0.2,0,0.3,0.1,0.4,0.1c0.1,0,0.2,0.1,0.4,0.1c0.1,0.1,0.2,0.2,0.4,0.4c0.1,0.2,0.3,0.4,0.5,0.6
				c0.2,0.3,0.3,0.5,0.4,0.7c0.1,0.2,0.2,0.4,0.3,0.5c0,0.1,0,0.2,0,0.2c0,0.1,0,0.1,0,0.2c0,0,0,0.1,0,0.1c0,0,0,0.1,0,0.1V23v0.1
				c0,0,0,0.1,0,0.1c0,0,0,0.1,0,0.1v0.1v0.1L16.3,24.5z M20.6,30.9c0,0.1,0,0.2,0,0.2c0,0.1,0,0.1,0.1,0.2c0,0.1,0,0.2,0,0.2
				c0,0.1,0,0.1,0,0.2c0,0.1,0,0.2,0,0.3c0,0.1-0.1,0.2-0.1,0.3c-0.1,0.1-0.1,0.2-0.2,0.2c-0.1,0-0.2,0.1-0.3,0.1h-0.2
				c-0.1,0-0.2,0-0.3,0c-0.1,0-0.2,0-0.3,0c-0.1,0-0.1,0-0.1,0c-0.1,0-0.2,0.1-0.3,0.1c-0.1,0-0.1,0-0.2,0c0,0-0.1,0-0.2,0
				c-0.1,0-0.1,0-0.2-0.1c-0.1,0-0.1,0-0.2,0c0,0-0.1,0-0.1,0c0,0-0.1,0-0.1,0c0,0,0,0-0.1,0c0,0-0.1,0-0.1,0c0,0-0.1,0-0.1,0
				c0,0-0.1,0-0.2,0c-0.1,0-0.1,0-0.2,0c-0.1,0-0.2,0.1-0.3,0.1c-0.1,0-0.1,0-0.2,0h-0.2c-0.1,0-0.2,0-0.3,0c-0.1,0-0.2,0-0.2,0
				c-0.1,0-0.1,0-0.2,0c-0.1,0-0.1,0-0.1,0c0,0-0.1,0-0.1,0h-0.3c-0.1,0-0.3,0-0.4,0c-0.1,0-0.2,0-0.3,0c-0.1,0-0.1,0-0.2,0
				c-0.1,0-0.1,0-0.2,0c0,0-0.1,0-0.1,0c0,0,0,0-0.1,0c0,0,0,0-0.1,0c0,0-0.1,0-0.1,0c-0.1,0-0.1,0-0.2,0c-0.1,0-0.2,0-0.3,0
				c-0.1,0-0.1,0-0.1,0c-0.1,0-0.2-0.1-0.2-0.1c-0.1,0-0.1,0-0.2,0c-0.1,0.1-0.2,0.1-0.4,0.1c-0.1,0-0.2,0-0.3,0l-1.4-0.1
				c-0.1,0-0.1,0-0.2,0c-0.1,0-0.2,0-0.3,0c-0.1,0-0.2,0-0.3,0h-0.1h-0.1c0,0,0,0-0.1,0c-0.1,0-0.2-0.1-0.2-0.1c-0.1,0-0.1,0-0.1,0
				c0,0-0.1,0-0.2,0.1c-0.1,0-0.1,0.1-0.2,0.1c-0.1,0-0.1,0.1-0.2,0.1c0,0-0.1,0-0.1,0c-0.2,0-0.4,0-0.6,0c-0.2,0-0.4,0-0.6-0.1
				c-0.2,0-0.4,0-0.7-0.1c-0.2,0-0.4-0.1-0.6-0.1c0,0-0.1,0-0.2,0.1c-0.1,0-0.2,0-0.4,0c-0.2,0-0.3,0-0.4,0H5.5H4.9H4.3
				c-0.2,0-0.4,0-0.7,0c-0.3,0-0.5,0-0.6,0c-0.2,0-0.3,0-0.3,0c0,0,0,0-0.1,0c0,0,0,0,0-0.1c0,0,0-0.1-0.1-0.1c0,0,0-0.1-0.1-0.1
				c0,0-0.1-0.1-0.1-0.1c0-0.1,0-0.1,0-0.1c0,0,0-0.1,0-0.1c0-0.1,0-0.1,0-0.2c0-0.1,0-0.1,0-0.2c0-0.1,0-0.1,0.1-0.2
				c0-0.1,0.1-0.2,0.1-0.3c0-0.1,0.1-0.1,0.1-0.1c0,0,0,0,0.1,0c0,0,0.1,0,0.1,0c0,0,0.1,0,0.1,0h0.1h0.2c0.1,0,0.1,0,0.2,0
				c0.1,0,0.2,0,0.3,0c0.1,0,0.2,0,0.2,0c0.1,0,0.1,0,0.2,0c0,0,0.1,0,0.1,0c0,0,0.1,0,0.2,0c0.1,0,0.1,0,0.2-0.1c0.1,0,0.2,0,0.2,0
				c0.1,0,0.1,0,0.2,0l1,0c0,0,0,0,0.1,0c0,0,0,0,0.1,0c0,0,0,0,0.1,0c0,0,0.1,0.1,0.1,0.1c0,0,0.1,0,0.1,0h0.1c0,0,0.1,0,0.2,0
				c0,0,0.1,0,0.1,0c0,0,0.1,0,0.1,0c0,0,0.1,0,0.1,0c0,0,0,0,0.1,0c0,0,0,0,0.1,0c0,0,0.1,0,0.2,0c0,0,0.1,0,0.1,0h0.1h0.6
				c0.2,0,0.3,0,0.5,0c0.3,0,0.5,0,0.7,0c0.2,0,0.4,0,0.5,0c0.2,0,0.3,0,0.4,0c0.1,0,0.2,0,0.2,0c0,0,0.1,0,0.2,0
				c0.1,0,0.1,0,0.3-0.1c0.1,0,0.2,0,0.2,0c0.1,0,0.1,0,0.2,0c0.1,0,0.2,0,0.3,0c0.1,0,0.2,0,0.3,0c0.1,0,0.2,0,0.3,0h0.1h0.8
				c0.3,0,0.6,0,1,0c0.4,0,0.7,0,0.9,0c0.2,0,0.4,0,0.5,0c0.2,0,0.4,0,0.6,0c0.2,0,0.5,0,0.7,0c0.2,0,0.4,0,0.7,0.1
				c0.2,0,0.4,0,0.6,0c0,0,0.1,0,0.1,0c0.1,0,0.1,0,0.2,0h0.1h0.1c0,0,0.1,0,0.1,0c0,0,0.1,0,0.1,0c0.1,0,0.1,0,0.2,0
				c0.1,0,0.1,0,0.2,0h0.2h0.2c0.1,0,0.3,0,0.4,0C20.3,30.9,20.4,30.9,20.6,30.9"/>
			<path id="XMLID_37_" class="st0" d="M8.5,36.4c-0.3,0-0.6,0-0.8,0c-0.2,0-0.4-0.1-0.5-0.1c-0.2-0.1-0.4-0.2-0.5-0.4
				c-0.1-0.2-0.2-0.4-0.2-0.7c0-0.2,0-0.4,0.1-0.6c0-0.2,0.1-0.3,0.2-0.5c0.1-0.1,0.2-0.2,0.4-0.3c0.2-0.1,0.3-0.1,0.5-0.1h0.9
				c0.1,0,0.3,0,0.4,0.1c0.1,0.1,0.2,0.2,0.3,0.3c0.1,0.1,0.2,0.2,0.3,0.4c0.1,0.1,0.1,0.3,0.1,0.4c0,0.2,0,0.4-0.1,0.6
				c-0.1,0.2-0.1,0.3-0.2,0.5c-0.1,0.2-0.3,0.4-0.4,0.5C8.8,36.3,8.6,36.4,8.5,36.4"/>
			<path id="XMLID_36_" class="st2" d="M14.4,36.4c-0.3,0-0.5,0-0.7-0.1c-0.2-0.1-0.4-0.1-0.5-0.2c-0.2-0.1-0.3-0.3-0.4-0.5
				c-0.1-0.2-0.1-0.4-0.1-0.7c0-0.2,0-0.4,0.1-0.5c0-0.2,0.1-0.3,0.2-0.5c0.1-0.1,0.2-0.2,0.3-0.3c0.1-0.1,0.3-0.1,0.5-0.1H14
				c0.1,0,0.2,0,0.3,0c0.1,0,0.1,0,0.2,0c0,0,0.1,0,0.1,0c0.1,0,0.3,0,0.4,0.1c0.1,0.1,0.3,0.2,0.4,0.3c0.1,0.1,0.2,0.3,0.3,0.4
				c0.1,0.1,0.1,0.3,0.1,0.5c0,0.2,0,0.4-0.1,0.6c-0.1,0.2-0.1,0.4-0.2,0.5c-0.1,0.2-0.3,0.3-0.5,0.4C14.8,36.4,14.6,36.4,14.4,36.4
				"/>
			<path id="XMLID_31_" class="st5" d="M31.2,21c-0.1,0-0.2,0-0.4,0.1c-0.1,0-0.2,0.1-0.4,0.1c-0.1,0.1-0.2,0.1-0.2,0.1
				c-0.1,0-0.1,0.1-0.2,0.1c-0.1,0-0.1,0.1-0.2,0.1c0,0-0.1,0-0.1,0.1c-0.2,0-0.4,0.2-0.5,0.4c-0.2,0.2-0.3,0.5-0.4,0.8
				c-0.1,0.2-0.1,0.3-0.2,0.5c-0.1,0.1-0.1,0.3-0.1,0.4c0,0.2,0.1,0.3,0.1,0.5c0,0.1,0.1,0.3,0.1,0.4c0,0.1,0.1,0.2,0.1,0.3
				c0,0.1,0.1,0.2,0.1,0.3c0,0.2,0.1,0.3,0.1,0.4c0,0.1,0.1,0.1,0.1,0.1l0.2,0.1c0,0,0,0,0,0c0,0,0,0,0,0.1c0,0,0,0.1,0,0.1
				c0,0,0,0.1,0.1,0.1c0,0.1,0,0.1,0.1,0.1c0,0,0.1,0,0.2,0l0.2,0.2c0,0,0,0,0,0c0,0,0,0,0.1,0c0,0,0.1,0,0.1,0c0,0,0.1,0,0.1,0
				c0.1,0,0.1,0.1,0.1,0.1c0,0,0.1,0,0.1,0c0.2,0.1,0.3,0.1,0.5,0.2c0.2,0.1,0.4,0.1,0.5,0.1c0,0,0.1,0,0.1,0c0,0,0.1,0,0.2-0.1
				c0.1-0.1,0.2-0.1,0.3-0.1c0.1,0,0.2,0,0.2,0c0.2,0,0.5-0.1,0.7-0.2c0.2-0.1,0.5-0.3,0.8-0.6c0.2-0.3,0.4-0.5,0.6-0.8
				c0.1-0.3,0.2-0.5,0.2-0.7c0-0.4-0.1-0.8-0.2-1.1c-0.1-0.3-0.3-0.7-0.4-1c-0.2-0.3-0.5-0.6-0.8-0.8c-0.3-0.2-0.6-0.3-1-0.3
				c-0.1,0-0.1,0-0.2,0c-0.1,0-0.2,0-0.3-0.1c-0.1,0-0.2-0.1-0.2-0.1C31.3,21.1,31.2,21,31.2,21 M36.4,24.5c0,0.6-0.1,1.2-0.4,1.7
				c-0.3,0.5-0.6,1-1.1,1.4c-0.5,0.4-1,0.7-1.6,0.9c-0.6,0.2-1.1,0.3-1.8,0.3c-0.1,0-0.2,0-0.3,0c-0.1,0-0.2,0-0.3-0.1
				c-0.1,0-0.1,0-0.2,0c-0.1,0-0.1,0-0.2,0c0,0-0.1,0-0.1,0c0,0-0.1,0-0.1,0c-0.1,0-0.2-0.1-0.3-0.2c-0.1-0.1-0.3-0.1-0.5-0.2
				c-0.2-0.1-0.4-0.1-0.5-0.2c-0.1-0.1-0.3-0.1-0.3-0.2c-0.2-0.2-0.5-0.4-0.7-0.6c-0.2-0.2-0.4-0.5-0.6-0.8
				c-0.2-0.3-0.4-0.6-0.5-0.9c-0.1-0.3-0.2-0.6-0.2-0.8c0-0.3,0-0.6,0.1-1c0-0.4,0.1-0.8,0.3-1.2c0.1-0.4,0.2-0.8,0.4-1.1
				c0.2-0.3,0.3-0.5,0.5-0.6l0.4-0.3c0-0.2,0.1-0.3,0.3-0.5c0.2-0.1,0.4-0.3,0.6-0.4c0.2-0.1,0.5-0.2,0.7-0.3
				c0.2-0.1,0.4-0.1,0.6-0.1c0,0,0.1,0,0.1,0c0.1,0,0.1,0,0.2,0c0.1,0,0.1,0,0.2,0c0.1,0,0.2,0,0.3,0c0.2,0,0.3,0,0.4,0h0.2h0.2
				c0.1,0,0.1,0,0.2,0l0.1,0c0,0,0.1,0.1,0.1,0.1c0,0,0.1,0,0.1,0c0,0,0.1,0,0.1,0.1c0.1,0,0.1,0,0.2,0c0.1,0,0.2,0,0.2,0
				c0.1,0,0.1,0,0.2,0.1c0,0,0.1,0.1,0.2,0.1c0.1,0,0.2,0.1,0.4,0.1c0.2,0,0.3,0.1,0.4,0.1c0.1,0,0.2,0.1,0.4,0.1
				c0.1,0.1,0.2,0.2,0.4,0.4c0.1,0.2,0.3,0.4,0.5,0.6c0.2,0.3,0.3,0.5,0.4,0.7c0.1,0.2,0.2,0.4,0.3,0.5c0,0.1,0,0.2,0,0.2
				c0,0.1,0,0.1,0,0.2c0,0,0,0.1,0,0.1c0,0,0,0.1,0,0.1V23v0.1c0,0,0,0.1,0,0.1c0,0,0,0.1,0,0.1v0.1v0.1L36.4,24.5z M40.7,30.9
				c0,0.1,0,0.2,0,0.2c0,0.1,0,0.1,0.1,0.2c0,0.1,0,0.2,0,0.2c0,0.1,0,0.1,0,0.2c0,0.1,0,0.2,0,0.3c0,0.1-0.1,0.2-0.1,0.3
				c-0.1,0.1-0.1,0.2-0.2,0.2c-0.1,0-0.2,0.1-0.3,0.1H40c-0.1,0-0.2,0-0.3,0c-0.1,0-0.2,0-0.3,0c-0.1,0-0.1,0-0.1,0
				c-0.1,0-0.2,0.1-0.3,0.1c-0.1,0-0.1,0-0.2,0c0,0-0.1,0-0.2,0c-0.1,0-0.1,0-0.2-0.1c-0.1,0-0.1,0-0.2,0c0,0-0.1,0-0.1,0
				c0,0-0.1,0-0.1,0c0,0,0,0-0.1,0c0,0-0.1,0-0.1,0c0,0-0.1,0-0.1,0c0,0-0.1,0-0.2,0c-0.1,0-0.1,0-0.2,0c-0.1,0-0.2,0.1-0.3,0.1
				c-0.1,0-0.1,0-0.2,0h-0.2c-0.1,0-0.2,0-0.3,0c-0.1,0-0.2,0-0.2,0c-0.1,0-0.1,0-0.2,0s-0.1,0-0.1,0c0,0-0.1,0-0.1,0h-0.3
				c-0.1,0-0.3,0-0.4,0c-0.1,0-0.2,0-0.3,0c-0.1,0-0.1,0-0.2,0c-0.1,0-0.1,0-0.2,0c0,0-0.1,0-0.1,0c0,0,0,0-0.1,0c0,0,0,0-0.1,0
				c0,0-0.1,0-0.1,0c-0.1,0-0.1,0-0.2,0c-0.1,0-0.2,0-0.3,0s-0.1,0-0.1,0c-0.1,0-0.2-0.1-0.2-0.1c-0.1,0-0.1,0-0.2,0
				c-0.1,0.1-0.2,0.1-0.4,0.1c-0.1,0-0.2,0-0.3,0l-1.4-0.1c-0.1,0-0.1,0-0.2,0c-0.1,0-0.2,0-0.3,0c-0.1,0-0.2,0-0.3,0h-0.1h-0.1
				c0,0,0,0-0.1,0c-0.1,0-0.2-0.1-0.2-0.1c-0.1,0-0.1,0-0.1,0c0,0-0.1,0-0.2,0.1c-0.1,0-0.1,0.1-0.2,0.1c-0.1,0-0.1,0.1-0.2,0.1
				c0,0-0.1,0-0.1,0c-0.2,0-0.4,0-0.6,0c-0.2,0-0.4,0-0.6-0.1c-0.2,0-0.4,0-0.7-0.1c-0.2,0-0.4-0.1-0.6-0.1c0,0-0.1,0-0.2,0.1
				c-0.1,0-0.2,0-0.4,0c-0.2,0-0.3,0-0.4,0h-0.2H25h-0.6c-0.2,0-0.4,0-0.7,0c-0.3,0-0.5,0-0.6,0c-0.2,0-0.3,0-0.3,0c0,0,0,0-0.1,0
				c0,0,0,0,0-0.1c0,0,0-0.1-0.1-0.1c0,0,0-0.1-0.1-0.1c0,0-0.1-0.1-0.1-0.1c0-0.1,0-0.1,0-0.1c0,0,0-0.1,0-0.1c0-0.1,0-0.1,0-0.2
				c0-0.1,0-0.1,0-0.2c0-0.1,0-0.1,0.1-0.2c0-0.1,0.1-0.2,0.1-0.3c0-0.1,0.1-0.1,0.1-0.1c0,0,0,0,0.1,0c0,0,0.1,0,0.1,0
				c0,0,0.1,0,0.1,0h0.1h0.2c0.1,0,0.1,0,0.2,0c0.1,0,0.2,0,0.3,0c0.1,0,0.2,0,0.2,0c0.1,0,0.1,0,0.2,0c0,0,0.1,0,0.1,0
				c0,0,0.1,0,0.2,0c0.1,0,0.1,0,0.2-0.1c0.1,0,0.2,0,0.2,0c0.1,0,0.1,0,0.2,0l1,0c0,0,0,0,0.1,0c0,0,0,0,0.1,0c0,0,0,0,0.1,0
				c0,0,0.1,0.1,0.1,0.1c0,0,0.1,0,0.1,0h0.1c0,0,0.1,0,0.2,0c0,0,0.1,0,0.1,0c0,0,0.1,0,0.1,0c0,0,0.1,0,0.1,0c0,0,0,0,0.1,0
				c0,0,0,0,0.1,0c0,0,0.1,0,0.2,0c0,0,0.1,0,0.1,0h0.1h0.6c0.2,0,0.3,0,0.5,0c0.3,0,0.5,0,0.7,0c0.2,0,0.4,0,0.5,0
				c0.2,0,0.3,0,0.4,0c0.1,0,0.2,0,0.2,0c0,0,0.1,0,0.2,0c0.1,0,0.1,0,0.3-0.1c0.1,0,0.2,0,0.2,0c0.1,0,0.1,0,0.2,0
				c0.1,0,0.2,0,0.3,0c0.1,0,0.2,0,0.3,0c0.1,0,0.2,0,0.3,0h0.1h0.8c0.3,0,0.6,0,1,0c0.4,0,0.7,0,0.9,0c0.2,0,0.4,0,0.5,0
				c0.2,0,0.4,0,0.6,0c0.2,0,0.5,0,0.7,0c0.2,0,0.4,0,0.7,0.1c0.2,0,0.4,0,0.6,0c0,0,0.1,0,0.1,0c0.1,0,0.1,0,0.2,0h0.1h0.1
				c0,0,0.1,0,0.1,0c0,0,0.1,0,0.1,0c0.1,0,0.1,0,0.2,0c0.1,0,0.1,0,0.2,0h0.2h0.2c0.1,0,0.3,0,0.4,0C40.4,30.9,40.5,30.9,40.7,30.9
				"/>
			<path id="XMLID_30_" class="st3" d="M29.1,36.4c-0.3,0-0.6,0-0.8,0c-0.2,0-0.4-0.1-0.5-0.1c-0.2-0.1-0.4-0.2-0.5-0.4
				c-0.1-0.2-0.2-0.4-0.2-0.7c0-0.2,0-0.4,0.1-0.6c0-0.2,0.1-0.3,0.2-0.5c0.1-0.1,0.2-0.2,0.4-0.3c0.2-0.1,0.3-0.1,0.5-0.1h0.9
				c0.1,0,0.3,0,0.4,0.1c0.1,0.1,0.2,0.2,0.3,0.3c0.1,0.1,0.2,0.2,0.3,0.4c0.1,0.1,0.1,0.3,0.1,0.4c0,0.2,0,0.4-0.1,0.6
				c-0.1,0.2-0.1,0.3-0.2,0.5c-0.1,0.2-0.3,0.4-0.4,0.5C29.4,36.3,29.2,36.4,29.1,36.4"/>
			<path id="XMLID_29_" class="st4" d="M35,36.4c-0.3,0-0.5,0-0.7-0.1c-0.2-0.1-0.4-0.1-0.5-0.2c-0.2-0.1-0.3-0.3-0.4-0.5
				c-0.1-0.2-0.1-0.4-0.1-0.7c0-0.2,0-0.4,0.1-0.5c0-0.2,0.1-0.3,0.2-0.5c0.1-0.1,0.2-0.2,0.3-0.3c0.1-0.1,0.3-0.1,0.5-0.1h0.2
				c0.1,0,0.2,0,0.3,0c0.1,0,0.1,0,0.2,0c0,0,0.1,0,0.1,0c0.1,0,0.3,0,0.4,0.1c0.1,0.1,0.3,0.2,0.4,0.3c0.1,0.1,0.2,0.3,0.3,0.4
				c0.1,0.1,0.1,0.3,0.1,0.5c0,0.2,0,0.4-0.1,0.6c-0.1,0.2-0.1,0.4-0.2,0.5c-0.1,0.2-0.3,0.3-0.5,0.4C35.4,36.4,35.2,36.4,35,36.4"
				/>
		</g>
		<g id="XMLID_18_">
			<path id="XMLID_25_" class="st5" d="M75.6,24c-0.1,0.1-0.2,0.3-0.2,0.5c0,0.2-0.1,0.3-0.1,0.5c0,0.3,0,0.5,0.1,0.7
				c0.1,0.2,0.2,0.3,0.4,0.4c0.1,0.1,0.3,0.2,0.5,0.3c0.2,0.1,0.5,0.1,0.7,0.1c0.2,0,0.4,0,0.5-0.1c0.2-0.1,0.3-0.2,0.4-0.4
				c0.1-0.2,0.2-0.3,0.3-0.5c0.1-0.2,0.1-0.4,0.1-0.6c0-0.2,0-0.3-0.1-0.5c-0.1-0.1-0.2-0.3-0.3-0.4c-0.1-0.1-0.3-0.2-0.4-0.3
				c-0.1-0.1-0.3-0.1-0.5-0.1l-0.4,0c-0.1,0-0.2,0-0.3,0h-0.2c-0.2,0-0.3,0-0.4,0.1C75.8,23.8,75.7,23.9,75.6,24"/>
			<g id="XMLID_17_">
				<path id="XMLID_27_" class="st5" d="M81.1,32.2c0-0.1,0-0.2,0-0.3l0.1-0.3c0-0.1,0-0.3,0-0.4c0-0.1-0.1-0.3-0.1-0.4
					c0-0.1-0.1-0.2-0.1-0.3c0-0.1-0.1-0.2-0.1-0.2c0-0.1,0-0.1-0.1-0.2c0,0,0-0.1,0-0.1l-1,0l-2.5,0.1h-2l-0.9,0l-4.2,0L69,30.1
					L67.9,30l-0.9,0c-0.2,0-0.4,0-0.5,0c-0.1,0-0.2,0.1-0.2,0.1c-0.1,0.1-0.1,0.2-0.1,0.3c0,0.1-0.1,0.2-0.1,0.3
					c0,0.1-0.1,0.2-0.1,0.3c0,0.1-0.1,0.2-0.1,0.2c0,0.1,0.1,0.1,0.1,0.2c0,0.1,0.1,0.2,0.1,0.3c0,0.1,0.2,0.2,0.4,0.3
					c0.2,0.1,0.6,0.1,1,0.1h0.3c0.1,0,0.2,0,0.4,0l1.1-0.1l0.9,0.1l0.8-0.1l1.4-0.2l3.1,0.2c0.1,0,0.3,0,0.4,0h0.4h1.4l0.4,0
					c0.1,0,0.2,0,0.3,0c0.1,0,0.2,0,0.2,0.1l0,0.8c0,0.2,0,0.4,0,0.7c0,0.2,0.1,0.5,0.1,0.7c0,0.1,0,0.2,0,0.3c0,0.1,0,0.2,0.1,0.3
					l-0.1,0.1c0.1,0,0.1,0.1,0.2,0.1c0,0,0.1,0.1,0.1,0.2l-0.1,0.2v0.2c0,0.1,0,0.2,0,0.2l0.1,0.5c0.1,0.1,0.1,0.1,0.2,0.2
					c0.1,0,0.2,0.1,0.2,0.1c0.1,0,0.2,0,0.3,0c0.1,0,0.2,0,0.3,0h0.5l0.4-0.1c0-0.2,0.1-0.3,0.1-0.5c0-0.2,0.1-0.3,0.1-0.5
					c0-0.2,0-0.4,0.1-0.5c0-0.2,0-0.4,0-0.6l-0.1-2.2V32.2z"/>
				<path id="XMLID_26_" class="st5" d="M78.8,22.4l0,2.7l0.1,1.3l0.1,2.2c0,0.1,0,0.2,0,0.3c0,0.1,0.1,0.2,0.1,0.3
					c0,0.1,0.1,0.1,0.2,0.2c0.1,0,0.2,0,0.3,0c0,0,0,0.1,0.1,0.1c0,0,0.1,0.1,0.1,0.1l0.5,0.1c0.1,0,0.3,0,0.4-0.1
					c0.1-0.1,0.2-0.2,0.3-0.3c0-0.1,0.1-0.2,0.1-0.4c0-0.2,0.1-0.3,0.1-0.5c0-0.1,0-0.2,0-0.3c0-0.1,0-0.2-0.1-0.4
					c0-0.1-0.1-0.3-0.1-0.4c0-0.1,0-0.2,0-0.2v-0.3c0-0.1,0-0.2,0-0.4l0.1-0.5c0-0.1,0-0.2,0-0.4c0-0.2-0.1-0.4-0.1-0.7
					c0-0.2-0.1-0.4-0.1-0.6c0-0.2,0-0.3,0-0.4v-0.2c0-0.1,0-0.2,0.1-0.2l0.1-0.8l-0.1-1V21c0-0.2,0-0.4,0-0.7l0.1-0.9
					c0-0.1,0-0.2-0.1-0.3c-0.1-0.1-0.2-0.1-0.4-0.2c-0.2,0-0.3-0.1-0.5-0.1c-0.2,0-0.3,0-0.5,0l-0.4,0C79.1,18.9,79,19,79,19.1
					c0,0.1-0.1,0.3-0.1,0.4c0,0.2-0.1,0.3-0.1,0.4c0,0.1-0.1,0.2-0.1,0.2c0,0.3,0.1,0.6,0.1,1C78.8,21.6,78.8,22,78.8,22.4"/>
				<path id="XMLID_24_" class="st5" d="M67.6,28.1l1.5-2.2c0.3-0.4,0.6-0.8,0.8-1.1c0.3-0.3,0.5-0.5,0.7-0.6
					c0.1,0.1,0.3,0.4,0.7,0.8c0.3,0.4,0.8,0.9,1.3,1.6c0.5,0.7,0.9,1.2,1.1,1.5c0.3,0.3,0.5,0.5,0.5,0.5c0.1,0,0.1,0,0.2,0h0.4
					l0.8-0.2l0.5-0.5c0-0.1,0-0.2-0.1-0.3c-0.1-0.2-0.2-0.4-0.4-0.7c-0.2-0.3-0.3-0.5-0.5-0.6c-0.1-0.2-0.2-0.2-0.2-0.3
					c-0.1,0-0.2-0.1-0.3-0.2c-0.1-0.1-0.2-0.2-0.3-0.3c-0.1-0.1-0.2-0.2-0.3-0.4c-0.1-0.2-0.3-0.5-0.5-0.8c-0.1-0.1-0.2-0.3-0.5-0.6
					c-0.3-0.3-0.6-0.7-1.1-1.3c0,0-0.1-0.1-0.1-0.1c-0.1-0.4,0-0.8-0.1-1.2l0.8-0.1l0.3,0l0.4,0c0.1,0,0.1,0,0.2,0
					c0.1,0,0.1,0,0.1-0.1l0.2,0.1c0,0,0.1,0,0.2-0.1c0.1,0,0.1,0,0.2,0l0.4,0l0.4,0.1l0.2-0.1c0,0,0.1,0,0.2,0c0.1,0,0.1,0,0.2,0.1
					l0.6-0.1c0.1-0.1,0.1-0.2,0.2-0.3c0-0.1,0.1-0.3,0.1-0.4c0-0.1,0-0.2-0.1-0.4c0-0.1-0.1-0.3-0.1-0.4c-0.2,0-0.4-0.1-0.6-0.1
					c-0.2,0-0.4,0-0.6-0.1l-1.6,0h-1.3l-0.4,0.1c-0.1,0-0.2,0-0.3,0H71l-0.4,0c-0.1,0-0.2,0-0.3,0h-0.2l-1.2,0l-1.2,0
					c0,0-0.1,0-0.1-0.1c0,0-0.1,0-0.2,0l-0.1,0l-0.2-0.1c-0.1,0-0.2,0-0.3,0.1c-0.1,0-0.3,0.1-0.6,0.1c-0.1,0-0.2,0.1-0.3,0.1
					c-0.1,0-0.1,0-0.2,0l-0.6-0.1L65,20.2c0,0.1-0.1,0.2-0.1,0.3c0,0.1,0,0.1,0,0.2l0.2,0.5c0,0.1,0.1,0.2,0.2,0.2
					c0.1,0,0.2,0,0.3,0h0.2c0.1,0,0.2,0,0.3,0l0.6,0l0.5,0c0.1,0,0.2,0,0.2,0h0.2c0,0,0.1,0,0.2,0c0.1,0,0.1,0,0.2-0.1l0.3,0.1
					c0,0,0.1,0.1,0.1,0.1c0,0,0.1,0,0.1,0l0.6,0c-0.1,0.4-0.1,1,0,1.4l-1.6,2c-0.3,0.4-0.6,0.8-0.8,1.1c-0.2,0.3-0.3,0.5-0.4,0.6
					c0,0.1-0.1,0.1-0.2,0.3c-0.1,0.1-0.3,0.3-0.5,0.5c-0.2,0.2-0.3,0.3-0.4,0.4c-0.1,0.1-0.1,0.2-0.1,0.3L65,28.5
					c0,0.1,0,0.1,0.1,0.2c0.1,0.1,0.2,0.1,0.3,0.2l0.6,0.3c0.3,0,0.5-0.1,0.8-0.3C67,28.7,67.3,28.5,67.6,28.1"/>
				<path id="XMLID_22_" class="st5" d="M55.3,32.6c-0.1-0.1-0.2-0.3-0.3-0.5c-0.1-0.2-0.2-0.3-0.3-0.5c-0.1-0.1-0.2-0.3-0.2-0.5
					c-0.1-0.2-0.2-0.3-0.2-0.5c0,0,0,0-0.1-0.1c-0.1-0.1-0.1-0.1-0.2-0.2c0,0-0.1,0-0.1-0.1c0,0,0-0.1,0-0.1
					c-0.1-0.2-0.2-0.4-0.3-0.6c-0.1-0.2-0.2-0.4-0.3-0.6c-0.1-0.2-0.2-0.4-0.3-0.5c-0.1-0.2-0.2-0.3-0.3-0.5
					c-0.2-0.4-0.4-0.8-0.7-1.1c-0.2-0.4-0.4-0.7-0.6-1c0,0-0.1-0.1-0.1-0.1c0-0.1-0.1-0.1-0.2-0.2c-0.1-0.1-0.1-0.2-0.2-0.2
					c0,0,0,0,0,0c0-0.2-0.1-0.4-0.1-0.6c-0.1-0.5,0-0.9-0.1-1.4c0,0,0,0,0,0c0,0,0.1,0.1,0.2,0.1c0.1,0,0.2,0,0.3,0
					c0.1,0,0.2,0,0.3,0h0.3l0.8,0.1l0.2-0.1l0.7,0l0.4,0l0.4,0.1l0.6-0.1c0.1-0.1,0.1-0.2,0.2-0.3c0-0.1,0.1-0.3,0.1-0.4
					c0-0.1,0-0.1,0-0.2c0-0.1,0-0.1,0-0.2c0,0,0,0,0-0.1c0,0,0-0.1,0-0.1c0,0,0-0.1,0-0.1c0,0,0-0.1,0-0.2c-0.1,0-0.2,0-0.3,0
					c-0.1,0-0.2,0-0.3-0.1c-0.1,0-0.3,0-0.4,0c-0.1,0-0.2,0-0.3,0c0,0-0.1,0-0.2,0c-0.1,0-0.2,0-0.3,0c-0.1,0-0.3,0-0.4,0h-0.3
					c-0.1,0-0.3,0-0.6,0c-0.3,0-0.7,0-1.2,0c-0.5,0-1,0-1.4,0h-1h-0.3c-0.1,0-0.3,0-0.4,0c-0.2,0-0.3,0-0.4,0
					c-0.1,0-0.2-0.1-0.2-0.1c-0.1,0-0.3,0-0.4,0.1c-0.1,0-0.3,0-0.4,0c-0.1,0-0.3,0.1-0.4,0.1c-0.1,0-0.2,0-0.4,0.1
					c-0.1,0-0.2-0.1-0.2-0.1c-0.1,0-0.1,0-0.2,0c-0.1,0-0.1,0-0.1,0.1c0,0.1-0.1,0.2-0.1,0.3c0,0.1,0,0.3-0.1,0.4c0,0.1,0,0.3,0,0.4
					c0.1,0.1,0.2,0.2,0.3,0.3c0.1,0.1,0.3,0.1,0.6,0.1c0,0,0.1,0,0.2,0h0.5h0.2h0.2h0.1h0.1c0,0,0.1,0,0.1,0c0,0,0.1,0,0.1,0
					l0.6-0.1c0.1,0.1,0.3,0.2,0.4,0.2c0.1,0,0.3,0.1,0.4,0.1c0.1,0,0.1,0,0.2,0c0,0,0.1,0,0.1,0c0,0.1,0,0.2,0,0.2
					c0,0.3-0.2,0.7-0.2,1.1c-0.2,0.3-0.4,0.6-0.6,1.1c-0.2,0.3-0.3,0.5-0.5,0.7c-0.1,0.2-0.3,0.4-0.4,0.7c-0.1,0.2-0.3,0.4-0.4,0.6
					c-0.1,0.2-0.2,0.4-0.3,0.5c-0.1,0.1-0.1,0.2-0.2,0.3c-0.1,0.1-0.1,0.2-0.2,0.4c0,0.1-0.1,0.2-0.1,0.3c0,0.1-0.1,0.2-0.1,0.4
					c0,0.1-0.1,0.2-0.2,0.3c-0.1,0.1-0.2,0.3-0.3,0.6c-0.1,0.1-0.1,0.2-0.2,0.3c-0.1,0.1-0.1,0.2-0.2,0.3c-0.1,0.1-0.1,0.2-0.1,0.2
					c0,0.1-0.1,0.1-0.1,0.2c0,0.1-0.1,0.2-0.1,0.3c-0.1,0.1-0.2,0.3-0.3,0.5c-0.1,0.2-0.2,0.4-0.3,0.5c-0.1,0.1-0.1,0.2-0.1,0.3
					l-0.1,0.1l0.1,0.2c0.1,0.1,0.3,0.2,0.5,0.2c0.2,0,0.4,0.1,0.6,0.1c0.2,0,0.3,0,0.4-0.1c0.1-0.1,0.2-0.1,0.3-0.2
					c0.2-0.3,0.4-0.7,0.6-1c0.2-0.3,0.5-0.7,0.7-1c0,0,0,0,0-0.1c0,0,0-0.1,0-0.1c0-0.1,0.1-0.1,0.1-0.2c0-0.1,0.1-0.2,0.1-0.3
					c0-0.1,0.1-0.2,0.1-0.2c0-0.1,0.1-0.1,0.1-0.2c0,0,0-0.1,0.1-0.1c0,0,0-0.1,0-0.1c0.2-0.3,0.4-0.6,0.6-1c0.2-0.3,0.4-0.7,0.6-1
					c0.2-0.3,0.4-0.6,0.5-0.8c0.1-0.2,0.3-0.4,0.4-0.5c0.1,0,0.1,0.1,0.2,0.1c0,0,0.1,0.1,0.1,0.1c0,0,0,0,0,0c0,0,0,0,0.1,0.1
					c0,0,0,0.1,0.1,0.1c0,0,0,0.1,0.1,0.1c0,0,0.1,0.1,0.1,0.3c0.1,0.1,0.2,0.3,0.3,0.5c0.1,0.2,0.3,0.5,0.4,0.8
					c0.2,0.3,0.4,0.6,0.6,1c0.1,0.3,0.3,0.6,0.4,0.8c0.1,0.2,0.3,0.5,0.5,0.7c0.1,0.1,0.1,0.2,0.2,0.4c0.1,0.1,0.2,0.2,0.2,0.3
					c0.1,0.2,0.3,0.5,0.4,0.7c0.1,0.2,0.2,0.4,0.3,0.6c0,0,0.1,0.1,0.1,0.1c0.1,0,0.2,0.1,0.3,0.1c0.1,0.1,0.2,0.1,0.3,0.1
					c0.1,0,0.1,0,0.2,0c0,0,0.1,0,0.1,0c0,0,0.1,0,0.1-0.1h0.2c0.1,0,0.2-0.1,0.2-0.2c0.1-0.1,0.1-0.1,0.2-0.2
					c0.1-0.1,0.1-0.1,0.2-0.2c0-0.1,0.1-0.1,0.1-0.2c0,0,0-0.1,0-0.1C55.4,32.7,55.3,32.7,55.3,32.6"/>
				<path id="XMLID_21_" class="st5" d="M58.4,34.2c0-0.1,0-0.2,0-0.3c0-0.1,0-0.2,0-0.4c-0.1-0.4-0.1-0.8-0.1-1.1
					c0-0.3,0-0.5,0-0.7v-0.1c0,0,0-0.1,0-0.2c0-0.1,0-0.1,0-0.2c0-0.1,0-0.2,0.1-0.3c0-0.1,0-0.2,0-0.3c0-0.1,0-0.2,0-0.3
					c0-0.1,0-0.2,0-0.2c0-0.1,0-0.1,0-0.2c0,0,0-0.1,0-0.1c0-0.1,0-0.1,0-0.2c0-0.1,0-0.2,0-0.3c0-0.1,0-0.2-0.1-0.4
					c0-0.1-0.1-0.2-0.1-0.3c0-0.1,0-0.2,0-0.3v-1.7c0-0.1,0-0.1,0-0.2c0-0.1,0-0.2,0.1-0.4c0-0.1,0-0.1,0-0.2c0-0.1,0-0.1,0-0.2
					c0-0.1,0-0.1,0-0.2c0,0,0-0.1,0-0.1c0-0.1,0-0.1,0-0.2c0-0.1,0-0.2,0-0.3c0-0.1,0-0.2,0-0.3c0-0.1,0-0.2,0-0.4
					c0-0.2-0.1-0.5-0.1-0.7c0-0.2,0-0.4,0-0.5v-0.5c0-0.3,0-0.6,0-1.1c0-0.4,0-0.8,0.1-1.2c0-0.3,0-0.7,0-0.9c0-0.1,0-0.2-0.1-0.3
					c-0.1-0.1-0.2-0.2-0.3-0.2c-0.1,0-0.3-0.1-0.5-0.1c-0.2,0-0.3-0.1-0.5-0.1c-0.1,0-0.2,0-0.2,0c-0.1,0-0.1,0-0.2,0
					c-0.1,0.2-0.1,0.5-0.2,0.7c0,0.2-0.1,0.4-0.1,0.6c0,0.2,0,0.9,0,2c0,1.2,0,2.8,0.1,4.9v0.9v1c0,0.3,0,0.7,0,1.1
					c0,0.4,0,0.8,0,1.2c0,2.1,0,3.2,0,3.4c0,0.1,0,0.3,0.1,0.5v0.1v0.1c0,0,0,0.1,0,0.1c0,0,0,0.1,0,0.1c0,0.2,0,0.3,0,0.4
					c0,0.1,0,0.2,0.1,0.2c0,0,0.1,0.1,0.2,0.1c0.1,0,0.1,0,0.2,0h0.1l0.2,0.2l0.5,0.1c0.1,0,0.2,0,0.3,0c0.1,0,0.1-0.1,0.2-0.1
					c0.1-0.1,0.1-0.2,0.2-0.3c0-0.1,0.1-0.2,0.1-0.3c0-0.1,0-0.2,0-0.3c0-0.1,0-0.3,0-0.4v-0.5c0,0,0-0.1,0-0.2
					C58.4,34.4,58.4,34.3,58.4,34.2"/>
				<path id="XMLID_20_" class="st5" d="M61.9,26.9c-0.1-0.1-0.2-0.3-0.3-0.4c-0.2-0.1-0.3-0.2-0.5-0.3c-0.2-0.1-0.3-0.1-0.5-0.1
					c-0.3,0-0.6,0-0.8,0.1c-0.2,0.1-0.4,0.2-0.5,0.3c-0.1,0.1-0.2,0.3-0.3,0.5s-0.1,0.5-0.1,0.8c0,0.2,0,0.4,0.1,0.6
					c0.1,0.2,0.2,0.3,0.4,0.4c0.1,0.1,0.3,0.2,0.5,0.2c0.2,0,0.4,0.1,0.7,0.1c0.2,0,0.4,0,0.6-0.1c0.2-0.1,0.3-0.2,0.5-0.4
					c0.1-0.2,0.2-0.3,0.3-0.6c0.1-0.2,0.1-0.4,0.1-0.7C62,27.2,62,27,61.9,26.9"/>
			</g>
		</g>
	</g>
</g>
</svg>
